<svg width="68" height="63" viewBox="0 0 68 63" fill="none" xmlns="http://www.w3.org/2000/svg">
<rect width="68" height="63" rx="6" fill="white"/>
<rect width="68" height="63" rx="6" fill="#E8E9EA" fill-opacity="0.48"/>
<path d="M8.19888 46H9.72888L6.91188 39.7H5.47188L2.66388 46H4.15788L4.71588 44.65H7.64088L8.19888 46ZM5.18388 43.543L6.18288 41.131L7.18188 43.543H5.18388Z" fill="#18418C"/>
<path d="M13.0465 41.086C12.3895 41.086 11.8225 41.311 11.4445 41.725V41.158H10.1035V46H11.5075V43.606C11.5075 42.715 11.9935 42.301 12.6685 42.301C13.2895 42.301 13.6495 42.661 13.6495 43.444V46H15.0535V43.228C15.0535 41.752 14.1895 41.086 13.0465 41.086Z" fill="#18418C"/>
<path d="M18.8912 44.776C18.7382 44.893 18.5312 44.956 18.3242 44.956C17.9462 44.956 17.7212 44.731 17.7212 44.317V42.346H18.9272V41.266H17.7212V40.087H16.3172V41.266H15.5702V42.346H16.3172V44.335C16.3172 45.487 16.9832 46.072 18.1262 46.072C18.5582 46.072 18.9812 45.973 19.2692 45.766L18.8912 44.776Z" fill="#18418C"/>
<path d="M20.5793 40.483C21.1013 40.483 21.4523 40.141 21.4523 39.673C21.4523 39.241 21.1013 38.917 20.5793 38.917C20.0573 38.917 19.7063 39.259 19.7063 39.7C19.7063 40.141 20.0573 40.483 20.5793 40.483ZM19.8773 46H21.2813V41.158H19.8773V46Z" fill="#18418C"/>
<path d="M25.2663 41.086C24.6633 41.086 24.1683 41.275 23.8083 41.671V39.322H22.4043V46H23.7453V45.442C24.0963 45.865 24.6183 46.072 25.2663 46.072C26.6253 46.072 27.6783 45.1 27.6783 43.579C27.6783 42.058 26.6253 41.086 25.2663 41.086ZM25.0233 44.92C24.3213 44.92 23.7903 44.416 23.7903 43.579C23.7903 42.742 24.3213 42.238 25.0233 42.238C25.7253 42.238 26.2563 42.742 26.2563 43.579C26.2563 44.416 25.7253 44.92 25.0233 44.92Z" fill="#18418C"/>
<path d="M29.1402 40.483C29.6622 40.483 30.0132 40.141 30.0132 39.673C30.0132 39.241 29.6622 38.917 29.1402 38.917C28.6182 38.917 28.2672 39.259 28.2672 39.7C28.2672 40.141 28.6182 40.483 29.1402 40.483ZM28.4382 46H29.8422V41.158H28.4382V46Z" fill="#18418C"/>
<path d="M32.4322 40.537H33.5302L35.1592 39.241H33.6472L32.4322 40.537ZM33.2692 46.072C34.8082 46.072 35.9242 45.037 35.9242 43.579C35.9242 42.121 34.8082 41.086 33.2692 41.086C31.7302 41.086 30.6052 42.121 30.6052 43.579C30.6052 45.037 31.7302 46.072 33.2692 46.072ZM33.2692 44.92C32.5672 44.92 32.0272 44.416 32.0272 43.579C32.0272 42.742 32.5672 42.238 33.2692 42.238C33.9712 42.238 34.5022 42.742 34.5022 43.579C34.5022 44.416 33.9712 44.92 33.2692 44.92Z" fill="#18418C"/>
<path d="M39.4277 44.776C39.2747 44.893 39.0677 44.956 38.8607 44.956C38.4827 44.956 38.2577 44.731 38.2577 44.317V42.346H39.4637V41.266H38.2577V40.087H36.8537V41.266H36.1067V42.346H36.8537V44.335C36.8537 45.487 37.5197 46.072 38.6627 46.072C39.0947 46.072 39.5177 45.973 39.8057 45.766L39.4277 44.776Z" fill="#18418C"/>
<path d="M41.1158 40.483C41.6378 40.483 41.9888 40.141 41.9888 39.673C41.9888 39.241 41.6378 38.917 41.1158 38.917C40.5938 38.917 40.2428 39.259 40.2428 39.7C40.2428 40.141 40.5938 40.483 41.1158 40.483ZM40.4138 46H41.8178V41.158H40.4138V46Z" fill="#18418C"/>
<path d="M45.2808 46.072C46.2978 46.072 47.0988 45.622 47.4498 44.848L46.3608 44.254C46.0998 44.722 45.7128 44.92 45.2718 44.92C44.5608 44.92 44.0028 44.425 44.0028 43.579C44.0028 42.733 44.5608 42.238 45.2718 42.238C45.7128 42.238 46.0998 42.445 46.3608 42.904L47.4498 42.319C47.0988 41.527 46.2978 41.086 45.2808 41.086C43.7058 41.086 42.5808 42.121 42.5808 43.579C42.5808 45.037 43.7058 46.072 45.2808 46.072Z" fill="#18418C"/>
<path d="M50.3207 46.072C51.8597 46.072 52.9757 45.037 52.9757 43.579C52.9757 42.121 51.8597 41.086 50.3207 41.086C48.7817 41.086 47.6567 42.121 47.6567 43.579C47.6567 45.037 48.7817 46.072 50.3207 46.072ZM50.3207 44.92C49.6187 44.92 49.0787 44.416 49.0787 43.579C49.0787 42.742 49.6187 42.238 50.3207 42.238C51.0227 42.238 51.5537 42.742 51.5537 43.579C51.5537 44.416 51.0227 44.92 50.3207 44.92Z" fill="#18418C"/>
<path d="M55.3632 46.072C56.8122 46.072 57.6492 45.433 57.6492 44.533C57.6492 42.625 54.7242 43.426 54.7242 42.598C54.7242 42.346 54.9942 42.148 55.6242 42.148C56.0652 42.148 56.5422 42.238 57.0192 42.508L57.4872 41.509C57.0282 41.239 56.2902 41.086 55.6242 41.086C54.2112 41.086 53.3832 41.734 53.3832 42.652C53.3832 44.587 56.3082 43.777 56.3082 44.569C56.3082 44.839 56.0652 45.01 55.4172 45.01C54.8232 45.01 54.1662 44.821 53.7342 44.542L53.2662 45.55C53.7162 45.847 54.5442 46.072 55.3632 46.072Z" fill="#18418C"/>
<path d="M64.1602 41.158L62.7922 44.443L61.4332 41.158H59.9842L62.0812 46.036L62.0632 46.081C61.8742 46.513 61.6582 46.684 61.2712 46.684C60.9922 46.684 60.6952 46.567 60.4792 46.378L59.9662 47.377C60.2812 47.656 60.8212 47.818 61.3162 47.818C62.1892 47.818 62.8552 47.467 63.3232 46.297L65.5102 41.158H64.1602Z" fill="#18418C"/>
<path d="M10.7809 57H12.3109L9.49393 50.7H8.05393L5.24593 57H6.73993L7.29793 55.65H10.2229L10.7809 57ZM7.76593 54.543L8.76493 52.131L9.76393 54.543H7.76593Z" fill="#18418C"/>
<path d="M15.6286 52.086C14.9716 52.086 14.4046 52.311 14.0266 52.725V52.158H12.6856V57H14.0896V54.606C14.0896 53.715 14.5756 53.301 15.2506 53.301C15.8716 53.301 16.2316 53.661 16.2316 54.444V57H17.6356V54.228C17.6356 52.752 16.7716 52.086 15.6286 52.086Z" fill="#18418C"/>
<path d="M20.6812 52.086C19.9072 52.086 19.1242 52.293 18.5932 52.671L19.0972 53.652C19.4482 53.373 19.9792 53.202 20.4922 53.202C21.2482 53.202 21.6082 53.553 21.6082 54.156H20.4922C19.0162 54.156 18.4132 54.75 18.4132 55.605C18.4132 56.442 19.0882 57.072 20.2222 57.072C20.9332 57.072 21.4372 56.838 21.6982 56.397V57H23.0122V54.237C23.0122 52.77 22.1572 52.086 20.6812 52.086ZM20.5732 56.127C20.0782 56.127 19.7812 55.893 19.7812 55.542C19.7812 55.218 19.9882 54.975 20.6452 54.975H21.6082V55.47C21.4462 55.911 21.0412 56.127 20.5732 56.127Z" fill="#18418C"/>
<path d="M24.1029 57H25.5069V50.322H24.1029V57Z" fill="#18418C"/>
<path d="M30.2929 52.158V52.779C29.9239 52.311 29.3659 52.086 28.6909 52.086C27.3499 52.086 26.2699 53.013 26.2699 54.426C26.2699 55.839 27.3499 56.766 28.6909 56.766C29.3209 56.766 29.8519 56.568 30.2209 56.163V56.37C30.2209 57.243 29.7889 57.693 28.7989 57.693C28.1779 57.693 27.5029 57.477 27.0889 57.144L26.5309 58.152C27.0979 58.593 27.9889 58.818 28.9069 58.818C30.6529 58.818 31.6249 57.99 31.6249 56.19V52.158H30.2929ZM28.9699 55.614C28.2319 55.614 27.6919 55.137 27.6919 54.426C27.6919 53.715 28.2319 53.238 28.9699 53.238C29.7079 53.238 30.2389 53.715 30.2389 54.426C30.2389 55.137 29.7079 55.614 28.9699 55.614Z" fill="#18418C"/>
<path d="M36.8557 50.241H35.3437L34.1287 51.537H35.2267L36.8557 50.241ZM37.4947 54.597C37.4947 53.04 36.3967 52.086 34.9747 52.086C33.4987 52.086 32.3917 53.13 32.3917 54.579C32.3917 56.019 33.4807 57.072 35.1547 57.072C36.0277 57.072 36.7027 56.802 37.1527 56.289L36.4057 55.479C36.0727 55.794 35.7037 55.947 35.1907 55.947C34.4527 55.947 33.9397 55.578 33.8047 54.975H37.4677C37.4767 54.858 37.4947 54.705 37.4947 54.597ZM34.9837 53.148C35.6137 53.148 36.0727 53.544 36.1717 54.156H33.7867C33.8857 53.535 34.3447 53.148 34.9837 53.148Z" fill="#18418C"/>
<path d="M39.8784 57.072C41.3274 57.072 42.1644 56.433 42.1644 55.533C42.1644 53.625 39.2394 54.426 39.2394 53.598C39.2394 53.346 39.5094 53.148 40.1394 53.148C40.5804 53.148 41.0574 53.238 41.5344 53.508L42.0024 52.509C41.5434 52.239 40.8054 52.086 40.1394 52.086C38.7264 52.086 37.8984 52.734 37.8984 53.652C37.8984 55.587 40.8234 54.777 40.8234 55.569C40.8234 55.839 40.5804 56.01 39.9324 56.01C39.3384 56.01 38.6814 55.821 38.2494 55.542L37.7814 56.55C38.2314 56.847 39.0594 57.072 39.8784 57.072Z" fill="#18418C"/>
<path d="M43.5527 51.483C44.0747 51.483 44.4257 51.141 44.4257 50.673C44.4257 50.241 44.0747 49.917 43.5527 49.917C43.0307 49.917 42.6797 50.259 42.6797 50.7C42.6797 51.141 43.0307 51.483 43.5527 51.483ZM42.8507 57H44.2547V52.158H42.8507V57Z" fill="#18418C"/>
<path d="M47.7177 57.072C48.7347 57.072 49.5357 56.622 49.8867 55.848L48.7977 55.254C48.5367 55.722 48.1497 55.92 47.7087 55.92C46.9977 55.92 46.4397 55.425 46.4397 54.579C46.4397 53.733 46.9977 53.238 47.7087 53.238C48.1497 53.238 48.5367 53.445 48.7977 53.904L49.8867 53.319C49.5357 52.527 48.7347 52.086 47.7177 52.086C46.1427 52.086 45.0177 53.121 45.0177 54.579C45.0177 56.037 46.1427 57.072 47.7177 57.072Z" fill="#18418C"/>
<path d="M52.7576 57.072C54.2966 57.072 55.4126 56.037 55.4126 54.579C55.4126 53.121 54.2966 52.086 52.7576 52.086C51.2186 52.086 50.0936 53.121 50.0936 54.579C50.0936 56.037 51.2186 57.072 52.7576 57.072ZM52.7576 55.92C52.0556 55.92 51.5156 55.416 51.5156 54.579C51.5156 53.742 52.0556 53.238 52.7576 53.238C53.4596 53.238 53.9906 53.742 53.9906 54.579C53.9906 55.416 53.4596 55.92 52.7576 55.92Z" fill="#18418C"/>
<path d="M57.8 57.072C59.249 57.072 60.086 56.433 60.086 55.533C60.086 53.625 57.161 54.426 57.161 53.598C57.161 53.346 57.431 53.148 58.061 53.148C58.502 53.148 58.979 53.238 59.456 53.508L59.924 52.509C59.465 52.239 58.727 52.086 58.061 52.086C56.648 52.086 55.82 52.734 55.82 53.652C55.82 55.587 58.745 54.777 58.745 55.569C58.745 55.839 58.502 56.01 57.854 56.01C57.26 56.01 56.603 55.821 56.171 55.542L55.703 56.55C56.153 56.847 56.981 57.072 57.8 57.072Z" fill="#18418C"/>
<path d="M48.2756 15.6171C48.229 15.5696 48.1734 15.5319 48.112 15.5062C48.0506 15.4805 47.9847 15.4673 47.9181 15.4675H35.4534C35.3868 15.4675 35.3208 15.4808 35.2594 15.5068C35.1979 15.5327 35.1423 15.5707 35.0959 15.6185C35.0494 15.6663 35.0129 15.7229 34.9887 15.785C34.9645 15.8471 34.953 15.9134 34.9548 15.9801L35.44 32.9465C35.4461 33.2064 35.554 33.4536 35.7405 33.6347C35.927 33.8159 36.1772 33.9166 36.4371 33.9153H46.9349C47.1949 33.9166 47.4451 33.8159 47.6315 33.6347C47.818 33.4536 47.9259 33.2064 47.9321 32.9465L48.4167 15.9801C48.4187 15.9132 48.4073 15.8466 48.3831 15.7842C48.3588 15.7219 48.3223 15.665 48.2756 15.6171V15.6171ZM47.4051 16.4647L47.2366 22.366C46.9139 22.2738 46.601 22.1504 46.3022 21.9975C45.5148 21.5985 44.6444 21.3905 43.7616 21.3905C42.8789 21.3905 42.0085 21.5985 41.2211 21.9975C40.5745 22.3521 39.8452 22.5281 39.1081 22.5076C38.3702 22.5293 37.6399 22.3538 36.9926 21.999C36.7088 21.8553 36.4152 21.7317 36.1141 21.6291L35.9665 16.4647H47.4051ZM36.4362 32.9181L36.4217 32.4195H44.428V31.4223H36.3938L36.1445 22.705C36.2856 22.7649 36.4222 22.8292 36.5603 22.8955C37.343 23.3143 38.2206 23.5241 39.1081 23.5048C39.9938 23.5237 40.8696 23.3142 41.6509 22.8965C42.3037 22.5622 43.0265 22.3879 43.7599 22.3879C44.4933 22.3879 45.2162 22.5622 45.8689 22.8965C46.2923 23.1139 46.7414 23.2771 47.2056 23.3821L46.9783 31.4223H45.4252V32.4195H46.9499L46.9354 32.9181H36.4362Z" fill="#18418C"/>
<path d="M37.9463 17.4619H36.9492V19.4562H37.9463V17.4619Z" fill="#18418C"/>
<path d="M37.9463 20.4534H36.9492V21.4505H37.9463V20.4534Z" fill="#18418C"/>
<path d="M27.9746 17.4619H26.9774V16.4647C26.9774 16.3325 26.9249 16.2057 26.8314 16.1122C26.7379 16.0187 26.611 15.9661 26.4788 15.9661H24.4845C24.3522 15.9661 24.2254 16.0187 24.1319 16.1122C24.0384 16.2057 23.9859 16.3325 23.9859 16.4647V17.4619H22.9887C22.8565 17.4619 22.7296 17.5144 22.6361 17.6079C22.5426 17.7014 22.4901 17.8282 22.4901 17.9605V19.9548C22.4901 20.0871 22.5426 20.2139 22.6361 20.3074C22.7296 20.4009 22.8565 20.4534 22.9887 20.4534H23.9859V21.4506C23.9859 21.5828 24.0384 21.7096 24.1319 21.8031C24.2254 21.8966 24.3522 21.9492 24.4845 21.9492H26.4788C26.611 21.9492 26.7379 21.8966 26.8314 21.8031C26.9249 21.7096 26.9774 21.5828 26.9774 21.4506V20.4534H27.9746C28.1068 20.4534 28.2336 20.4009 28.3271 20.3074C28.4206 20.2139 28.4732 20.0871 28.4732 19.9548V17.9605C28.4732 17.8282 28.4206 17.7014 28.3271 17.6079C28.2336 17.5144 28.1068 17.4619 27.9746 17.4619ZM27.476 19.4562H26.4788C26.3466 19.4562 26.2198 19.5088 26.1263 19.6023C26.0328 19.6958 25.9802 19.8226 25.9802 19.9548V20.952H24.983V19.9548C24.983 19.8226 24.9305 19.6958 24.837 19.6023C24.7435 19.5088 24.6167 19.4562 24.4845 19.4562H23.4873V18.4591H24.4845C24.6167 18.4591 24.7435 18.4065 24.837 18.313C24.9305 18.2195 24.983 18.0927 24.983 17.9605V16.9633H25.9802V17.9605C25.9802 18.0927 26.0328 18.2195 26.1263 18.313C26.2198 18.4065 26.3466 18.4591 26.4788 18.4591H27.476V19.4562Z" fill="#18418C"/>
<path d="M31.4647 26.9351C30.7744 26.9351 30.0996 27.1398 29.5257 27.5232C28.9517 27.9067 28.5044 28.4518 28.2402 29.0896C27.9761 29.7273 27.9069 30.429 28.0416 31.1061C28.1763 31.7831 28.5087 32.405 28.9968 32.8931C29.4849 33.3812 30.1068 33.7136 30.7838 33.8482C31.4608 33.9829 32.1625 33.9138 32.8003 33.6496C33.438 33.3855 33.9831 32.9381 34.3666 32.3642C34.7501 31.7902 34.9548 31.1154 34.9548 30.4252C34.9537 29.4999 34.5857 28.6127 33.9314 27.9585C33.2771 27.3042 32.39 26.9361 31.4647 26.9351V26.9351ZM31.4647 32.9181C30.9716 32.9181 30.4896 32.7719 30.0797 32.498C29.6697 32.224 29.3502 31.8347 29.1615 31.3792C28.9728 30.9237 28.9234 30.4224 29.0196 29.9388C29.1158 29.4552 29.3532 29.011 29.7019 28.6624C30.0505 28.3138 30.4947 28.0763 30.9783 27.9801C31.4619 27.8839 31.9631 27.9333 32.4187 28.122C32.8742 28.3107 33.2635 28.6302 33.5375 29.0402C33.8114 29.4501 33.9576 29.9321 33.9576 30.4252C33.9568 31.0861 33.6939 31.7197 33.2266 32.1871C32.7592 32.6544 32.1256 32.9173 31.4647 32.9181V32.9181Z" fill="#18418C"/>
<path d="M33.459 29.9266H29.4703V30.9237H33.459V29.9266Z" fill="#18418C"/>
<path d="M30.1534 11.0849L29.5601 10.9154C29.2471 10.8257 28.9718 10.6366 28.7757 10.3767C28.5796 10.1167 28.4734 9.80008 28.4732 9.47449V7.9887H28.9717C29.104 7.9887 29.2308 7.93617 29.3243 7.84267C29.4178 7.74916 29.4703 7.62235 29.4703 7.49011V4.49859C29.4703 4.36635 29.4178 4.23954 29.3243 4.14603C29.2308 4.05253 29.104 4 28.9717 4H21.9915C21.8593 4 21.7325 4.05253 21.639 4.14603C21.5455 4.23954 21.4929 4.36635 21.4929 4.49859V7.49011C21.4929 7.62235 21.5455 7.74916 21.639 7.84267C21.7325 7.93617 21.8593 7.9887 21.9915 7.9887H22.4901V9.47449C22.4898 9.80008 22.3836 10.1167 22.1876 10.3767C21.9915 10.6366 21.7162 10.8257 21.4032 10.9154L20.8099 11.0849C20.2894 11.2351 19.8316 11.55 19.5053 11.9824C19.1789 12.4148 19.0016 12.9414 19 13.4831V25.4393C19.0012 25.8356 19.1592 26.2154 19.4394 26.4956C19.7197 26.7759 20.0994 26.9338 20.4958 26.935H21.5328C21.4545 27.4718 21.5025 28.0195 21.673 28.5345C21.8435 29.0495 22.1318 29.5176 22.515 29.9016C22.525 29.9116 22.535 29.9166 22.545 29.9266H20.9943C20.4654 29.9266 19.9581 30.1367 19.5841 30.5107C19.2101 30.8847 19 31.392 19 31.9209C19 32.4498 19.2101 32.9571 19.5841 33.3311C19.9581 33.7051 20.4654 33.9153 20.9943 33.9153H24.983C25.3689 33.9167 25.7468 33.8059 26.0706 33.5962C26.3945 33.3864 26.6503 33.087 26.8068 32.7343C26.9633 32.3817 27.0137 31.9911 26.9519 31.6102C26.8902 31.2294 26.7188 30.8748 26.4589 30.5897C26.8279 30.4211 27.1638 30.1881 27.4511 29.9016C27.8343 29.5176 28.1226 29.0495 28.2931 28.5345C28.4636 28.0195 28.5116 27.4718 28.4333 26.935H30.4675C30.8638 26.9338 31.2436 26.7759 31.5239 26.4956C31.8041 26.2154 31.9621 25.8356 31.9633 25.4393V13.4831C31.9616 12.9414 31.7843 12.4148 31.458 11.9824C31.1317 11.55 30.6739 11.2351 30.1534 11.0849V11.0849ZM22.4901 32.9181H20.9943C20.7299 32.9181 20.4762 32.813 20.2892 32.626C20.1022 32.439 19.9972 32.1854 19.9972 31.9209C19.9972 31.6564 20.1022 31.4028 20.2892 31.2158C20.4762 31.0288 20.7299 30.9237 20.9943 30.9237H22.4901V32.9181ZM22.4901 4.99718H28.4732V6.99153H22.4901V4.99718ZM24.983 32.9181H23.4873V30.9237H24.983C25.2475 30.9237 25.5012 31.0288 25.6882 31.2158C25.8752 31.4028 25.9802 31.6564 25.9802 31.9209C25.9802 32.1854 25.8752 32.439 25.6882 32.626C25.5012 32.813 25.2475 32.9181 24.983 32.9181ZM27.0622 28.8097L24.983 26.7256L24.2751 27.4336L26.3592 29.5127C25.8797 29.8305 25.3052 29.9727 24.7329 29.9152C24.1606 29.8578 23.6258 29.6042 23.2191 29.1975C22.8124 28.7908 22.5589 28.256 22.5014 27.6837C22.444 27.1115 22.5862 26.5369 22.9039 26.0575L23.572 26.7306L24.28 26.0226L23.6069 25.3545C24.0864 25.0368 24.6609 24.8945 25.2332 24.952C25.8055 25.0094 26.3403 25.263 26.747 25.6697C27.1537 26.0764 27.4072 26.6112 27.4647 27.1835C27.5221 27.7558 27.3799 28.3303 27.0622 28.8097V28.8097ZM30.9661 25.4393C30.9661 25.5715 30.9136 25.6983 30.8201 25.7918C30.7266 25.8853 30.5997 25.9379 30.4675 25.9379H28.1341C27.9622 25.578 27.7313 25.2494 27.4511 24.9656C27.127 24.6415 26.7422 24.3844 26.3187 24.209C25.8953 24.0335 25.4414 23.9432 24.983 23.9432C24.5247 23.9432 24.0708 24.0335 23.6474 24.209C23.2239 24.3844 22.8391 24.6415 22.515 24.9656C22.2348 25.2494 22.0039 25.578 21.832 25.9379H20.4958C20.3635 25.9379 20.2367 25.8853 20.1432 25.7918C20.0497 25.6983 19.9972 25.5715 19.9972 25.4393V23.9435H30.9661V25.4393ZM30.9661 22.9463H19.9972V14.9689H30.9661V22.9463ZM30.9661 13.9718H19.9972V13.4831C19.9975 13.1575 20.1036 12.8409 20.2997 12.5809C20.4958 12.321 20.7711 12.1319 21.0841 12.0422L21.6774 11.8727C22.1979 11.7225 22.6557 11.4076 22.982 10.9752C23.3084 10.5428 23.4856 10.0162 23.4873 9.47449V7.9887H27.476V9.47449C27.4776 10.0162 27.6549 10.5428 27.9813 10.9752C28.3076 11.4076 28.7654 11.7225 29.2859 11.8727L29.8792 12.0422C30.1922 12.1319 30.4675 12.321 30.6636 12.5809C30.8596 12.8409 30.9658 13.1575 30.9661 13.4831V13.9718Z" fill="#18418C"/>
</svg>
