<svg width="68" height="63" viewBox="0 0 68 63" fill="none" xmlns="http://www.w3.org/2000/svg">
<rect width="68" height="63" rx="6" fill="white"/>
<rect width="68" height="63" rx="6" fill="#E8E9EA" fill-opacity="0.48"/>
<path d="M12.6067 40.7L10.6627 45.2L8.74572 40.7H7.17072L9.88872 47H11.3287L14.0557 40.7H12.6067Z" fill="#18418C"/>
<path d="M15.0926 41.483C15.6146 41.483 15.9656 41.141 15.9656 40.673C15.9656 40.241 15.6146 39.917 15.0926 39.917C14.5706 39.917 14.2196 40.259 14.2196 40.7C14.2196 41.141 14.5706 41.483 15.0926 41.483ZM14.3906 47H15.7946V42.158H14.3906V47Z" fill="#18418C"/>
<path d="M19.6626 45.776C19.5096 45.893 19.3026 45.956 19.0956 45.956C18.7176 45.956 18.4926 45.731 18.4926 45.317V43.346H19.6986V42.266H18.4926V41.087H17.0886V42.266H16.3416V43.346H17.0886V45.335C17.0886 46.487 17.7546 47.072 18.8976 47.072C19.3296 47.072 19.7526 46.973 20.0406 46.766L19.6626 45.776Z" fill="#18418C"/>
<path d="M22.6018 42.086C21.8278 42.086 21.0448 42.293 20.5138 42.671L21.0178 43.652C21.3688 43.373 21.8998 43.202 22.4128 43.202C23.1688 43.202 23.5288 43.553 23.5288 44.156H22.4128C20.9368 44.156 20.3338 44.75 20.3338 45.605C20.3338 46.442 21.0088 47.072 22.1428 47.072C22.8538 47.072 23.3578 46.838 23.6188 46.397V47H24.9328V44.237C24.9328 42.77 24.0778 42.086 22.6018 42.086ZM22.4938 46.127C21.9988 46.127 21.7018 45.893 21.7018 45.542C21.7018 45.218 21.9088 44.975 22.5658 44.975H23.5288V45.47C23.3668 45.911 22.9618 46.127 22.4938 46.127Z" fill="#18418C"/>
<path d="M32.2245 42.086C31.4955 42.086 30.8655 42.383 30.4785 42.878C30.1365 42.347 29.5605 42.086 28.8855 42.086C28.2645 42.086 27.7245 42.302 27.3645 42.716V42.158H26.0235V47H27.4275V44.57C27.4275 43.706 27.8685 43.301 28.4895 43.301C29.0745 43.301 29.4075 43.661 29.4075 44.444V47H30.8115V44.57C30.8115 43.706 31.2525 43.301 31.8825 43.301C32.4495 43.301 32.8005 43.661 32.8005 44.444V47H34.2045V44.228C34.2045 42.752 33.3765 42.086 32.2245 42.086Z" fill="#18418C"/>
<path d="M35.9849 41.483C36.5069 41.483 36.8579 41.141 36.8579 40.673C36.8579 40.241 36.5069 39.917 35.9849 39.917C35.4629 39.917 35.1119 40.259 35.1119 40.7C35.1119 41.141 35.4629 41.483 35.9849 41.483ZM35.2829 47H36.6869V42.158H35.2829V47Z" fill="#18418C"/>
<path d="M40.7529 42.086C40.0959 42.086 39.5289 42.311 39.1509 42.725V42.158H37.8099V47H39.214V44.606C39.214 43.715 39.7 43.301 40.375 43.301C40.996 43.301 41.3559 43.661 41.3559 44.444V47H42.7599V44.228C42.7599 42.752 41.8959 42.086 40.7529 42.086Z" fill="#18418C"/>
<path d="M45.8056 42.086C45.0316 42.086 44.2486 42.293 43.7176 42.671L44.2216 43.652C44.5726 43.373 45.1036 43.202 45.6166 43.202C46.3726 43.202 46.7326 43.553 46.7326 44.156H45.6166C44.1406 44.156 43.5376 44.75 43.5376 45.605C43.5376 46.442 44.2126 47.072 45.3466 47.072C46.0576 47.072 46.5616 46.838 46.8226 46.397V47H48.1366V44.237C48.1366 42.77 47.2816 42.086 45.8056 42.086ZM45.6976 46.127C45.2026 46.127 44.9056 45.893 44.9056 45.542C44.9056 45.218 45.1126 44.975 45.7696 44.975H46.7326V45.47C46.5706 45.911 46.1656 46.127 45.6976 46.127Z" fill="#18418C"/>
<path d="M50.8563 47.072C52.3053 47.072 53.1423 46.433 53.1423 45.533C53.1423 43.625 50.2173 44.426 50.2173 43.598C50.2173 43.346 50.4873 43.148 51.1173 43.148C51.5583 43.148 52.0353 43.238 52.5123 43.508L52.9803 42.509C52.5213 42.239 51.7833 42.086 51.1173 42.086C49.7043 42.086 48.8763 42.734 48.8763 43.652C48.8763 45.587 51.8013 44.777 51.8013 45.569C51.8013 45.839 51.5583 46.01 50.9103 46.01C50.3163 46.01 49.6593 45.821 49.2273 45.542L48.7593 46.55C49.2093 46.847 50.0373 47.072 50.8563 47.072Z" fill="#18418C"/>
<path d="M59.6534 42.158L58.2854 45.443L56.9264 42.158H55.4774L57.5744 47.036L57.5564 47.081C57.3674 47.513 57.1514 47.684 56.7644 47.684C56.4854 47.684 56.1884 47.567 55.9724 47.378L55.4594 48.377C55.7744 48.656 56.3144 48.818 56.8094 48.818C57.6824 48.818 58.3484 48.467 58.8164 47.297L61.0034 42.158H59.6534Z" fill="#18418C"/>
<path d="M17.0672 53.086C16.3382 53.086 15.7082 53.383 15.3212 53.878C14.9792 53.347 14.4032 53.086 13.7282 53.086C13.1072 53.086 12.5672 53.302 12.2072 53.716V53.158H10.8662V58H12.2702V55.57C12.2702 54.706 12.7112 54.301 13.3322 54.301C13.9172 54.301 14.2502 54.661 14.2502 55.444V58H15.6542V55.57C15.6542 54.706 16.0952 54.301 16.7252 54.301C17.2922 54.301 17.6432 54.661 17.6432 55.444V58H19.0472V55.228C19.0472 53.752 18.2192 53.086 17.0672 53.086Z" fill="#18418C"/>
<path d="M20.8277 52.483C21.3497 52.483 21.7007 52.141 21.7007 51.673C21.7007 51.241 21.3497 50.917 20.8277 50.917C20.3057 50.917 19.9547 51.259 19.9547 51.7C19.9547 52.141 20.3057 52.483 20.8277 52.483ZM20.1257 58H21.5297V53.158H20.1257V58Z" fill="#18418C"/>
<path d="M25.5957 53.086C24.9387 53.086 24.3717 53.311 23.9937 53.725V53.158H22.6527V58H24.0567V55.606C24.0567 54.715 24.5427 54.301 25.2177 54.301C25.8387 54.301 26.1987 54.661 26.1987 55.444V58H27.6027V55.228C27.6027 53.752 26.7387 53.086 25.5957 53.086Z" fill="#18418C"/>
<path d="M33.4911 55.597C33.4911 54.04 32.3931 53.086 30.9711 53.086C29.4951 53.086 28.3881 54.13 28.3881 55.579C28.3881 57.019 29.4771 58.072 31.1511 58.072C32.0241 58.072 32.6991 57.802 33.1491 57.289L32.4021 56.479C32.0691 56.794 31.7001 56.947 31.1871 56.947C30.4491 56.947 29.9361 56.578 29.8011 55.975H33.4641C33.4731 55.858 33.4911 55.705 33.4911 55.597ZM30.9801 54.148C31.6101 54.148 32.0691 54.544 32.1681 55.156H29.7831C29.8821 54.535 30.3411 54.148 30.9801 54.148Z" fill="#18418C"/>
<path d="M35.5868 53.797V53.158H34.2458V58H35.6498V55.714C35.6498 54.787 36.1628 54.364 36.9368 54.364C37.0448 54.364 37.1348 54.373 37.2518 54.382V53.086C36.5048 53.086 35.9288 53.329 35.5868 53.797Z" fill="#18418C"/>
<path d="M39.8333 53.086C39.0593 53.086 38.2763 53.293 37.7453 53.671L38.2493 54.652C38.6003 54.373 39.1313 54.202 39.6443 54.202C40.4003 54.202 40.7603 54.553 40.7603 55.156H39.6443C38.1683 55.156 37.5653 55.75 37.5653 56.605C37.5653 57.442 38.2403 58.072 39.3743 58.072C40.0853 58.072 40.5893 57.838 40.8503 57.397V58H42.1643V55.237C42.1643 53.77 41.3093 53.086 39.8333 53.086ZM39.7253 57.127C39.2303 57.127 38.9333 56.893 38.9333 56.542C38.9333 56.218 39.1403 55.975 39.7973 55.975H40.7603V56.47C40.5983 56.911 40.1933 57.127 39.7253 57.127Z" fill="#18418C"/>
<path d="M43.2549 58H44.6589V51.322H43.2549V58Z" fill="#18418C"/>
<path d="M50.525 55.597C50.525 54.04 49.427 53.086 48.005 53.086C46.529 53.086 45.422 54.13 45.422 55.579C45.422 57.019 46.511 58.072 48.185 58.072C49.058 58.072 49.733 57.802 50.183 57.289L49.436 56.479C49.103 56.794 48.734 56.947 48.221 56.947C47.483 56.947 46.97 56.578 46.835 55.975H50.498C50.507 55.858 50.525 55.705 50.525 55.597ZM48.014 54.148C48.644 54.148 49.103 54.544 49.202 55.156H46.817C46.916 54.535 47.375 54.148 48.014 54.148Z" fill="#18418C"/>
<path d="M52.9087 58.072C54.3577 58.072 55.1947 57.433 55.1947 56.533C55.1947 54.625 52.2697 55.426 52.2697 54.598C52.2697 54.346 52.5397 54.148 53.1697 54.148C53.6107 54.148 54.0877 54.238 54.5647 54.508L55.0327 53.509C54.5737 53.239 53.8357 53.086 53.1697 53.086C51.7567 53.086 50.9287 53.734 50.9287 54.652C50.9287 56.587 53.8537 55.777 53.8537 56.569C53.8537 56.839 53.6107 57.01 52.9627 57.01C52.3687 57.01 51.7117 56.821 51.2797 56.542L50.8117 57.55C51.2617 57.847 52.0897 58.072 52.9087 58.072Z" fill="#18418C"/>
<path d="M48.2756 16.6171C48.229 16.5696 48.1734 16.5319 48.112 16.5062C48.0506 16.4805 47.9847 16.4673 47.9181 16.4675H35.4534C35.3868 16.4675 35.3208 16.4808 35.2594 16.5068C35.1979 16.5327 35.1423 16.5707 35.0959 16.6185C35.0494 16.6663 35.0129 16.7229 34.9887 16.785C34.9645 16.8471 34.953 16.9134 34.9548 16.9801L35.44 33.9465C35.4461 34.2064 35.554 34.4536 35.7405 34.6347C35.927 34.8159 36.1772 34.9166 36.4371 34.9153H46.9349C47.1949 34.9166 47.4451 34.8159 47.6315 34.6347C47.818 34.4536 47.9259 34.2064 47.9321 33.9465L48.4167 16.9801C48.4187 16.9132 48.4073 16.8466 48.3831 16.7842C48.3588 16.7219 48.3223 16.665 48.2756 16.6171V16.6171ZM47.4051 17.4647L47.2366 23.366C46.9139 23.2738 46.601 23.1504 46.3022 22.9975C45.5148 22.5985 44.6444 22.3905 43.7616 22.3905C42.8789 22.3905 42.0085 22.5985 41.2211 22.9975C40.5745 23.3521 39.8452 23.5281 39.1081 23.5076C38.3702 23.5293 37.6399 23.3538 36.9926 22.999C36.7088 22.8553 36.4152 22.7317 36.1141 22.6291L35.9665 17.4647H47.4051ZM36.4362 33.9181L36.4217 33.4195H44.428V32.4223H36.3938L36.1445 23.705C36.2856 23.7649 36.4222 23.8292 36.5603 23.8955C37.343 24.3143 38.2206 24.5241 39.1081 24.5048C39.9938 24.5237 40.8696 24.3142 41.6509 23.8965C42.3037 23.5622 43.0265 23.3879 43.7599 23.3879C44.4933 23.3879 45.2162 23.5622 45.8689 23.8965C46.2923 24.1139 46.7414 24.2771 47.2056 24.3821L46.9783 32.4223H45.4252V33.4195H46.9499L46.9354 33.9181H36.4362Z" fill="#18418C"/>
<path d="M37.9463 18.4619H36.9492V20.4562H37.9463V18.4619Z" fill="#18418C"/>
<path d="M37.9463 21.4534H36.9492V22.4505H37.9463V21.4534Z" fill="#18418C"/>
<path d="M27.9746 18.4619H26.9774V17.4647C26.9774 17.3325 26.9249 17.2057 26.8314 17.1122C26.7379 17.0187 26.611 16.9661 26.4788 16.9661H24.4845C24.3522 16.9661 24.2254 17.0187 24.1319 17.1122C24.0384 17.2057 23.9859 17.3325 23.9859 17.4647V18.4619H22.9887C22.8565 18.4619 22.7296 18.5144 22.6361 18.6079C22.5426 18.7014 22.4901 18.8282 22.4901 18.9605V20.9548C22.4901 21.0871 22.5426 21.2139 22.6361 21.3074C22.7296 21.4009 22.8565 21.4534 22.9887 21.4534H23.9859V22.4506C23.9859 22.5828 24.0384 22.7096 24.1319 22.8031C24.2254 22.8966 24.3522 22.9492 24.4845 22.9492H26.4788C26.611 22.9492 26.7379 22.8966 26.8314 22.8031C26.9249 22.7096 26.9774 22.5828 26.9774 22.4506V21.4534H27.9746C28.1068 21.4534 28.2336 21.4009 28.3271 21.3074C28.4206 21.2139 28.4732 21.0871 28.4732 20.9548V18.9605C28.4732 18.8282 28.4206 18.7014 28.3271 18.6079C28.2336 18.5144 28.1068 18.4619 27.9746 18.4619ZM27.476 20.4562H26.4788C26.3466 20.4562 26.2198 20.5088 26.1263 20.6023C26.0328 20.6958 25.9802 20.8226 25.9802 20.9548V21.952H24.983V20.9548C24.983 20.8226 24.9305 20.6958 24.837 20.6023C24.7435 20.5088 24.6167 20.4562 24.4845 20.4562H23.4873V19.4591H24.4845C24.6167 19.4591 24.7435 19.4065 24.837 19.313C24.9305 19.2195 24.983 19.0927 24.983 18.9605V17.9633H25.9802V18.9605C25.9802 19.0927 26.0328 19.2195 26.1263 19.313C26.2198 19.4065 26.3466 19.4591 26.4788 19.4591H27.476V20.4562Z" fill="#18418C"/>
<path d="M31.4647 27.9351C30.7744 27.9351 30.0996 28.1398 29.5257 28.5232C28.9517 28.9067 28.5044 29.4518 28.2402 30.0896C27.9761 30.7273 27.9069 31.429 28.0416 32.1061C28.1763 32.7831 28.5087 33.405 28.9968 33.8931C29.4849 34.3812 30.1068 34.7136 30.7838 34.8482C31.4608 34.9829 32.1625 34.9138 32.8003 34.6496C33.438 34.3855 33.9831 33.9381 34.3666 33.3642C34.7501 32.7902 34.9548 32.1154 34.9548 31.4252C34.9537 30.4999 34.5857 29.6127 33.9314 28.9585C33.2771 28.3042 32.39 27.9361 31.4647 27.9351V27.9351ZM31.4647 33.9181C30.9716 33.9181 30.4896 33.7719 30.0797 33.498C29.6697 33.224 29.3502 32.8347 29.1615 32.3792C28.9728 31.9237 28.9234 31.4224 29.0196 30.9388C29.1158 30.4552 29.3532 30.011 29.7019 29.6624C30.0505 29.3138 30.4947 29.0763 30.9783 28.9801C31.4619 28.8839 31.9631 28.9333 32.4187 29.122C32.8742 29.3107 33.2635 29.6302 33.5375 30.0402C33.8114 30.4501 33.9576 30.9321 33.9576 31.4252C33.9568 32.0861 33.6939 32.7197 33.2266 33.1871C32.7592 33.6544 32.1256 33.9173 31.4647 33.9181V33.9181Z" fill="#18418C"/>
<path d="M33.459 30.9266H29.4703V31.9237H33.459V30.9266Z" fill="#18418C"/>
<path d="M30.1534 12.0849L29.5601 11.9154C29.2471 11.8257 28.9718 11.6366 28.7757 11.3767C28.5796 11.1167 28.4734 10.8001 28.4732 10.4745V8.9887H28.9717C29.104 8.9887 29.2308 8.93617 29.3243 8.84267C29.4178 8.74916 29.4703 8.62235 29.4703 8.49011V5.49859C29.4703 5.36635 29.4178 5.23954 29.3243 5.14603C29.2308 5.05253 29.104 5 28.9717 5H21.9915C21.8593 5 21.7325 5.05253 21.639 5.14603C21.5455 5.23954 21.4929 5.36635 21.4929 5.49859V8.49011C21.4929 8.62235 21.5455 8.74916 21.639 8.84267C21.7325 8.93617 21.8593 8.9887 21.9915 8.9887H22.4901V10.4745C22.4898 10.8001 22.3836 11.1167 22.1876 11.3767C21.9915 11.6366 21.7162 11.8257 21.4032 11.9154L20.8099 12.0849C20.2894 12.2351 19.8316 12.55 19.5053 12.9824C19.1789 13.4148 19.0016 13.9414 19 14.4831V26.4393C19.0012 26.8356 19.1592 27.2154 19.4394 27.4956C19.7197 27.7759 20.0994 27.9338 20.4958 27.935H21.5328C21.4545 28.4718 21.5025 29.0195 21.673 29.5345C21.8435 30.0495 22.1318 30.5176 22.515 30.9016C22.525 30.9116 22.535 30.9166 22.545 30.9266H20.9943C20.4654 30.9266 19.9581 31.1367 19.5841 31.5107C19.2101 31.8847 19 32.392 19 32.9209C19 33.4498 19.2101 33.9571 19.5841 34.3311C19.9581 34.7051 20.4654 34.9153 20.9943 34.9153H24.983C25.3689 34.9167 25.7468 34.8059 26.0706 34.5962C26.3945 34.3864 26.6503 34.087 26.8068 33.7343C26.9633 33.3817 27.0137 32.9911 26.9519 32.6102C26.8902 32.2294 26.7188 31.8748 26.4589 31.5897C26.8279 31.4211 27.1638 31.1881 27.4511 30.9016C27.8343 30.5176 28.1226 30.0495 28.2931 29.5345C28.4636 29.0195 28.5116 28.4718 28.4333 27.935H30.4675C30.8638 27.9338 31.2436 27.7759 31.5239 27.4956C31.8041 27.2154 31.9621 26.8356 31.9633 26.4393V14.4831C31.9616 13.9414 31.7843 13.4148 31.458 12.9824C31.1317 12.55 30.6739 12.2351 30.1534 12.0849V12.0849ZM22.4901 33.9181H20.9943C20.7299 33.9181 20.4762 33.813 20.2892 33.626C20.1022 33.439 19.9972 33.1854 19.9972 32.9209C19.9972 32.6564 20.1022 32.4028 20.2892 32.2158C20.4762 32.0288 20.7299 31.9237 20.9943 31.9237H22.4901V33.9181ZM22.4901 5.99718H28.4732V7.99153H22.4901V5.99718ZM24.983 33.9181H23.4873V31.9237H24.983C25.2475 31.9237 25.5012 32.0288 25.6882 32.2158C25.8752 32.4028 25.9802 32.6564 25.9802 32.9209C25.9802 33.1854 25.8752 33.439 25.6882 33.626C25.5012 33.813 25.2475 33.9181 24.983 33.9181ZM27.0622 29.8097L24.983 27.7256L24.2751 28.4336L26.3592 30.5127C25.8797 30.8305 25.3052 30.9727 24.7329 30.9152C24.1606 30.8578 23.6258 30.6042 23.2191 30.1975C22.8124 29.7908 22.5589 29.256 22.5014 28.6837C22.444 28.1115 22.5862 27.5369 22.9039 27.0575L23.572 27.7306L24.28 27.0226L23.6069 26.3545C24.0864 26.0368 24.6609 25.8945 25.2332 25.952C25.8055 26.0094 26.3403 26.263 26.747 26.6697C27.1537 27.0764 27.4072 27.6112 27.4647 28.1835C27.5221 28.7558 27.3799 29.3303 27.0622 29.8097V29.8097ZM30.9661 26.4393C30.9661 26.5715 30.9136 26.6983 30.8201 26.7918C30.7266 26.8853 30.5997 26.9379 30.4675 26.9379H28.1341C27.9622 26.578 27.7313 26.2494 27.4511 25.9656C27.127 25.6415 26.7422 25.3844 26.3187 25.209C25.8953 25.0335 25.4414 24.9432 24.983 24.9432C24.5247 24.9432 24.0708 25.0335 23.6474 25.209C23.2239 25.3844 22.8391 25.6415 22.515 25.9656C22.2348 26.2494 22.0039 26.578 21.832 26.9379H20.4958C20.3635 26.9379 20.2367 26.8853 20.1432 26.7918C20.0497 26.6983 19.9972 26.5715 19.9972 26.4393V24.9435H30.9661V26.4393ZM30.9661 23.9463H19.9972V15.9689H30.9661V23.9463ZM30.9661 14.9718H19.9972V14.4831C19.9975 14.1575 20.1036 13.8409 20.2997 13.5809C20.4958 13.321 20.7711 13.1319 21.0841 13.0422L21.6774 12.8727C22.1979 12.7225 22.6557 12.4076 22.982 11.9752C23.3084 11.5428 23.4856 11.0162 23.4873 10.4745V8.9887H27.476V10.4745C27.4776 11.0162 27.6549 11.5428 27.9813 11.9752C28.3076 12.4076 28.7654 12.7225 29.2859 12.8727L29.8792 13.0422C30.1922 13.1319 30.4675 13.321 30.6636 13.5809C30.8596 13.8409 30.9658 14.1575 30.9661 14.4831V14.9718Z" fill="#18418C"/>
</svg>
