<?xml version="1.0" encoding="UTF-8"?>
<!DOCTYPE svg PUBLIC "-//W3C//DTD SVG 1.1//EN" "http://www.w3.org/Graphics/SVG/1.1/DTD/svg11.dtd">
<!-- Creator: CorelDRAW 2018 (64 Bit Versión de evaluación) -->
<svg xmlns="http://www.w3.org/2000/svg" xml:space="preserve" width="19.05mm" height="19.403mm" version="1.1" style="shape-rendering:geometricPrecision; text-rendering:geometricPrecision; image-rendering:optimizeQuality; fill-rule:evenodd; clip-rule:evenodd"
viewBox="0 0 1905 1940.3"
 xmlns:xlink="http://www.w3.org/1999/xlink">
 <defs>
  <style type="text/css">
   <![CDATA[
    .fil0 {fill:#334F8E}
    .fil1 {fill:#334F8E;fill-rule:nonzero}
   ]]>
  </style>
 </defs>
 <g id="Capa_x0020_1">
  <metadata id="CorelCorpID_0Corel-Layer"/>
  <g id="_2063826523552">
   <path class="fil0" d="M917.59 562.85l-70.45 73.71c-6.06,6.32 -7.14,15.95 -2.63,23.5l0 0 177.89 298.19c7.61,12.72 26.06,12.69 33.58,-0.1l0 0 81.61 -138.55c3.62,-6.14 3.6,-13.75 -0.02,-19.86l0 0 -132.18 -223.07c-2.86,-4.86 -8.22,-15.26 -13.8,-16.24l0 0 -56.75 -13.75c-0.26,-0.04 -0.55,-0.07 -0.84,-0.07 -6.15,0 -12.07,11.71 -16.41,16.24l0 0z"/>
   <path class="fil1" d="M952.51 215.73c-403.5,0 -731.77,328.28 -731.77,731.75 0,403.49 328.27,731.74 731.77,731.74 403.49,0 731.75,-328.25 731.75,-731.74 0,-403.47 -328.26,-731.75 -731.75,-731.75zm0 1618.12c-488.75,0 -886.38,-397.62 -886.38,-886.37 0,-488.72 397.63,-886.35 886.38,-886.35 488.73,0 886.35,397.63 886.35,886.35 0,488.75 -397.62,886.37 -886.35,886.37z"/>
   <path class="fil1" d="M996.07 562.44c-44.46,-50.75 -99.65,-71.26 -165.77,-62.87 -59.86,7.56 -104.85,39.28 -135.34,91.43 -29.92,51.14 -60.03,102.19 -89.95,153.31 -34.45,58.86 -68.7,117.83 -103.2,176.66 -33.22,56.68 -66.62,113.19 -99.84,169.87 -1.99,3.38 -5.2,6.4 -5.01,11.09 1.1,0.33 2.11,0.91 3.09,0.91 67.43,0.07 134.82,0.03 202.23,0.24 5.61,0.02 7.83,-2.92 10.18,-6.97 38.69,-66.04 77.47,-132.04 116.11,-198.11 34.14,-58.35 67.96,-116.9 102.31,-175.08 8.48,-14.38 14.87,-30.07 26.08,-42.74 17.35,-30.11 33.99,-60.6 52.18,-90.19 20.12,-32.75 53.2,-40.62 87.29,-22.4 1.63,0.86 3.23,1.56 4.96,2.28 -0.72,-1.12 -1.48,-2.33 -2.33,-3.55 -1,-1.41 -2.03,-2.7 -2.99,-3.88z"/>
   <path class="fil0" d="M852.24 873.45l-0.31 0 -0.3 0c-6.41,0.1 -12.81,3.31 -16.54,9.61l0 0 -81.61 138.57c-3.62,6.11 -3.62,13.73 0.02,19.84l0 0 132.19 223.07c2.89,4.86 8.21,15.23 13.79,16.23l0 0 56.78 13.75c6.41,1.16 12.69,-11.42 17.22,-16.16l0 0 70.47 -73.71c6.06,-6.33 7.14,-15.93 2.64,-23.48l0 0 -177.93 -298.21c-3.71,-6.25 -10.03,-9.41 -16.42,-9.51z"/>
   <path class="fil1" d="M895.04 1278.76c44.45,50.76 99.62,71.26 165.73,62.88 59.89,-7.57 104.86,-39.29 135.38,-91.44 29.91,-51.14 60,-102.18 89.92,-153.31 34.48,-58.85 68.73,-117.83 103.22,-176.66 33.21,-56.68 66.62,-113.19 99.85,-169.86 1.99,-3.38 5.17,-6.4 4.98,-11.1 -1.1,-0.33 -2.08,-0.91 -3.09,-0.91 -67.41,-0.07 -134.82,-0.02 -202.23,-0.24 -5.58,-0.02 -7.83,2.92 -10.18,6.98 -38.68,66.06 -77.47,132.04 -116.11,198.1 -34.13,58.35 -67.93,116.9 -102.29,175.11 -8.48,14.35 -14.87,30.04 -26.08,42.71 -17.35,30.11 -33.99,60.63 -52.17,90.22 -20.12,32.72 -53.21,40.6 -87.32,22.37 -1.63,-0.86 -3.21,-1.54 -4.93,-2.28 0.69,1.13 1.46,2.33 2.32,3.55 1.01,1.41 2.01,2.7 3,3.88z"/>
  </g>
 </g>
</svg>
