<?xml version="1.0" encoding="utf-8"?>
<!-- Generator: Adobe Illustrator 25.2.0, SVG Export Plug-In . SVG Version: 6.00 Build 0)  -->
<svg version="1.1" id="Layer_1" xmlns="http://www.w3.org/2000/svg" xmlns:xlink="http://www.w3.org/1999/xlink" x="0px" y="0px"
	 viewBox="0 0 68 63" style="enable-background:new 0 0 68 63;" xml:space="preserve">
<style type="text/css">
	.st0{fill:#18418C;}
</style>
<g>
	<g>
		<path class="st0" d="M31.6,49.9H17.5c-0.6,0-1-0.5-1-1c0-0.6,0.5-1,1-1h14.2c0.6,0,1,0.5,1,1C32.7,49.5,32.2,49.9,31.6,49.9z"/>
	</g>
	<g>
		<path class="st0" d="M26.9,30c-0.6,0-1-0.5-1-1v-4.4l-2.5-0.1L23.2,29c0,0.6-0.5,1-1,1c-0.6,0-1-0.5-1-1v-4.4c0-1.2,1-2.2,2.2-2.2
			h2.4c1.2,0,2.2,1,2.2,2.2V29C28,29.6,27.5,30,26.9,30z"/>
	</g>
	<g>
		<path class="st0" d="M24.5,24.5c-0.6,0-1-0.5-1-1V10.2c0-0.6,0.5-1,1-1c0.6,0,1,0.5,1,1v13.3C25.6,24,25.1,24.5,24.5,24.5z"/>
	</g>
	<g>
		<path class="st0" d="M22.2,62.1c-0.6,0-1-0.5-1-1v-8.8c0-0.6,0.5-1,1-1c0.6,0,1,0.5,1,1v8.8C23.2,61.6,22.8,62.1,22.2,62.1z"/>
	</g>
	<g>
		<path class="st0" d="M26.9,62.1c-0.6,0-1-0.5-1-1v-8.8c0-0.6,0.5-1,1-1s1,0.5,1,1v8.8C28,61.6,27.5,62.1,26.9,62.1z"/>
	</g>
	<g>
		<path class="st0" d="M30.5,62.1H18.6c-0.6,0-1-0.5-1-1s0.5-1,1-1h11.8c0.6,0,1,0.5,1,1S31,62.1,30.5,62.1z"/>
	</g>
	<g>
		<path class="st0" d="M23.4,44.4h-3.5c-0.6,0-1-0.5-1-1c0-0.6,0.5-1,1-1h3.5c0.6,0,1,0.5,1,1C24.4,43.9,23.9,44.4,23.4,44.4z"/>
	</g>
	<g>
		<path class="st0" d="M23.4,40h-3.5c-0.6,0-1-0.5-1-1c0-0.6,0.5-1,1-1h3.5c0.6,0,1,0.5,1,1C24.4,39.5,23.9,40,23.4,40z"/>
	</g>
	<g>
		<path class="st0" d="M23.4,35.6h-3.5c-0.6,0-1-0.5-1-1s0.5-1,1-1h3.5c0.6,0,1,0.5,1,1S23.9,35.6,23.4,35.6z"/>
	</g>
	<g>
		<path class="st0" d="M29.3,49.9c-0.6,0-1-0.5-1-1V30.1L21,30l-0.1,18.9c0,0.6-0.5,1-1,1s-1-0.5-1-1V30.1c0-1.2,1-2.2,2.2-2.2h7.1
			c1.2,0,2.2,1,2.2,2.2v18.8C30.3,49.5,29.9,49.9,29.3,49.9z"/>
	</g>
	<g>
		<path class="st0" d="M48.4,62.1h-8.7c-1.8,0-3.2-1.5-3.2-3.3V41.2c0-1.2,1-2.2,1.9-3.1c0.8-0.8,1.6-1.7,1.6-2.4
			c0-0.8-0.2-1.1-0.4-1.4c-0.3-0.4-0.7-0.9-0.7-1.9c0-0.7,0.3-2.5,0.7-5.3c0.2-1.4,0.4-2.7,0.5-3.7c0.3-2.2,0.8-4.2,4-4.2
			c3.2,0,3.7,2,4,4.2c0.1,1,0.3,2.3,0.5,3.7c0.4,2.8,0.7,4.6,0.7,5.3c0,1-0.4,1.6-0.7,1.9c-0.3,0.3-0.4,0.5-0.4,1.4
			c0,0.7,0.9,1.6,1.6,2.4c0.9,0.9,1.9,1.9,1.9,3.1v17.7C51.6,60.6,50.2,62.1,48.4,62.1z M44.1,21.2c-1.3,0-1.6,0.1-1.9,2.4
			c-0.1,1-0.3,2.4-0.5,3.7c-0.3,1.9-0.6,4.4-0.6,5c0,0.3,0,0.3,0.3,0.6c0.4,0.4,0.9,1.1,0.9,2.7c0,1.6-1.2,2.8-2.3,3.9
			c-0.5,0.5-1.3,1.3-1.3,1.7v17.7c0,0.6,0.5,1.2,1.1,1.2h8.7c0.6,0,1.1-0.5,1.1-1.2V41.2c0-0.4-0.7-1.1-1.3-1.7
			c-1.1-1.1-2.3-2.3-2.3-3.9c0-1.6,0.6-2.3,0.9-2.7c0.2-0.3,0.3-0.3,0.3-0.6c0-0.6-0.4-3-0.6-5c-0.2-1.4-0.4-2.8-0.5-3.8
			C45.7,21.3,45.3,21.2,44.1,21.2z"/>
	</g>
	<g>
		<path class="st0" d="M47,44.4h-9.5c-0.6,0-1-0.5-1-1c0-0.6,0.5-1,1-1H47c0.6,0,1,0.5,1,1C48.1,43.9,47.6,44.4,47,44.4z"/>
	</g>
</g>
</svg>
