<?xml version="1.0" encoding="utf-8"?>
<!-- Generator: Adobe Illustrator 25.2.0, SVG Export Plug-In . SVG Version: 6.00 Build 0)  -->
<svg version="1.1" id="Layer_1" xmlns="http://www.w3.org/2000/svg" xmlns:xlink="http://www.w3.org/1999/xlink" x="0px" y="0px"
	 viewBox="0 0 68 63" style="enable-background:new 0 0 68 63;" xml:space="preserve">
<style type="text/css">
	.st0{fill:#18418C;}
</style>
<g>
	<path class="st0" d="M60.8,29.4c-0.1-0.1-0.2-0.2-0.3-0.2c-0.1,0-0.2-0.1-0.4-0.1H37.2c-0.1,0-0.2,0-0.4,0.1
		c-0.1,0-0.2,0.1-0.3,0.2c-0.1,0.1-0.2,0.2-0.2,0.3c0,0.1-0.1,0.2-0.1,0.4l0.9,31.2c0,0.5,0.2,0.9,0.6,1.3c0.3,0.3,0.8,0.5,1.3,0.5
		h19.3c0.5,0,0.9-0.2,1.3-0.5c0.3-0.3,0.5-0.8,0.6-1.3L61,30c0-0.1,0-0.2-0.1-0.4C60.9,29.6,60.9,29.4,60.8,29.4L60.8,29.4z
		 M59.2,30.9l-0.3,10.8c-0.6-0.2-1.2-0.4-1.7-0.7c-1.4-0.7-3-1.1-4.7-1.1c-1.6,0-3.2,0.4-4.7,1.1c-1.2,0.7-2.5,1-3.9,0.9
		c-1.4,0-2.7-0.3-3.9-0.9c-0.5-0.3-1.1-0.5-1.6-0.7l-0.3-9.5H59.2z M39,61.2l0-0.9h14.7v-1.8H38.9l-0.5-16c0.3,0.1,0.5,0.2,0.8,0.4
		c1.4,0.8,3.1,1.2,4.7,1.1c1.6,0,3.2-0.4,4.7-1.1c1.2-0.6,2.5-0.9,3.9-0.9c1.3,0,2.7,0.3,3.9,0.9c0.8,0.4,1.6,0.7,2.5,0.9l-0.4,14.8
		h-2.9v1.8h2.8l0,0.9H39z"/>
	<path class="st0" d="M41.8,32.8H40v3.7h1.8V32.8z"/>
	<path class="st0" d="M41.8,38.2H40v1.8h1.8V38.2z"/>
	<path class="st0" d="M23.5,32.8h-1.8v-1.8c0-0.2-0.1-0.5-0.3-0.6S21,30,20.7,30H17c-0.2,0-0.5,0.1-0.6,0.3s-0.3,0.4-0.3,0.6v1.8
		h-1.8c-0.2,0-0.5,0.1-0.6,0.3c-0.2,0.2-0.3,0.4-0.3,0.6v3.7c0,0.2,0.1,0.5,0.3,0.6c0.2,0.2,0.4,0.3,0.6,0.3h1.8v1.8
		c0,0.2,0.1,0.5,0.3,0.6c0.2,0.2,0.4,0.3,0.6,0.3h3.7c0.2,0,0.5-0.1,0.6-0.3c0.2-0.2,0.3-0.4,0.3-0.6v-1.8h1.8
		c0.2,0,0.5-0.1,0.6-0.3c0.2-0.2,0.3-0.4,0.3-0.6v-3.7c0-0.2-0.1-0.5-0.3-0.6C23.9,32.8,23.7,32.8,23.5,32.8z M22.5,36.4h-1.8
		c-0.2,0-0.5,0.1-0.6,0.3s-0.3,0.4-0.3,0.6v1.8H18v-1.8c0-0.2-0.1-0.5-0.3-0.6c-0.2-0.2-0.4-0.3-0.6-0.3h-1.8v-1.8H17
		c0.2,0,0.5-0.1,0.6-0.3c0.2-0.2,0.3-0.4,0.3-0.6v-1.8h1.8v1.8c0,0.2,0.1,0.5,0.3,0.6s0.4,0.3,0.6,0.3h1.8V36.4z"/>
	<path class="st0" d="M29.9,50.2c-1.3,0-2.5,0.4-3.6,1.1c-1.1,0.7-1.9,1.7-2.4,2.9c-0.5,1.2-0.6,2.5-0.4,3.7
		c0.2,1.2,0.9,2.4,1.8,3.3c0.9,0.9,2,1.5,3.3,1.8c1.2,0.2,2.5,0.1,3.7-0.4c1.2-0.5,2.2-1.3,2.9-2.4c0.7-1.1,1.1-2.3,1.1-3.6
		c0-1.7-0.7-3.3-1.9-4.5C33.2,50.8,31.6,50.2,29.9,50.2L29.9,50.2z M29.9,61.2c-0.9,0-1.8-0.3-2.5-0.8c-0.8-0.5-1.3-1.2-1.7-2.1
		c-0.3-0.8-0.4-1.8-0.3-2.6c0.2-0.9,0.6-1.7,1.3-2.3c0.6-0.6,1.5-1.1,2.3-1.3c0.9-0.2,1.8-0.1,2.6,0.3c0.8,0.3,1.6,0.9,2.1,1.7
		c0.5,0.8,0.8,1.6,0.8,2.5c0,1.2-0.5,2.4-1.3,3.2C32.3,60.7,31.1,61.2,29.9,61.2L29.9,61.2z"/>
	<path class="st0" d="M33.5,55.7h-7.3v1.8h7.3V55.7z"/>
	<path class="st0" d="M27.5,21l-1.1-0.3c-0.6-0.2-1.1-0.5-1.4-1c-0.4-0.5-0.6-1.1-0.6-1.7v-2.7h0.9c0.2,0,0.5-0.1,0.6-0.3
		c0.2-0.2,0.3-0.4,0.3-0.6V8.9c0-0.2-0.1-0.5-0.3-0.6C25.8,8.1,25.5,8,25.3,8H12.5c-0.2,0-0.5,0.1-0.6,0.3c-0.2,0.2-0.3,0.4-0.3,0.6
		v5.5c0,0.2,0.1,0.5,0.3,0.6c0.2,0.2,0.4,0.3,0.6,0.3h0.9v2.7c0,0.6-0.2,1.2-0.6,1.7c-0.4,0.5-0.9,0.8-1.4,1L10.3,21
		c-1,0.3-1.8,0.9-2.4,1.7C7.3,23.5,7,24.4,7,25.4v22c0,0.7,0.3,1.4,0.8,1.9c0.5,0.5,1.2,0.8,1.9,0.8h1.9c-0.1,1-0.1,2,0.3,2.9
		s0.8,1.8,1.5,2.5c0,0,0,0,0.1,0h-2.9c-1,0-1.9,0.4-2.6,1.1C7.3,57.4,7,58.4,7,59.3c0,1,0.4,1.9,1.1,2.6c0.7,0.7,1.6,1.1,2.6,1.1H18
		c0.7,0,1.4-0.2,2-0.6c0.6-0.4,1.1-0.9,1.4-1.6c0.3-0.6,0.4-1.4,0.3-2.1c-0.1-0.7-0.4-1.4-0.9-1.9c0.7-0.3,1.3-0.7,1.8-1.3
		c0.7-0.7,1.2-1.6,1.5-2.5s0.4-2,0.3-2.9H28c0.7,0,1.4-0.3,1.9-0.8c0.5-0.5,0.8-1.2,0.8-1.9v-22c0-1-0.3-2-0.9-2.8
		C29.3,21.9,28.4,21.3,27.5,21L27.5,21z M13.4,61.2h-2.8c-0.5,0-1-0.2-1.3-0.5c-0.3-0.3-0.5-0.8-0.5-1.3s0.2-1,0.5-1.3
		c0.3-0.3,0.8-0.5,1.3-0.5h2.8V61.2z M13.4,9.8h11v3.7h-11V9.8z M18,61.2h-2.7v-3.7H18c0.5,0,1,0.2,1.3,0.5c0.3,0.3,0.5,0.8,0.5,1.3
		s-0.2,1-0.5,1.3C18.9,61,18.4,61.2,18,61.2z M21.8,53.6L18,49.8l-1.3,1.3l3.8,3.8c-0.9,0.6-1.9,0.8-3,0.7c-1.1-0.1-2-0.6-2.8-1.3
		c-0.7-0.7-1.2-1.7-1.3-2.8c-0.1-1.1,0.2-2.1,0.7-3l1.2,1.2l1.3-1.3l-1.2-1.2c0.9-0.6,1.9-0.8,3-0.7c1.1,0.1,2,0.6,2.8,1.3
		c0.7,0.7,1.2,1.7,1.3,2.8C22.6,51.7,22.4,52.7,21.8,53.6L21.8,53.6z M29,47.4c0,0.2-0.1,0.5-0.3,0.6c-0.2,0.2-0.4,0.3-0.6,0.3h-4.3
		c-0.3-0.7-0.7-1.3-1.3-1.8c-0.6-0.6-1.3-1.1-2.1-1.4c-0.8-0.3-1.6-0.5-2.5-0.5c-0.8,0-1.7,0.2-2.5,0.5c-0.8,0.3-1.5,0.8-2.1,1.4
		c-0.5,0.5-0.9,1.1-1.3,1.8H9.7c-0.2,0-0.5-0.1-0.6-0.3c-0.2-0.2-0.3-0.4-0.3-0.6v-2.8H29V47.4z M29,42.8H8.8V28.2H29V42.8z
		 M29,26.3H8.8v-0.9c0-0.6,0.2-1.2,0.6-1.7c0.4-0.5,0.9-0.8,1.4-1l1.1-0.3c1-0.3,1.8-0.9,2.4-1.7c0.6-0.8,0.9-1.8,0.9-2.8v-2.7h7.3
		v2.7c0,1,0.3,2,0.9,2.8c0.6,0.8,1.4,1.4,2.4,1.7l1.1,0.3c0.6,0.2,1.1,0.5,1.4,1c0.4,0.5,0.6,1.1,0.6,1.7V26.3z"/>
</g>
</svg>
