<svg width="68" height="63" viewBox="0 0 68 63" fill="none" xmlns="http://www.w3.org/2000/svg">
<rect width="68" height="63" rx="6" fill="white"/>
<rect width="68" height="63" rx="6" fill="#E8E9EA" fill-opacity="0.48"/>
<path d="M47 13.3333H40.3333V10.6667C40.3333 9.2 39.1333 8 37.6667 8H30.3333C28.8667 8 27.6667 9.2 27.6667 10.6667V13.3333H21C19.9 13.3333 19 14.2333 19 15.3333V34C19 35.1 19.9 36 21 36H47C48.1 36 49 35.1 49 34V15.3333C49 14.2333 48.1 13.3333 47 13.3333ZM41.6667 14.6667H44.3333V20C44.3333 20.3667 44.0333 20.6667 43.6667 20.6667H42.3333C41.9667 20.6667 41.6667 20.3667 41.6667 20V14.6667ZM29 10.6667C29 9.93333 29.6 9.33333 30.3333 9.33333H37.6667C38.4 9.33333 39 9.93333 39 10.6667V13.3333H29V10.6667ZM27.6667 14.6667H40.3333V18.6667H27.6667V14.6667ZM23.6667 14.6667H26.3333V20C26.3333 20.3667 26.0333 20.6667 25.6667 20.6667H24.3333C23.9667 20.6667 23.6667 20.3667 23.6667 20V14.6667ZM20.3333 15.3333C20.3333 14.9667 20.6333 14.6667 21 14.6667H22.3333V18.6667H20.3333V15.3333ZM47.6667 34C47.6667 34.3667 47.3667 34.6667 47 34.6667H21C20.6333 34.6667 20.3333 34.3667 20.3333 34V20H22.3333C22.3333 21.1 23.2333 22 24.3333 22H25.6667C26.7667 22 27.6667 21.1 27.6667 20H40.3333C40.3333 21.1 41.2333 22 42.3333 22H43.6667C44.7667 22 45.6667 21.1 45.6667 20H47.6667V34ZM47.6667 18.6667H45.6667V14.6667H47C47.3667 14.6667 47.6667 14.9667 47.6667 15.3333V18.6667Z" fill="#18418C"/>
<path d="M37.3334 24.6667H36.6667V24C36.6667 22.9 35.7667 22 34.6667 22H33.3334C32.2334 22 31.3334 22.9 31.3334 24V24.6667H30.6667C29.5667 24.6667 28.6667 25.5667 28.6667 26.6667V28C28.6667 29.1 29.5667 30 30.6667 30H31.3334V30.6667C31.3334 31.7667 32.2334 32.6667 33.3334 32.6667H34.6667C35.7667 32.6667 36.6667 31.7667 36.6667 30.6667V30H37.3334C38.4334 30 39.3334 29.1 39.3334 28V26.6667C39.3334 25.5667 38.4334 24.6667 37.3334 24.6667ZM38 28C38 28.3667 37.7 28.6667 37.3334 28.6667H36C35.6334 28.6667 35.3334 28.9667 35.3334 29.3333V30.6667C35.3334 31.0333 35.0334 31.3333 34.6667 31.3333H33.3334C32.9667 31.3333 32.6667 31.0333 32.6667 30.6667V29.3333C32.6667 28.9667 32.3667 28.6667 32 28.6667H30.6667C30.3 28.6667 30 28.3667 30 28V26.6667C30 26.3 30.3 26 30.6667 26H32C32.3667 26 32.6667 25.7 32.6667 25.3333V24C32.6667 23.6333 32.9667 23.3333 33.3334 23.3333H34.6667C35.0334 23.3333 35.3334 23.6333 35.3334 24V25.3333C35.3334 25.7 35.6334 26 36 26H37.3334C37.7 26 38 26.3 38 26.6667V28Z" fill="#18418C"/>
<path d="M12.9467 51.144C15.3467 51.144 16.5107 49.944 16.5107 48.54C16.5107 45.456 11.6267 46.524 11.6267 44.976C11.6267 44.448 12.0707 44.016 13.2227 44.016C13.9667 44.016 14.7707 44.232 15.5507 44.676L16.1507 43.2C15.3707 42.708 14.2907 42.456 13.2347 42.456C10.8467 42.456 9.6947 43.644 9.6947 45.072C9.6947 48.192 14.5787 47.112 14.5787 48.684C14.5787 49.2 14.1107 49.584 12.9587 49.584C11.9507 49.584 10.8947 49.224 10.1867 48.708L9.5267 50.172C10.2707 50.748 11.6147 51.144 12.9467 51.144ZM20.071 44.448C19.039 44.448 17.995 44.724 17.287 45.228L17.959 46.536C18.427 46.164 19.135 45.936 19.819 45.936C20.827 45.936 21.307 46.404 21.307 47.208H19.819C17.851 47.208 17.047 48 17.047 49.14C17.047 50.256 17.947 51.096 19.459 51.096C20.407 51.096 21.079 50.784 21.427 50.196V51H23.179V47.316C23.179 45.36 22.039 44.448 20.071 44.448ZM19.927 49.836C19.267 49.836 18.871 49.524 18.871 49.056C18.871 48.624 19.147 48.3 20.023 48.3H21.307V48.96C21.091 49.548 20.551 49.836 19.927 49.836ZM28.5573 44.448C27.6813 44.448 26.9253 44.748 26.4213 45.3V44.544H24.6333V51H26.5053V47.808C26.5053 46.62 27.1533 46.068 28.0533 46.068C28.8813 46.068 29.3613 46.548 29.3613 47.592V51H31.2333V47.304C31.2333 45.336 30.0813 44.448 28.5573 44.448ZM33.6262 43.644C34.3222 43.644 34.7902 43.188 34.7902 42.564C34.7902 41.988 34.3222 41.556 33.6262 41.556C32.9302 41.556 32.4622 42.012 32.4622 42.6C32.4622 43.188 32.9302 43.644 33.6262 43.644ZM32.6902 51H34.5622V44.544H32.6902V51ZM40.7635 42.096V45.228C40.2955 44.7 39.6235 44.448 38.8315 44.448C37.0075 44.448 35.6035 45.744 35.6035 47.772C35.6035 49.8 37.0075 51.096 38.8315 51.096C39.6955 51.096 40.3795 50.82 40.8475 50.256V51H42.6355V42.096H40.7635ZM39.1555 49.56C38.2195 49.56 37.4995 48.888 37.4995 47.772C37.4995 46.656 38.2195 45.984 39.1555 45.984C40.0795 45.984 40.7995 46.656 40.7995 47.772C40.7995 48.888 40.0795 49.56 39.1555 49.56ZM46.7321 44.448C45.7001 44.448 44.6561 44.724 43.9481 45.228L44.6201 46.536C45.0881 46.164 45.7961 45.936 46.4801 45.936C47.4881 45.936 47.9681 46.404 47.9681 47.208H46.4801C44.5121 47.208 43.7081 48 43.7081 49.14C43.7081 50.256 44.6081 51.096 46.1201 51.096C47.0681 51.096 47.7401 50.784 48.0881 50.196V51H49.8401V47.316C49.8401 45.36 48.7001 44.448 46.7321 44.448ZM46.5881 49.836C45.9281 49.836 45.5321 49.524 45.5321 49.056C45.5321 48.624 45.8081 48.3 46.6841 48.3H47.9681V48.96C47.7521 49.548 47.2121 49.836 46.5881 49.836ZM56.0687 42.096V45.228C55.6007 44.7 54.9287 44.448 54.1367 44.448C52.3127 44.448 50.9087 45.744 50.9087 47.772C50.9087 49.8 52.3127 51.096 54.1367 51.096C55.0007 51.096 55.6847 50.82 56.1527 50.256V51H57.9407V42.096H56.0687ZM54.4607 49.56C53.5247 49.56 52.8047 48.888 52.8047 47.772C52.8047 46.656 53.5247 45.984 54.4607 45.984C55.3847 45.984 56.1047 46.656 56.1047 47.772C56.1047 48.888 55.3847 49.56 54.4607 49.56Z" fill="#18418C"/>
</svg>
