<svg width="68" height="63" viewBox="0 0 68 63" fill="none" xmlns="http://www.w3.org/2000/svg">
<rect width="68" height="63" rx="6" fill="white"/>
<rect width="68" height="63" rx="6" fill="#E8E9EA" fill-opacity="0.48"/>
<path d="M9.86458 52H11.2246L8.72058 46.4H7.44058L4.94458 52H6.27258L6.76858 50.8H9.36858L9.86458 52ZM7.18458 49.816L8.07258 47.672L8.96058 49.816H7.18458Z" fill="#18418C"/>
<path d="M14.1736 47.632C13.5896 47.632 13.0856 47.832 12.7496 48.2V47.696H11.5576V52H12.8056V49.872C12.8056 49.08 13.2376 48.712 13.8376 48.712C14.3896 48.712 14.7096 49.032 14.7096 49.728V52H15.9576V49.536C15.9576 48.224 15.1896 47.632 14.1736 47.632Z" fill="#18418C"/>
<path d="M19.3688 50.912C19.2328 51.016 19.0488 51.072 18.8648 51.072C18.5288 51.072 18.3288 50.872 18.3288 50.504V48.752H19.4008V47.792H18.3288V46.744H17.0808V47.792H16.4168V48.752H17.0808V50.52C17.0808 51.544 17.6728 52.064 18.6888 52.064C19.0728 52.064 19.4488 51.976 19.7048 51.792L19.3688 50.912Z" fill="#18418C"/>
<path d="M20.8694 47.096C21.3334 47.096 21.6454 46.792 21.6454 46.376C21.6454 45.992 21.3334 45.704 20.8694 45.704C20.4054 45.704 20.0934 46.008 20.0934 46.4C20.0934 46.792 20.4054 47.096 20.8694 47.096ZM20.2454 52H21.4934V47.696H20.2454V52Z" fill="#18418C"/>
<path d="M28.0036 47.632C27.3556 47.632 26.7956 47.896 26.4516 48.336C26.1476 47.864 25.6356 47.632 25.0356 47.632C24.4836 47.632 24.0036 47.824 23.6836 48.192V47.696H22.4916V52H23.7396V49.84C23.7396 49.072 24.1316 48.712 24.6836 48.712C25.2036 48.712 25.4996 49.032 25.4996 49.728V52H26.7476V49.84C26.7476 49.072 27.1396 48.712 27.6996 48.712C28.2036 48.712 28.5156 49.032 28.5156 49.728V52H29.7636V49.536C29.7636 48.224 29.0276 47.632 28.0036 47.632Z" fill="#18418C"/>
<path d="M32.4583 47.632C31.7703 47.632 31.0743 47.816 30.6023 48.152L31.0503 49.024C31.3623 48.776 31.8343 48.624 32.2903 48.624C32.9623 48.624 33.2823 48.936 33.2823 49.472H32.2903C30.9783 49.472 30.4423 50 30.4423 50.76C30.4423 51.504 31.0423 52.064 32.0503 52.064C32.6823 52.064 33.1303 51.856 33.3623 51.464V52H34.5303V49.544C34.5303 48.24 33.7703 47.632 32.4583 47.632ZM32.3623 51.224C31.9223 51.224 31.6583 51.016 31.6583 50.704C31.6583 50.416 31.8423 50.2 32.4263 50.2H33.2823V50.64C33.1383 51.032 32.7783 51.224 32.3623 51.224Z" fill="#18418C"/>
<path d="M36.9478 52.064C38.2358 52.064 38.9798 51.496 38.9798 50.696C38.9798 49 36.3798 49.712 36.3798 48.976C36.3798 48.752 36.6198 48.576 37.1798 48.576C37.5718 48.576 37.9958 48.656 38.4198 48.896L38.8358 48.008C38.4278 47.768 37.7718 47.632 37.1798 47.632C35.9238 47.632 35.1878 48.208 35.1878 49.024C35.1878 50.744 37.7878 50.024 37.7878 50.728C37.7878 50.968 37.5718 51.12 36.9958 51.12C36.4678 51.12 35.8838 50.952 35.4998 50.704L35.0838 51.6C35.4838 51.864 36.2198 52.064 36.9478 52.064Z" fill="#18418C"/>
<path d="M42.0298 50.912C41.8938 51.016 41.7098 51.072 41.5258 51.072C41.1898 51.072 40.9898 50.872 40.9898 50.504V48.752H42.0618V47.792H40.9898V46.744H39.7418V47.792H39.0778V48.752H39.7418V50.52C39.7418 51.544 40.3338 52.064 41.3498 52.064C41.7338 52.064 42.1098 51.976 42.3658 51.792L42.0298 50.912Z" fill="#18418C"/>
<path d="M42.8023 47.144H43.7783L45.2263 45.992H43.8823L42.8023 47.144ZM42.9063 52H44.1543V47.696H42.9063V52Z" fill="#18418C"/>
<path d="M47.5926 50.912C47.4566 51.016 47.2726 51.072 47.0886 51.072C46.7526 51.072 46.5526 50.872 46.5526 50.504V48.752H47.6246V47.792H46.5526V46.744H45.3046V47.792H44.6406V48.752H45.3046V50.52C45.3046 51.544 45.8966 52.064 46.9126 52.064C47.2966 52.064 47.6726 51.976 47.9286 51.792L47.5926 50.912Z" fill="#18418C"/>
<path d="M49.0931 47.096C49.5571 47.096 49.8691 46.792 49.8691 46.376C49.8691 45.992 49.5571 45.704 49.0931 45.704C48.6291 45.704 48.3171 46.008 48.3171 46.4C48.3171 46.792 48.6291 47.096 49.0931 47.096ZM48.4691 52H49.7171V47.696H48.4691V52Z" fill="#18418C"/>
<path d="M52.7954 52.064C53.6994 52.064 54.4114 51.664 54.7234 50.976L53.7554 50.448C53.5234 50.864 53.1794 51.04 52.7874 51.04C52.1554 51.04 51.6594 50.6 51.6594 49.848C51.6594 49.096 52.1554 48.656 52.7874 48.656C53.1794 48.656 53.5234 48.84 53.7554 49.248L54.7234 48.728C54.4114 48.024 53.6994 47.632 52.7954 47.632C51.3954 47.632 50.3954 48.552 50.3954 49.848C50.3954 51.144 51.3954 52.064 52.7954 52.064Z" fill="#18418C"/>
<path d="M57.2753 52.064C58.6433 52.064 59.6353 51.144 59.6353 49.848C59.6353 48.552 58.6433 47.632 57.2753 47.632C55.9073 47.632 54.9073 48.552 54.9073 49.848C54.9073 51.144 55.9073 52.064 57.2753 52.064ZM57.2753 51.04C56.6513 51.04 56.1713 50.592 56.1713 49.848C56.1713 49.104 56.6513 48.656 57.2753 48.656C57.8993 48.656 58.3713 49.104 58.3713 49.848C58.3713 50.592 57.8993 51.04 57.2753 51.04Z" fill="#18418C"/>
<path d="M61.7575 52.064C63.0455 52.064 63.7895 51.496 63.7895 50.696C63.7895 49 61.1895 49.712 61.1895 48.976C61.1895 48.752 61.4295 48.576 61.9895 48.576C62.3815 48.576 62.8055 48.656 63.2295 48.896L63.6455 48.008C63.2375 47.768 62.5815 47.632 61.9895 47.632C60.7335 47.632 59.9975 48.208 59.9975 49.024C59.9975 50.744 62.5975 50.024 62.5975 50.728C62.5975 50.968 62.3815 51.12 61.8055 51.12C61.2775 51.12 60.6935 50.952 60.3095 50.704L59.8935 51.6C60.2935 51.864 61.0295 52.064 61.7575 52.064Z" fill="#18418C"/>
<path d="M48.2756 22.6171C48.229 22.5696 48.1734 22.5319 48.112 22.5062C48.0506 22.4805 47.9847 22.4673 47.9181 22.4675H35.4534C35.3868 22.4675 35.3208 22.4808 35.2594 22.5068C35.1979 22.5327 35.1423 22.5707 35.0959 22.6185C35.0494 22.6663 35.0129 22.7229 34.9887 22.785C34.9645 22.8471 34.953 22.9134 34.9548 22.9801L35.44 39.9465C35.4461 40.2064 35.554 40.4536 35.7405 40.6347C35.927 40.8159 36.1772 40.9166 36.4371 40.9153H46.9349C47.1949 40.9166 47.4451 40.8159 47.6315 40.6347C47.818 40.4536 47.9259 40.2064 47.9321 39.9465L48.4167 22.9801C48.4187 22.9132 48.4073 22.8466 48.3831 22.7842C48.3588 22.7219 48.3223 22.665 48.2756 22.6171V22.6171ZM47.4051 23.4647L47.2366 29.366C46.9139 29.2738 46.601 29.1504 46.3022 28.9975C45.5148 28.5985 44.6444 28.3905 43.7616 28.3905C42.8789 28.3905 42.0085 28.5985 41.2211 28.9975C40.5745 29.3521 39.8452 29.5281 39.1081 29.5076C38.3702 29.5293 37.6399 29.3538 36.9926 28.999C36.7088 28.8553 36.4152 28.7317 36.1141 28.6291L35.9665 23.4647H47.4051ZM36.4362 39.9181L36.4217 39.4195H44.428V38.4223H36.3938L36.1445 29.705C36.2856 29.7649 36.4222 29.8292 36.5603 29.8955C37.343 30.3143 38.2206 30.5241 39.1081 30.5048C39.9938 30.5237 40.8696 30.3142 41.6509 29.8965C42.3037 29.5622 43.0265 29.3879 43.7599 29.3879C44.4933 29.3879 45.2162 29.5622 45.8689 29.8965C46.2923 30.1139 46.7414 30.2771 47.2056 30.3821L46.9783 38.4223H45.4252V39.4195H46.9499L46.9354 39.9181H36.4362Z" fill="#18418C"/>
<path d="M37.9463 24.4619H36.9492V26.4563H37.9463V24.4619Z" fill="#18418C"/>
<path d="M37.9463 27.4534H36.9492V28.4505H37.9463V27.4534Z" fill="#18418C"/>
<path d="M27.9746 24.4618H26.9774V23.4647C26.9774 23.3324 26.9249 23.2056 26.8314 23.1121C26.7379 23.0186 26.611 22.9661 26.4788 22.9661H24.4845C24.3522 22.9661 24.2254 23.0186 24.1319 23.1121C24.0384 23.2056 23.9859 23.3324 23.9859 23.4647V24.4618H22.9887C22.8565 24.4618 22.7296 24.5144 22.6361 24.6079C22.5426 24.7014 22.4901 24.8282 22.4901 24.9604V26.9548C22.4901 27.087 22.5426 27.2138 22.6361 27.3073C22.7296 27.4008 22.8565 27.4534 22.9887 27.4534H23.9859V28.4505C23.9859 28.5828 24.0384 28.7096 24.1319 28.8031C24.2254 28.8966 24.3522 28.9491 24.4845 28.9491H26.4788C26.611 28.9491 26.7379 28.8966 26.8314 28.8031C26.9249 28.7096 26.9774 28.5828 26.9774 28.4505V27.4534H27.9746C28.1068 27.4534 28.2336 27.4008 28.3271 27.3073C28.4206 27.2138 28.4732 27.087 28.4732 26.9548V24.9604C28.4732 24.8282 28.4206 24.7014 28.3271 24.6079C28.2336 24.5144 28.1068 24.4618 27.9746 24.4618ZM27.476 26.4562H26.4788C26.3466 26.4562 26.2198 26.5087 26.1263 26.6022C26.0328 26.6957 25.9802 26.8225 25.9802 26.9548V27.9519H24.983V26.9548C24.983 26.8225 24.9305 26.6957 24.837 26.6022C24.7435 26.5087 24.6167 26.4562 24.4845 26.4562H23.4873V25.459H24.4845C24.6167 25.459 24.7435 25.4065 24.837 25.313C24.9305 25.2195 24.983 25.0926 24.983 24.9604V23.9632H25.9802V24.9604C25.9802 25.0926 26.0328 25.2195 26.1263 25.313C26.2198 25.4065 26.3466 25.459 26.4788 25.459H27.476V26.4562Z" fill="#18418C"/>
<path d="M31.4647 33.9351C30.7744 33.9351 30.0996 34.1398 29.5257 34.5232C28.9517 34.9067 28.5044 35.4518 28.2402 36.0896C27.9761 36.7273 27.9069 37.429 28.0416 38.1061C28.1763 38.7831 28.5087 39.405 28.9968 39.8931C29.4849 40.3812 30.1068 40.7136 30.7838 40.8482C31.4608 40.9829 32.1625 40.9138 32.8003 40.6496C33.438 40.3855 33.9831 39.9381 34.3666 39.3642C34.7501 38.7902 34.9548 38.1154 34.9548 37.4252C34.9537 36.4999 34.5857 35.6127 33.9314 34.9585C33.2771 34.3042 32.39 33.9361 31.4647 33.9351V33.9351ZM31.4647 39.9181C30.9716 39.9181 30.4896 39.7719 30.0797 39.498C29.6697 39.224 29.3502 38.8347 29.1615 38.3792C28.9728 37.9237 28.9234 37.4224 29.0196 36.9388C29.1158 36.4552 29.3532 36.011 29.7019 35.6624C30.0505 35.3138 30.4947 35.0763 30.9783 34.9801C31.4619 34.8839 31.9631 34.9333 32.4187 35.122C32.8742 35.3107 33.2635 35.6302 33.5375 36.0402C33.8114 36.4501 33.9576 36.9321 33.9576 37.4252C33.9568 38.0861 33.6939 38.7197 33.2266 39.1871C32.7592 39.6544 32.1256 39.9173 31.4647 39.9181V39.9181Z" fill="#18418C"/>
<path d="M33.459 36.9265H29.4703V37.9237H33.459V36.9265Z" fill="#18418C"/>
<path d="M30.1534 18.0849L29.5601 17.9154C29.2471 17.8257 28.9718 17.6366 28.7757 17.3767C28.5796 17.1167 28.4734 16.8001 28.4732 16.4745V14.9887H28.9717C29.104 14.9887 29.2308 14.9362 29.3243 14.8427C29.4178 14.7492 29.4703 14.6223 29.4703 14.4901V11.4986C29.4703 11.3664 29.4178 11.2395 29.3243 11.146C29.2308 11.0525 29.104 11 28.9717 11H21.9915C21.8593 11 21.7325 11.0525 21.639 11.146C21.5455 11.2395 21.4929 11.3664 21.4929 11.4986V14.4901C21.4929 14.6223 21.5455 14.7492 21.639 14.8427C21.7325 14.9362 21.8593 14.9887 21.9915 14.9887H22.4901V16.4745C22.4898 16.8001 22.3836 17.1167 22.1876 17.3767C21.9915 17.6366 21.7162 17.8257 21.4032 17.9154L20.8099 18.0849C20.2894 18.2351 19.8316 18.55 19.5053 18.9824C19.1789 19.4148 19.0016 19.9414 19 20.4831V32.4393C19.0012 32.8356 19.1592 33.2154 19.4394 33.4956C19.7197 33.7759 20.0994 33.9338 20.4958 33.935H21.5328C21.4545 34.4718 21.5025 35.0195 21.673 35.5345C21.8435 36.0495 22.1318 36.5176 22.515 36.9016C22.525 36.9116 22.535 36.9166 22.545 36.9266H20.9943C20.4654 36.9266 19.9581 37.1367 19.5841 37.5107C19.2101 37.8847 19 38.392 19 38.9209C19 39.4498 19.2101 39.9571 19.5841 40.3311C19.9581 40.7051 20.4654 40.9153 20.9943 40.9153H24.983C25.3689 40.9167 25.7468 40.8059 26.0706 40.5962C26.3945 40.3864 26.6503 40.087 26.8068 39.7343C26.9633 39.3817 27.0137 38.9911 26.9519 38.6102C26.8902 38.2294 26.7188 37.8748 26.4589 37.5897C26.8279 37.4211 27.1638 37.1881 27.4511 36.9016C27.8343 36.5176 28.1226 36.0495 28.2931 35.5345C28.4636 35.0195 28.5116 34.4718 28.4333 33.935H30.4675C30.8638 33.9338 31.2436 33.7759 31.5239 33.4956C31.8041 33.2154 31.9621 32.8356 31.9633 32.4393V20.4831C31.9616 19.9414 31.7843 19.4148 31.458 18.9824C31.1317 18.55 30.6739 18.2351 30.1534 18.0849V18.0849ZM22.4901 39.9181H20.9943C20.7299 39.9181 20.4762 39.813 20.2892 39.626C20.1022 39.439 19.9972 39.1854 19.9972 38.9209C19.9972 38.6564 20.1022 38.4028 20.2892 38.2158C20.4762 38.0288 20.7299 37.9237 20.9943 37.9237H22.4901V39.9181ZM22.4901 11.9972H28.4732V13.9915H22.4901V11.9972ZM24.983 39.9181H23.4873V37.9237H24.983C25.2475 37.9237 25.5012 38.0288 25.6882 38.2158C25.8752 38.4028 25.9802 38.6564 25.9802 38.9209C25.9802 39.1854 25.8752 39.439 25.6882 39.626C25.5012 39.813 25.2475 39.9181 24.983 39.9181ZM27.0622 35.8097L24.983 33.7256L24.2751 34.4336L26.3592 36.5127C25.8797 36.8305 25.3052 36.9727 24.7329 36.9152C24.1606 36.8578 23.6258 36.6042 23.2191 36.1975C22.8124 35.7908 22.5589 35.256 22.5014 34.6837C22.444 34.1115 22.5862 33.5369 22.9039 33.0575L23.572 33.7306L24.28 33.0226L23.6069 32.3545C24.0864 32.0368 24.6609 31.8945 25.2332 31.952C25.8055 32.0094 26.3403 32.263 26.747 32.6697C27.1537 33.0764 27.4072 33.6112 27.4647 34.1835C27.5221 34.7558 27.3799 35.3303 27.0622 35.8097V35.8097ZM30.9661 32.4393C30.9661 32.5715 30.9136 32.6983 30.8201 32.7918C30.7266 32.8853 30.5997 32.9379 30.4675 32.9379H28.1341C27.9622 32.578 27.7313 32.2494 27.4511 31.9656C27.127 31.6415 26.7422 31.3844 26.3187 31.209C25.8953 31.0335 25.4414 30.9432 24.983 30.9432C24.5247 30.9432 24.0708 31.0335 23.6474 31.209C23.2239 31.3844 22.8391 31.6415 22.515 31.9656C22.2348 32.2494 22.0039 32.578 21.832 32.9379H20.4958C20.3635 32.9379 20.2367 32.8853 20.1432 32.7918C20.0497 32.6983 19.9972 32.5715 19.9972 32.4393V30.9435H30.9661V32.4393ZM30.9661 29.9463H19.9972V21.9689H30.9661V29.9463ZM30.9661 20.9718H19.9972V20.4831C19.9975 20.1575 20.1036 19.8409 20.2997 19.5809C20.4958 19.321 20.7711 19.1319 21.0841 19.0422L21.6774 18.8727C22.1979 18.7225 22.6557 18.4076 22.982 17.9752C23.3084 17.5428 23.4856 17.0162 23.4873 16.4745V14.9887H27.476V16.4745C27.4776 17.0162 27.6549 17.5428 27.9813 17.9752C28.3076 18.4076 28.7654 18.7225 29.2859 18.8727L29.8792 19.0422C30.1922 19.1319 30.4675 19.321 30.6636 19.5809C30.8596 19.8409 30.9658 20.1575 30.9661 20.4831V20.9718Z" fill="#18418C"/>
</svg>
