<svg width="68" height="63" viewBox="0 0 68 63" fill="none" xmlns="http://www.w3.org/2000/svg">
<g clip-path="url(#clip0)">
<path d="M0 6C0 2.68629 2.68629 0 6 0H62C65.3137 0 68 2.68629 68 6V57C68 60.3137 65.3137 63 62 63H6C2.68629 63 0 60.3137 0 57V6Z" fill="#E8E9EA" fill-opacity="0.48"/>
<rect x="-12" y="-37" width="100" height="100" fill="white"/>
<rect x="-12" y="-37" width="100" height="100" fill="#E8E9EA" fill-opacity="0.48"/>
<path d="M18.7913 24.8582C20.15 25.3243 20.4774 25.7924 20.6503 26.2186C19.9283 27.2061 20.0015 28.3477 20.0625 29.2724C20.1256 30.2313 20.1378 30.7869 19.6517 31.0533C19.4503 31.1655 19.3832 31.4072 19.4991 31.5955L19.6028 31.7668C19.9974 32.4194 20.3533 32.9769 20.691 33.19C20.6991 33.1957 20.7072 33.2014 20.7174 33.2052C21.9683 33.873 24.5513 32.4784 25.5886 31.86C25.912 32.3414 26.3859 33.4411 25.3364 34.8586C25.251 34.9747 25.2367 35.1212 25.2977 35.2487C25.3588 35.3761 25.4849 35.4637 25.6333 35.4827L27.8889 35.7529C27.9072 35.7548 27.9255 35.7567 27.9438 35.7567C28.0659 35.7567 28.1838 35.7072 28.2672 35.6178C28.3303 35.5512 29.7377 34.0176 30.4252 32.1169C30.7221 32.1682 31.0049 32.212 31.2815 32.2481C31.0679 32.8741 30.5248 34.1641 29.4632 35.0622C29.3615 35.1478 29.3106 35.2734 29.3249 35.4028C29.3391 35.5284 29.4184 35.6425 29.5364 35.7053C29.7418 35.8176 30.3113 35.8708 31.2327 35.8708C31.4137 35.8708 31.6089 35.8689 31.8184 35.8632C31.912 35.8613 32.0014 35.8309 32.0747 35.7776C32.1479 35.7224 33.8787 34.4153 34.2875 32.5278C34.2977 32.4841 34.2957 32.4403 34.2896 32.3985C35.8455 32.3185 36.9215 31.9704 37.6414 31.5936C37.6537 31.605 37.6699 31.6165 37.6842 31.6298C37.5926 31.685 37.5214 31.7725 37.497 31.8809C37.493 31.8981 37.015 33.8369 35.5669 35.0603C35.4652 35.1459 35.4143 35.2715 35.4286 35.4009C35.4428 35.5265 35.5221 35.6406 35.6401 35.7034C35.8455 35.8157 36.413 35.8689 37.3364 35.8689C37.5174 35.8689 37.7146 35.867 37.9221 35.8613C38.0157 35.8594 38.1052 35.829 38.1763 35.7757C38.2475 35.7224 39.8462 34.5123 40.3323 32.7447C40.5052 32.7581 40.6821 32.7638 40.8652 32.7524C40.9262 33.2337 40.6658 34.2193 40.3221 35.0051C40.2733 35.1155 40.2794 35.2372 40.3384 35.3438C40.3974 35.4484 40.5031 35.5227 40.6252 35.5474C41.4001 35.7034 41.9309 35.7548 42.297 35.7548C42.897 35.7548 43.0557 35.614 43.1248 35.5512C43.2163 35.4694 43.2753 35.3647 43.2916 35.2506C44.9106 31.9551 45.6062 28.9432 45.3926 26.4031C45.8421 26.3993 46.2285 26.3327 46.5641 26.2528C46.8062 26.601 47.1316 26.8959 47.5119 27.1014C47.8841 27.3031 48.2909 27.4058 48.6936 27.4058C48.895 27.4058 49.0943 27.3792 49.2895 27.3297C49.5173 27.2689 49.6475 27.05 49.5845 26.8369C49.5214 26.6258 49.2855 26.5002 49.0577 26.5611C48.5878 26.6828 48.1892 26.5458 47.937 26.4088C47.7336 26.2985 47.5526 26.152 47.4021 25.9788C47.6401 25.8723 47.8516 25.7429 48.0509 25.5793C48.4109 25.292 48.8014 24.7764 48.8218 24.196C48.8319 23.8631 48.6834 23.532 48.415 23.2885C48.1526 23.0487 47.8007 22.9212 47.4529 22.9403C47.0828 22.9612 46.7634 23.1286 46.5296 23.4235C46.0719 24.0077 46.0556 24.9704 46.1899 25.467C46.1939 25.4822 46.198 25.4956 46.2021 25.5108C45.9296 25.5679 45.6306 25.6059 45.2889 25.6002C44.9533 23.591 43.9994 21.9128 42.4333 20.6761C38.1682 17.3103 30.5757 18.0923 23.5384 22.6206C23.4998 22.6454 23.4672 22.6777 23.4408 22.7119C22.9181 22.6549 19.6496 22.3904 18.5513 24.2931C18.4923 24.3958 18.4842 24.5157 18.5269 24.6241C18.5818 24.7326 18.6754 24.8163 18.7913 24.8582ZM47.2272 23.8973C47.3309 23.7641 47.4326 23.7413 47.5099 23.7375C47.516 23.7375 47.5221 23.7375 47.5302 23.7375C47.634 23.7375 47.7418 23.7813 47.8292 23.8612C47.9248 23.9487 47.9817 24.0667 47.9777 24.1732C47.9695 24.4339 47.7804 24.7554 47.5058 24.9742C47.3574 25.0941 47.2048 25.1873 47.0258 25.2653C46.9343 24.9191 46.9648 24.2322 47.2272 23.8973ZM31.6496 35.066C31.3099 35.0698 30.9459 35.0679 30.6408 35.0584C31.5357 34.0443 31.9771 32.876 32.1438 32.3433C32.6055 32.3851 33.0367 32.408 33.4415 32.4118C33.1343 33.7436 32.0014 34.773 31.6496 35.066ZM37.7533 35.066C37.4136 35.0698 37.0516 35.0679 36.7445 35.0584C37.853 33.8007 38.2658 32.3071 38.3228 32.0826C38.6401 32.2748 39.0367 32.467 39.4964 32.5982C39.1343 33.8388 38.0889 34.7863 37.7533 35.066ZM22.4808 23.4521C22.4869 23.4521 22.491 23.4521 22.4971 23.4521C22.5154 23.4521 22.5316 23.4521 22.55 23.4521C23.1805 23.4521 24.0916 23.7489 24.2055 23.9259C24.2788 24.0667 24.4313 24.1523 24.5859 24.1523C24.651 24.1523 24.7161 24.139 24.7771 24.1123C24.9866 24.0134 25.074 23.7755 24.9683 23.5777C24.8584 23.3703 24.6327 23.2047 24.3581 23.0754C27.6428 21.0205 31.0577 19.778 34.255 19.4812C37.3425 19.1958 40.0536 19.837 41.8943 21.2888C45.2584 23.943 45.4801 28.9223 42.5045 34.9538C42.2828 34.9747 41.8089 34.9347 41.2984 34.8548C41.575 34.1109 41.9736 32.7676 41.514 32.1054C41.4224 31.9742 41.2557 31.9038 41.0909 31.9285C39.4069 32.1758 38.1316 30.9277 38.1113 30.9106C37.9974 30.7964 37.8306 30.7603 37.6801 30.8002C37.5703 30.7698 37.4462 30.7793 37.3404 30.8383C36.2665 31.4357 34.1859 32.0008 30.3581 31.2911C30.2971 31.2797 30.2462 31.2702 30.2076 31.2645C29.992 31.2264 29.7804 31.3501 29.7194 31.5461C29.2476 33.0891 28.1533 34.4724 27.7628 34.9328L26.3879 34.7673C27.295 33.1101 26.5852 31.8124 26.2008 31.293C26.5018 30.9867 26.7988 30.6118 26.8842 30.2465C26.935 30.0315 26.7886 29.8184 26.5587 29.7709C26.3289 29.7233 26.1011 29.8603 26.0503 30.0753C25.9689 30.4216 25.3527 30.9981 24.9418 31.2949C24.9398 31.2949 24.9398 31.2968 24.9377 31.2987C23.5954 32.0712 21.7974 32.838 21.1506 32.5202C20.9717 32.3947 20.6239 31.8372 20.4164 31.5023C21.0205 30.9391 20.9635 30.0696 20.9086 29.2248C20.8476 28.2906 20.7845 27.3259 21.4557 26.5344C21.5452 26.4298 21.5716 26.2871 21.5269 26.1596C21.3032 25.5336 20.9635 24.8715 19.5967 24.2988C20.3127 23.6043 21.6022 23.4521 22.4808 23.4521Z" fill="#18418C"/>
<path d="M41.9106 27.6359C41.9106 28.1554 41.8272 28.6691 41.6645 29.16C41.5994 29.3579 41.7173 29.5691 41.9289 29.6318C41.9696 29.6433 42.0082 29.649 42.0489 29.649C42.2197 29.649 42.3784 29.5462 42.4333 29.3845C42.6204 28.8213 42.716 28.2334 42.716 27.6378C42.716 26.7474 42.5085 25.8912 42.0977 25.0921C42.0021 24.9037 41.7621 24.8257 41.5607 24.917C41.3594 25.0064 41.276 25.231 41.3716 25.4193C41.7296 26.1119 41.9106 26.8577 41.9106 27.6359Z" fill="#18418C"/>
<path d="M38.5424 27.1225C39.0224 27.309 39.4719 27.5601 39.8767 27.8684C39.9519 27.9254 40.0414 27.9521 40.1289 27.9521C40.2469 27.9521 40.3628 27.9045 40.4421 27.8132C40.5824 27.6514 40.556 27.4155 40.3831 27.2842C39.9174 26.9322 39.4028 26.6449 38.8516 26.4299C38.6462 26.35 38.4102 26.4413 38.3248 26.6316C38.2394 26.8219 38.337 27.0426 38.5424 27.1225Z" fill="#18418C"/>
<path d="M12.0267 44.6H8.39069V53H10.3347V50.684H12.0267C14.2707 50.684 15.6747 49.52 15.6747 47.648C15.6747 45.764 14.2707 44.6 12.0267 44.6ZM11.9187 49.1H10.3347V46.184H11.9187C13.1067 46.184 13.7067 46.724 13.7067 47.648C13.7067 48.56 13.1067 49.1 11.9187 49.1ZM19.7508 53.096C21.8028 53.096 23.2908 51.716 23.2908 49.772C23.2908 47.828 21.8028 46.448 19.7508 46.448C17.6988 46.448 16.1988 47.828 16.1988 49.772C16.1988 51.716 17.6988 53.096 19.7508 53.096ZM19.7508 51.56C18.8148 51.56 18.0948 50.888 18.0948 49.772C18.0948 48.656 18.8148 47.984 19.7508 47.984C20.6868 47.984 21.3948 48.656 21.3948 49.772C21.3948 50.888 20.6868 51.56 19.7508 51.56ZM26.0901 47.396V46.544H24.3021V53H26.1741V49.952C26.1741 48.716 26.8581 48.152 27.8901 48.152C28.0341 48.152 28.1541 48.164 28.3101 48.176V46.448C27.3141 46.448 26.5461 46.772 26.0901 47.396ZM32.2446 53.096C33.6006 53.096 34.6686 52.496 35.1366 51.464L33.6846 50.672C33.3366 51.296 32.8206 51.56 32.2326 51.56C31.2846 51.56 30.5406 50.9 30.5406 49.772C30.5406 48.644 31.2846 47.984 32.2326 47.984C32.8206 47.984 33.3366 48.26 33.6846 48.872L35.1366 48.092C34.6686 47.036 33.6006 46.448 32.2446 46.448C30.1446 46.448 28.6446 47.828 28.6446 49.772C28.6446 51.716 30.1446 53.096 32.2446 53.096ZM36.9105 45.644C37.6065 45.644 38.0745 45.188 38.0745 44.564C38.0745 43.988 37.6065 43.556 36.9105 43.556C36.2145 43.556 35.7465 44.012 35.7465 44.6C35.7465 45.188 36.2145 45.644 36.9105 45.644ZM35.9745 53H37.8465V46.544H35.9745V53ZM43.2678 46.448C42.3918 46.448 41.6358 46.748 41.1318 47.3V46.544H39.3438V53H41.2158V49.808C41.2158 48.62 41.8638 48.068 42.7638 48.068C43.5918 48.068 44.0718 48.548 44.0718 49.592V53H45.9438V49.304C45.9438 47.336 44.7918 46.448 43.2678 46.448ZM50.543 53.096C52.595 53.096 54.083 51.716 54.083 49.772C54.083 47.828 52.595 46.448 50.543 46.448C48.491 46.448 46.991 47.828 46.991 49.772C46.991 51.716 48.491 53.096 50.543 53.096ZM50.543 51.56C49.607 51.56 48.887 50.888 48.887 49.772C48.887 48.656 49.607 47.984 50.543 47.984C51.479 47.984 52.187 48.656 52.187 49.772C52.187 50.888 51.479 51.56 50.543 51.56ZM57.2663 53.096C59.1983 53.096 60.3143 52.244 60.3143 51.044C60.3143 48.5 56.4143 49.568 56.4143 48.464C56.4143 48.128 56.7743 47.864 57.6143 47.864C58.2023 47.864 58.8383 47.984 59.4743 48.344L60.0983 47.012C59.4863 46.652 58.5023 46.448 57.6143 46.448C55.7303 46.448 54.6263 47.312 54.6263 48.536C54.6263 51.116 58.5263 50.036 58.5263 51.092C58.5263 51.452 58.2023 51.68 57.3383 51.68C56.5463 51.68 55.6703 51.428 55.0943 51.056L54.4703 52.4C55.0703 52.796 56.1743 53.096 57.2663 53.096Z" fill="#18418C"/>
</g>
<defs>
<clipPath id="clip0">
<path d="M0 6C0 2.68629 2.68629 0 6 0H62C65.3137 0 68 2.68629 68 6V57C68 60.3137 65.3137 63 62 63H6C2.68629 63 0 60.3137 0 57V6Z" fill="white"/>
</clipPath>
</defs>
</svg>
