<?xml version="1.0" encoding="UTF-8"?>
<!DOCTYPE svg PUBLIC "-//W3C//DTD SVG 1.1//EN" "http://www.w3.org/Graphics/SVG/1.1/DTD/svg11.dtd">
<!-- Creator: CorelDRAW 2018 (64 Bit Versión de evaluación) -->
<svg xmlns="http://www.w3.org/2000/svg" xml:space="preserve" width="1.905cm" height="1.93887cm" version="1.1" style="shape-rendering:geometricPrecision; text-rendering:geometricPrecision; image-rendering:optimizeQuality; fill-rule:evenodd; clip-rule:evenodd"
viewBox="0 0 1905 1940.28"
 xmlns:xlink="http://www.w3.org/1999/xlink">
 <defs>
  <style type="text/css">
   <![CDATA[
    .fil0 {fill:#18418C}
   ]]>
  </style>
 </defs>
 <g id="Capa_x0020_1">
  <metadata id="CorelCorpID_0Corel-Layer"/>
  <g id="_2367844812800">
   <g>
    <path class="fil0" d="M1769.43 455.42l-417.12 0 0 -167.42c0,-90.8 -73.77,-167.41 -167.41,-167.41l-459.68 0c-90.8,0 -167.42,73.78 -167.42,167.41l0 167.42 -417.12 0c-68.1,0 -124.85,56.75 -124.85,124.85l0 1169.07c0,68.1 56.75,124.85 124.85,124.85l1625.91 0c68.1,0 124.85,-56.75 124.85,-124.85l0.01 -1169.07c2.83,-68.1 -53.92,-124.85 -122.02,-124.85zm-334.83 82.29l167.42 0 0 334.83c0,22.7 -19.87,42.56 -42.57,42.56l-82.29 0c-22.7,0 -42.56,-19.86 -42.56,-42.56l0 -334.83zm-791.67 -249.71c0,-45.4 36.89,-82.28 82.29,-82.28l459.68 0c45.4,0 82.29,36.88 82.29,82.28l0 167.42 -624.26 0 0 -167.42zm-85.13 249.71l794.51 0 0 249.7 -794.51 0 0 -249.7zm-249.7 0l167.41 0 0 334.83c0,22.7 -19.86,42.56 -42.56,42.56l-82.29 0c-22.7,0 -42.56,-19.86 -42.56,-42.56l0 -334.83zm-207.14 42.56c0,-22.7 19.86,-42.56 42.56,-42.56l82.29 0 0 249.7 -124.85 0 0 -207.14zm1708.2 1169.07c0,22.7 -19.87,42.56 -42.57,42.56l-1625.91 0c-22.7,0 -42.56,-19.86 -42.56,-42.56l0 -876.8 124.85 0c0,68.1 56.75,124.85 124.85,124.85l82.29 0c68.1,0 124.85,-56.75 124.85,-124.85l797.35 0c0,68.1 56.75,124.85 124.85,124.85l82.29 0c68.1,0 124.85,-56.75 124.85,-124.85l124.86 0 0 876.8zm0 -959.09l-124.86 0 0 -249.7 82.29 0c22.7,0 42.57,19.86 42.57,42.56l0 207.14z"/>
    <path class="fil0" d="M1162.2 1164.8l-42.56 0 0 -42.56c0,-68.1 -56.76,-124.85 -124.86,-124.85l-82.29 0c-68.1,0 -124.85,56.75 -124.85,124.85l0 42.56 -42.56 0c-68.1,0 -124.85,56.76 -124.85,124.86l0 82.28c0,68.11 56.75,124.86 124.85,124.86l42.56 0 0 42.56c0,68.1 56.75,124.85 124.85,124.85l82.29 0c68.1,0 124.85,-56.75 124.85,-124.85l0 -42.56 42.57 0c68.1,0 124.85,-56.76 124.85,-124.86l0 -82.28c2.84,-68.1 -53.91,-124.86 -124.85,-124.86zm42.56 207.14c0,22.71 -19.86,42.57 -42.56,42.57l-82.29 0c-22.7,0 -42.56,19.86 -42.56,42.56l0 82.29c0,22.7 -19.87,42.56 -42.57,42.56l-82.29 0c-22.7,0 -42.56,-19.86 -42.56,-42.56l0 -82.29c0,-22.7 -19.86,-42.56 -42.56,-42.56l-82.29 0c-22.7,0 -42.56,-19.86 -42.56,-42.57l0 -82.28c0,-22.7 19.86,-42.57 42.56,-42.57l82.29 0c22.7,0 42.56,-19.86 42.56,-42.56l0 -82.29c0,-22.7 19.86,-42.56 42.57,-42.56l82.28 0c22.7,0 42.57,19.86 42.57,42.56l0 82.29c0,22.7 19.86,42.56 42.56,42.56l82.29 0c22.7,0 42.56,19.87 42.56,42.57l0 82.28z"/>
   </g>
  </g>
 </g>
</svg>
