<?xml version="1.0" encoding="UTF-8"?>
<!DOCTYPE svg PUBLIC "-//W3C//DTD SVG 1.1//EN" "http://www.w3.org/Graphics/SVG/1.1/DTD/svg11.dtd">
<!-- Creator: CorelDRAW 2018 (64 Bit Versión de evaluación) -->
<svg xmlns="http://www.w3.org/2000/svg" xml:space="preserve" width="18.501mm" height="18.501mm" version="1.1" style="shape-rendering:geometricPrecision; text-rendering:geometricPrecision; image-rendering:optimizeQuality; fill-rule:evenodd; clip-rule:evenodd"
viewBox="0 0 548.16 548.16"
 xmlns:xlink="http://www.w3.org/1999/xlink">
 <defs>
  <style type="text/css">
   <![CDATA[
    .fil0 {fill:#334F8E}
    .fil1 {fill:#334F8E;fill-rule:nonzero}
   ]]>
  </style>
 </defs>
 <g id="Capa_x0020_1">
  <metadata id="CorelCorpID_0Corel-Layer"/>
  <g id="_2063825358944">
   <path class="fil0" d="M263.29 155.14l-21.78 22.79c-1.88,1.96 -2.21,4.93 -0.81,7.27l0 0 55.01 92.2c2.36,3.93 8.06,3.93 10.38,-0.03l0 0 25.23 -42.84c1.12,-1.9 1.11,-4.25 -0.01,-6.14l0 0 -40.87 -68.98c-0.88,-1.51 -2.54,-4.72 -4.27,-5.02l0 0 -17.55 -4.25c-0.08,-0.01 -0.17,-0.02 -0.26,-0.02 -1.9,0 -3.73,3.62 -5.07,5.02l0 0z"/>
   <path class="fil1" d="M274.08 47.81c-124.77,0 -226.27,101.51 -226.27,226.27 0,124.77 101.51,226.26 226.27,226.26 124.77,0 226.27,-101.5 226.27,-226.26 0,-124.76 -101.5,-226.27 -226.27,-226.27zm0 500.35c-151.13,0 -274.08,-122.95 -274.08,-274.08 0,-151.12 122.95,-274.07 274.08,-274.07 151.12,0 274.07,122.95 274.07,274.07 0,151.13 -122.95,274.08 -274.07,274.08z"/>
   <path class="fil1" d="M287.55 155.02c-13.75,-15.69 -30.81,-22.03 -51.26,-19.44 -18.51,2.34 -32.42,12.15 -41.85,28.27 -9.25,15.82 -18.56,31.6 -27.82,47.41 -10.65,18.2 -21.24,36.44 -31.91,54.63 -10.28,17.53 -20.6,35 -30.88,52.53 -0.61,1.04 -1.61,1.98 -1.55,3.43 0.34,0.1 0.65,0.28 0.96,0.28 20.85,0.02 41.68,0.01 62.53,0.07 1.74,0.01 2.42,-0.9 3.15,-2.15 11.96,-20.42 23.95,-40.83 35.9,-61.26 10.55,-18.04 21.01,-36.15 31.63,-54.14 2.62,-4.44 4.6,-9.3 8.06,-13.21 5.37,-9.31 10.51,-18.74 16.14,-27.89 6.22,-10.13 16.45,-12.56 26.99,-6.93 0.5,0.27 1,0.48 1.53,0.71 -0.22,-0.35 -0.46,-0.72 -0.72,-1.1 -0.31,-0.44 -0.63,-0.84 -0.93,-1.2z"/>
   <path class="fil0" d="M243.08 251.18l-0.09 0 -0.09 0c-1.98,0.03 -3.96,1.03 -5.11,2.97l0 0 -25.24 42.85c-1.12,1.89 -1.12,4.24 0.01,6.13l0 0 40.87 68.98c0.9,1.51 2.54,4.71 4.27,5.02l0 0 17.55 4.25c1.99,0.36 3.93,-3.53 5.32,-5l0 0 21.79 -22.79c1.87,-1.96 2.2,-4.93 0.81,-7.26l0 0 -55.02 -92.21c-1.15,-1.93 -3.1,-2.91 -5.08,-2.94z"/>
   <path class="fil1" d="M256.31 376.51c13.74,15.7 30.8,22.04 51.25,19.45 18.52,-2.34 32.42,-12.15 41.86,-28.27 9.25,-15.81 18.55,-31.6 27.81,-47.41 10.66,-18.2 21.25,-36.43 31.92,-54.63 10.27,-17.53 20.6,-35 30.87,-52.53 0.62,-1.04 1.6,-1.98 1.54,-3.43 -0.34,-0.1 -0.65,-0.28 -0.96,-0.28 -20.84,-0.02 -41.69,-0.01 -62.53,-0.07 -1.73,-0.01 -2.42,0.9 -3.15,2.16 -11.96,20.43 -23.95,40.83 -35.9,61.25 -10.56,18.04 -21.01,36.15 -31.63,54.15 -2.63,4.44 -4.6,9.29 -8.06,13.21 -5.37,9.31 -10.51,18.75 -16.14,27.9 -6.22,10.12 -16.45,12.56 -27,6.92 -0.5,-0.27 -0.99,-0.47 -1.52,-0.7 0.21,0.35 0.45,0.72 0.72,1.1 0.31,0.44 0.62,0.84 0.93,1.2z"/>
  </g>
 </g>
</svg>
