<svg width="68" height="63" viewBox="0 0 68 63" fill="none" xmlns="http://www.w3.org/2000/svg">
<rect width="68" height="63" rx="6" fill="white"/>
<path d="M0 6C0 2.68629 2.68629 0 6 0H62C65.3137 0 68 2.68629 68 6V57C68 60.3137 65.3137 63 62 63H6C2.68629 63 0 60.3137 0 57V6Z" fill="#E8E9EA" fill-opacity="0.48"/>
<path d="M35.5518 26.1502C35.5884 26.1616 35.623 26.1673 35.6596 26.1673C35.804 26.1673 35.9382 26.0817 35.985 25.9466C36.0786 25.6821 36.1762 25.431 36.3267 25.2826C36.4569 25.1532 36.4508 24.9496 36.3125 24.8297C36.1742 24.708 35.9565 24.7137 35.8284 24.843C35.5803 25.0885 35.4542 25.41 35.3342 25.7468C35.2752 25.9123 35.3728 26.095 35.5518 26.1502Z" fill="#18418C"/>
<path d="M20.2468 27.2194C20.2752 27.482 20.2956 27.7427 20.3159 27.9995C20.4563 29.7538 20.5885 31.4091 22.6793 32.4423L22.7505 32.4765C22.8603 32.5317 22.9579 32.5774 23.0556 32.6402C23.1125 32.6763 23.1796 32.6953 23.2488 32.6953C23.2793 32.6953 23.3118 32.6915 23.3423 32.6839C23.44 32.6573 23.5213 32.5926 23.562 32.507C23.7552 32.1036 23.9342 31.5157 24.0542 30.8935C24.0847 30.7337 23.983 30.5796 23.8183 30.5301C23.7227 30.5016 23.6251 30.4844 23.5396 30.4692C23.4684 30.4559 23.3667 30.4369 23.3179 30.4178C23.3179 30.4026 23.32 30.3798 23.3281 30.3474C23.3647 30.1971 23.2813 30.043 23.1288 29.9821C22.5654 29.7557 22.3396 29.4646 22.2664 28.8691C22.2379 28.6369 22.2034 27.8283 22.2461 27.5201C22.8359 27.3774 23.4684 27.404 24.1335 27.4325C24.7864 27.4592 25.4617 27.4877 26.1186 27.3488C26.2996 27.678 26.5172 28.0148 26.7288 28.3458C26.9606 28.7073 27.1783 29.0479 27.3491 29.3695C27.6501 29.9346 28.3762 32.0446 28.5084 32.6687C28.6081 33.133 28.6569 33.6695 28.6142 33.7913C28.5552 33.9359 28.4718 34.012 28.3335 34.1376C28.2847 34.1832 28.2318 34.2308 28.1769 34.286C27.8352 34.6285 27.5972 35.0337 27.4508 35.3363C27.4284 35.361 27.4081 35.3914 27.3959 35.4219C27.3369 35.5646 27.3939 35.7282 27.5301 35.8119C27.5911 35.8481 27.6603 35.8652 27.7315 35.8614C28.1138 35.9128 28.8786 35.9413 29.3159 35.9413C29.4135 35.9413 29.505 35.9033 29.5701 35.8367C29.6352 35.7701 29.6677 35.6806 29.6576 35.5893C29.6332 35.361 29.7532 35.2659 30.0766 35.0718C30.3308 34.9177 30.6481 34.7274 30.6969 34.3583C30.7498 33.9587 30.6379 33.483 30.5301 33.0226C30.4711 32.7734 30.4162 32.5374 30.3959 32.3453L30.3247 31.6831C30.2047 30.5758 30.0806 29.4304 30.0054 28.304C30.0033 28.2811 30.0033 28.2621 30.0013 28.2412C30.0461 28.3173 30.1233 28.3763 30.221 28.3991C30.6786 28.4999 31.3945 28.5551 32.1715 28.5551C33.1132 28.5551 34.1382 28.4733 34.8928 28.2945C34.9172 28.6636 34.9803 29.0156 35.0881 29.3314C35.2752 29.8832 35.3993 30.1933 35.5193 30.4939C35.5762 30.6386 35.6332 30.7813 35.6942 30.9449C35.4216 31.3406 35.1918 31.7802 34.9701 32.2064C34.783 32.566 34.5877 32.937 34.3742 33.2661C34.0142 33.8217 33.7843 34.305 33.583 34.7312C33.4488 35.0128 33.3349 35.2544 33.2027 35.479C33.1477 35.5722 33.1457 35.6863 33.1986 35.7815C33.2515 35.8766 33.3511 35.9413 33.465 35.9527C33.766 35.9851 34.2582 35.9946 34.7016 35.9946C35.1003 35.9946 35.4603 35.987 35.6169 35.9794C35.7369 35.9737 35.8487 35.9204 35.9301 35.8328C36.164 35.5817 36.1701 34.9215 36.1274 34.3735C36.3633 34.012 37.3152 32.7657 37.6609 32.488C37.7769 32.3947 37.8725 32.3338 37.9579 32.2806C38.2894 32.0713 38.4481 31.9114 38.4826 31.354C38.505 30.9944 38.5376 30.7204 38.5925 30.4978C38.6718 30.4235 38.7084 30.3151 38.686 30.2105C38.7409 30.0754 38.8101 29.9593 38.8955 29.847C38.9199 29.8261 38.9443 29.809 38.9667 29.7995C39.2291 29.6834 39.7721 29.9441 40.126 30.2504C40.8216 30.8555 41.324 31.8011 41.6575 33.1387L41.6738 33.2015C41.8182 33.7608 41.7836 33.9245 41.7572 33.9701C41.1918 34.3583 40.842 35.0375 40.8175 35.7891C40.8114 35.9603 40.9518 36.1049 41.1328 36.1183C41.3911 36.1373 41.7186 36.143 42.0216 36.143C42.4935 36.143 42.9104 36.1278 42.9389 36.1278C43.0386 36.124 43.1321 36.0764 43.1931 36.0041C43.2562 35.9299 43.2806 35.8329 43.2603 35.7396C43.2582 35.7301 43.2135 35.5037 43.4006 35.2544C43.5511 35.0509 43.7138 34.9101 43.8684 34.8473C44.0087 34.7902 44.0921 34.6532 44.0718 34.5105C44.0494 34.3469 43.9741 34.0938 43.8724 33.7437C43.665 33.0321 43.3497 31.9571 43.3864 31.236C43.3925 31.1047 43.4006 30.9944 43.4067 30.8973C43.4494 30.2561 43.4433 30.0963 43.004 29.3657C42.6887 28.8462 42.5606 28.2203 42.4833 27.7351C42.3918 27.1548 42.3897 26.5326 42.3897 25.8743C42.3897 25.8039 42.3897 25.7335 42.3897 25.6612C42.4691 25.1646 42.4691 24.6527 42.3714 24.158C43.4575 24.8849 43.4616 26.0645 43.4657 27.307C43.4677 27.9082 43.4697 28.5323 43.604 29.0974C43.844 30.1077 44.7816 30.9753 45.886 31.2113C46.1179 31.2607 46.4067 31.3102 46.7097 31.3102C46.9924 31.3102 47.2894 31.2664 47.564 31.1409C48.0541 30.9144 48.8311 30.3075 48.6745 29.4703C48.6745 29.4665 48.6724 29.4627 48.6724 29.4589C48.6704 29.4532 48.6704 29.4456 48.6704 29.4399C48.6684 29.4342 48.6663 29.4285 48.6643 29.4246C48.6602 29.4132 48.6582 29.4037 48.6541 29.3923C48.6501 29.3828 48.646 29.3733 48.6399 29.3638C48.6358 29.3542 48.6297 29.3466 48.6257 29.3371C48.6196 29.3276 48.6134 29.3181 48.6053 29.3086C48.5992 29.301 48.5931 29.2934 48.587 29.2877C48.5789 29.2781 48.5707 29.2705 48.5606 29.2629C48.5545 29.2572 48.5463 29.2515 48.5382 29.2458C48.528 29.2382 48.5158 29.2306 48.5036 29.2249C48.4996 29.223 48.4955 29.2192 48.4914 29.2173C48.4873 29.2154 48.4833 29.2154 48.4812 29.2134C48.469 29.2077 48.4568 29.2039 48.4446 29.2001C48.4345 29.1963 48.4263 29.1944 48.4162 29.1925C48.406 29.1906 48.3938 29.1887 48.3816 29.1868C48.3694 29.1849 48.3592 29.1849 48.347 29.183C48.3368 29.183 48.3267 29.183 48.3165 29.183C48.3043 29.183 48.2921 29.1849 48.2799 29.1868C48.2758 29.1868 48.2718 29.1868 48.2677 29.1887C48.2616 29.1906 48.2575 29.1925 48.2514 29.1925C48.2392 29.1963 48.227 29.1982 48.2168 29.202C48.2067 29.2058 48.1965 29.2096 48.1863 29.2134C48.1762 29.2173 48.166 29.223 48.1579 29.2287C48.1477 29.2344 48.1396 29.2401 48.1294 29.2458C48.1213 29.2515 48.1131 29.2591 48.105 29.2648C48.0968 29.2724 48.0887 29.28 48.0806 29.2877C48.0745 29.2953 48.0663 29.3029 48.0602 29.3105C48.0521 29.32 48.046 29.3295 48.0399 29.339C48.0379 29.3428 48.0338 29.3466 48.0297 29.3523C47.9972 29.4094 47.9504 29.4646 47.8223 29.4684C47.5904 29.4722 47.3097 29.3181 47.2182 29.1792C46.968 28.7949 47.0229 28.3287 47.0779 27.8359C47.1043 27.6057 47.1307 27.3679 47.1287 27.1338C47.1124 26.1616 46.907 25.3453 46.5023 24.6356C45.9694 23.7052 44.8752 22.9099 43.7789 22.6568C43.0731 22.4951 42.4019 22.5579 41.8162 22.8338C41.627 22.5598 41.3911 22.3067 41.1043 22.086C39.4426 20.8036 37.4454 20.952 35.5152 21.0947C34.2481 21.188 33.0298 21.2793 31.9538 20.9692C32.4013 20.7313 32.8142 20.3584 33.0298 19.9607C33.406 19.2644 33.3206 18.6365 33.2799 18.334C33.2759 18.3054 33.2718 18.2807 33.2698 18.2598C33.2942 18.157 33.2616 18.0429 33.1762 17.9629C33.042 17.8393 32.8243 17.8393 32.6901 17.9667C32.5477 18.1018 32.4359 18.1133 32.3667 18.1113C31.9742 18.0961 31.4657 17.5272 31.1932 17.2209L31.126 17.1467C30.9837 16.9888 30.8637 16.8213 30.7335 16.6425C30.5749 16.4218 30.4081 16.1935 30.1966 15.9785C28.6427 14.4049 25.6244 13.3166 23.2589 14.2185C23.2122 14.2356 23.1735 14.2622 23.141 14.2927C22.9905 14.1975 22.7932 14.0853 22.6407 14.0415L22.6081 14.032C22.2989 13.9407 22.122 13.895 21.4996 13.8551C21.3634 13.8475 21.2312 13.916 21.1701 14.032C21.1071 14.1481 21.1274 14.287 21.2169 14.384C21.5403 14.736 21.8657 15.4571 21.7864 15.8281C21.7539 15.9765 21.6908 16.1459 21.6298 16.3095C21.5769 16.4522 21.522 16.5987 21.4834 16.7414C21.343 17.257 21.2983 17.8031 21.2556 18.3302C21.2393 18.5185 21.2251 18.705 21.2047 18.8895C21.1864 19.0589 21.162 19.2206 21.1396 19.3823C21.1152 19.5517 21.0888 19.721 21.0705 19.898C21.0644 19.9588 21.044 20.0502 21.0257 20.1491C20.9586 20.4707 20.8834 20.8341 21.0054 21.1062C21.3308 21.8292 22.5064 22.0461 23.141 21.8387C23.6596 21.6693 23.6942 21.3193 23.7186 21.0871C23.7267 21.0091 23.7349 20.9292 23.7573 20.8455C23.8366 20.5449 23.9911 20.2461 24.1315 19.995C24.4 19.5117 24.5851 19.3253 24.9044 19.3215C24.9166 19.3481 24.9328 19.3728 24.9532 19.3957C25.5084 20.0045 25.3417 21.2755 25.2095 22.2953C25.1667 22.6245 25.1261 22.9346 25.1118 23.2029C25.0956 23.4959 25.1139 23.8803 25.1667 24.3045C24.1335 24.3483 23.1267 24.6756 22.2298 24.9705C21.819 25.1056 21.2332 25.3168 20.8183 25.5051C20.0881 25.8381 20.1674 26.5307 20.2284 27.0882L20.2468 27.2194ZM42.4101 29.6777C42.766 30.2675 42.764 30.2999 42.7274 30.8517C42.7213 30.9525 42.7131 31.0667 42.705 31.2017C42.6643 32.0256 42.9938 33.1577 43.2135 33.9092C43.2663 34.09 43.3152 34.2555 43.3497 34.3849C43.1687 34.5048 42.9979 34.6703 42.8413 34.8834C42.6786 35.1041 42.6094 35.3172 42.585 35.4923C42.3064 35.498 41.8996 35.5018 41.5416 35.4923C41.6596 34.8739 42.044 34.5657 42.1741 34.4781C42.6338 34.1661 42.4467 33.4374 42.345 33.0454L42.3308 32.9884C41.9647 31.5233 41.3972 30.473 40.5979 29.7766C40.5267 29.7139 40.0874 29.3466 39.5647 29.1925C39.7742 29.027 40.006 28.871 40.2501 28.7092C40.8094 28.3363 41.385 27.9482 41.7592 27.3698C41.7735 27.5239 41.7897 27.6761 41.8141 27.8245C41.8935 28.3668 42.0399 29.065 42.4101 29.6777ZM43.6202 23.2771C44.5253 23.4845 45.463 24.1676 45.9023 24.9343C46.2541 25.5527 46.4331 26.2738 46.4474 27.1414C46.4514 27.3374 46.427 27.5448 46.4006 27.7655C46.3375 28.3154 46.2663 28.9414 46.6345 29.5103C46.8562 29.8508 47.3667 30.0716 47.8121 30.0716C47.8243 30.0716 47.8345 30.0335 47.8467 30.0335C47.627 30.414 47.2691 30.5225 47.263 30.5244C46.8907 30.6975 46.3863 30.6386 46.0406 30.5643C45.1863 30.3836 44.4602 29.7234 44.2752 28.9471C44.1572 28.4486 44.1552 27.8911 44.1531 27.2975C44.1491 25.9218 44.143 24.3635 42.5016 23.4655C42.408 23.4141 42.2982 23.4122 42.2026 23.4464C42.1965 23.4217 42.1904 23.3989 42.1843 23.376C42.7131 23.1496 43.244 23.1896 43.6202 23.2771ZM29.6962 16.4104C29.8732 16.5892 30.0155 16.7871 30.1681 16.9983C30.3003 17.1828 30.4386 17.3712 30.6033 17.5558L30.6684 17.6281C31.0569 18.0638 31.6447 18.7202 32.3403 18.7487C32.4399 18.7525 32.5376 18.743 32.6311 18.7202C32.6413 18.979 32.6108 19.3138 32.4196 19.6677C32.1898 20.0939 31.606 20.5087 31.1484 20.5753C31.124 20.5791 31.0996 20.5848 31.0752 20.5943C30.9125 20.5011 30.7518 20.3946 30.5972 20.269C29.8813 19.6906 29.2305 18.7297 28.8623 18.0219C28.484 17.297 28.0447 16.6292 27.5586 16.0393C26.9301 15.2783 26.143 14.7817 25.1789 14.5343C26.8813 14.5533 28.6752 15.3753 29.6962 16.4104ZM23.5254 19.6944C23.3667 19.9798 23.1898 20.3223 23.0942 20.6895C23.0596 20.8189 23.0495 20.933 23.0393 21.0243C23.0332 21.0814 23.025 21.167 23.0128 21.1861C23.0128 21.1861 22.9945 21.2051 22.9193 21.2298C22.5288 21.3573 21.7884 21.1804 21.642 20.855C21.6013 20.7618 21.6705 20.4288 21.703 20.269C21.7274 20.1567 21.7478 20.0502 21.7579 19.9588C21.7762 19.7914 21.7986 19.6297 21.823 19.4699C21.8474 19.3005 21.8739 19.1293 21.8922 18.9523C21.9125 18.7621 21.9288 18.5718 21.943 18.3777C21.9837 17.8773 22.0264 17.3598 22.1505 16.8974C22.183 16.7814 22.2298 16.6539 22.2806 16.5188C22.3498 16.3343 22.421 16.144 22.4617 15.9518C22.5491 15.5427 22.3864 15.0119 22.1566 14.5743C22.242 14.5933 22.3152 14.6142 22.4067 14.6409L22.4393 14.6504C22.5329 14.6789 22.7789 14.8254 22.9498 14.9472C22.9783 14.9681 23.0108 14.9834 23.0454 14.9948C23.2793 15.069 23.4989 15.0404 23.6739 15.0176C23.7613 15.0062 23.8427 14.9948 23.9139 14.9986C25.2705 15.0595 26.2569 15.5142 27.0135 16.4313C27.4732 16.9869 27.8861 17.6167 28.244 18.3035C28.6427 19.0684 29.3525 20.1149 30.1477 20.7561C31.7138 22.0175 33.6745 21.871 35.5701 21.7321C37.4474 21.5932 39.2209 21.462 40.6691 22.5788C41.1409 22.9441 41.442 23.4293 41.6067 23.9602C41.6881 24.4796 41.7023 25.0333 41.7043 25.5851C41.625 26.0816 41.4521 26.563 41.206 26.9797C40.9111 27.4763 40.3945 27.8226 39.8453 28.1879C39.4996 28.4181 39.1416 28.6579 38.8365 28.9414C38.6637 29.1031 38.5172 29.2515 38.3952 29.3999C38.1775 29.5902 37.9843 29.8718 37.9803 30.1515C37.8826 30.4559 37.8257 30.8212 37.7952 31.314C37.7769 31.6165 37.7687 31.6203 37.5714 31.7459C37.4759 31.8068 37.3559 31.881 37.2114 31.999C36.7375 32.3814 35.6047 33.8997 35.4684 34.1566C35.4399 34.2099 35.4277 34.267 35.4338 34.3259C35.4684 34.7217 35.4623 35.1479 35.4237 35.3439C35.1084 35.3534 34.5206 35.3591 34.0406 35.3439C34.0976 35.2297 34.1525 35.1117 34.2094 34.9919C34.4047 34.5828 34.6243 34.1185 34.962 33.5972C35.1898 33.2433 35.3911 32.859 35.5864 32.488C35.8243 32.0332 36.0704 31.5633 36.3572 31.1713C36.4182 31.0876 36.4345 30.9829 36.3999 30.8878C36.3145 30.65 36.2393 30.4635 36.164 30.2713C36.0481 29.9783 35.926 29.6739 35.745 29.1373C35.5416 28.5399 35.5131 27.7883 35.6616 27.0235C35.6962 26.8484 35.5721 26.6829 35.385 26.6505C35.1979 26.6201 35.0209 26.7343 34.9864 26.9093C34.9376 27.1586 34.9091 27.4059 34.8928 27.6495C34.8582 27.6475 34.8216 27.6495 34.785 27.659C33.5667 27.9653 31.3071 27.9786 30.3796 27.775C30.225 27.7408 30.0745 27.8112 30.0013 27.933C30.0155 27.7579 30.0603 27.6038 30.1579 27.4192C30.1864 27.3679 30.2128 27.3298 30.2352 27.2975C30.3043 27.1985 30.3816 27.0882 30.4162 26.856C30.4366 26.7095 30.4121 26.5782 30.3918 26.4736C30.3755 26.3956 30.3633 26.3271 30.3715 26.27C30.3979 26.095 30.2657 25.9332 30.0786 25.9085C29.8915 25.8838 29.7186 26.0074 29.6922 26.1825C29.6698 26.3404 29.6962 26.4774 29.7166 26.5878C29.7308 26.6601 29.743 26.7229 29.7369 26.7704C29.7247 26.8579 29.7125 26.8751 29.6637 26.9455C29.6311 26.9911 29.5905 27.0501 29.5477 27.1319C29.3179 27.5581 29.2915 27.8873 29.322 28.3458C29.3972 29.4836 29.5233 30.6366 29.6433 31.7497L29.7145 32.4099C29.7389 32.6402 29.7979 32.8932 29.861 33.1615C29.9566 33.5687 30.0562 33.9892 30.0155 34.2803C30.0054 34.3526 29.8447 34.4477 29.7044 34.5333C29.4522 34.6855 29.1003 34.8967 28.9966 35.2982C28.7525 35.2925 28.4881 35.283 28.2603 35.2678C28.3884 35.0604 28.5308 34.8758 28.6793 34.7274C28.7261 34.6798 28.7728 34.638 28.8155 34.598C28.9762 34.4515 29.141 34.2993 29.2528 34.0253C29.4013 33.6676 29.2345 32.8019 29.1796 32.545C29.0352 31.8582 28.2928 29.71 27.9613 29.086C27.7783 28.7435 27.5423 28.3744 27.3145 28.0186C27.1132 27.7046 26.9077 27.3831 26.7389 27.0786C26.7593 26.9949 26.7471 26.9055 26.6922 26.8294C26.0352 25.8876 25.7484 24.1371 25.7972 23.2352C25.8094 22.9917 25.8481 22.6911 25.8908 22.3752C26.023 21.3687 26.1816 20.1472 25.7098 19.3062C25.7423 19.272 25.7708 19.2301 25.785 19.1826C25.8379 19.0132 25.7342 18.8344 25.5532 18.7849C24.4528 18.4767 23.9769 18.8857 23.5254 19.6944ZM21.1213 26.0797C21.5098 25.9028 22.0854 25.6954 22.4596 25.5736C23.3322 25.2863 24.3145 24.9667 25.2705 24.94C25.3925 25.5584 25.5857 26.2034 25.8623 26.7419C25.3254 26.837 24.76 26.8142 24.164 26.7894C23.4135 26.7571 22.6386 26.7248 21.8922 26.9455C21.5851 27.0368 21.5322 27.3698 21.5383 28.0376C21.5423 28.4391 21.5729 28.8462 21.583 28.9395C21.6745 29.6815 21.9918 30.1515 22.6325 30.4692C22.6406 30.5834 22.6752 30.6842 22.7362 30.7717C22.8766 30.9734 23.1064 31.04 23.3139 31.08C23.2447 31.3806 23.1613 31.666 23.0739 31.9095C23.0718 31.9095 23.0718 31.9076 23.0698 31.9076L23.0006 31.8734C21.2474 31.0077 21.1376 29.6587 21.0013 27.9501C20.981 27.6894 20.9586 27.4249 20.9301 27.1567L20.9159 27.0178C20.8508 26.447 20.8508 26.2034 21.1213 26.0797Z" fill="#18418C"/>
<path d="M40.2979 25.6668C40.2979 25.9313 40.2515 26.192 40.163 26.4412C40.1011 26.6105 40.2117 26.7913 40.4085 26.8427C40.4461 26.8522 40.4815 26.8579 40.5191 26.8579C40.6784 26.8579 40.8266 26.7704 40.8753 26.6315C40.9881 26.3213 41.0456 25.996 41.0456 25.6668C41.0456 25.1759 40.9195 24.7022 40.674 24.2607C40.5855 24.1009 40.3621 24.0343 40.1763 24.1104C39.9905 24.1865 39.9131 24.3787 40.0015 24.5385C40.1984 24.8924 40.2979 25.273 40.2979 25.6668Z" fill="#18418C"/>
<path d="M38.4376 23.2637C38.7031 23.3589 38.9508 23.4863 39.1742 23.6424C39.2428 23.6899 39.3268 23.7147 39.4087 23.7147C39.5171 23.7147 39.6255 23.6747 39.6985 23.5967C39.829 23.4597 39.8046 23.2561 39.6432 23.1458C39.3644 22.9517 39.0548 22.7919 38.723 22.6739C38.5327 22.6054 38.3138 22.6834 38.2341 22.8471C38.1567 23.0069 38.2474 23.1952 38.4376 23.2637Z" fill="#18418C"/>
<path d="M12.2769 51.44V49.496H16.1769V47.984H12.2769V46.16H16.6929V44.6H10.3449V53H16.8489V51.44H12.2769ZM22.7408 46.544V47.288C22.2728 46.724 21.5888 46.448 20.7248 46.448C18.9008 46.448 17.4968 47.744 17.4968 49.772C17.4968 51.8 18.9008 53.096 20.7248 53.096C21.5168 53.096 22.1888 52.844 22.6568 52.316V55.328H24.5288V46.544H22.7408ZM21.0488 51.56C20.1128 51.56 19.3928 50.888 19.3928 49.772C19.3928 48.656 20.1128 47.984 21.0488 47.984C21.9728 47.984 22.6928 48.656 22.6928 49.772C22.6928 50.888 21.9728 51.56 21.0488 51.56ZM30.654 46.544V49.736C30.654 50.924 30.03 51.476 29.166 51.476C28.338 51.476 27.858 50.996 27.858 49.916V46.544H25.986V50.192C25.986 52.184 27.126 53.096 28.746 53.096C29.538 53.096 30.258 52.796 30.75 52.232V53H32.526V46.544H30.654ZM34.9563 45.644C35.6523 45.644 36.1203 45.188 36.1203 44.564C36.1203 43.988 35.6523 43.556 34.9563 43.556C34.2603 43.556 33.7923 44.012 33.7923 44.6C33.7923 45.188 34.2603 45.644 34.9563 45.644ZM34.0203 53H35.8923V46.544H34.0203V53ZM41.3136 46.448C40.4376 46.448 39.6816 46.748 39.1776 47.3V46.544H37.3896V53H39.2616V49.808C39.2616 48.62 39.9096 48.068 40.8096 48.068C41.6376 48.068 42.1176 48.548 42.1176 49.592V53H43.9896V49.304C43.9896 47.336 42.8376 46.448 41.3136 46.448ZM48.5888 53.096C50.6408 53.096 52.1288 51.716 52.1288 49.772C52.1288 47.828 50.6408 46.448 48.5888 46.448C46.5368 46.448 45.0368 47.828 45.0368 49.772C45.0368 51.716 46.5368 53.096 48.5888 53.096ZM48.5888 51.56C47.6528 51.56 46.9328 50.888 46.9328 49.772C46.9328 48.656 47.6528 47.984 48.5888 47.984C49.5248 47.984 50.2328 48.656 50.2328 49.772C50.2328 50.888 49.5248 51.56 48.5888 51.56ZM55.3121 53.096C57.2441 53.096 58.3601 52.244 58.3601 51.044C58.3601 48.5 54.4601 49.568 54.4601 48.464C54.4601 48.128 54.8201 47.864 55.6601 47.864C56.2481 47.864 56.8841 47.984 57.5201 48.344L58.1441 47.012C57.5321 46.652 56.5481 46.448 55.6601 46.448C53.7761 46.448 52.6721 47.312 52.6721 48.536C52.6721 51.116 56.5721 50.036 56.5721 51.092C56.5721 51.452 56.2481 51.68 55.3841 51.68C54.5921 51.68 53.7161 51.428 53.1401 51.056L52.5161 52.4C53.1161 52.796 54.2201 53.096 55.3121 53.096Z" fill="#18418C"/>
</svg>
