<?xml version="1.0" encoding="UTF-8"?>
<!DOCTYPE svg PUBLIC "-//W3C//DTD SVG 1.1//EN" "http://www.w3.org/Graphics/SVG/1.1/DTD/svg11.dtd">
<!-- Creator: CorelDRAW 2018 (64 Bit Versión de evaluación) -->
<svg xmlns="http://www.w3.org/2000/svg" xml:space="preserve" width="228.6mm" height="228.599mm" version="1.1" style="shape-rendering:geometricPrecision; text-rendering:geometricPrecision; image-rendering:optimizeQuality; fill-rule:evenodd; clip-rule:evenodd"
viewBox="0 0 20849.76 20849.68"
 xmlns:xlink="http://www.w3.org/1999/xlink">
 <defs>
  <style type="text/css">
   <![CDATA[
    .fil0 {fill:#334F8E}
    .fil1 {fill:#334F8E;fill-rule:nonzero}
   ]]>
  </style>
 </defs>
 <g id="Capa_x0020_1">
  <metadata id="CorelCorpID_0Corel-Layer"/>
  <g id="_2063944761584">
   <path class="fil0" d="M10014.34 5900.96l-828.58 866.92c-71.31,74.35 -84.02,187.59 -30.98,276.4l0 0 2092.18 3507.05c89.61,149.67 306.52,149.35 395.01,-1.11l0 0 959.88 -1629.55c42.57,-72.19 42.25,-161.72 -0.32,-233.6l0 0 -1554.62 -2623.6c-33.55,-57.18 -96.64,-179.45 -162.28,-190.95l0 0 -667.42 -161.73c-3.12,-0.56 -6.48,-0.88 -9.9,-0.88 -72.35,0 -142,137.77 -192.96,191.03l0 0z"/>
   <path class="fil1" d="M10425 1818.33c-4745.66,0 -8606.59,3861.01 -8606.59,8606.34 0,4745.66 3860.93,8606.35 8606.59,8606.35 4745.65,0 8606.34,-3860.69 8606.34,-8606.35 0,-4745.33 -3860.69,-8606.34 -8606.34,-8606.34zm0 19031.34c-5748.35,0 -10425,-4676.57 -10425,-10425 0,-5748.02 4676.66,-10424.67 10425,-10424.67 5748.1,0 10424.76,4676.66 10424.76,10424.67 0,5748.43 -4676.66,10425 -10424.76,10425z"/>
   <path class="fil1" d="M10937.33 5896.17c-522.87,-596.98 -1172,-838.18 -1949.63,-739.54 -704.08,88.96 -1233.17,462.01 -1591.84,1075.36 -351.87,601.53 -706.07,1201.95 -1057.96,1803.17 -405.15,692.26 -807.98,1385.87 -1213.68,2077.81 -390.77,666.63 -783.54,1331.25 -1174.32,1997.87 -23.4,39.69 -61.17,75.23 -58.94,130.42 13.02,3.91 24.84,10.7 36.42,10.7 793.04,0.88 1585.61,0.32 2378.41,2.8 65.97,0.32 92.16,-34.34 119.72,-81.94 455.06,-776.76 911.17,-1552.95 1365.67,-2330.02 401.47,-686.35 799.28,-1374.93 1203.31,-2059.21 99.66,-169.07 174.9,-353.63 306.75,-502.67 204.05,-354.11 399.79,-712.78 613.67,-1060.75 236.63,-385.18 625.73,-477.82 1026.65,-263.47 19.17,10.14 38.01,18.37 58.3,26.83 -8.38,-13.25 -17.41,-27.39 -27.32,-41.76 -11.81,-16.62 -23.95,-31.79 -35.21,-45.6z"/>
   <path class="fil0" d="M9245.65 9554l-3.59 0 -3.59 0c-75.39,1.2 -150.62,38.98 -194.47,113.01l0 0 -959.87 1629.86c-42.58,71.8 -42.58,161.41 0.32,233.28l0 0 1554.62 2623.6c34.1,57.19 96.63,179.14 162.28,190.95l0 0 667.74 161.73c75.47,13.58 149.27,-134.33 202.53,-190.16l0 0 828.91 -866.92c71.24,-74.35 83.94,-187.37 30.98,-276.09l0 0 -2092.75 -3507.37c-43.52,-73.48 -117.96,-110.69 -193.11,-111.89z"/>
   <path class="fil1" d="M9749.04 14320.99c522.87,597.06 1171.75,838.17 1949.31,739.62 704.4,-89.05 1233.25,-462.1 1592.17,-1075.45 351.87,-601.53 705.75,-1201.86 1057.63,-1803.16 405.47,-692.18 808.31,-1385.88 1214.01,-2077.82 390.54,-666.62 783.54,-1331.25 1174.32,-1997.79 23.39,-39.77 60.85,-75.23 58.62,-130.5 -12.94,-3.91 -24.52,-10.7 -36.34,-10.7 -792.81,-0.79 -1585.61,-0.24 -2378.5,-2.79 -65.64,-0.32 -92.08,34.34 -119.71,82.01 -454.99,777 -911.17,1552.95 -1365.59,2329.95 -401.47,686.35 -799.03,1374.93 -1203.07,2059.52 -99.75,168.76 -174.9,353.32 -306.75,502.35 -204.06,354.2 -399.8,713.11 -613.67,1061.07 -236.63,384.86 -625.73,477.58 -1026.96,263.16 -19.17,-10.15 -37.7,-18.05 -57.98,-26.76 8.14,13.26 17.17,27.32 27.31,41.69 11.82,16.61 23.64,31.79 35.22,45.6z"/>
  </g>
 </g>
</svg>
