<?xml version="1.0" standalone="no"?>
<!DOCTYPE svg PUBLIC "-//W3C//DTD SVG 20010904//EN"
 "http://www.w3.org/TR/2001/REC-SVG-20010904/DTD/svg10.dtd">
<svg version="1.0" xmlns="http://www.w3.org/2000/svg"
 width="216.000000pt" height="216.000000pt" viewBox="0 0 216.000000 216.000000"
 preserveAspectRatio="xMidYMid meet">
<metadata>
Created by potrace 1.16, written by Peter Selinger 2001-2019
</metadata>
<g transform="translate(0.000000,216.000000) scale(0.100000,-0.100000)"
fill="#000000" stroke="none">
<path d="M945 2150 c-237 -30 -458 -143 -632 -323 -206 -213 -306 -457 -306
-742 1 -306 106 -557 320 -767 184 -182 393 -281 653 -310 428 -47 865 195
1064 589 233 465 101 1029 -316 1343 -127 96 -273 163 -422 194 -96 20 -270
27 -361 16z m273 -200 c443 -72 760 -459 739 -904 -15 -333 -194 -609 -490
-755 -112 -55 -212 -81 -337 -88 -215 -12 -421 54 -599 191 -230 177 -363 507
-322 797 64 444 424 763 866 768 44 0 108 -4 143 -9z"/>
<path d="M886 1615 c-22 -8 -56 -31 -77 -52 -21 -21 -113 -166 -204 -323 -92
-157 -176 -300 -187 -318 l-20 -33 137 3 138 3 146 251 146 251 93 -156 c113
-189 117 -195 135 -188 16 6 117 175 117 195 0 29 -170 301 -207 331 -62 51
-140 64 -217 36z"/>
<path d="M1397 1198 c-47 -79 -112 -191 -147 -250 -34 -60 -65 -108 -69 -108
-3 0 -49 73 -101 161 -52 88 -102 165 -111 170 -20 10 -20 11 -88 -104 l-53
-88 94 -157 c114 -190 141 -214 248 -220 60 -4 74 -1 117 23 26 15 57 39 69
53 23 29 369 616 379 645 7 16 -3 17 -124 17 l-130 0 -84 -142z"/>
</g>
</svg>
