<?xml version="1.0" encoding="UTF-8"?>
<!DOCTYPE svg PUBLIC "-//W3C//DTD SVG 1.1//EN" "http://www.w3.org/Graphics/SVG/1.1/DTD/svg11.dtd">
<!-- Creator: CorelDRAW 2018 (64 Bit Versión de evaluación) -->
<svg xmlns="http://www.w3.org/2000/svg" xml:space="preserve" width="18.5006mm" height="18.5006mm" version="1.1" style="shape-rendering:geometricPrecision; text-rendering:geometricPrecision; image-rendering:optimizeQuality; fill-rule:evenodd; clip-rule:evenodd"
viewBox="0 0 1850.06 1850.06"
 xmlns:xlink="http://www.w3.org/1999/xlink">
 <defs>
  <style type="text/css">
   <![CDATA[
    .fil0 {fill:#334F8E}
    .fil1 {fill:#334F8E;fill-rule:nonzero}
   ]]>
  </style>
 </defs>
 <g id="Capa_x0020_1">
  <metadata id="CorelCorpID_0Corel-Layer"/>
  <g id="_2063944763056">
   <g id="_2063825358944">
    <path class="fil0" d="M888.63 523.58l-73.51 76.92c-6.35,6.62 -7.46,16.64 -2.73,24.54l0 0 185.65 311.18c7.97,13.26 27.2,13.26 35.03,-0.1l0 0 85.15 -144.58c3.78,-6.41 3.75,-14.34 -0.03,-20.72l0 0 -137.94 -232.82c-2.97,-5.1 -8.57,-15.93 -14.41,-16.94l0 0 -59.22 -14.34c-0.27,-0.03 -0.57,-0.07 -0.88,-0.07 -6.41,0 -12.59,12.22 -17.11,16.94l0 0 0 -0.01z"/>
    <path class="fil1" d="M925.04 161.33c-421.1,0 -763.68,342.61 -763.68,763.68 0,421.11 342.61,763.65 763.68,763.65 421.11,0 763.69,-342.57 763.69,-763.65 0,-421.07 -342.57,-763.68 -763.69,-763.68zm0 1688.73c-510.07,0 -925.04,-414.97 -925.04,-925.05 0,-510.04 414.97,-925.01 925.04,-925.01 510.05,0 925.02,414.97 925.02,925.01 0,510.08 -414.97,925.05 -925.02,925.05z"/>
    <path class="fil1" d="M970.5 523.18c-46.41,-52.96 -103.98,-74.35 -173,-65.61 -62.47,7.9 -109.42,41.01 -141.25,95.41 -31.22,53.39 -62.64,106.65 -93.9,160.01 -35.94,61.43 -71.69,122.99 -107.7,184.38 -34.7,59.16 -69.53,118.12 -104.22,177.28 -2.06,3.51 -5.43,6.68 -5.23,11.58 1.15,0.34 2.19,0.95 3.24,0.95 70.37,0.07 140.67,0.03 211.05,0.24 5.87,0.03 8.17,-3.04 10.63,-7.26 40.37,-68.92 80.83,-137.81 121.17,-206.75 35.61,-60.89 70.91,-122.01 106.75,-182.73 8.84,-14.99 15.53,-31.39 27.2,-44.59 18.12,-31.42 35.47,-63.25 54.47,-94.13 20.99,-34.19 55.51,-42.39 91.08,-23.39 1.69,0.91 3.38,1.62 5.16,2.4 -0.74,-1.18 -1.55,-2.43 -2.43,-3.71 -1.05,-1.49 -2.13,-2.84 -3.14,-4.05l0.12 -0.03z"/>
    <path class="fil0" d="M820.42 847.73l-0.3 0 -0.3 0c-6.68,0.1 -13.37,3.48 -17.25,10.02l0 0 -85.19 144.61c-3.78,6.38 -3.78,14.31 0.03,20.69l0 0 137.94 232.82c3.04,5.1 8.57,15.9 14.41,16.94l0 0 59.22 14.34c6.72,1.22 13.26,-11.91 17.96,-16.88l0 0 73.54 -76.92c6.31,-6.62 7.43,-16.64 2.73,-24.5l0 0 -185.69 -311.21c-3.88,-6.51 -10.46,-9.82 -17.15,-9.92l0.05 0.01z"/>
    <path class="fil1" d="M865.07 1270.72c46.37,52.99 103.94,74.39 172.96,65.65 62.51,-7.9 109.42,-41.01 141.28,-95.41 31.22,-53.36 62.61,-106.65 93.86,-160.01 35.98,-61.43 71.72,-122.96 107.73,-184.37 34.66,-59.17 69.53,-118.13 104.19,-177.29 2.09,-3.51 5.4,-6.68 5.2,-11.58 -1.15,-0.34 -2.19,-0.95 -3.24,-0.95 -70.34,-0.07 -140.71,-0.03 -211.05,-0.24 -5.84,-0.03 -8.17,3.04 -10.63,7.29 -40.37,68.95 -80.83,137.81 -121.17,206.73 -35.64,60.88 -70.91,122 -106.75,182.75 -8.88,14.99 -15.53,31.35 -27.2,44.59 -18.12,31.42 -35.47,63.28 -54.47,94.17 -20.99,34.16 -55.51,42.39 -91.12,23.36 -1.69,-0.91 -3.34,-1.59 -5.13,-2.36 0.71,1.18 1.52,2.43 2.43,3.71 1.05,1.49 2.09,2.84 3.14,4.05l-0.03 -0.09z"/>
   </g>
  </g>
 </g>
</svg>
