<?xml version="1.0" encoding="UTF-8"?>
<!DOCTYPE svg PUBLIC "-//W3C//DTD SVG 1.1//EN" "http://www.w3.org/Graphics/SVG/1.1/DTD/svg11.dtd">
<!-- Creator: CorelDRAW 2018 (64 Bit Versión de evaluación) -->
<svg xmlns="http://www.w3.org/2000/svg" xml:space="preserve" width="71.7256mm" height="71.7254mm" version="1.1" style="shape-rendering:geometricPrecision; text-rendering:geometricPrecision; image-rendering:optimizeQuality; fill-rule:evenodd; clip-rule:evenodd"
viewBox="0 0 7162.75 7162.73"
 xmlns:xlink="http://www.w3.org/1999/xlink">
 <defs>
  <style type="text/css">
   <![CDATA[
    .fil0 {fill:#334F8E}
    .fil1 {fill:#334F8E;fill-rule:nonzero}
   ]]>
  </style>
 </defs>
 <g id="Capa_x0020_1">
  <metadata id="CorelCorpID_0Corel-Layer"/>
  <g id="_2063828673056">
   <path class="fil0" d="M3440.36 2027.22l-284.65 297.82c-24.51,25.55 -28.86,64.45 -10.65,94.96l0 0 718.76 1204.82c30.78,51.42 105.3,51.31 135.69,-0.39l0 0 329.76 -559.81c14.63,-24.8 14.52,-55.55 -0.11,-80.25l0 0 -534.08 -901.32c-11.52,-19.64 -33.19,-61.65 -55.74,-65.6l0 0 -229.29 -55.55c-1.08,-0.2 -2.23,-0.31 -3.41,-0.31 -24.86,0 -48.78,47.34 -66.29,65.63l0 0z"/>
   <path class="fil1" d="M3581.44 624.67c-1630.33,0 -2956.72,1326.41 -2956.72,2956.64 0,1630.33 1326.39,2956.63 2956.72,2956.63 1630.34,0 2956.64,-1326.3 2956.64,-2956.63 0,-1630.23 -1326.3,-2956.64 -2956.64,-2956.64zm0 6538.06c-1974.8,0 -3581.42,-1606.6 -3581.42,-3581.42 0,-1974.69 1606.62,-3581.32 3581.42,-3581.32 1974.72,0 3581.34,1606.63 3581.34,3581.32 0,1974.82 -1606.62,3581.42 -3581.34,3581.42z"/>
   <path class="fil1" d="M3757.45 2025.58c-179.62,-205.08 -402.63,-287.95 -669.78,-254.06 -241.88,30.57 -423.64,158.72 -546.86,369.43 -120.88,206.66 -242.57,412.92 -363.45,619.46 -139.18,237.82 -277.57,476.11 -416.95,713.81 -134.25,229.02 -269.18,457.34 -403.43,686.35 -8.04,13.64 -21.02,25.85 -20.25,44.81 4.47,1.35 8.54,3.67 12.51,3.67 272.45,0.3 544.72,0.11 817.09,0.96 22.66,0.11 31.66,-11.79 41.12,-28.15 156.34,-266.84 313.02,-533.5 469.17,-800.45 137.92,-235.79 274.58,-472.34 413.38,-707.42 34.24,-58.08 60.09,-121.49 105.39,-172.68 70.09,-121.65 137.34,-244.87 210.82,-364.41 81.29,-132.33 214.96,-164.16 352.69,-90.52 6.59,3.49 13.06,6.31 20.03,9.22 -2.88,-4.55 -5.98,-9.41 -9.39,-14.35 -4.05,-5.7 -8.23,-10.92 -12.09,-15.67z"/>
   <path class="fil0" d="M3176.28 3282.2l-1.23 0 -1.24 0c-25.89,0.42 -51.75,13.39 -66.81,38.83l0 0 -329.76 559.92c-14.62,24.67 -14.62,55.44 0.11,80.14l0 0 534.08 901.32c11.71,19.64 33.19,61.54 55.75,65.6l0 0 229.4 55.56c25.92,4.66 51.28,-46.16 69.57,-65.33l0 0 284.77 -297.82c24.47,-25.55 28.83,-64.36 10.65,-94.85l0 0 -718.95 -1204.93c-14.96,-25.24 -40.52,-38.02 -66.35,-38.44z"/>
   <path class="fil1" d="M3349.21 4919.85c179.62,205.12 402.55,287.95 669.67,254.09 241.99,-30.6 423.67,-158.75 546.97,-369.46 120.88,-206.65 242.46,-412.88 363.34,-619.46 139.3,-237.78 277.68,-476.1 417.06,-713.81 134.17,-229.01 269.18,-457.33 403.43,-686.32 8.04,-13.66 20.91,-25.84 20.14,-44.83 -4.44,-1.35 -8.43,-3.68 -12.48,-3.68 -272.37,-0.27 -544.72,-0.08 -817.12,-0.96 -22.55,-0.11 -31.63,11.8 -41.12,28.18 -156.31,266.92 -313.02,533.5 -469.14,800.43 -137.92,235.79 -274.5,472.34 -413.3,707.53 -34.26,57.97 -60.08,121.37 -105.38,172.57 -70.1,121.68 -137.35,244.97 -210.83,364.52 -81.29,132.22 -214.96,164.07 -352.8,90.41 -6.59,-3.49 -12.95,-6.2 -19.92,-9.2 2.8,4.55 5.9,9.39 9.39,14.32 4.05,5.71 8.12,10.93 12.09,15.67z"/>
  </g>
 </g>
</svg>
