<svg width="68" height="63" viewBox="0 0 68 63" fill="none" xmlns="http://www.w3.org/2000/svg">
<rect width="68" height="63" rx="6" fill="white"/>
<rect width="68" height="63" rx="6" fill="#E8E9EA" fill-opacity="0.48"/>
<path d="M10.2067 47H11.3967L9.20573 42.1H8.08573L5.90173 47H7.06373L7.49773 45.95H9.77273L10.2067 47ZM7.86173 45.089L8.63873 43.213L9.41573 45.089H7.86173Z" fill="#18418C"/>
<path d="M13.9771 43.178C13.4661 43.178 13.0251 43.353 12.7311 43.675V43.234H11.6881V47H12.7801V45.138C12.7801 44.445 13.1581 44.123 13.6831 44.123C14.1661 44.123 14.4461 44.403 14.4461 45.012V47H15.5381V44.844C15.5381 43.696 14.8661 43.178 13.9771 43.178Z" fill="#18418C"/>
<path d="M18.523 46.048C18.404 46.139 18.243 46.188 18.082 46.188C17.788 46.188 17.613 46.013 17.613 45.691V44.158H18.551V43.318H17.613V42.401H16.521V43.318H15.94V44.158H16.521V45.705C16.521 46.601 17.039 47.056 17.928 47.056C18.264 47.056 18.593 46.979 18.817 46.818L18.523 46.048Z" fill="#18418C"/>
<path d="M19.8359 42.709C20.2419 42.709 20.5149 42.443 20.5149 42.079C20.5149 41.743 20.2419 41.491 19.8359 41.491C19.4299 41.491 19.1569 41.757 19.1569 42.1C19.1569 42.443 19.4299 42.709 19.8359 42.709ZM19.2899 47H20.3819V43.234H19.2899V47Z" fill="#18418C"/>
<path d="M23.4814 43.178C22.9774 43.178 22.5714 43.339 22.2984 43.668V43.234H21.2554V48.358H22.3474V46.601C22.6274 46.909 23.0124 47.056 23.4814 47.056C24.5384 47.056 25.3574 46.3 25.3574 45.117C25.3574 43.934 24.5384 43.178 23.4814 43.178ZM23.2924 46.16C22.7464 46.16 22.3334 45.768 22.3334 45.117C22.3334 44.466 22.7464 44.074 23.2924 44.074C23.8384 44.074 24.2514 44.466 24.2514 45.117C24.2514 45.768 23.8384 46.16 23.2924 46.16Z" fill="#18418C"/>
<path d="M27.4059 43.178C26.8039 43.178 26.1949 43.339 25.7819 43.633L26.1739 44.396C26.4469 44.179 26.8599 44.046 27.2589 44.046C27.8469 44.046 28.1269 44.319 28.1269 44.788H27.2589C26.1109 44.788 25.6419 45.25 25.6419 45.915C25.6419 46.566 26.1669 47.056 27.0489 47.056C27.6019 47.056 27.9939 46.874 28.1969 46.531V47H29.2189V44.851C29.2189 43.71 28.5539 43.178 27.4059 43.178ZM27.3219 46.321C26.9369 46.321 26.7059 46.139 26.7059 45.866C26.7059 45.614 26.8669 45.425 27.3779 45.425H28.1269V45.81C28.0009 46.153 27.6859 46.321 27.3219 46.321Z" fill="#18418C"/>
<path d="M31.1102 43.731V43.234H30.0672V47H31.1592V45.222C31.1592 44.501 31.5582 44.172 32.1602 44.172C32.2442 44.172 32.3142 44.179 32.4052 44.186V43.178C31.8242 43.178 31.3762 43.367 31.1102 43.731Z" fill="#18418C"/>
<path d="M34.413 43.178C33.811 43.178 33.202 43.339 32.789 43.633L33.181 44.396C33.454 44.179 33.867 44.046 34.266 44.046C34.854 44.046 35.134 44.319 35.134 44.788H34.266C33.118 44.788 32.649 45.25 32.649 45.915C32.649 46.566 33.174 47.056 34.056 47.056C34.609 47.056 35.001 46.874 35.204 46.531V47H36.226V44.851C36.226 43.71 35.561 43.178 34.413 43.178ZM34.329 46.321C33.944 46.321 33.713 46.139 33.713 45.866C33.713 45.614 33.874 45.425 34.385 45.425H35.134V45.81C35.008 46.153 34.693 46.321 34.329 46.321Z" fill="#18418C"/>
<path d="M38.3413 47.056C39.4683 47.056 40.1193 46.559 40.1193 45.859C40.1193 44.375 37.8443 44.998 37.8443 44.354C37.8443 44.158 38.0543 44.004 38.5443 44.004C38.8873 44.004 39.2583 44.074 39.6293 44.284L39.9933 43.507C39.6363 43.297 39.0623 43.178 38.5443 43.178C37.4453 43.178 36.8013 43.682 36.8013 44.396C36.8013 45.901 39.0763 45.271 39.0763 45.887C39.0763 46.097 38.8873 46.23 38.3833 46.23C37.9213 46.23 37.4103 46.083 37.0743 45.866L36.7103 46.65C37.0603 46.881 37.7043 47.056 38.3413 47.056Z" fill="#18418C"/>
<path d="M41.1991 42.709C41.6051 42.709 41.8781 42.443 41.8781 42.079C41.8781 41.743 41.6051 41.491 41.1991 41.491C40.7931 41.491 40.5201 41.757 40.5201 42.1C40.5201 42.443 40.7931 42.709 41.1991 42.709ZM40.6531 47H41.7451V43.234H40.6531V47Z" fill="#18418C"/>
<path d="M44.7535 46.048C44.6345 46.139 44.4735 46.188 44.3125 46.188C44.0185 46.188 43.8435 46.013 43.8435 45.691V44.158H44.7815V43.318H43.8435V42.401H42.7515V43.318H42.1705V44.158H42.7515V45.705C42.7515 46.601 43.2695 47.056 44.1585 47.056C44.4945 47.056 44.8235 46.979 45.0475 46.818L44.7535 46.048Z" fill="#18418C"/>
<path d="M47.0395 43.178C46.4375 43.178 45.8285 43.339 45.4155 43.633L45.8075 44.396C46.0805 44.179 46.4935 44.046 46.8925 44.046C47.4805 44.046 47.7605 44.319 47.7605 44.788H46.8925C45.7445 44.788 45.2755 45.25 45.2755 45.915C45.2755 46.566 45.8005 47.056 46.6825 47.056C47.2355 47.056 47.6275 46.874 47.8305 46.531V47H48.8525V44.851C48.8525 43.71 48.1875 43.178 47.0395 43.178ZM46.9555 46.321C46.5705 46.321 46.3395 46.139 46.3395 45.866C46.3395 45.614 46.5005 45.425 47.0115 45.425H47.7605V45.81C47.6345 46.153 47.3195 46.321 46.9555 46.321Z" fill="#18418C"/>
<path d="M50.7438 43.731V43.234H49.7008V47H50.7928V45.222C50.7928 44.501 51.1918 44.172 51.7938 44.172C51.8778 44.172 51.9478 44.179 52.0388 44.186V43.178C51.4578 43.178 51.0098 43.367 50.7438 43.731Z" fill="#18418C"/>
<path d="M53.0942 42.709C53.5002 42.709 53.7732 42.443 53.7732 42.079C53.7732 41.743 53.5002 41.491 53.0942 41.491C52.6882 41.491 52.4151 41.757 52.4151 42.1C52.4151 42.443 52.6882 42.709 53.0942 42.709ZM52.5482 47H53.6402V43.234H52.5482V47Z" fill="#18418C"/>
<path d="M56.3056 47.056C57.5026 47.056 58.3706 46.251 58.3706 45.117C58.3706 43.983 57.5026 43.178 56.3056 43.178C55.1086 43.178 54.2336 43.983 54.2336 45.117C54.2336 46.251 55.1086 47.056 56.3056 47.056ZM56.3056 46.16C55.7596 46.16 55.3396 45.768 55.3396 45.117C55.3396 44.466 55.7596 44.074 56.3056 44.074C56.8516 44.074 57.2646 44.466 57.2646 45.117C57.2646 45.768 56.8516 46.16 56.3056 46.16Z" fill="#18418C"/>
<path d="M60.2275 47.056C61.3545 47.056 62.0055 46.559 62.0055 45.859C62.0055 44.375 59.7305 44.998 59.7305 44.354C59.7305 44.158 59.9405 44.004 60.4305 44.004C60.7735 44.004 61.1445 44.074 61.5155 44.284L61.8795 43.507C61.5225 43.297 60.9485 43.178 60.4305 43.178C59.3315 43.178 58.6875 43.682 58.6875 44.396C58.6875 45.901 60.9625 45.271 60.9625 45.887C60.9625 46.097 60.7735 46.23 60.2695 46.23C59.8075 46.23 59.2965 46.083 58.9605 45.866L58.5965 46.65C58.9465 46.881 59.5905 47.056 60.2275 47.056Z" fill="#18418C"/>
<path d="M19.3883 51.709C19.7943 51.709 20.0673 51.443 20.0673 51.079C20.0673 50.743 19.7943 50.491 19.3883 50.491C18.9823 50.491 18.7093 50.757 18.7093 51.1C18.7093 51.443 18.9823 51.709 19.3883 51.709ZM18.8423 56H19.9343V52.234H18.8423V56Z" fill="#18418C"/>
<path d="M23.0968 52.178C22.5858 52.178 22.1448 52.353 21.8508 52.675V52.234H20.8078V56H21.8998V54.138C21.8998 53.445 22.2778 53.123 22.8028 53.123C23.2858 53.123 23.5658 53.403 23.5658 54.012V56H24.6578V53.844C24.6578 52.696 23.9858 52.178 23.0968 52.178Z" fill="#18418C"/>
<path d="M27.6426 55.048C27.5236 55.139 27.3626 55.188 27.2016 55.188C26.9076 55.188 26.7326 55.013 26.7326 54.691V53.158H27.6706V52.318H26.7326V51.401H25.6406V52.318H25.0596V53.158H25.6406V54.705C25.6406 55.601 26.1586 56.056 27.0476 56.056C27.3836 56.056 27.7126 55.979 27.9366 55.818L27.6426 55.048Z" fill="#18418C"/>
<path d="M31.9824 54.131C31.9824 52.92 31.1284 52.178 30.0224 52.178C28.8744 52.178 28.0134 52.99 28.0134 54.117C28.0134 55.237 28.8604 56.056 30.1624 56.056C30.8414 56.056 31.3664 55.846 31.7164 55.447L31.1354 54.817C30.8764 55.062 30.5894 55.181 30.1904 55.181C29.6164 55.181 29.2174 54.894 29.1124 54.425H31.9614C31.9684 54.334 31.9824 54.215 31.9824 54.131ZM30.0294 53.004C30.5194 53.004 30.8764 53.312 30.9534 53.788H29.0984C29.1754 53.305 29.5324 53.004 30.0294 53.004Z" fill="#18418C"/>
<path d="M33.6124 52.731V52.234H32.5694V56H33.6614V54.222C33.6614 53.501 34.0604 53.172 34.6624 53.172C34.7464 53.172 34.8164 53.179 34.9074 53.186V52.178C34.3264 52.178 33.8784 52.367 33.6124 52.731Z" fill="#18418C"/>
<path d="M37.7057 52.178C37.1947 52.178 36.7537 52.353 36.4597 52.675V52.234H35.4167V56H36.5087V54.138C36.5087 53.445 36.8867 53.123 37.4117 53.123C37.8947 53.123 38.1747 53.403 38.1747 54.012V56H39.2667V53.844C39.2667 52.696 38.5947 52.178 37.7057 52.178Z" fill="#18418C"/>
<path d="M41.9496 56.056C43.1466 56.056 44.0146 55.251 44.0146 54.117C44.0146 52.983 43.1466 52.178 41.9496 52.178C40.7526 52.178 39.8776 52.983 39.8776 54.117C39.8776 55.251 40.7526 56.056 41.9496 56.056ZM41.9496 55.16C41.4036 55.16 40.9836 54.768 40.9836 54.117C40.9836 53.466 41.4036 53.074 41.9496 53.074C42.4956 53.074 42.9086 53.466 42.9086 54.117C42.9086 54.768 42.4956 55.16 41.9496 55.16Z" fill="#18418C"/>
<path d="M45.8715 56.056C46.9985 56.056 47.6495 55.559 47.6495 54.859C47.6495 53.375 45.3745 53.998 45.3745 53.354C45.3745 53.158 45.5845 53.004 46.0745 53.004C46.4175 53.004 46.7885 53.074 47.1595 53.284L47.5235 52.507C47.1665 52.297 46.5925 52.178 46.0745 52.178C44.9755 52.178 44.3315 52.682 44.3315 53.396C44.3315 54.901 46.6065 54.271 46.6065 54.887C46.6065 55.097 46.4175 55.23 45.9135 55.23C45.4515 55.23 44.9405 55.083 44.6045 54.866L44.2405 55.65C44.5905 55.881 45.2345 56.056 45.8715 56.056Z" fill="#18418C"/>
<path d="M48.2756 18.6171C48.229 18.5696 48.1734 18.5319 48.112 18.5062C48.0506 18.4805 47.9847 18.4673 47.9181 18.4675H35.4534C35.3868 18.4675 35.3208 18.4808 35.2594 18.5068C35.1979 18.5327 35.1423 18.5707 35.0959 18.6185C35.0494 18.6663 35.0129 18.7229 34.9887 18.785C34.9645 18.8471 34.953 18.9134 34.9548 18.9801L35.44 35.9465C35.4461 36.2064 35.554 36.4536 35.7405 36.6347C35.927 36.8159 36.1772 36.9166 36.4371 36.9153H46.9349C47.1949 36.9166 47.4451 36.8159 47.6315 36.6347C47.818 36.4536 47.9259 36.2064 47.9321 35.9465L48.4167 18.9801C48.4187 18.9132 48.4073 18.8466 48.3831 18.7842C48.3588 18.7219 48.3223 18.665 48.2756 18.6171V18.6171ZM47.4051 19.4647L47.2366 25.366C46.9139 25.2738 46.601 25.1504 46.3022 24.9975C45.5148 24.5985 44.6444 24.3905 43.7616 24.3905C42.8789 24.3905 42.0085 24.5985 41.2211 24.9975C40.5745 25.3521 39.8452 25.5281 39.1081 25.5076C38.3702 25.5293 37.6399 25.3538 36.9926 24.999C36.7088 24.8553 36.4152 24.7317 36.1141 24.6291L35.9665 19.4647H47.4051ZM36.4362 35.9181L36.4217 35.4195H44.428V34.4223H36.3938L36.1445 25.705C36.2856 25.7649 36.4222 25.8292 36.5603 25.8955C37.343 26.3143 38.2206 26.5241 39.1081 26.5048C39.9938 26.5237 40.8696 26.3142 41.6509 25.8965C42.3037 25.5622 43.0265 25.3879 43.7599 25.3879C44.4933 25.3879 45.2162 25.5622 45.8689 25.8965C46.2923 26.1139 46.7414 26.2771 47.2056 26.3821L46.9783 34.4223H45.4252V35.4195H46.9499L46.9354 35.9181H36.4362Z" fill="#18418C"/>
<path d="M37.9463 20.4619H36.9492V22.4563H37.9463V20.4619Z" fill="#18418C"/>
<path d="M37.9463 23.4534H36.9492V24.4505H37.9463V23.4534Z" fill="#18418C"/>
<path d="M27.9746 20.4618H26.9774V19.4647C26.9774 19.3324 26.9249 19.2056 26.8314 19.1121C26.7379 19.0186 26.611 18.9661 26.4788 18.9661H24.4845C24.3522 18.9661 24.2254 19.0186 24.1319 19.1121C24.0384 19.2056 23.9859 19.3324 23.9859 19.4647V20.4618H22.9887C22.8565 20.4618 22.7296 20.5144 22.6361 20.6079C22.5426 20.7014 22.4901 20.8282 22.4901 20.9604V22.9548C22.4901 23.087 22.5426 23.2138 22.6361 23.3073C22.7296 23.4008 22.8565 23.4534 22.9887 23.4534H23.9859V24.4505C23.9859 24.5828 24.0384 24.7096 24.1319 24.8031C24.2254 24.8966 24.3522 24.9491 24.4845 24.9491H26.4788C26.611 24.9491 26.7379 24.8966 26.8314 24.8031C26.9249 24.7096 26.9774 24.5828 26.9774 24.4505V23.4534H27.9746C28.1068 23.4534 28.2336 23.4008 28.3271 23.3073C28.4206 23.2138 28.4732 23.087 28.4732 22.9548V20.9604C28.4732 20.8282 28.4206 20.7014 28.3271 20.6079C28.2336 20.5144 28.1068 20.4618 27.9746 20.4618ZM27.476 22.4562H26.4788C26.3466 22.4562 26.2198 22.5087 26.1263 22.6022C26.0328 22.6957 25.9802 22.8225 25.9802 22.9548V23.9519H24.983V22.9548C24.983 22.8225 24.9305 22.6957 24.837 22.6022C24.7435 22.5087 24.6167 22.4562 24.4845 22.4562H23.4873V21.459H24.4845C24.6167 21.459 24.7435 21.4065 24.837 21.313C24.9305 21.2195 24.983 21.0926 24.983 20.9604V19.9632H25.9802V20.9604C25.9802 21.0926 26.0328 21.2195 26.1263 21.313C26.2198 21.4065 26.3466 21.459 26.4788 21.459H27.476V22.4562Z" fill="#18418C"/>
<path d="M31.4647 29.9351C30.7744 29.9351 30.0996 30.1398 29.5257 30.5232C28.9517 30.9067 28.5044 31.4518 28.2402 32.0896C27.9761 32.7273 27.9069 33.429 28.0416 34.1061C28.1763 34.7831 28.5087 35.405 28.9968 35.8931C29.4849 36.3812 30.1068 36.7136 30.7838 36.8482C31.4608 36.9829 32.1625 36.9138 32.8003 36.6496C33.438 36.3855 33.9831 35.9381 34.3666 35.3642C34.7501 34.7902 34.9548 34.1154 34.9548 33.4252C34.9537 32.4999 34.5857 31.6127 33.9314 30.9585C33.2771 30.3042 32.39 29.9361 31.4647 29.9351V29.9351ZM31.4647 35.9181C30.9716 35.9181 30.4896 35.7719 30.0797 35.498C29.6697 35.224 29.3502 34.8347 29.1615 34.3792C28.9728 33.9237 28.9234 33.4224 29.0196 32.9388C29.1158 32.4552 29.3532 32.011 29.7019 31.6624C30.0505 31.3138 30.4947 31.0763 30.9783 30.9801C31.4619 30.8839 31.9631 30.9333 32.4187 31.122C32.8742 31.3107 33.2635 31.6302 33.5375 32.0402C33.8114 32.4501 33.9576 32.9321 33.9576 33.4252C33.9568 34.0861 33.6939 34.7197 33.2266 35.1871C32.7592 35.6544 32.1256 35.9173 31.4647 35.9181V35.9181Z" fill="#18418C"/>
<path d="M33.459 32.9265H29.4703V33.9237H33.459V32.9265Z" fill="#18418C"/>
<path d="M30.1534 14.0849L29.5601 13.9154C29.2471 13.8257 28.9718 13.6366 28.7757 13.3767C28.5796 13.1167 28.4734 12.8001 28.4732 12.4745V10.9887H28.9717C29.104 10.9887 29.2308 10.9362 29.3243 10.8427C29.4178 10.7492 29.4703 10.6223 29.4703 10.4901V7.49859C29.4703 7.36635 29.4178 7.23954 29.3243 7.14603C29.2308 7.05253 29.104 7 28.9717 7H21.9915C21.8593 7 21.7325 7.05253 21.639 7.14603C21.5455 7.23954 21.4929 7.36635 21.4929 7.49859V10.4901C21.4929 10.6223 21.5455 10.7492 21.639 10.8427C21.7325 10.9362 21.8593 10.9887 21.9915 10.9887H22.4901V12.4745C22.4898 12.8001 22.3836 13.1167 22.1876 13.3767C21.9915 13.6366 21.7162 13.8257 21.4032 13.9154L20.8099 14.0849C20.2894 14.2351 19.8316 14.55 19.5053 14.9824C19.1789 15.4148 19.0016 15.9414 19 16.4831V28.4393C19.0012 28.8356 19.1592 29.2154 19.4394 29.4956C19.7197 29.7759 20.0994 29.9338 20.4958 29.935H21.5328C21.4545 30.4718 21.5025 31.0195 21.673 31.5345C21.8435 32.0495 22.1318 32.5176 22.515 32.9016C22.525 32.9116 22.535 32.9166 22.545 32.9266H20.9943C20.4654 32.9266 19.9581 33.1367 19.5841 33.5107C19.2101 33.8847 19 34.392 19 34.9209C19 35.4498 19.2101 35.9571 19.5841 36.3311C19.9581 36.7051 20.4654 36.9153 20.9943 36.9153H24.983C25.3689 36.9167 25.7468 36.8059 26.0706 36.5962C26.3945 36.3864 26.6503 36.087 26.8068 35.7343C26.9633 35.3817 27.0137 34.9911 26.9519 34.6102C26.8902 34.2294 26.7188 33.8748 26.4589 33.5897C26.8279 33.4211 27.1638 33.1881 27.4511 32.9016C27.8343 32.5176 28.1226 32.0495 28.2931 31.5345C28.4636 31.0195 28.5116 30.4718 28.4333 29.935H30.4675C30.8638 29.9338 31.2436 29.7759 31.5239 29.4956C31.8041 29.2154 31.9621 28.8356 31.9633 28.4393V16.4831C31.9616 15.9414 31.7843 15.4148 31.458 14.9824C31.1317 14.55 30.6739 14.2351 30.1534 14.0849V14.0849ZM22.4901 35.9181H20.9943C20.7299 35.9181 20.4762 35.813 20.2892 35.626C20.1022 35.439 19.9972 35.1854 19.9972 34.9209C19.9972 34.6564 20.1022 34.4028 20.2892 34.2158C20.4762 34.0288 20.7299 33.9237 20.9943 33.9237H22.4901V35.9181ZM22.4901 7.99718H28.4732V9.99153H22.4901V7.99718ZM24.983 35.9181H23.4873V33.9237H24.983C25.2475 33.9237 25.5012 34.0288 25.6882 34.2158C25.8752 34.4028 25.9802 34.6564 25.9802 34.9209C25.9802 35.1854 25.8752 35.439 25.6882 35.626C25.5012 35.813 25.2475 35.9181 24.983 35.9181ZM27.0622 31.8097L24.983 29.7256L24.2751 30.4336L26.3592 32.5127C25.8797 32.8305 25.3052 32.9727 24.7329 32.9152C24.1606 32.8578 23.6258 32.6042 23.2191 32.1975C22.8124 31.7908 22.5589 31.256 22.5014 30.6837C22.444 30.1115 22.5862 29.5369 22.9039 29.0575L23.572 29.7306L24.28 29.0226L23.6069 28.3545C24.0864 28.0368 24.6609 27.8945 25.2332 27.952C25.8055 28.0094 26.3403 28.263 26.747 28.6697C27.1537 29.0764 27.4072 29.6112 27.4647 30.1835C27.5221 30.7558 27.3799 31.3303 27.0622 31.8097V31.8097ZM30.9661 28.4393C30.9661 28.5715 30.9136 28.6983 30.8201 28.7918C30.7266 28.8853 30.5997 28.9379 30.4675 28.9379H28.1341C27.9622 28.578 27.7313 28.2494 27.4511 27.9656C27.127 27.6415 26.7422 27.3844 26.3187 27.209C25.8953 27.0335 25.4414 26.9432 24.983 26.9432C24.5247 26.9432 24.0708 27.0335 23.6474 27.209C23.2239 27.3844 22.8391 27.6415 22.515 27.9656C22.2348 28.2494 22.0039 28.578 21.832 28.9379H20.4958C20.3635 28.9379 20.2367 28.8853 20.1432 28.7918C20.0497 28.6983 19.9972 28.5715 19.9972 28.4393V26.9435H30.9661V28.4393ZM30.9661 25.9463H19.9972V17.9689H30.9661V25.9463ZM30.9661 16.9718H19.9972V16.4831C19.9975 16.1575 20.1036 15.8409 20.2997 15.5809C20.4958 15.321 20.7711 15.1319 21.0841 15.0422L21.6774 14.8727C22.1979 14.7225 22.6557 14.4076 22.982 13.9752C23.3084 13.5428 23.4856 13.0162 23.4873 12.4745V10.9887H27.476V12.4745C27.4776 13.0162 27.6549 13.5428 27.9813 13.9752C28.3076 14.4076 28.7654 14.7225 29.2859 14.8727L29.8792 15.0422C30.1922 15.1319 30.4675 15.321 30.6636 15.5809C30.8596 15.8409 30.9658 16.1575 30.9661 16.4831V16.9718Z" fill="#18418C"/>
</svg>
