<?xml version="1.0" encoding="utf-8"?>
<!-- Generator: Adobe Illustrator 25.2.0, SVG Export Plug-In . SVG Version: 6.00 Build 0)  -->
<svg version="1.1" id="Layer_1" xmlns="http://www.w3.org/2000/svg" xmlns:xlink="http://www.w3.org/1999/xlink" x="0px" y="0px"
	 viewBox="0 0 68 63" style="enable-background:new 0 0 68 63;" xml:space="preserve">
<style type="text/css">
	.st0{fill:#18418C;}
</style>
<g>
	<path class="st0" d="M62.7,12.4H48V6.5c0-3.2-2.6-5.9-5.9-5.9H25.9c-3.2,0-5.9,2.6-5.9,5.9v5.9H5.3c-2.4,0-4.4,2-4.4,4.4V58
		c0,2.4,2,4.4,4.4,4.4h57.3c2.4,0,4.4-2,4.4-4.4V16.8C67.1,14.4,65.1,12.4,62.7,12.4z M50.9,15.3h5.9v11.8c0,0.8-0.7,1.5-1.5,1.5
		h-2.9c-0.8,0-1.5-0.7-1.5-1.5V15.3z M23,6.5c0-1.6,1.3-2.9,2.9-2.9h16.2c1.6,0,2.9,1.3,2.9,2.9v5.9H23V6.5z M20,15.3H48v8.8H20
		V15.3z M11.2,15.3h5.9v11.8c0,0.8-0.7,1.5-1.5,1.5h-2.9c-0.8,0-1.5-0.7-1.5-1.5V15.3z M3.9,16.8c0-0.8,0.7-1.5,1.5-1.5h2.9v8.8H3.9
		V16.8z M64.1,58c0,0.8-0.7,1.5-1.5,1.5H5.3c-0.8,0-1.5-0.7-1.5-1.5V27.1h4.4c0,2.4,2,4.4,4.4,4.4h2.9c2.4,0,4.4-2,4.4-4.4H48
		c0,2.4,2,4.4,4.4,4.4h2.9c2.4,0,4.4-2,4.4-4.4h4.4V58z M64.1,24.2h-4.4v-8.8h2.9c0.8,0,1.5,0.7,1.5,1.5V24.2z"/>
	<path class="st0" d="M41.3,37.4h-1.5v-1.5c0-2.4-2-4.4-4.4-4.4h-2.9c-2.4,0-4.4,2-4.4,4.4v1.5h-1.5c-2.4,0-4.4,2-4.4,4.4v2.9
		c0,2.4,2,4.4,4.4,4.4h1.5v1.5c0,2.4,2,4.4,4.4,4.4h2.9c2.4,0,4.4-2,4.4-4.4v-1.5h1.5c2.4,0,4.4-2,4.4-4.4v-2.9
		C45.8,39.4,43.8,37.4,41.3,37.4z M42.8,44.7c0,0.8-0.7,1.5-1.5,1.5h-2.9c-0.8,0-1.5,0.7-1.5,1.5v2.9c0,0.8-0.7,1.5-1.5,1.5h-2.9
		c-0.8,0-1.5-0.7-1.5-1.5v-2.9c0-0.8-0.7-1.5-1.5-1.5h-2.9c-0.8,0-1.5-0.7-1.5-1.5v-2.9c0-0.8,0.7-1.5,1.5-1.5h2.9
		c0.8,0,1.5-0.7,1.5-1.5v-2.9c0-0.8,0.7-1.5,1.5-1.5h2.9c0.8,0,1.5,0.7,1.5,1.5v2.9c0,0.8,0.7,1.5,1.5,1.5h2.9
		c0.8,0,1.5,0.7,1.5,1.5V44.7z"/>
</g>
</svg>
