<?xml version="1.0" encoding="UTF-8"?>
<!DOCTYPE svg PUBLIC "-//W3C//DTD SVG 1.1//EN" "http://www.w3.org/Graphics/SVG/1.1/DTD/svg11.dtd">
<!-- Creator: CorelDRAW 2018 (64 Bit Versión de evaluación) -->
<svg xmlns="http://www.w3.org/2000/svg" xml:space="preserve" width="18.7572mm" height="17.536mm" version="1.1" style="shape-rendering:geometricPrecision; text-rendering:geometricPrecision; image-rendering:optimizeQuality; fill-rule:evenodd; clip-rule:evenodd"
viewBox="0 0 1878.1 1755.83"
 xmlns:xlink="http://www.w3.org/1999/xlink">
 <defs>
  <style type="text/css">
   <![CDATA[
    .fil0 {fill:#18418C}
   ]]>
  </style>
 </defs>
 <g id="Capa_x0020_1">
  <metadata id="CorelCorpID_0Corel-Layer"/>
  <g id="_2402504907408">
   <g>
    <path class="fil0" d="M1755.83 335.26l-417.65 0 0 -167.63c0,-90.92 -73.86,-167.62 -167.62,-167.62l-460.26 0c-90.92,0 -167.63,73.87 -167.63,167.62l0 167.63 -417.65 0c-68.19,0 -125.01,56.82 -125.01,125.01l0 1170.56c0,68.19 56.82,125.01 125.01,125.01l1627.98 0c68.19,0 125.01,-56.82 125.01,-125.01l0.01 -1170.56c2.83,-68.19 -53.99,-125.01 -122.18,-125.01zm-335.26 82.39l167.63 0 0 335.26c0,22.73 -19.9,42.61 -42.62,42.61l-82.39 0c-22.73,0 -42.61,-19.89 -42.61,-42.61l0 -335.26zm-792.68 -250.03c0,-45.46 36.94,-82.38 82.39,-82.38l460.26 0c45.46,0 82.39,36.93 82.39,82.38l0 167.63 -625.05 0 0 -167.63zm-85.24 250.03l795.52 0 0 250.02 -795.52 0 0 -250.02zm-250.02 0l167.62 0 0 335.26c0,22.73 -19.89,42.61 -42.61,42.61l-82.39 0c-22.73,0 -42.61,-19.89 -42.61,-42.61l0 -335.26zm-207.4 42.61c0,-22.73 19.89,-42.61 42.61,-42.61l82.39 0 0 250.02 -125.01 0 0 -207.4zm1710.37 1170.56c0,22.73 -19.9,42.61 -42.62,42.61l-1627.98 0c-22.73,0 -42.61,-19.89 -42.61,-42.61l0 -877.91 125.01 0c0,68.19 56.82,125.01 125.01,125.01l82.39 0c68.19,0 125.01,-56.82 125.01,-125.01l798.36 0c0,68.19 56.82,125.01 125.01,125.01l82.39 0c68.19,0 125.01,-56.82 125.01,-125.01l125.02 0 0 877.91zm0 -960.31l-125.02 0 0 -250.02 82.39 0c22.73,0 42.62,19.89 42.62,42.61l0 207.4z"/>
    <path class="fil0" d="M1147.83 1045.54l-42.61 0 0 -42.61c0,-68.19 -56.83,-125.01 -125.02,-125.01l-82.39 0c-68.19,0 -125.01,56.82 -125.01,125.01l0 42.61 -42.61 0c-68.19,0 -125.01,56.83 -125.01,125.02l0 82.38c0,68.2 56.82,125.02 125.01,125.02l42.61 0 0 42.61c0,68.19 56.82,125.01 125.01,125.01l82.39 0c68.19,0 125.01,-56.82 125.01,-125.01l0 -42.61 42.62 0c68.19,0 125.01,-56.83 125.01,-125.02l0 -82.38c2.84,-68.19 -53.98,-125.02 -125.01,-125.02zm42.61 207.4c0,22.74 -19.89,42.62 -42.61,42.62l-82.39 0c-22.73,0 -42.61,19.89 -42.61,42.61l0 82.39c0,22.73 -19.9,42.61 -42.62,42.61l-82.39 0c-22.73,0 -42.61,-19.89 -42.61,-42.61l0 -82.39c0,-22.73 -19.89,-42.61 -42.61,-42.61l-82.39 0c-22.73,0 -42.61,-19.89 -42.61,-42.62l0 -82.38c0,-22.73 19.89,-42.62 42.61,-42.62l82.39 0c22.73,0 42.61,-19.89 42.61,-42.61l0 -82.39c0,-22.73 19.89,-42.61 42.62,-42.61l82.38 0c22.73,0 42.62,19.89 42.62,42.61l0 82.39c0,22.73 19.89,42.61 42.61,42.61l82.39 0c22.73,0 42.61,19.9 42.61,42.62l0 82.38z"/>
   </g>
  </g>
 </g>
</svg>
