<svg width="68" height="63" viewBox="0 0 68 63" fill="none" xmlns="http://www.w3.org/2000/svg">
<rect width="68" height="63" rx="6" fill="white"/>
<rect width="68" height="63" rx="6" fill="#E8E9EA" fill-opacity="0.48"/>
<path d="M6.8077 47H8.1677L5.6637 41.4H4.3837L1.8877 47H3.2157L3.7117 45.8H6.3117L6.8077 47ZM4.1277 44.816L5.0157 42.672L5.9037 44.816H4.1277Z" fill="#18418C"/>
<path d="M11.1167 42.632C10.5327 42.632 10.0287 42.832 9.6927 43.2V42.696H8.5007V47H9.7487V44.872C9.7487 44.08 10.1807 43.712 10.7807 43.712C11.3327 43.712 11.6527 44.032 11.6527 44.728V47H12.9007V44.536C12.9007 43.224 12.1327 42.632 11.1167 42.632Z" fill="#18418C"/>
<path d="M16.3119 45.912C16.1759 46.016 15.9919 46.072 15.8079 46.072C15.4719 46.072 15.2719 45.872 15.2719 45.504V43.752H16.3439V42.792H15.2719V41.744H14.0239V42.792H13.3599V43.752H14.0239V45.52C14.0239 46.544 14.6159 47.064 15.6319 47.064C16.0159 47.064 16.3919 46.976 16.6479 46.792L16.3119 45.912Z" fill="#18418C"/>
<path d="M17.8125 42.096C18.2765 42.096 18.5885 41.792 18.5885 41.376C18.5885 40.992 18.2765 40.704 17.8125 40.704C17.3485 40.704 17.0365 41.008 17.0365 41.4C17.0365 41.792 17.3485 42.096 17.8125 42.096ZM17.1885 47H18.4365V42.696H17.1885V47Z" fill="#18418C"/>
<path d="M21.9788 42.632C21.4028 42.632 20.9388 42.816 20.6268 43.192V42.696H19.4348V48.552H20.6828V46.544C21.0028 46.896 21.4428 47.064 21.9788 47.064C23.1868 47.064 24.1228 46.2 24.1228 44.848C24.1228 43.496 23.1868 42.632 21.9788 42.632ZM21.7628 46.04C21.1388 46.04 20.6668 45.592 20.6668 44.848C20.6668 44.104 21.1388 43.656 21.7628 43.656C22.3868 43.656 22.8588 44.104 22.8588 44.848C22.8588 45.592 22.3868 46.04 21.7628 46.04Z" fill="#18418C"/>
<path d="M26.4639 42.632C25.7759 42.632 25.0799 42.816 24.6079 43.152L25.0559 44.024C25.3679 43.776 25.8399 43.624 26.2959 43.624C26.9679 43.624 27.2879 43.936 27.2879 44.472H26.2959C24.9839 44.472 24.4479 45 24.4479 45.76C24.4479 46.504 25.0479 47.064 26.0559 47.064C26.6879 47.064 27.1359 46.856 27.3679 46.464V47H28.5359V44.544C28.5359 43.24 27.7759 42.632 26.4639 42.632ZM26.3679 46.224C25.9279 46.224 25.6639 46.016 25.6639 45.704C25.6639 45.416 25.8479 45.2 26.4319 45.2H27.2879V45.64C27.1439 46.032 26.7839 46.224 26.3679 46.224Z" fill="#18418C"/>
<path d="M30.6974 43.264V42.696H29.5054V47H30.7534V44.968C30.7534 44.144 31.2094 43.768 31.8974 43.768C31.9934 43.768 32.0734 43.776 32.1774 43.784V42.632C31.5134 42.632 31.0014 42.848 30.6974 43.264Z" fill="#18418C"/>
<path d="M34.472 42.632C33.784 42.632 33.088 42.816 32.616 43.152L33.064 44.024C33.376 43.776 33.848 43.624 34.304 43.624C34.976 43.624 35.296 43.936 35.296 44.472H34.304C32.992 44.472 32.456 45 32.456 45.76C32.456 46.504 33.056 47.064 34.064 47.064C34.696 47.064 35.144 46.856 35.376 46.464V47H36.544V44.544C36.544 43.24 35.784 42.632 34.472 42.632ZM34.376 46.224C33.936 46.224 33.672 46.016 33.672 45.704C33.672 45.416 33.856 45.2 34.44 45.2H35.296V45.64C35.152 46.032 34.792 46.224 34.376 46.224Z" fill="#18418C"/>
<path d="M38.9615 47.064C40.2495 47.064 40.9935 46.496 40.9935 45.696C40.9935 44 38.3935 44.712 38.3935 43.976C38.3935 43.752 38.6335 43.576 39.1935 43.576C39.5855 43.576 40.0095 43.656 40.4335 43.896L40.8495 43.008C40.4415 42.768 39.7855 42.632 39.1935 42.632C37.9375 42.632 37.2015 43.208 37.2015 44.024C37.2015 45.744 39.8015 45.024 39.8015 45.728C39.8015 45.968 39.5855 46.12 39.0095 46.12C38.4815 46.12 37.8975 45.952 37.5135 45.704L37.0975 46.6C37.4975 46.864 38.2335 47.064 38.9615 47.064Z" fill="#18418C"/>
<path d="M42.2275 42.096C42.6915 42.096 43.0035 41.792 43.0035 41.376C43.0035 40.992 42.6915 40.704 42.2275 40.704C41.7635 40.704 41.4515 41.008 41.4515 41.4C41.4515 41.792 41.7635 42.096 42.2275 42.096ZM41.6035 47H42.8515V42.696H41.6035V47Z" fill="#18418C"/>
<path d="M46.2898 45.912C46.1538 46.016 45.9698 46.072 45.7858 46.072C45.4498 46.072 45.2498 45.872 45.2498 45.504V43.752H46.3218V42.792H45.2498V41.744H44.0018V42.792H43.3378V43.752H44.0018V45.52C44.0018 46.544 44.5938 47.064 45.6098 47.064C45.9938 47.064 46.3698 46.976 46.6258 46.792L46.2898 45.912Z" fill="#18418C"/>
<path d="M48.9023 42.632C48.2143 42.632 47.5183 42.816 47.0463 43.152L47.4943 44.024C47.8063 43.776 48.2783 43.624 48.7343 43.624C49.4063 43.624 49.7263 43.936 49.7263 44.472H48.7343C47.4223 44.472 46.8863 45 46.8863 45.76C46.8863 46.504 47.4863 47.064 48.4943 47.064C49.1263 47.064 49.5743 46.856 49.8063 46.464V47H50.9743V44.544C50.9743 43.24 50.2143 42.632 48.9023 42.632ZM48.8063 46.224C48.3663 46.224 48.1023 46.016 48.1023 45.704C48.1023 45.416 48.2863 45.2 48.8703 45.2H49.7263V45.64C49.5823 46.032 49.2223 46.224 48.8063 46.224Z" fill="#18418C"/>
<path d="M53.1358 43.264V42.696H51.9438V47H53.1918V44.968C53.1918 44.144 53.6478 43.768 54.3358 43.768C54.4318 43.768 54.5118 43.776 54.6158 43.784V42.632C53.9518 42.632 53.4398 42.848 53.1358 43.264Z" fill="#18418C"/>
<path d="M55.8219 42.096C56.2859 42.096 56.5979 41.792 56.5979 41.376C56.5979 40.992 56.2859 40.704 55.8219 40.704C55.3579 40.704 55.0459 41.008 55.0459 41.4C55.0459 41.792 55.3579 42.096 55.8219 42.096ZM55.1979 47H56.4459V42.696H55.1979V47Z" fill="#18418C"/>
<path d="M59.4921 47.064C60.8601 47.064 61.8521 46.144 61.8521 44.848C61.8521 43.552 60.8601 42.632 59.4921 42.632C58.1241 42.632 57.1241 43.552 57.1241 44.848C57.1241 46.144 58.1241 47.064 59.4921 47.064ZM59.4921 46.04C58.8681 46.04 58.3881 45.592 58.3881 44.848C58.3881 44.104 58.8681 43.656 59.4921 43.656C60.1161 43.656 60.5881 44.104 60.5881 44.848C60.5881 45.592 60.1161 46.04 59.4921 46.04Z" fill="#18418C"/>
<path d="M63.9743 47.064C65.2623 47.064 66.0063 46.496 66.0063 45.696C66.0063 44 63.4063 44.712 63.4063 43.976C63.4063 43.752 63.6463 43.576 64.2063 43.576C64.5983 43.576 65.0223 43.656 65.4463 43.896L65.8623 43.008C65.4543 42.768 64.7983 42.632 64.2063 42.632C62.9503 42.632 62.2143 43.208 62.2143 44.024C62.2143 45.744 64.8143 45.024 64.8143 45.728C64.8143 45.968 64.5983 46.12 64.0223 46.12C63.4943 46.12 62.9103 45.952 62.5263 45.704L62.1103 46.6C62.5103 46.864 63.2463 47.064 63.9743 47.064Z" fill="#18418C"/>
<path d="M10.3965 54.864C10.3965 53.48 9.42054 52.632 8.15654 52.632C6.84454 52.632 5.86054 53.56 5.86054 54.848C5.86054 56.128 6.82854 57.064 8.31654 57.064C9.09254 57.064 9.69254 56.824 10.0925 56.368L9.42854 55.648C9.13254 55.928 8.80454 56.064 8.34854 56.064C7.69254 56.064 7.23654 55.736 7.11654 55.2H10.3725C10.3805 55.096 10.3965 54.96 10.3965 54.864ZM8.16454 53.576C8.72454 53.576 9.13254 53.928 9.22054 54.472H7.10054C7.18854 53.92 7.59654 53.576 8.16454 53.576Z" fill="#18418C"/>
<path d="M13.6834 52.632C13.0994 52.632 12.5954 52.832 12.2594 53.2V52.696H11.0674V57H12.3154V54.872C12.3154 54.08 12.7474 53.712 13.3474 53.712C13.8994 53.712 14.2194 54.032 14.2194 54.728V57H15.4674V54.536C15.4674 53.224 14.6994 52.632 13.6834 52.632Z" fill="#18418C"/>
<path d="M19.6215 51.064V53.152C19.3095 52.8 18.8615 52.632 18.3335 52.632C17.1175 52.632 16.1815 53.496 16.1815 54.848C16.1815 56.2 17.1175 57.064 18.3335 57.064C18.9095 57.064 19.3655 56.88 19.6775 56.504V57H20.8695V51.064H19.6215ZM18.5495 56.04C17.9255 56.04 17.4455 55.592 17.4455 54.848C17.4455 54.104 17.9255 53.656 18.5495 53.656C19.1655 53.656 19.6455 54.104 19.6455 54.848C19.6455 55.592 19.1655 56.04 18.5495 56.04Z" fill="#18418C"/>
<path d="M26.0806 54.864C26.0806 53.48 25.1046 52.632 23.8406 52.632C22.5286 52.632 21.5446 53.56 21.5446 54.848C21.5446 56.128 22.5126 57.064 24.0006 57.064C24.7766 57.064 25.3766 56.824 25.7766 56.368L25.1126 55.648C24.8166 55.928 24.4886 56.064 24.0326 56.064C23.3766 56.064 22.9206 55.736 22.8006 55.2H26.0566C26.0646 55.096 26.0806 54.96 26.0806 54.864ZM23.8486 53.576C24.4086 53.576 24.8166 53.928 24.9046 54.472H22.7846C22.8726 53.92 23.2806 53.576 23.8486 53.576Z" fill="#18418C"/>
<path d="M28.8315 57.064C29.7355 57.064 30.4475 56.664 30.7595 55.976L29.7915 55.448C29.5595 55.864 29.2155 56.04 28.8235 56.04C28.1915 56.04 27.6955 55.6 27.6955 54.848C27.6955 54.096 28.1915 53.656 28.8235 53.656C29.2155 53.656 29.5595 53.84 29.7915 54.248L30.7595 53.728C30.4475 53.024 29.7355 52.632 28.8315 52.632C27.4315 52.632 26.4315 53.552 26.4315 54.848C26.4315 56.144 27.4315 57.064 28.8315 57.064Z" fill="#18418C"/>
<path d="M33.8205 55.912C33.6845 56.016 33.5005 56.072 33.3165 56.072C32.9805 56.072 32.7805 55.872 32.7805 55.504V53.752H33.8525V52.792H32.7805V51.744H31.5325V52.792H30.8685V53.752H31.5325V55.52C31.5325 56.544 32.1245 57.064 33.1405 57.064C33.5245 57.064 33.9005 56.976 34.1565 56.792L33.8205 55.912Z" fill="#18418C"/>
<path d="M36.6123 57.064C37.9803 57.064 38.9723 56.144 38.9723 54.848C38.9723 53.552 37.9803 52.632 36.6123 52.632C35.2443 52.632 34.2443 53.552 34.2443 54.848C34.2443 56.144 35.2443 57.064 36.6123 57.064ZM36.6123 56.04C35.9883 56.04 35.5083 55.592 35.5083 54.848C35.5083 54.104 35.9883 53.656 36.6123 53.656C37.2363 53.656 37.7083 54.104 37.7083 54.848C37.7083 55.592 37.2363 56.04 36.6123 56.04Z" fill="#18418C"/>
<path d="M41.7265 57.064C42.6305 57.064 43.3425 56.664 43.6545 55.976L42.6865 55.448C42.4545 55.864 42.1105 56.04 41.7185 56.04C41.0865 56.04 40.5905 55.6 40.5905 54.848C40.5905 54.096 41.0865 53.656 41.7185 53.656C42.1105 53.656 42.4545 53.84 42.6865 54.248L43.6545 53.728C43.3425 53.024 42.6305 52.632 41.7265 52.632C40.3265 52.632 39.3265 53.552 39.3265 54.848C39.3265 56.144 40.3265 57.064 41.7265 57.064Z" fill="#18418C"/>
<path d="M44.837 52.096C45.301 52.096 45.613 51.792 45.613 51.376C45.613 50.992 45.301 50.704 44.837 50.704C44.373 50.704 44.061 51.008 44.061 51.4C44.061 51.792 44.373 52.096 44.837 52.096ZM44.213 57H45.461V52.696H44.213V57Z" fill="#18418C"/>
<path d="M49.5953 51.064V53.152C49.2833 52.8 48.8353 52.632 48.3073 52.632C47.0913 52.632 46.1553 53.496 46.1553 54.848C46.1553 56.2 47.0913 57.064 48.3073 57.064C48.8833 57.064 49.3393 56.88 49.6513 56.504V57H50.8433V51.064H49.5953ZM48.5233 56.04C47.8993 56.04 47.4193 55.592 47.4193 54.848C47.4193 54.104 47.8993 53.656 48.5233 53.656C49.1393 53.656 49.6193 54.104 49.6193 54.848C49.6193 55.592 49.1393 56.04 48.5233 56.04Z" fill="#18418C"/>
<path d="M53.5744 52.632C52.8864 52.632 52.1904 52.816 51.7184 53.152L52.1664 54.024C52.4784 53.776 52.9504 53.624 53.4064 53.624C54.0784 53.624 54.3984 53.936 54.3984 54.472H53.4064C52.0944 54.472 51.5584 55 51.5584 55.76C51.5584 56.504 52.1584 57.064 53.1664 57.064C53.7984 57.064 54.2464 56.856 54.4784 56.464V57H55.6464V54.544C55.6464 53.24 54.8864 52.632 53.5744 52.632ZM53.4784 56.224C53.0384 56.224 52.7744 56.016 52.7744 55.704C52.7744 55.416 52.9584 55.2 53.5424 55.2H54.3984V55.64C54.2544 56.032 53.8944 56.224 53.4784 56.224Z" fill="#18418C"/>
<path d="M58.0639 57.064C59.3519 57.064 60.0959 56.496 60.0959 55.696C60.0959 54 57.4959 54.712 57.4959 53.976C57.4959 53.752 57.7359 53.576 58.2959 53.576C58.6879 53.576 59.1119 53.656 59.5359 53.896L59.9519 53.008C59.5439 52.768 58.8879 52.632 58.2959 52.632C57.0399 52.632 56.3039 53.208 56.3039 54.024C56.3039 55.744 58.9039 55.024 58.9039 55.728C58.9039 55.968 58.6879 56.12 58.1119 56.12C57.5839 56.12 56.9999 55.952 56.6159 55.704L56.1999 56.6C56.5999 56.864 57.3359 57.064 58.0639 57.064Z" fill="#18418C"/>
<path d="M48.2756 17.6171C48.229 17.5696 48.1734 17.5319 48.112 17.5062C48.0506 17.4805 47.9847 17.4673 47.9181 17.4675H35.4534C35.3868 17.4675 35.3208 17.4808 35.2594 17.5068C35.1979 17.5327 35.1423 17.5707 35.0959 17.6185C35.0494 17.6663 35.0129 17.7229 34.9887 17.785C34.9645 17.8471 34.953 17.9134 34.9548 17.9801L35.44 34.9465C35.4461 35.2064 35.554 35.4536 35.7405 35.6347C35.927 35.8159 36.1772 35.9166 36.4371 35.9153H46.9349C47.1949 35.9166 47.4451 35.8159 47.6315 35.6347C47.818 35.4536 47.9259 35.2064 47.9321 34.9465L48.4167 17.9801C48.4187 17.9132 48.4073 17.8466 48.3831 17.7842C48.3588 17.7219 48.3223 17.665 48.2756 17.6171V17.6171ZM47.4051 18.4647L47.2366 24.366C46.9139 24.2738 46.601 24.1504 46.3022 23.9975C45.5148 23.5985 44.6444 23.3905 43.7616 23.3905C42.8789 23.3905 42.0085 23.5985 41.2211 23.9975C40.5745 24.3521 39.8452 24.5281 39.1081 24.5076C38.3702 24.5293 37.6399 24.3538 36.9926 23.999C36.7088 23.8553 36.4152 23.7317 36.1141 23.6291L35.9665 18.4647H47.4051ZM36.4362 34.9181L36.4217 34.4195H44.428V33.4223H36.3938L36.1445 24.705C36.2856 24.7649 36.4222 24.8292 36.5603 24.8955C37.343 25.3143 38.2206 25.5241 39.1081 25.5048C39.9938 25.5237 40.8696 25.3142 41.6509 24.8965C42.3037 24.5622 43.0265 24.3879 43.7599 24.3879C44.4933 24.3879 45.2162 24.5622 45.8689 24.8965C46.2923 25.1139 46.7414 25.2771 47.2056 25.3821L46.9783 33.4223H45.4252V34.4195H46.9499L46.9354 34.9181H36.4362Z" fill="#18418C"/>
<path d="M37.9463 19.4619H36.9492V21.4562H37.9463V19.4619Z" fill="#18418C"/>
<path d="M37.9463 22.4534H36.9492V23.4505H37.9463V22.4534Z" fill="#18418C"/>
<path d="M27.9746 19.4619H26.9774V18.4647C26.9774 18.3325 26.9249 18.2057 26.8314 18.1122C26.7379 18.0187 26.611 17.9661 26.4788 17.9661H24.4845C24.3522 17.9661 24.2254 18.0187 24.1319 18.1122C24.0384 18.2057 23.9859 18.3325 23.9859 18.4647V19.4619H22.9887C22.8565 19.4619 22.7296 19.5144 22.6361 19.6079C22.5426 19.7014 22.4901 19.8282 22.4901 19.9605V21.9548C22.4901 22.0871 22.5426 22.2139 22.6361 22.3074C22.7296 22.4009 22.8565 22.4534 22.9887 22.4534H23.9859V23.4506C23.9859 23.5828 24.0384 23.7096 24.1319 23.8031C24.2254 23.8966 24.3522 23.9492 24.4845 23.9492H26.4788C26.611 23.9492 26.7379 23.8966 26.8314 23.8031C26.9249 23.7096 26.9774 23.5828 26.9774 23.4506V22.4534H27.9746C28.1068 22.4534 28.2336 22.4009 28.3271 22.3074C28.4206 22.2139 28.4732 22.0871 28.4732 21.9548V19.9605C28.4732 19.8282 28.4206 19.7014 28.3271 19.6079C28.2336 19.5144 28.1068 19.4619 27.9746 19.4619ZM27.476 21.4562H26.4788C26.3466 21.4562 26.2198 21.5088 26.1263 21.6023C26.0328 21.6958 25.9802 21.8226 25.9802 21.9548V22.952H24.983V21.9548C24.983 21.8226 24.9305 21.6958 24.837 21.6023C24.7435 21.5088 24.6167 21.4562 24.4845 21.4562H23.4873V20.4591H24.4845C24.6167 20.4591 24.7435 20.4065 24.837 20.313C24.9305 20.2195 24.983 20.0927 24.983 19.9605V18.9633H25.9802V19.9605C25.9802 20.0927 26.0328 20.2195 26.1263 20.313C26.2198 20.4065 26.3466 20.4591 26.4788 20.4591H27.476V21.4562Z" fill="#18418C"/>
<path d="M31.4647 28.9351C30.7744 28.9351 30.0996 29.1398 29.5257 29.5232C28.9517 29.9067 28.5044 30.4518 28.2402 31.0896C27.9761 31.7273 27.9069 32.429 28.0416 33.1061C28.1763 33.7831 28.5087 34.405 28.9968 34.8931C29.4849 35.3812 30.1068 35.7136 30.7838 35.8482C31.4608 35.9829 32.1625 35.9138 32.8003 35.6496C33.438 35.3855 33.9831 34.9381 34.3666 34.3642C34.7501 33.7902 34.9548 33.1154 34.9548 32.4252C34.9537 31.4999 34.5857 30.6127 33.9314 29.9585C33.2771 29.3042 32.39 28.9361 31.4647 28.9351V28.9351ZM31.4647 34.9181C30.9716 34.9181 30.4896 34.7719 30.0797 34.498C29.6697 34.224 29.3502 33.8347 29.1615 33.3792C28.9728 32.9237 28.9234 32.4224 29.0196 31.9388C29.1158 31.4552 29.3532 31.011 29.7019 30.6624C30.0505 30.3138 30.4947 30.0763 30.9783 29.9801C31.4619 29.8839 31.9631 29.9333 32.4187 30.122C32.8742 30.3107 33.2635 30.6302 33.5375 31.0402C33.8114 31.4501 33.9576 31.9321 33.9576 32.4252C33.9568 33.0861 33.6939 33.7197 33.2266 34.1871C32.7592 34.6544 32.1256 34.9173 31.4647 34.9181V34.9181Z" fill="#18418C"/>
<path d="M33.459 31.9266H29.4703V32.9237H33.459V31.9266Z" fill="#18418C"/>
<path d="M30.1534 13.0849L29.5601 12.9154C29.2471 12.8257 28.9718 12.6366 28.7757 12.3767C28.5796 12.1167 28.4734 11.8001 28.4732 11.4745V9.9887H28.9717C29.104 9.9887 29.2308 9.93617 29.3243 9.84267C29.4178 9.74916 29.4703 9.62235 29.4703 9.49011V6.49859C29.4703 6.36635 29.4178 6.23954 29.3243 6.14603C29.2308 6.05253 29.104 6 28.9717 6H21.9915C21.8593 6 21.7325 6.05253 21.639 6.14603C21.5455 6.23954 21.4929 6.36635 21.4929 6.49859V9.49011C21.4929 9.62235 21.5455 9.74916 21.639 9.84267C21.7325 9.93617 21.8593 9.9887 21.9915 9.9887H22.4901V11.4745C22.4898 11.8001 22.3836 12.1167 22.1876 12.3767C21.9915 12.6366 21.7162 12.8257 21.4032 12.9154L20.8099 13.0849C20.2894 13.2351 19.8316 13.55 19.5053 13.9824C19.1789 14.4148 19.0016 14.9414 19 15.4831V27.4393C19.0012 27.8356 19.1592 28.2154 19.4394 28.4956C19.7197 28.7759 20.0994 28.9338 20.4958 28.935H21.5328C21.4545 29.4718 21.5025 30.0195 21.673 30.5345C21.8435 31.0495 22.1318 31.5176 22.515 31.9016C22.525 31.9116 22.535 31.9166 22.545 31.9266H20.9943C20.4654 31.9266 19.9581 32.1367 19.5841 32.5107C19.2101 32.8847 19 33.392 19 33.9209C19 34.4498 19.2101 34.9571 19.5841 35.3311C19.9581 35.7051 20.4654 35.9153 20.9943 35.9153H24.983C25.3689 35.9167 25.7468 35.8059 26.0706 35.5962C26.3945 35.3864 26.6503 35.087 26.8068 34.7343C26.9633 34.3817 27.0137 33.9911 26.9519 33.6102C26.8902 33.2294 26.7188 32.8748 26.4589 32.5897C26.8279 32.4211 27.1638 32.1881 27.4511 31.9016C27.8343 31.5176 28.1226 31.0495 28.2931 30.5345C28.4636 30.0195 28.5116 29.4718 28.4333 28.935H30.4675C30.8638 28.9338 31.2436 28.7759 31.5239 28.4956C31.8041 28.2154 31.9621 27.8356 31.9633 27.4393V15.4831C31.9616 14.9414 31.7843 14.4148 31.458 13.9824C31.1317 13.55 30.6739 13.2351 30.1534 13.0849V13.0849ZM22.4901 34.9181H20.9943C20.7299 34.9181 20.4762 34.813 20.2892 34.626C20.1022 34.439 19.9972 34.1854 19.9972 33.9209C19.9972 33.6564 20.1022 33.4028 20.2892 33.2158C20.4762 33.0288 20.7299 32.9237 20.9943 32.9237H22.4901V34.9181ZM22.4901 6.99718H28.4732V8.99153H22.4901V6.99718ZM24.983 34.9181H23.4873V32.9237H24.983C25.2475 32.9237 25.5012 33.0288 25.6882 33.2158C25.8752 33.4028 25.9802 33.6564 25.9802 33.9209C25.9802 34.1854 25.8752 34.439 25.6882 34.626C25.5012 34.813 25.2475 34.9181 24.983 34.9181ZM27.0622 30.8097L24.983 28.7256L24.2751 29.4336L26.3592 31.5127C25.8797 31.8305 25.3052 31.9727 24.7329 31.9152C24.1606 31.8578 23.6258 31.6042 23.2191 31.1975C22.8124 30.7908 22.5589 30.256 22.5014 29.6837C22.444 29.1115 22.5862 28.5369 22.9039 28.0575L23.572 28.7306L24.28 28.0226L23.6069 27.3545C24.0864 27.0368 24.6609 26.8945 25.2332 26.952C25.8055 27.0094 26.3403 27.263 26.747 27.6697C27.1537 28.0764 27.4072 28.6112 27.4647 29.1835C27.5221 29.7558 27.3799 30.3303 27.0622 30.8097V30.8097ZM30.9661 27.4393C30.9661 27.5715 30.9136 27.6983 30.8201 27.7918C30.7266 27.8853 30.5997 27.9379 30.4675 27.9379H28.1341C27.9622 27.578 27.7313 27.2494 27.4511 26.9656C27.127 26.6415 26.7422 26.3844 26.3187 26.209C25.8953 26.0335 25.4414 25.9432 24.983 25.9432C24.5247 25.9432 24.0708 26.0335 23.6474 26.209C23.2239 26.3844 22.8391 26.6415 22.515 26.9656C22.2348 27.2494 22.0039 27.578 21.832 27.9379H20.4958C20.3635 27.9379 20.2367 27.8853 20.1432 27.7918C20.0497 27.6983 19.9972 27.5715 19.9972 27.4393V25.9435H30.9661V27.4393ZM30.9661 24.9463H19.9972V16.9689H30.9661V24.9463ZM30.9661 15.9718H19.9972V15.4831C19.9975 15.1575 20.1036 14.8409 20.2997 14.5809C20.4958 14.321 20.7711 14.1319 21.0841 14.0422L21.6774 13.8727C22.1979 13.7225 22.6557 13.4076 22.982 12.9752C23.3084 12.5428 23.4856 12.0162 23.4873 11.4745V9.9887H27.476V11.4745C27.4776 12.0162 27.6549 12.5428 27.9813 12.9752C28.3076 13.4076 28.7654 13.7225 29.2859 13.8727L29.8792 14.0422C30.1922 14.1319 30.4675 14.321 30.6636 14.5809C30.8596 14.8409 30.9658 15.1575 30.9661 15.4831V15.9718Z" fill="#18418C"/>
</svg>
