<?xml version="1.0" encoding="UTF-8"?>
<!DOCTYPE svg PUBLIC "-//W3C//DTD SVG 1.1//EN" "http://www.w3.org/Graphics/SVG/1.1/DTD/svg11.dtd">
<!-- Creator: CorelDRAW 2018 (64 Bit Versión de evaluación) -->
<svg xmlns="http://www.w3.org/2000/svg" xml:space="preserve" width="31.8198mm" height="31.8198mm" version="1.1" style="shape-rendering:geometricPrecision; text-rendering:geometricPrecision; image-rendering:optimizeQuality; fill-rule:evenodd; clip-rule:evenodd"
viewBox="0 0 1093.19 1093.19"
 xmlns:xlink="http://www.w3.org/1999/xlink">
 <defs>
  <style type="text/css">
   <![CDATA[
    .fil0 {fill:#334F8E}
    .fil1 {fill:#334F8E;fill-rule:nonzero}
   ]]>
  </style>
 </defs>
 <g id="Capa_x0020_1">
  <metadata id="CorelCorpID_0Corel-Layer"/>
  <g id="_2063832128928">
   <path class="fil0" d="M525.07 309.4l-43.44 45.46c-3.74,3.9 -4.4,9.84 -1.63,14.49l0 0 109.7 183.88c4.7,7.85 16.07,7.83 20.71,-0.06l0 0 50.33 -85.44c2.23,-3.79 2.22,-8.48 -0.02,-12.25l0 0 -81.51 -137.56c-1.76,-3 -5.07,-9.41 -8.51,-10.01l0 0 -34.99 -8.48c-0.16,-0.03 -0.34,-0.04 -0.52,-0.04 -3.79,0 -7.44,7.22 -10.12,10.01l0 0z"/>
   <path class="fil1" d="M546.6 95.34c-248.83,0 -451.26,202.44 -451.26,451.25 0,248.82 202.43,451.24 451.26,451.24 248.82,0 451.25,-202.42 451.25,-451.24 0,-248.81 -202.42,-451.25 -451.25,-451.25zm0 997.85c-301.4,0 -546.6,-245.2 -546.6,-546.6 0,-301.38 245.2,-546.59 546.6,-546.59 301.38,0 546.59,245.21 546.59,546.59 0,301.4 -245.2,546.6 -546.59,546.6z"/>
   <path class="fil1" d="M573.46 309.15c-27.41,-31.3 -61.45,-43.94 -102.22,-38.77 -36.92,4.67 -64.66,24.22 -83.46,56.38 -18.45,31.54 -37.02,63.02 -55.47,94.54 -21.24,36.3 -42.36,72.67 -63.64,108.94 -20.49,34.95 -41.08,69.8 -61.57,104.75 -1.23,2.08 -3.21,3.94 -3.09,6.84 0.68,0.21 1.3,0.56 1.91,0.56 41.58,0.05 83.13,0.02 124.7,0.15 3.46,0.02 4.83,-1.8 6.28,-4.29 23.86,-40.73 47.77,-81.43 71.6,-122.17 21.05,-35.98 41.91,-72.09 63.09,-107.97 5.23,-8.86 9.17,-18.54 16.08,-26.36 10.7,-18.57 20.96,-37.37 32.18,-55.62 12.41,-20.19 32.81,-25.05 53.83,-13.81 1.01,0.53 1.99,0.96 3.06,1.41 -0.44,-0.7 -0.91,-1.44 -1.43,-2.19 -0.62,-0.87 -1.26,-1.67 -1.85,-2.39z"/>
   <path class="fil0" d="M484.77 500.94l-0.19 0 -0.19 0c-3.95,0.06 -7.89,2.04 -10.19,5.93l0 0 -50.33 85.45c-2.23,3.77 -2.23,8.47 0.02,12.23l0 0 81.51 137.56c1.79,3 5.07,9.39 8.51,10.01l0 0 35.01 8.48c3.96,0.71 7.83,-7.04 10.62,-9.97l0 0 43.46 -45.46c3.73,-3.9 4.4,-9.82 1.63,-14.47l0 0 -109.73 -183.9c-2.28,-3.85 -6.18,-5.8 -10.12,-5.86z"/>
   <path class="fil1" d="M511.16 750.88c27.42,31.31 61.44,43.94 102.21,38.78 36.93,-4.67 64.66,-24.23 83.48,-56.39 18.45,-31.54 37,-63.02 55.45,-94.54 21.26,-36.29 42.38,-72.67 63.65,-108.95 20.48,-34.95 41.08,-69.8 61.57,-104.75 1.23,-2.09 3.19,-3.94 3.07,-6.84 -0.68,-0.21 -1.28,-0.56 -1.91,-0.56 -41.57,-0.04 -83.13,-0.01 -124.71,-0.14 -3.44,-0.02 -4.83,1.8 -6.28,4.3 -23.85,40.74 -47.77,81.42 -71.6,122.16 -21.05,35.98 -41.89,72.09 -63.08,107.98 -5.23,8.85 -9.17,18.52 -16.09,26.34 -10.7,18.57 -20.96,37.39 -32.17,55.64 -12.41,20.18 -32.81,25.04 -53.85,13.8 -1.01,-0.53 -1.98,-0.95 -3.04,-1.41 0.43,0.7 0.9,1.43 1.43,2.19 0.62,0.87 1.24,1.67 1.84,2.39z"/>
  </g>
 </g>
</svg>
