<?xml version="1.0" encoding="UTF-8"?>
<!DOCTYPE svg PUBLIC "-//W3C//DTD SVG 1.1//EN" "http://www.w3.org/Graphics/SVG/1.1/DTD/svg11.dtd">
<!-- Creator: CorelDRAW 2018 (64 Bit Versión de evaluación) -->
<svg xmlns="http://www.w3.org/2000/svg" xml:space="preserve" width="1.85844cm" height="1.85844cm" version="1.1" style="shape-rendering:geometricPrecision; text-rendering:geometricPrecision; image-rendering:optimizeQuality; fill-rule:evenodd; clip-rule:evenodd"
viewBox="0 0 1858.44 1858.44"
 xmlns:xlink="http://www.w3.org/1999/xlink">
 <defs>
  <style type="text/css">
   <![CDATA[
    .str0 {stroke:#334F8E;stroke-width:75;stroke-miterlimit:22.9256}
    .fil0 {fill:none}
    .fil1 {fill:#334F8E}
   ]]>
  </style>
 </defs>
 <g id="Capa_x0020_1">
  <metadata id="CorelCorpID_0Corel-Layer"/>
  <g id="_2155055615376">
   <path class="fil0 str0" d="M37.5 959.44c0.17,1.84 0.38,3.65 0.65,5.43 1.99,13.15 1.09,34.82 3.34,50.26l2.75 25.17c0.54,8.31 2.49,15.64 3.32,23.48 1.72,16.45 5.46,30.37 8.11,46.61 0.12,0.73 0.69,4.03 1.12,5.58 0.58,2.12 1.09,2.97 1.6,5.1l23.29 86.15c9.09,31.32 22.75,59.34 34.61,89.35 1.91,4.83 2.64,4.79 4.5,8.9 1.76,3.92 2.32,5.51 4.19,9.22 12.19,24.19 24.31,48.05 38.23,71.2l21.23 33.49c2.34,3.87 3.03,4.51 5.4,8 9.25,13.57 18.35,27.74 28.84,40.4 2.34,2.83 3.35,4.91 5.65,7.75l18.38 22.94c4.26,4.77 8.8,9.38 12.56,14.25 15.9,20.57 48.72,52.23 66.7,69.54l29.04 25.67c13.39,13.04 37.57,30.36 53.12,41.81 34.75,25.57 71.18,49.52 109.86,68.82l36.48 18.24c3.51,1.68 5.34,2.74 9.01,4.39 3.73,1.67 5.47,2.63 9.26,4.14 7.11,2.82 12.35,5.38 19.64,8.28l111.57 38.07c34.35,8.75 67.72,15.3 102.97,20.99 18.73,3.02 54.22,6.54 74.41,7.12l26.76 1.15 64.34 0c12.52,-0.39 24.85,-1.22 36.63,-2.89 8.43,-1.2 16.51,-0.74 24.95,-1.85l24.53 -3.39c9.8,-1.31 24.2,-2.98 34.56,-5.65 14.23,-3.67 30.26,-4.89 44.49,-9.11l32.8 -8.51c6.84,-2.03 13.52,-3.59 20.83,-5.98l60.7 -20.82c19.66,-7.13 38.06,-16.29 57.25,-24.27 12.02,-5 24.27,-12.37 35.78,-17.83 6.46,-3.07 11.71,-5.79 17.61,-9.19l95.3 -61.04c2.11,-1.64 2.08,-1.33 4.08,-2.62 2.54,-1.65 4.67,-3.7 7.55,-5.85 2.92,-2.18 4.68,-3.51 7.66,-5.74l30.29 -24.44c5.21,-4.37 9.3,-7.89 14.53,-12.26l14.03 -12.78c9.49,-9.54 18.44,-17.35 27.9,-26.82 9.29,-9.29 16.89,-18.09 26.25,-27.35 10.26,-10.14 32.79,-36.51 40.68,-47.54l14.63 -18.88c2.01,-2.7 4.11,-4.91 5.89,-7.51 1.23,-1.8 1.39,-2.53 2.57,-4.13 1.16,-1.58 1.67,-1.86 3.04,-3.66 13.84,-18.19 25.44,-37.86 38.01,-56.91 2.18,-3.3 2.96,-5.49 4.89,-8.52 28.95,-45.52 66.03,-125.57 80.87,-177.09 1.25,-4.36 2.32,-5.52 3.56,-9.84l6.03 -20.77c9.64,-27.84 23.35,-92.87 26.63,-123.02 0.98,-9 1.84,-15.27 3.09,-23.71 2.59,-17.5 4.9,-59.94 4.9,-77.74l0 -62.89c-0.38,-12.63 -1.2,-25.08 -2.89,-36.96 -1.21,-8.46 -0.78,-16.33 -2.02,-24.78 -1.24,-8.48 -1.97,-15.89 -3.21,-24.71 -3.15,-22.41 -7.5,-46.42 -12.82,-68.7l-5.18 -22.74c-7.55,-33.69 -29.93,-101.77 -44.59,-132.97 -5.79,-12.32 -10.75,-25.44 -17.16,-37.57 -1.29,-2.45 -1.35,-2.26 -2.37,-4.33l-6.69 -13.41c-7.21,-14.88 -15.01,-30.19 -24.13,-43.99l-20.82 -33.9c-6.63,-11.1 -14.71,-21.64 -22.04,-32.68l-11.25 -15.55c-10.87,-14.79 -25.73,-34.62 -38.24,-47.75l-64.94 -67.95c-13.7,-13.71 -28.95,-25.15 -42.99,-38.53 -9.29,-8.85 -20.48,-16.2 -30.6,-24.13 -10.49,-8.2 -20.36,-15.37 -31.56,-23.16l-15.94 -10.86c-3.58,-2.09 -4.94,-3.25 -8.01,-5.39 -2.91,-2.04 -5.8,-3.57 -8.87,-5.64 -10.99,-7.43 -22.51,-13.57 -34.2,-20.53 -19.68,-11.71 -52.23,-28.67 -72.25,-37.19 -3.43,-1.47 -6.06,-2.21 -9.55,-3.85 -3.63,-1.7 -5.3,-2.75 -9.13,-4.27l-122.19 -41.97c-22.32,-4.85 -44.5,-10.88 -67.69,-14.95 -40.31,-7.06 -58.33,-7.93 -97.09,-12.35 -8.52,-0.97 -17.71,-1.62 -27.29,-2.03l-57.39 0c-15.14,0.5 -29.79,1.31 -42.87,2.19 -40.35,2.74 -81.16,8.07 -120.5,16.86l-44.24 10.49c-34.69,8.76 -87.51,26.23 -122.6,42.67l-99.98 50.79 -82.46 54.9c-15.44,12.53 -31.53,24.16 -46.39,37.36l-89.71 88.97c-2.71,3.47 -3.66,4.07 -6.33,7.07l-12.7 15.22c-14.71,17.77 -28.9,36.1 -41.97,55.18l-47.33 75.52 -41.05 82.91c-1.75,3.74 -2.54,5.83 -3.98,9.42l-9.94 24.68c-1.29,3.93 -0.53,1.71 -1.88,4.82 -7.7,17.78 -14.76,43.35 -20.54,62.09l-6.33 21.59c-0.57,2.24 -0.76,3.46 -1.34,5.37 -7.06,23.08 -14.32,62.14 -17.68,86.17 -6.06,43.42 -10.52,81.56 -10.52,127.96l0 39.71z"/>
   <path class="fil1" d="M370.29 1086.12l209.95 0c6.73,0 24.51,-36.28 29.26,-43.32 8.6,-12.73 26.12,-45.12 35.44,-60.6l62.26 -106.37c12.39,-22.28 26.53,-43.89 38.7,-66.28l39.26 -66.83c0.79,-1.47 0.8,-1.67 1.52,-2.94l29.27 -51.14c4.45,-8.46 9.8,-19.25 16.67,-25.76 3.47,2.54 55.76,91.55 65.95,109.38l98.57 164.98c5.14,8.73 9.3,12.64 20.86,12.64 9.96,0 14.59,-6.14 18.26,-13.01 16.39,-30.6 36.04,-59.68 52.86,-90.08l21.12 -35.84c8.14,-13.18 12.65,-19.49 3.32,-34.8l-109.18 -184.53c-2.59,-4 -4.21,-7.1 -6.68,-11.18l-20.53 -34.19c-8.01,-11.87 -25.43,-27.98 -37.54,-36.17l-16.98 -10.93c-2.8,-1.68 -2.61,-1.63 -5.68,-3.26 -13.24,-7.04 -26.42,-10.76 -40.9,-14.93 -15.46,-4.46 -33.48,-4.58 -50.15,-4.58 -22.52,0 -47.97,6.02 -68.25,14.39 -44.83,18.53 -69.56,49.39 -93.61,89.53l-21.1 35.86c-19.23,36.17 -45.33,75.24 -65.3,111.14 -21.6,38.82 -45.38,76.23 -67,115.03 -19.81,35.53 -42.05,69.15 -61.46,104.94l-68.13 116.13c-4.37,8.03 -10.78,12.7 -10.78,22.72z"/>
   <path class="fil1" d="M1013.53 1141.96c-5.11,-1.37 -9.36,-12.47 -12.07,-16.96 -1.99,-3.29 -3.41,-5.68 -5.44,-9.08l-71.37 -119.59c-2.4,-3.63 -3.18,-5.35 -5.39,-9.13 -7.99,-13.6 -16.94,-26.59 -24.29,-40.48l-36.31 -60.85c-13.02,-21.82 -13.1,-30.91 -33.86,-30.91 -10.16,0 -15.84,11.49 -19.91,19.17 -1.42,2.66 -1.29,2.37 -2.86,4.96 -1.37,2.27 -1.57,2.99 -2.75,5.07 -1.19,2.1 -2.37,3.57 -3.46,5.46l-20.81 35.04c-1.43,2.36 -1.75,3.36 -3.17,5.76 -8.16,13.81 -15.36,26.33 -23.61,40.04l-17.89 30.13c-5.86,9.85 -5.85,16 -0.64,25.41l21.19 35.76c1.4,2.21 2.3,3.53 3.37,5.56 1.37,2.58 1.72,3.28 3.31,5.63 2.68,3.97 4.71,7.96 6.92,12.06l24.13 40.65c1.58,2.56 2.39,3.78 3.85,6.19l4.98 8.43c0.92,1.67 1.04,1.71 2.11,3.48l48.65 82c4.6,7.95 15.15,28.4 20.99,34.85 1.65,1.83 2.79,2.6 4.41,4.52 2.06,2.45 2.11,3.08 4.5,5.56l14.55 13.37c2.16,2.02 2.69,2.88 5.2,4.84 10.54,8.26 21.39,16.64 33.97,21.87 4.21,1.74 8.59,3.76 13.26,5.73 30.64,12.91 77.45,15.78 111.5,6.99 4.42,-1.14 9.2,-1.94 13.39,-3.35 4.17,-1.41 8.42,-2.72 12.49,-4.27 4.46,-1.69 7.62,-3.55 11.49,-5.26 1.95,-0.87 3.59,-1.33 5.5,-2.32 19.48,-10.12 37.41,-24.23 51.68,-41l7.57 -9.19c2.41,-3.17 4.89,-5.74 7.33,-9.43 2.43,-3.68 4.22,-6.59 6.43,-10.31l12.11 -20.28c19.11,-36.17 50.32,-84.17 70.94,-121.14l6.17 -10.58c1.47,-2.47 2,-2.85 3.46,-5.47 2.29,-4.1 3.72,-6.65 6,-10.75l67.7 -115.45c4.23,-7.6 8.07,-13.66 12.28,-21.22l93.09 -158.18c2.16,-4 3.87,-7.05 6.01,-10.74 1.02,-1.77 1.83,-2.69 3.06,-4.76 2.7,-4.56 21.46,-34.37 21.46,-37.73 0,-4.7 -5.04,-3.47 -10.01,-3.38 -29.81,0.49 -164.71,1.34 -180.14,-0.78 -8.14,-1.11 -20.22,-0.8 -24.4,2.91 -4.4,3.92 -7.42,11.19 -10.3,16.5l-144.03 245.72c-16.51,29.88 -34.8,58.37 -51.36,88.23l-30.45 53.31c-2.21,3.75 -2.75,4.95 -5.09,8.31 -2.03,2.91 -4.52,5.65 -5.44,9.08z"/>
  </g>
 </g>
</svg>
