<svg width="68" height="63" viewBox="0 0 68 63" fill="none" xmlns="http://www.w3.org/2000/svg">
<rect width="68" height="63" rx="6" fill="white"/>
<rect width="68" height="63" rx="6" fill="#E8E9EA" fill-opacity="0.48"/>
<path d="M14.2242 50.108C15.3222 50.108 16.2312 49.712 16.8252 48.983L15.8892 48.119C15.4662 48.614 14.9352 48.866 14.3052 48.866C13.1262 48.866 12.2892 48.038 12.2892 46.85C12.2892 45.662 13.1262 44.834 14.3052 44.834C14.9352 44.834 15.4662 45.086 15.8892 45.572L16.8252 44.708C16.2312 43.988 15.3222 43.592 14.2332 43.592C12.2712 43.592 10.8132 44.951 10.8132 46.85C10.8132 48.749 12.2712 50.108 14.2242 50.108ZM19.4486 45.086C18.6746 45.086 17.8916 45.293 17.3606 45.671L17.8646 46.652C18.2156 46.373 18.7466 46.202 19.2596 46.202C20.0156 46.202 20.3756 46.553 20.3756 47.156H19.2596C17.7836 47.156 17.1806 47.75 17.1806 48.605C17.1806 49.442 17.8556 50.072 18.9896 50.072C19.7006 50.072 20.2046 49.838 20.4656 49.397V50H21.7796V47.237C21.7796 45.77 20.9246 45.086 19.4486 45.086ZM19.3406 49.127C18.8456 49.127 18.5486 48.893 18.5486 48.542C18.5486 48.218 18.7556 47.975 19.4126 47.975H20.3756V48.47C20.2136 48.911 19.8086 49.127 19.3406 49.127ZM24.2113 45.797V45.158H22.8703V50H24.2743V47.714C24.2743 46.787 24.7873 46.364 25.5613 46.364C25.6693 46.364 25.7593 46.373 25.8763 46.382V45.086C25.1293 45.086 24.5533 45.329 24.2113 45.797ZM29.3931 45.086C28.7901 45.086 28.2951 45.275 27.9351 45.671V43.322H26.5311V50H27.8721V49.442C28.2231 49.865 28.7451 50.072 29.3931 50.072C30.7521 50.072 31.8051 49.1 31.8051 47.579C31.8051 46.058 30.7521 45.086 29.3931 45.086ZM29.1501 48.92C28.4481 48.92 27.9171 48.416 27.9171 47.579C27.9171 46.742 28.4481 46.238 29.1501 46.238C29.8521 46.238 30.3831 46.742 30.3831 47.579C30.3831 48.416 29.8521 48.92 29.1501 48.92ZM36.039 45.158V47.552C36.039 48.443 35.571 48.857 34.923 48.857C34.302 48.857 33.942 48.497 33.942 47.687V45.158H32.538V47.894C32.538 49.388 33.393 50.072 34.608 50.072C35.202 50.072 35.742 49.847 36.111 49.424V50H37.443V45.158H36.039ZM41.5067 45.086C40.8497 45.086 40.2827 45.311 39.9047 45.725V45.158H38.5637V50H39.9677V47.606C39.9677 46.715 40.4537 46.301 41.1287 46.301C41.7497 46.301 42.1097 46.661 42.1097 47.444V50H43.5137V47.228C43.5137 45.752 42.6497 45.086 41.5067 45.086ZM46.9991 50.072C48.0161 50.072 48.8171 49.622 49.1681 48.848L48.0791 48.254C47.8181 48.722 47.4311 48.92 46.9901 48.92C46.2791 48.92 45.7211 48.425 45.7211 47.579C45.7211 46.733 46.2791 46.238 46.9901 46.238C47.4311 46.238 47.8181 46.445 48.0791 46.904L49.1681 46.319C48.8171 45.527 48.0161 45.086 46.9991 45.086C45.4241 45.086 44.2991 46.121 44.2991 47.579C44.2991 49.037 45.4241 50.072 46.9991 50.072ZM49.7613 50H51.1653V43.322H49.7613V50ZM54.5924 50.072C56.1314 50.072 57.2474 49.037 57.2474 47.579C57.2474 46.121 56.1314 45.086 54.5924 45.086C53.0534 45.086 51.9284 46.121 51.9284 47.579C51.9284 49.037 53.0534 50.072 54.5924 50.072ZM54.5924 48.92C53.8904 48.92 53.3504 48.416 53.3504 47.579C53.3504 46.742 53.8904 46.238 54.5924 46.238C55.2944 46.238 55.8254 46.742 55.8254 47.579C55.8254 48.416 55.2944 48.92 54.5924 48.92Z" fill="#18418C"/>
<path d="M48.2756 19.6171C48.229 19.5696 48.1734 19.5319 48.112 19.5062C48.0506 19.4805 47.9847 19.4673 47.9181 19.4675H35.4534C35.3868 19.4675 35.3208 19.4808 35.2594 19.5068C35.1979 19.5327 35.1423 19.5707 35.0959 19.6185C35.0494 19.6663 35.0129 19.7229 34.9887 19.785C34.9645 19.8471 34.953 19.9134 34.9548 19.9801L35.44 36.9465C35.4461 37.2064 35.554 37.4536 35.7405 37.6347C35.927 37.8159 36.1772 37.9166 36.4371 37.9153H46.9349C47.1949 37.9166 47.4451 37.8159 47.6315 37.6347C47.818 37.4536 47.9259 37.2064 47.9321 36.9465L48.4167 19.9801C48.4187 19.9132 48.4073 19.8466 48.3831 19.7842C48.3588 19.7219 48.3223 19.665 48.2756 19.6171V19.6171ZM47.4051 20.4647L47.2366 26.366C46.9139 26.2738 46.601 26.1504 46.3022 25.9975C45.5148 25.5985 44.6444 25.3905 43.7616 25.3905C42.8789 25.3905 42.0085 25.5985 41.2211 25.9975C40.5745 26.3521 39.8452 26.5281 39.1081 26.5076C38.3702 26.5293 37.6399 26.3538 36.9926 25.999C36.7088 25.8553 36.4152 25.7317 36.1141 25.6291L35.9665 20.4647H47.4051ZM36.4362 36.9181L36.4217 36.4195H44.428V35.4223H36.3938L36.1445 26.705C36.2856 26.7649 36.4222 26.8292 36.5603 26.8955C37.343 27.3143 38.2206 27.5241 39.1081 27.5048C39.9938 27.5237 40.8696 27.3142 41.6509 26.8965C42.3037 26.5622 43.0265 26.3879 43.7599 26.3879C44.4933 26.3879 45.2162 26.5622 45.8689 26.8965C46.2923 27.1139 46.7414 27.2771 47.2056 27.3821L46.9783 35.4223H45.4252V36.4195H46.9499L46.9354 36.9181H36.4362Z" fill="#18418C"/>
<path d="M37.9463 21.4619H36.9492V23.4562H37.9463V21.4619Z" fill="#18418C"/>
<path d="M37.9463 24.4534H36.9492V25.4505H37.9463V24.4534Z" fill="#18418C"/>
<path d="M27.9746 21.4619H26.9774V20.4647C26.9774 20.3325 26.9249 20.2057 26.8314 20.1122C26.7379 20.0187 26.611 19.9661 26.4788 19.9661H24.4845C24.3522 19.9661 24.2254 20.0187 24.1319 20.1122C24.0384 20.2057 23.9859 20.3325 23.9859 20.4647V21.4619H22.9887C22.8565 21.4619 22.7296 21.5144 22.6361 21.6079C22.5426 21.7014 22.4901 21.8282 22.4901 21.9605V23.9548C22.4901 24.0871 22.5426 24.2139 22.6361 24.3074C22.7296 24.4009 22.8565 24.4534 22.9887 24.4534H23.9859V25.4506C23.9859 25.5828 24.0384 25.7096 24.1319 25.8031C24.2254 25.8966 24.3522 25.9492 24.4845 25.9492H26.4788C26.611 25.9492 26.7379 25.8966 26.8314 25.8031C26.9249 25.7096 26.9774 25.5828 26.9774 25.4506V24.4534H27.9746C28.1068 24.4534 28.2336 24.4009 28.3271 24.3074C28.4206 24.2139 28.4732 24.0871 28.4732 23.9548V21.9605C28.4732 21.8282 28.4206 21.7014 28.3271 21.6079C28.2336 21.5144 28.1068 21.4619 27.9746 21.4619ZM27.476 23.4562H26.4788C26.3466 23.4562 26.2198 23.5088 26.1263 23.6023C26.0328 23.6958 25.9802 23.8226 25.9802 23.9548V24.952H24.983V23.9548C24.983 23.8226 24.9305 23.6958 24.837 23.6023C24.7435 23.5088 24.6167 23.4562 24.4845 23.4562H23.4873V22.4591H24.4845C24.6167 22.4591 24.7435 22.4065 24.837 22.313C24.9305 22.2195 24.983 22.0927 24.983 21.9605V20.9633H25.9802V21.9605C25.9802 22.0927 26.0328 22.2195 26.1263 22.313C26.2198 22.4065 26.3466 22.4591 26.4788 22.4591H27.476V23.4562Z" fill="#18418C"/>
<path d="M31.4647 30.9351C30.7744 30.9351 30.0996 31.1398 29.5257 31.5232C28.9517 31.9067 28.5044 32.4518 28.2402 33.0896C27.9761 33.7273 27.9069 34.429 28.0416 35.1061C28.1763 35.7831 28.5087 36.405 28.9968 36.8931C29.4849 37.3812 30.1068 37.7136 30.7838 37.8482C31.4608 37.9829 32.1625 37.9138 32.8003 37.6496C33.438 37.3855 33.9831 36.9381 34.3666 36.3642C34.7501 35.7902 34.9548 35.1154 34.9548 34.4252C34.9537 33.4999 34.5857 32.6127 33.9314 31.9585C33.2771 31.3042 32.39 30.9361 31.4647 30.9351V30.9351ZM31.4647 36.9181C30.9716 36.9181 30.4896 36.7719 30.0797 36.498C29.6697 36.224 29.3502 35.8347 29.1615 35.3792C28.9728 34.9237 28.9234 34.4224 29.0196 33.9388C29.1158 33.4552 29.3532 33.011 29.7019 32.6624C30.0505 32.3138 30.4947 32.0763 30.9783 31.9801C31.4619 31.8839 31.9631 31.9333 32.4187 32.122C32.8742 32.3107 33.2635 32.6302 33.5375 33.0402C33.8114 33.4501 33.9576 33.9321 33.9576 34.4252C33.9568 35.0861 33.6939 35.7197 33.2266 36.1871C32.7592 36.6544 32.1256 36.9173 31.4647 36.9181V36.9181Z" fill="#18418C"/>
<path d="M33.459 33.9266H29.4703V34.9237H33.459V33.9266Z" fill="#18418C"/>
<path d="M30.1534 15.0849L29.5601 14.9154C29.2471 14.8257 28.9718 14.6366 28.7757 14.3767C28.5796 14.1167 28.4734 13.8001 28.4732 13.4745V11.9887H28.9717C29.104 11.9887 29.2308 11.9362 29.3243 11.8427C29.4178 11.7492 29.4703 11.6223 29.4703 11.4901V8.49859C29.4703 8.36635 29.4178 8.23954 29.3243 8.14603C29.2308 8.05253 29.104 8 28.9717 8H21.9915C21.8593 8 21.7325 8.05253 21.639 8.14603C21.5455 8.23954 21.4929 8.36635 21.4929 8.49859V11.4901C21.4929 11.6223 21.5455 11.7492 21.639 11.8427C21.7325 11.9362 21.8593 11.9887 21.9915 11.9887H22.4901V13.4745C22.4898 13.8001 22.3836 14.1167 22.1876 14.3767C21.9915 14.6366 21.7162 14.8257 21.4032 14.9154L20.8099 15.0849C20.2894 15.2351 19.8316 15.55 19.5053 15.9824C19.1789 16.4148 19.0016 16.9414 19 17.4831V29.4393C19.0012 29.8356 19.1592 30.2154 19.4394 30.4956C19.7197 30.7759 20.0994 30.9338 20.4958 30.935H21.5328C21.4545 31.4718 21.5025 32.0195 21.673 32.5345C21.8435 33.0495 22.1318 33.5176 22.515 33.9016C22.525 33.9116 22.535 33.9166 22.545 33.9266H20.9943C20.4654 33.9266 19.9581 34.1367 19.5841 34.5107C19.2101 34.8847 19 35.392 19 35.9209C19 36.4498 19.2101 36.9571 19.5841 37.3311C19.9581 37.7051 20.4654 37.9153 20.9943 37.9153H24.983C25.3689 37.9167 25.7468 37.8059 26.0706 37.5962C26.3945 37.3864 26.6503 37.087 26.8068 36.7343C26.9633 36.3817 27.0137 35.9911 26.9519 35.6102C26.8902 35.2294 26.7188 34.8748 26.4589 34.5897C26.8279 34.4211 27.1638 34.1881 27.4511 33.9016C27.8343 33.5176 28.1226 33.0495 28.2931 32.5345C28.4636 32.0195 28.5116 31.4718 28.4333 30.935H30.4675C30.8638 30.9338 31.2436 30.7759 31.5239 30.4956C31.8041 30.2154 31.9621 29.8356 31.9633 29.4393V17.4831C31.9616 16.9414 31.7843 16.4148 31.458 15.9824C31.1317 15.55 30.6739 15.2351 30.1534 15.0849V15.0849ZM22.4901 36.9181H20.9943C20.7299 36.9181 20.4762 36.813 20.2892 36.626C20.1022 36.439 19.9972 36.1854 19.9972 35.9209C19.9972 35.6564 20.1022 35.4028 20.2892 35.2158C20.4762 35.0288 20.7299 34.9237 20.9943 34.9237H22.4901V36.9181ZM22.4901 8.99718H28.4732V10.9915H22.4901V8.99718ZM24.983 36.9181H23.4873V34.9237H24.983C25.2475 34.9237 25.5012 35.0288 25.6882 35.2158C25.8752 35.4028 25.9802 35.6564 25.9802 35.9209C25.9802 36.1854 25.8752 36.439 25.6882 36.626C25.5012 36.813 25.2475 36.9181 24.983 36.9181ZM27.0622 32.8097L24.983 30.7256L24.2751 31.4336L26.3592 33.5127C25.8797 33.8305 25.3052 33.9727 24.7329 33.9152C24.1606 33.8578 23.6258 33.6042 23.2191 33.1975C22.8124 32.7908 22.5589 32.256 22.5014 31.6837C22.444 31.1115 22.5862 30.5369 22.9039 30.0575L23.572 30.7306L24.28 30.0226L23.6069 29.3545C24.0864 29.0368 24.6609 28.8945 25.2332 28.952C25.8055 29.0094 26.3403 29.263 26.747 29.6697C27.1537 30.0764 27.4072 30.6112 27.4647 31.1835C27.5221 31.7558 27.3799 32.3303 27.0622 32.8097V32.8097ZM30.9661 29.4393C30.9661 29.5715 30.9136 29.6983 30.8201 29.7918C30.7266 29.8853 30.5997 29.9379 30.4675 29.9379H28.1341C27.9622 29.578 27.7313 29.2494 27.4511 28.9656C27.127 28.6415 26.7422 28.3844 26.3187 28.209C25.8953 28.0335 25.4414 27.9432 24.983 27.9432C24.5247 27.9432 24.0708 28.0335 23.6474 28.209C23.2239 28.3844 22.8391 28.6415 22.515 28.9656C22.2348 29.2494 22.0039 29.578 21.832 29.9379H20.4958C20.3635 29.9379 20.2367 29.8853 20.1432 29.7918C20.0497 29.6983 19.9972 29.5715 19.9972 29.4393V27.9435H30.9661V29.4393ZM30.9661 26.9463H19.9972V18.9689H30.9661V26.9463ZM30.9661 17.9718H19.9972V17.4831C19.9975 17.1575 20.1036 16.8409 20.2997 16.5809C20.4958 16.321 20.7711 16.1319 21.0841 16.0422L21.6774 15.8727C22.1979 15.7225 22.6557 15.4076 22.982 14.9752C23.3084 14.5428 23.4856 14.0162 23.4873 13.4745V11.9887H27.476V13.4745C27.4776 14.0162 27.6549 14.5428 27.9813 14.9752C28.3076 15.4076 28.7654 15.7225 29.2859 15.8727L29.8792 16.0422C30.1922 16.1319 30.4675 16.321 30.6636 16.5809C30.8596 16.8409 30.9658 17.1575 30.9661 17.4831V17.9718Z" fill="#18418C"/>
</svg>
