<svg width="68" height="63" viewBox="0 0 68 63" fill="none" xmlns="http://www.w3.org/2000/svg">
<g clip-path="url(#clip0)">
<path d="M0 6C0 2.68629 2.68629 0 6 0H62C65.3137 0 68 2.68629 68 6V57C68 60.3137 65.3137 63 62 63H6C2.68629 63 0 60.3137 0 57V6Z" fill="#E8E9EA" fill-opacity="0.48"/>
<rect x="-12" y="-37" width="100" height="100" fill="white"/>
<rect x="-12" y="-37" width="100" height="100" fill="#E8E9EA" fill-opacity="0.48"/>
<path d="M33.1546 28.0909H26.3909" stroke="#18418C" stroke-miterlimit="10" stroke-linecap="round"/>
<path d="M28.6454 18.6V16.4909C28.6454 16.2009 28.8991 15.9636 29.2091 15.9636H30.3364C30.6464 15.9636 30.9 16.2009 30.9 16.4909V18.6" stroke="#18418C" stroke-miterlimit="10" stroke-linecap="round"/>
<path d="M29.7728 9.63636V15.9636" stroke="#18418C" stroke-miterlimit="10" stroke-linecap="round"/>
<path d="M28.6454 29.6727V33.8909" stroke="#18418C" stroke-miterlimit="10" stroke-linecap="round"/>
<path d="M30.9 29.6727V33.8909" stroke="#18418C" stroke-miterlimit="10" stroke-linecap="round"/>
<path d="M26.9546 33.8909H32.591" stroke="#18418C" stroke-miterlimit="10" stroke-linecap="round"/>
<path d="M27.5182 25.4545H29.2091" stroke="#18418C" stroke-miterlimit="10" stroke-linecap="round"/>
<path d="M27.5182 23.3455H29.2091" stroke="#18418C" stroke-miterlimit="10" stroke-linecap="round"/>
<path d="M27.5182 21.2364H29.2091" stroke="#18418C" stroke-miterlimit="10" stroke-linecap="round"/>
<path d="M27.5182 28.0909V19.1273C27.5182 18.8373 27.7718 18.6 28.0818 18.6H31.4636C31.7736 18.6 32.0273 18.8373 32.0273 19.1273V28.0909" stroke="#18418C" stroke-miterlimit="10" stroke-linecap="round"/>
<path d="M40.4819 21.7636C40.4819 20.7091 41.0455 20.8831 41.0455 20.1818C41.0455 19.6545 40.6284 17.1605 40.4819 15.9636C40.3466 14.8353 40.1211 14.3818 39.0728 14.3818C38.0244 14.3818 37.799 14.8353 37.6637 15.9636C37.5171 17.1605 37.1001 19.6545 37.1001 20.1818C37.1001 20.8831 37.6637 20.7091 37.6637 21.7636C37.6637 22.8182 35.9728 23.5933 35.9728 24.4V32.8364C35.9728 33.4164 36.435 33.8909 37.0042 33.8909H41.1357C41.705 33.8909 42.1671 33.4164 42.1671 32.8364V24.4C42.1728 23.5933 40.4819 22.8182 40.4819 21.7636Z" stroke="#18418C" stroke-miterlimit="10" stroke-linecap="round"/>
<path d="M35.9728 25.4545H40.4819" stroke="#18418C" stroke-miterlimit="10" stroke-linecap="round"/>
<path d="M15.6659 46.724C16.1789 46.454 16.5029 45.968 16.5029 45.338C16.5029 44.357 15.6929 43.7 14.1179 43.7H11.0399V50H14.2979C15.9539 50 16.8179 49.37 16.8179 48.281C16.8179 47.489 16.3679 46.949 15.6659 46.724ZM13.9379 44.798C14.6489 44.798 15.0359 45.041 15.0359 45.536C15.0359 46.031 14.6489 46.283 13.9379 46.283H12.4889V44.798H13.9379ZM14.1899 48.902H12.4889V47.345H14.1899C14.9459 47.345 15.3509 47.597 15.3509 48.128C15.3509 48.668 14.9459 48.902 14.1899 48.902ZM18.3447 44.483C18.8667 44.483 19.2177 44.141 19.2177 43.673C19.2177 43.241 18.8667 42.917 18.3447 42.917C17.8227 42.917 17.4717 43.259 17.4717 43.7C17.4717 44.141 17.8227 44.483 18.3447 44.483ZM17.6427 50H19.0467V45.158H17.6427V50ZM22.4738 50.072C24.0128 50.072 25.1288 49.037 25.1288 47.579C25.1288 46.121 24.0128 45.086 22.4738 45.086C20.9348 45.086 19.8098 46.121 19.8098 47.579C19.8098 49.037 20.9348 50.072 22.4738 50.072ZM22.4738 48.92C21.7718 48.92 21.2318 48.416 21.2318 47.579C21.2318 46.742 21.7718 46.238 22.4738 46.238C23.1758 46.238 23.7068 46.742 23.7068 47.579C23.7068 48.416 23.1758 48.92 22.4738 48.92ZM25.8872 50H27.2912V43.322H25.8872V50ZM30.7183 50.072C32.2573 50.072 33.3733 49.037 33.3733 47.579C33.3733 46.121 32.2573 45.086 30.7183 45.086C29.1793 45.086 28.0543 46.121 28.0543 47.579C28.0543 49.037 29.1793 50.072 30.7183 50.072ZM30.7183 48.92C30.0163 48.92 29.4763 48.416 29.4763 47.579C29.4763 46.742 30.0163 46.238 30.7183 46.238C31.4203 46.238 31.9513 46.742 31.9513 47.579C31.9513 48.416 31.4203 48.92 30.7183 48.92ZM37.7947 45.158V45.779C37.4257 45.311 36.8677 45.086 36.1927 45.086C34.8517 45.086 33.7717 46.013 33.7717 47.426C33.7717 48.839 34.8517 49.766 36.1927 49.766C36.8227 49.766 37.3537 49.568 37.7227 49.163V49.37C37.7227 50.243 37.2907 50.693 36.3007 50.693C35.6797 50.693 35.0047 50.477 34.5907 50.144L34.0327 51.152C34.5997 51.593 35.4907 51.818 36.4087 51.818C38.1547 51.818 39.1267 50.99 39.1267 49.19V45.158H37.7947ZM36.4717 48.614C35.7337 48.614 35.1937 48.137 35.1937 47.426C35.1937 46.715 35.7337 46.238 36.4717 46.238C37.2097 46.238 37.7407 46.715 37.7407 47.426C37.7407 48.137 37.2097 48.614 36.4717 48.614ZM40.9555 44.483C41.4775 44.483 41.8285 44.141 41.8285 43.673C41.8285 43.241 41.4775 42.917 40.9555 42.917C40.4335 42.917 40.0825 43.259 40.0825 43.7C40.0825 44.141 40.4335 44.483 40.9555 44.483ZM40.2535 50H41.6575V45.158H40.2535V50ZM45.1205 50.072C46.1375 50.072 46.9385 49.622 47.2895 48.848L46.2005 48.254C45.9395 48.722 45.5525 48.92 45.1115 48.92C44.4005 48.92 43.8425 48.425 43.8425 47.579C43.8425 46.733 44.4005 46.238 45.1115 46.238C45.5525 46.238 45.9395 46.445 46.2005 46.904L47.2895 46.319C46.9385 45.527 46.1375 45.086 45.1205 45.086C43.5455 45.086 42.4205 46.121 42.4205 47.579C42.4205 49.037 43.5455 50.072 45.1205 50.072ZM50.1604 50.072C51.6994 50.072 52.8154 49.037 52.8154 47.579C52.8154 46.121 51.6994 45.086 50.1604 45.086C48.6214 45.086 47.4964 46.121 47.4964 47.579C47.4964 49.037 48.6214 50.072 50.1604 50.072ZM50.1604 48.92C49.4584 48.92 48.9184 48.416 48.9184 47.579C48.9184 46.742 49.4584 46.238 50.1604 46.238C50.8624 46.238 51.3934 46.742 51.3934 47.579C51.3934 48.416 50.8624 48.92 50.1604 48.92ZM55.2028 50.072C56.6518 50.072 57.4888 49.433 57.4888 48.533C57.4888 46.625 54.5638 47.426 54.5638 46.598C54.5638 46.346 54.8338 46.148 55.4638 46.148C55.9048 46.148 56.3818 46.238 56.8588 46.508L57.3268 45.509C56.8678 45.239 56.1298 45.086 55.4638 45.086C54.0508 45.086 53.2228 45.734 53.2228 46.652C53.2228 48.587 56.1478 47.777 56.1478 48.569C56.1478 48.839 55.9048 49.01 55.2568 49.01C54.6628 49.01 54.0058 48.821 53.5738 48.542L53.1058 49.55C53.5558 49.847 54.3838 50.072 55.2028 50.072Z" fill="#18418C"/>
</g>
<defs>
<clipPath id="clip0">
<path d="M0 6C0 2.68629 2.68629 0 6 0H62C65.3137 0 68 2.68629 68 6V57C68 60.3137 65.3137 63 62 63H6C2.68629 63 0 60.3137 0 57V6Z" fill="white"/>
</clipPath>
</defs>
</svg>
