<?xml version="1.0" encoding="UTF-8"?>
<!DOCTYPE svg PUBLIC "-//W3C//DTD SVG 1.1//EN" "http://www.w3.org/Graphics/SVG/1.1/DTD/svg11.dtd">
<!-- Creator: CorelDRAW 2018 (64 Bit Versión de evaluación) -->
<svg xmlns="http://www.w3.org/2000/svg" xml:space="preserve" width="19.05mm" height="19.403mm" version="1.1" style="shape-rendering:geometricPrecision; text-rendering:geometricPrecision; image-rendering:optimizeQuality; fill-rule:evenodd; clip-rule:evenodd"
viewBox="0 0 1905 1940.3"
 xmlns:xlink="http://www.w3.org/1999/xlink">
 <defs>
  <style type="text/css">
   <![CDATA[
    .fil0 {fill:#334F8E}
    .fil1 {fill:#334F8E;fill-rule:nonzero}
   ]]>
  </style>
 </defs>
 <g id="Capa_x0020_1">
  <metadata id="CorelCorpID_0Corel-Layer"/>
  <g id="_2063832803520">
   <path class="fil0" d="M916.07 568.73l-73.52 76.92c-6.33,6.6 -7.46,16.65 -2.75,24.53l0 0 185.65 311.2c7.95,13.28 27.19,13.25 35.05,-0.1l0 0 85.17 -144.6c3.78,-6.41 3.75,-14.35 -0.03,-20.73l0 0 -137.95 -232.8c-2.97,-5.08 -8.57,-15.93 -14.4,-16.95l0 0 -59.22 -14.35c-0.28,-0.05 -0.57,-0.07 -0.88,-0.07 -6.42,0 -12.6,12.22 -17.12,16.95l0 0z"/>
   <path class="fil1" d="M952.51 206.46c-421.1,0 -763.7,342.6 -763.7,763.68 0,421.1 342.6,763.67 763.7,763.67 421.1,0 763.68,-342.57 763.68,-763.67 0,-421.08 -342.58,-763.68 -763.68,-763.68zm0 1688.73c-510.08,0 -925.06,-414.97 -925.06,-925.05 0,-510.05 414.98,-925.03 925.06,-925.03 510.05,0 925.03,414.98 925.03,925.03 0,510.08 -414.98,925.05 -925.03,925.05z"/>
   <path class="fil1" d="M997.97 568.3c-46.4,-52.97 -104,-74.37 -173,-65.62 -62.47,7.89 -109.42,41 -141.25,95.42 -31.22,53.38 -62.65,106.65 -93.88,160 -35.95,61.43 -71.69,122.98 -107.69,184.38 -34.68,59.15 -69.53,118.12 -104.21,177.28 -2.07,3.52 -5.42,6.67 -5.23,11.57 1.16,0.35 2.21,0.95 3.24,0.95 70.37,0.08 140.69,0.03 211.04,0.25 5.86,0.02 8.18,-3.05 10.63,-7.27 40.38,-68.93 80.85,-137.8 121.18,-206.76 35.62,-60.9 70.92,-122 106.77,-182.72 8.85,-15 15.52,-31.38 27.22,-44.6 18.11,-31.43 35.48,-63.25 54.46,-94.13 20.99,-34.18 55.52,-42.4 91.1,-23.38 1.7,0.9 3.37,1.63 5.17,2.38 -0.74,-1.17 -1.55,-2.43 -2.42,-3.7 -1.05,-1.48 -2.13,-2.82 -3.13,-4.05z"/>
   <path class="fil0" d="M847.86 892.88l-0.32 0 -0.32 0c-6.69,0.1 -13.36,3.46 -17.25,10.02l0 0 -85.18 144.63c-3.77,6.37 -3.77,14.32 0.03,20.7l0 0 137.95 232.8c3.03,5.08 8.57,15.9 14.4,16.95l0 0 59.25 14.35c6.7,1.2 13.25,-11.92 17.97,-16.88l0 0 73.56 -76.92c6.32,-6.6 7.44,-16.63 2.75,-24.5l0 0 -185.7 -311.22c-3.87,-6.52 -10.47,-9.83 -17.14,-9.93z"/>
   <path class="fil1" d="M892.53 1315.87c46.39,52.98 103.97,74.38 172.97,65.63 62.5,-7.9 109.43,-41 141.28,-95.43 31.22,-53.37 62.62,-106.64 93.85,-160 35.98,-61.42 71.72,-122.97 107.72,-184.37 34.66,-59.16 69.53,-118.13 104.2,-177.28 2.08,-3.52 5.4,-6.67 5.21,-11.58 -1.15,-0.34 -2.18,-0.94 -3.23,-0.94 -70.35,-0.08 -140.7,-0.03 -211.05,-0.25 -5.83,-0.03 -8.17,3.04 -10.63,7.28 -40.37,68.94 -80.85,137.8 -121.17,206.74 -35.63,60.9 -70.9,122.01 -106.75,182.75 -8.86,14.98 -15.52,31.35 -27.22,44.58 -18.11,31.43 -35.48,63.27 -54.46,94.15 -21,34.15 -55.52,42.38 -91.13,23.35 -1.7,-0.9 -3.34,-1.6 -5.14,-2.37 0.72,1.17 1.52,2.42 2.42,3.7 1.05,1.47 2.1,2.82 3.13,4.04z"/>
  </g>
 </g>
</svg>
