<?xml version="1.0" encoding="utf-8"?>
<!-- Generator: Adobe Illustrator 25.2.0, SVG Export Plug-In . SVG Version: 6.00 Build 0)  -->
<svg version="1.1" id="Layer_1" xmlns="http://www.w3.org/2000/svg" xmlns:xlink="http://www.w3.org/1999/xlink" x="0px" y="0px"
	 viewBox="0 0 68 63" style="enable-background:new 0 0 68 63;" xml:space="preserve">
<style type="text/css">
	.st0{fill:#18418C;}
</style>
<g>
	<path class="st0" d="M2.5,40.2c2.8,1,3.5,1.9,3.8,2.8c-1.5,2-1.3,4.4-1.2,6.3c0.1,2,0.2,3.1-0.8,3.7c-0.4,0.2-0.6,0.7-0.3,1.1
		l0.2,0.4C5,55.9,5.7,57,6.4,57.5c0,0,0,0,0.1,0c2.6,1.4,7.9-1.5,10.1-2.8c0.7,1,1.6,3.3-0.5,6.2c-0.2,0.2-0.2,0.5-0.1,0.8
		c0.1,0.3,0.4,0.4,0.7,0.5l4.7,0.6c0,0,0.1,0,0.1,0c0.3,0,0.5-0.1,0.7-0.3c0.1-0.1,3-3.3,4.5-7.2c0.6,0.1,1.2,0.2,1.8,0.3
		c-0.4,1.3-1.6,4-3.8,5.8c-0.2,0.2-0.3,0.4-0.3,0.7c0,0.3,0.2,0.5,0.4,0.6c0.4,0.2,1.6,0.3,3.5,0.3c0.4,0,0.8,0,1.2,0
		c0.2,0,0.4-0.1,0.5-0.2c0.2-0.1,3.7-2.8,4.6-6.7c0-0.1,0-0.2,0-0.3c3.2-0.2,5.4-0.9,6.9-1.7c0,0,0.1,0,0.1,0.1
		c-0.2,0.1-0.3,0.3-0.4,0.5c0,0-1,4-4,6.6c-0.2,0.2-0.3,0.4-0.3,0.7c0,0.3,0.2,0.5,0.4,0.6c0.4,0.2,1.6,0.3,3.5,0.3
		c0.4,0,0.8,0,1.2,0c0.2,0,0.4-0.1,0.5-0.2c0.1-0.1,3.5-2.6,4.5-6.3c0.4,0,0.7,0,1.1,0c0.1,1-0.4,3-1.1,4.7c-0.1,0.2-0.1,0.5,0,0.7
		c0.1,0.2,0.3,0.4,0.6,0.4c1.6,0.3,2.7,0.4,3.5,0.4c1.2,0,1.6-0.3,1.7-0.4c0.2-0.2,0.3-0.4,0.3-0.6c3.3-6.8,4.8-13,4.3-18.3
		c0.9,0,1.7-0.1,2.4-0.3c0.5,0.7,1.2,1.3,2,1.8c0.8,0.4,1.6,0.6,2.4,0.6c0.4,0,0.8-0.1,1.2-0.2c0.5-0.1,0.7-0.6,0.6-1
		c-0.1-0.4-0.6-0.7-1.1-0.6c-1,0.3-1.8,0-2.3-0.3c-0.4-0.2-0.8-0.5-1.1-0.9c0.5-0.2,0.9-0.5,1.3-0.8c0.7-0.6,1.6-1.7,1.6-2.9
		c0-0.7-0.3-1.4-0.8-1.9c-0.5-0.5-1.3-0.8-2-0.7c-0.8,0-1.4,0.4-1.9,1c-0.9,1.2-1,3.2-0.7,4.2c0,0,0,0.1,0,0.1
		c-0.6,0.1-1.2,0.2-1.9,0.2c-0.7-4.2-2.7-7.6-5.9-10.2c-8.8-7-24.5-5.3-39.1,4c-0.1,0.1-0.1,0.1-0.2,0.2C11,35.7,4.2,35.1,2,39.1
		c-0.1,0.2-0.1,0.5-0.1,0.7C2,40,2.2,40.2,2.5,40.2z M61.2,38.3c0.2-0.3,0.4-0.3,0.6-0.3c0,0,0,0,0,0c0.2,0,0.4,0.1,0.6,0.3
		c0.2,0.2,0.3,0.4,0.3,0.6c0,0.5-0.4,1.2-1,1.7c-0.3,0.2-0.6,0.4-1,0.6C60.6,40.4,60.7,38.9,61.2,38.3z M29,61.3c-0.7,0-1.5,0-2.1,0
		c1.8-2.1,2.8-4.5,3.1-5.6c1,0.1,1.8,0.1,2.7,0.1C32.1,58.6,29.8,60.7,29,61.3z M41.7,61.3c-0.7,0-1.5,0-2.1,0
		c2.3-2.6,3.1-5.7,3.3-6.2c0.7,0.4,1.5,0.8,2.4,1.1C44.5,58.8,42.3,60.8,41.7,61.3z M10.1,37.3C10.1,37.3,10.1,37.3,10.1,37.3
		c0.1,0,0.1,0,0.1,0c1.3,0,3.2,0.6,3.4,1c0.2,0.3,0.5,0.5,0.8,0.5c0.1,0,0.3,0,0.4-0.1c0.4-0.2,0.6-0.7,0.4-1.1
		c-0.2-0.4-0.7-0.8-1.3-1c6.8-4.2,13.8-6.8,20.5-7.4c6.4-0.6,12,0.7,15.8,3.7c7,5.5,7.4,15.8,1.3,28.2c-0.5,0-1.4,0-2.5-0.2
		c0.6-1.5,1.4-4.3,0.4-5.7c-0.2-0.3-0.5-0.4-0.9-0.4c-3.5,0.5-6.1-2.1-6.2-2.1c-0.2-0.2-0.6-0.3-0.9-0.2c-0.2-0.1-0.5,0-0.7,0.1
		c-2.2,1.2-6.5,2.4-14.4,0.9c-0.1,0-0.2,0-0.3-0.1c-0.4-0.1-0.9,0.2-1,0.6c-1,3.2-3.2,6-4,7l-2.8-0.3c1.9-3.4,0.4-6.1-0.4-7.2
		c0.6-0.6,1.2-1.4,1.4-2.2c0.1-0.4-0.2-0.9-0.7-1c-0.5-0.1-0.9,0.2-1.1,0.6c-0.2,0.7-1.4,1.9-2.3,2.5c0,0,0,0,0,0
		c-2.8,1.6-6.5,3.2-7.8,2.5C7,55.8,6.3,54.7,5.8,54c1.2-1.2,1.1-3,1-4.7c-0.1-1.9-0.3-3.9,1.1-5.6c0.2-0.2,0.2-0.5,0.1-0.8
		c-0.5-1.3-1.2-2.7-4-3.8C5.6,37.6,8.3,37.3,10.1,37.3z"/>
	<path class="st0" d="M50.2,46c0,1.1-0.2,2.1-0.5,3.1c-0.1,0.4,0.1,0.8,0.5,1c0.1,0,0.2,0,0.2,0c0.4,0,0.7-0.2,0.8-0.5
		c0.4-1.2,0.6-2.4,0.6-3.6c0-1.8-0.4-3.6-1.3-5.3c-0.2-0.4-0.7-0.6-1.1-0.4c-0.4,0.2-0.6,0.6-0.4,1C49.9,42.8,50.2,44.4,50.2,46z"/>
	<path class="st0" d="M43.3,44.9c1,0.4,1.9,0.9,2.8,1.5c0.2,0.1,0.3,0.2,0.5,0.2c0.2,0,0.5-0.1,0.6-0.3c0.3-0.3,0.2-0.8-0.1-1.1
		c-1-0.7-2-1.3-3.2-1.8c-0.4-0.2-0.9,0-1.1,0.4C42.7,44.3,42.9,44.8,43.3,44.9z"/>
</g>
</svg>
