<svg width="68" height="63" viewBox="0 0 68 63" fill="none" xmlns="http://www.w3.org/2000/svg">
<rect width="68" height="63" rx="6" fill="white"/>
<rect width="68" height="63" rx="6" fill="#E8E9EA" fill-opacity="0.48"/>
<path d="M11.4458 42H12.6358L10.4448 37.1H9.32479L7.14079 42H8.30279L8.73679 40.95H11.0118L11.4458 42ZM9.10079 40.089L9.87779 38.213L10.6548 40.089H9.10079Z" fill="#18418C"/>
<path d="M15.2162 38.178C14.7052 38.178 14.2642 38.353 13.9702 38.675V38.234H12.9272V42H14.0192V40.138C14.0192 39.445 14.3972 39.123 14.9222 39.123C15.4052 39.123 15.6852 39.403 15.6852 40.012V42H16.7772V39.844C16.7772 38.696 16.1052 38.178 15.2162 38.178Z" fill="#18418C"/>
<path d="M19.762 41.048C19.643 41.139 19.482 41.188 19.321 41.188C19.027 41.188 18.852 41.013 18.852 40.691V39.158H19.79V38.318H18.852V37.401H17.76V38.318H17.179V39.158H17.76V40.705C17.76 41.601 18.278 42.056 19.167 42.056C19.503 42.056 19.832 41.979 20.056 41.818L19.762 41.048Z" fill="#18418C"/>
<path d="M21.075 37.709C21.481 37.709 21.754 37.443 21.754 37.079C21.754 36.743 21.481 36.491 21.075 36.491C20.669 36.491 20.396 36.757 20.396 37.1C20.396 37.443 20.669 37.709 21.075 37.709ZM20.529 42H21.621V38.234H20.529V42Z" fill="#18418C"/>
<path d="M27.3175 38.178C26.7505 38.178 26.2605 38.409 25.9595 38.794C25.6935 38.381 25.2455 38.178 24.7205 38.178C24.2375 38.178 23.8175 38.346 23.5375 38.668V38.234H22.4945V42H23.5865V40.11C23.5865 39.438 23.9295 39.123 24.4125 39.123C24.8675 39.123 25.1265 39.403 25.1265 40.012V42H26.2185V40.11C26.2185 39.438 26.5615 39.123 27.0515 39.123C27.4925 39.123 27.7655 39.403 27.7655 40.012V42H28.8575V39.844C28.8575 38.696 28.2135 38.178 27.3175 38.178Z" fill="#18418C"/>
<path d="M30.2423 37.709C30.6483 37.709 30.9213 37.443 30.9213 37.079C30.9213 36.743 30.6483 36.491 30.2423 36.491C29.8363 36.491 29.5633 36.757 29.5633 37.1C29.5633 37.443 29.8363 37.709 30.2423 37.709ZM29.6963 42H30.7883V38.234H29.6963V42Z" fill="#18418C"/>
<path d="M33.4817 42.056C34.2727 42.056 34.8957 41.706 35.1687 41.104L34.3217 40.642C34.1187 41.006 33.8177 41.16 33.4747 41.16C32.9217 41.16 32.4877 40.775 32.4877 40.117C32.4877 39.459 32.9217 39.074 33.4747 39.074C33.8177 39.074 34.1187 39.235 34.3217 39.592L35.1687 39.137C34.8957 38.521 34.2727 38.178 33.4817 38.178C32.2567 38.178 31.3817 38.983 31.3817 40.117C31.3817 41.251 32.2567 42.056 33.4817 42.056Z" fill="#18418C"/>
<path d="M37.4016 42.056C38.5986 42.056 39.4666 41.251 39.4666 40.117C39.4666 38.983 38.5986 38.178 37.4016 38.178C36.2046 38.178 35.3296 38.983 35.3296 40.117C35.3296 41.251 36.2046 42.056 37.4016 42.056ZM37.4016 41.16C36.8556 41.16 36.4356 40.768 36.4356 40.117C36.4356 39.466 36.8556 39.074 37.4016 39.074C37.9476 39.074 38.3606 39.466 38.3606 40.117C38.3606 40.768 37.9476 41.16 37.4016 41.16Z" fill="#18418C"/>
<path d="M42.1915 41.048C42.0725 41.139 41.9115 41.188 41.7505 41.188C41.4565 41.188 41.2815 41.013 41.2815 40.691V39.158H42.2195V38.318H41.2815V37.401H40.1895V38.318H39.6085V39.158H40.1895V40.705C40.1895 41.601 40.7075 42.056 41.5965 42.056C41.9325 42.056 42.2615 41.979 42.4855 41.818L42.1915 41.048Z" fill="#18418C"/>
<path d="M43.5045 37.709C43.9105 37.709 44.1835 37.443 44.1835 37.079C44.1835 36.743 43.9105 36.491 43.5045 36.491C43.0985 36.491 42.8255 36.757 42.8255 37.1C42.8255 37.443 43.0985 37.709 43.5045 37.709ZM42.9585 42H44.0505V38.234H42.9585V42Z" fill="#18418C"/>
<path d="M46.744 42.056C47.535 42.056 48.158 41.706 48.431 41.104L47.584 40.642C47.381 41.006 47.08 41.16 46.737 41.16C46.184 41.16 45.75 40.775 45.75 40.117C45.75 39.459 46.184 39.074 46.737 39.074C47.08 39.074 47.381 39.235 47.584 39.592L48.431 39.137C48.158 38.521 47.535 38.178 46.744 38.178C45.519 38.178 44.644 38.983 44.644 40.117C44.644 41.251 45.519 42.056 46.744 42.056Z" fill="#18418C"/>
<path d="M50.6639 42.056C51.8609 42.056 52.7289 41.251 52.7289 40.117C52.7289 38.983 51.8609 38.178 50.6639 38.178C49.4669 38.178 48.5919 38.983 48.5919 40.117C48.5919 41.251 49.4669 42.056 50.6639 42.056ZM50.6639 41.16C50.1179 41.16 49.6979 40.768 49.6979 40.117C49.6979 39.466 50.1179 39.074 50.6639 39.074C51.2099 39.074 51.6229 39.466 51.6229 40.117C51.6229 40.768 51.2099 41.16 50.6639 41.16Z" fill="#18418C"/>
<path d="M54.5858 42.056C55.7128 42.056 56.3638 41.559 56.3638 40.859C56.3638 39.375 54.0888 39.998 54.0888 39.354C54.0888 39.158 54.2988 39.004 54.7888 39.004C55.1318 39.004 55.5028 39.074 55.8738 39.284L56.2378 38.507C55.8808 38.297 55.3068 38.178 54.7888 38.178C53.6898 38.178 53.0458 38.682 53.0458 39.396C53.0458 40.901 55.3208 40.271 55.3208 40.887C55.3208 41.097 55.1318 41.23 54.6278 41.23C54.1658 41.23 53.6548 41.083 53.3188 40.866L52.9548 41.65C53.3048 41.881 53.9488 42.056 54.5858 42.056Z" fill="#18418C"/>
<path d="M58.6 40.467H60.581V39.592H58.6V40.467Z" fill="#18418C"/>
<path d="M13.9529 51H15.1429L12.9519 46.1H11.8319L9.64794 51H10.8099L11.2439 49.95H13.5189L13.9529 51ZM11.6079 49.089L12.3849 47.213L13.1619 49.089H11.6079Z" fill="#18418C"/>
<path d="M17.7233 47.178C17.2123 47.178 16.7713 47.353 16.4773 47.675V47.234H15.4343V51H16.5263V49.138C16.5263 48.445 16.9043 48.123 17.4293 48.123C17.9123 48.123 18.1923 48.403 18.1923 49.012V51H19.2843V48.844C19.2843 47.696 18.6123 47.178 17.7233 47.178Z" fill="#18418C"/>
<path d="M22.2692 50.048C22.1502 50.139 21.9892 50.188 21.8282 50.188C21.5342 50.188 21.3592 50.013 21.3592 49.691V48.158H22.2972V47.318H21.3592V46.401H20.2672V47.318H19.6862V48.158H20.2672V49.705C20.2672 50.601 20.7852 51.056 21.6742 51.056C22.0102 51.056 22.3392 50.979 22.5632 50.818L22.2692 50.048Z" fill="#18418C"/>
<path d="M23.5821 46.709C23.9881 46.709 24.2612 46.443 24.2612 46.079C24.2612 45.743 23.9881 45.491 23.5821 45.491C23.1761 45.491 22.9032 45.757 22.9032 46.1C22.9032 46.443 23.1761 46.709 23.5821 46.709ZM23.0361 51H24.1282V47.234H23.0361V51Z" fill="#18418C"/>
<path d="M26.2686 51.056C27.3956 51.056 28.0466 50.559 28.0466 49.859C28.0466 48.375 25.7716 48.998 25.7716 48.354C25.7716 48.158 25.9816 48.004 26.4716 48.004C26.8146 48.004 27.1856 48.074 27.5566 48.284L27.9206 47.507C27.5636 47.297 26.9896 47.178 26.4716 47.178C25.3726 47.178 24.7286 47.682 24.7286 48.396C24.7286 49.901 27.0036 49.271 27.0036 49.887C27.0036 50.097 26.8146 50.23 26.3106 50.23C25.8486 50.23 25.3376 50.083 25.0016 49.866L24.6376 50.65C24.9876 50.881 25.6316 51.056 26.2686 51.056Z" fill="#18418C"/>
<path d="M31.7724 45.743H30.5964L29.6514 46.751H30.5054L31.7724 45.743ZM32.2694 49.131C32.2694 47.92 31.4154 47.178 30.3094 47.178C29.1614 47.178 28.3004 47.99 28.3004 49.117C28.3004 50.237 29.1474 51.056 30.4494 51.056C31.1284 51.056 31.6534 50.846 32.0034 50.447L31.4224 49.817C31.1634 50.062 30.8764 50.181 30.4774 50.181C29.9034 50.181 29.5044 49.894 29.3994 49.425H32.2484C32.2554 49.334 32.2694 49.215 32.2694 49.131ZM30.3164 48.004C30.8064 48.004 31.1634 48.312 31.2404 48.788H29.3854C29.4624 48.305 29.8194 48.004 30.3164 48.004Z" fill="#18418C"/>
<path d="M35.0824 47.178C34.5784 47.178 34.1724 47.339 33.8994 47.668V47.234H32.8564V52.358H33.9484V50.601C34.2284 50.909 34.6134 51.056 35.0824 51.056C36.1394 51.056 36.9584 50.3 36.9584 49.117C36.9584 47.934 36.1394 47.178 35.0824 47.178ZM34.8934 50.16C34.3474 50.16 33.9344 49.768 33.9344 49.117C33.9344 48.466 34.3474 48.074 34.8934 48.074C35.4394 48.074 35.8524 48.466 35.8524 49.117C35.8524 49.768 35.4394 50.16 34.8934 50.16Z" fill="#18418C"/>
<path d="M39.6844 50.048C39.5654 50.139 39.4044 50.188 39.2434 50.188C38.9494 50.188 38.7744 50.013 38.7744 49.691V48.158H39.7124V47.318H38.7744V46.401H37.6824V47.318H37.1014V48.158H37.6824V49.705C37.6824 50.601 38.2004 51.056 39.0894 51.056C39.4254 51.056 39.7544 50.979 39.9784 50.818L39.6844 50.048Z" fill="#18418C"/>
<path d="M40.9974 46.709C41.4034 46.709 41.6764 46.443 41.6764 46.079C41.6764 45.743 41.4034 45.491 40.9974 45.491C40.5914 45.491 40.3184 45.757 40.3184 46.1C40.3184 46.443 40.5914 46.709 40.9974 46.709ZM40.4514 51H41.5434V47.234H40.4514V51Z" fill="#18418C"/>
<path d="M44.2369 51.056C45.0279 51.056 45.6509 50.706 45.9239 50.104L45.0769 49.642C44.8739 50.006 44.5729 50.16 44.2299 50.16C43.6769 50.16 43.2429 49.775 43.2429 49.117C43.2429 48.459 43.6769 48.074 44.2299 48.074C44.5729 48.074 44.8739 48.235 45.0769 48.592L45.9239 48.137C45.6509 47.521 45.0279 47.178 44.2369 47.178C43.0119 47.178 42.1369 47.983 42.1369 49.117C42.1369 50.251 43.0119 51.056 44.2369 51.056Z" fill="#18418C"/>
<path d="M48.1567 51.056C49.3537 51.056 50.2217 50.251 50.2217 49.117C50.2217 47.983 49.3537 47.178 48.1567 47.178C46.9597 47.178 46.0847 47.983 46.0847 49.117C46.0847 50.251 46.9597 51.056 48.1567 51.056ZM48.1567 50.16C47.6107 50.16 47.1907 49.768 47.1907 49.117C47.1907 48.466 47.6107 48.074 48.1567 48.074C48.7027 48.074 49.1157 48.466 49.1157 49.117C49.1157 49.768 48.7027 50.16 48.1567 50.16Z" fill="#18418C"/>
<path d="M52.0787 51.056C53.2057 51.056 53.8567 50.559 53.8567 49.859C53.8567 48.375 51.5817 48.998 51.5817 48.354C51.5817 48.158 51.7917 48.004 52.2817 48.004C52.6247 48.004 52.9957 48.074 53.3667 48.284L53.7307 47.507C53.3737 47.297 52.7997 47.178 52.2817 47.178C51.1827 47.178 50.5387 47.682 50.5387 48.396C50.5387 49.901 52.8137 49.271 52.8137 49.887C52.8137 50.097 52.6247 50.23 52.1207 50.23C51.6587 50.23 51.1477 50.083 50.8117 49.866L50.4477 50.65C50.7977 50.881 51.4417 51.056 52.0787 51.056Z" fill="#18418C"/>
<path d="M56.0928 49.467H58.0738V48.592H56.0928V49.467Z" fill="#18418C"/>
<path d="M9.45506 57.452C9.85406 57.242 10.1061 56.864 10.1061 56.374C10.1061 55.611 9.47606 55.1 8.25106 55.1H5.85706V60H8.39106C9.67906 60 10.3511 59.51 10.3511 58.663C10.3511 58.047 10.0011 57.627 9.45506 57.452ZM8.11106 55.954C8.66406 55.954 8.96506 56.143 8.96506 56.528C8.96506 56.913 8.66406 57.109 8.11106 57.109H6.98406V55.954H8.11106ZM8.30706 59.146H6.98406V57.935H8.30706C8.89506 57.935 9.21006 58.131 9.21006 58.544C9.21006 58.964 8.89506 59.146 8.30706 59.146Z" fill="#18418C"/>
<path d="M12.5116 56.178C11.9096 56.178 11.3006 56.339 10.8876 56.633L11.2796 57.396C11.5526 57.179 11.9656 57.046 12.3646 57.046C12.9526 57.046 13.2326 57.319 13.2326 57.788H12.3646C11.2166 57.788 10.7476 58.25 10.7476 58.915C10.7476 59.566 11.2726 60.056 12.1546 60.056C12.7076 60.056 13.0996 59.874 13.3026 59.531V60H14.3246V57.851C14.3246 56.71 13.6596 56.178 12.5116 56.178ZM12.4276 59.321C12.0426 59.321 11.8116 59.139 11.8116 58.866C11.8116 58.614 11.9726 58.425 12.4836 58.425H13.2326V58.81C13.1066 59.153 12.7916 59.321 12.4276 59.321Z" fill="#18418C"/>
<path d="M17.0339 60.056C17.8249 60.056 18.4479 59.706 18.7209 59.104L17.8739 58.642C17.6709 59.006 17.3699 59.16 17.0269 59.16C16.4739 59.16 16.0399 58.775 16.0399 58.117C16.0399 57.459 16.4739 57.074 17.0269 57.074C17.3699 57.074 17.6709 57.235 17.8739 57.592L18.7209 57.137C18.4479 56.521 17.8249 56.178 17.0339 56.178C15.8089 56.178 14.9339 56.983 14.9339 58.117C14.9339 59.251 15.8089 60.056 17.0339 60.056Z" fill="#18418C"/>
<path d="M21.3994 59.048C21.2804 59.139 21.1194 59.188 20.9584 59.188C20.6644 59.188 20.4894 59.013 20.4894 58.691V57.158H21.4274V56.318H20.4894V55.401H19.3974V56.318H18.8164V57.158H19.3974V58.705C19.3974 59.601 19.9154 60.056 20.8044 60.056C21.1404 60.056 21.4694 59.979 21.6934 59.818L21.3994 59.048Z" fill="#18418C"/>
<path d="M25.7391 58.131C25.7391 56.92 24.8851 56.178 23.7791 56.178C22.6311 56.178 21.7701 56.99 21.7701 58.117C21.7701 59.237 22.6171 60.056 23.9191 60.056C24.5981 60.056 25.1231 59.846 25.4731 59.447L24.8921 58.817C24.6331 59.062 24.3461 59.181 23.9471 59.181C23.3731 59.181 22.9741 58.894 22.8691 58.425H25.7181C25.7251 58.334 25.7391 58.215 25.7391 58.131ZM23.7861 57.004C24.2761 57.004 24.6331 57.312 24.7101 57.788H22.8551C22.9321 57.305 23.2891 57.004 23.7861 57.004Z" fill="#18418C"/>
<path d="M27.3692 56.731V56.234H26.3261V60H27.4181V58.222C27.4181 57.501 27.8171 57.172 28.4191 57.172C28.5031 57.172 28.5732 57.179 28.6642 57.186V56.178C28.0832 56.178 27.6352 56.367 27.3692 56.731Z" fill="#18418C"/>
<path d="M29.7195 55.709C30.1255 55.709 30.3985 55.443 30.3985 55.079C30.3985 54.743 30.1255 54.491 29.7195 54.491C29.3135 54.491 29.0405 54.757 29.0405 55.1C29.0405 55.443 29.3135 55.709 29.7195 55.709ZM29.1735 60H30.2655V56.234H29.1735V60Z" fill="#18418C"/>
<path d="M32.9309 60.056C34.1279 60.056 34.9959 59.251 34.9959 58.117C34.9959 56.983 34.1279 56.178 32.9309 56.178C31.7339 56.178 30.8589 56.983 30.8589 58.117C30.8589 59.251 31.7339 60.056 32.9309 60.056ZM32.9309 59.16C32.3849 59.16 31.9649 58.768 31.9649 58.117C31.9649 57.466 32.3849 57.074 32.9309 57.074C33.4769 57.074 33.8899 57.466 33.8899 58.117C33.8899 58.768 33.4769 59.16 32.9309 59.16Z" fill="#18418C"/>
<path d="M36.8528 60.056C37.9798 60.056 38.6308 59.559 38.6308 58.859C38.6308 57.375 36.3558 57.998 36.3558 57.354C36.3558 57.158 36.5658 57.004 37.0558 57.004C37.3988 57.004 37.7698 57.074 38.1408 57.284L38.5048 56.507C38.1478 56.297 37.5738 56.178 37.0558 56.178C35.9568 56.178 35.3128 56.682 35.3128 57.396C35.3128 58.901 37.5878 58.271 37.5878 58.887C37.5878 59.097 37.3988 59.23 36.8948 59.23C36.4328 59.23 35.9218 59.083 35.5858 58.866L35.2218 59.65C35.5718 59.881 36.2158 60.056 36.8528 60.056Z" fill="#18418C"/>
<path d="M41.2996 59.048C41.1806 59.139 41.0196 59.188 40.8586 59.188C40.5646 59.188 40.3896 59.013 40.3896 58.691V57.158H41.3276V56.318H40.3896V55.401H39.2976V56.318H38.7166V57.158H39.2976V58.705C39.2976 59.601 39.8156 60.056 40.7046 60.056C41.0406 60.056 41.3696 59.979 41.5936 59.818L41.2996 59.048Z" fill="#18418C"/>
<path d="M45.1816 54.743H44.0056L43.0606 55.751H43.9146L45.1816 54.743ZM43.5856 56.178C42.9836 56.178 42.3746 56.339 41.9616 56.633L42.3536 57.396C42.6266 57.179 43.0396 57.046 43.4386 57.046C44.0266 57.046 44.3066 57.319 44.3066 57.788H43.4386C42.2906 57.788 41.8216 58.25 41.8216 58.915C41.8216 59.566 42.3466 60.056 43.2286 60.056C43.7816 60.056 44.1736 59.874 44.3766 59.531V60H45.3986V57.851C45.3986 56.71 44.7336 56.178 43.5856 56.178ZM43.5016 59.321C43.1166 59.321 42.8856 59.139 42.8856 58.866C42.8856 58.614 43.0466 58.425 43.5576 58.425H44.3066V58.81C44.1806 59.153 43.8656 59.321 43.5016 59.321Z" fill="#18418C"/>
<path d="M48.3819 59.048C48.2629 59.139 48.1019 59.188 47.9409 59.188C47.6469 59.188 47.4719 59.013 47.4719 58.691V57.158H48.4099V56.318H47.4719V55.401H46.3799V56.318H45.7989V57.158H46.3799V58.705C46.3799 59.601 46.8979 60.056 47.7869 60.056C48.1229 60.056 48.4519 59.979 48.6759 59.818L48.3819 59.048Z" fill="#18418C"/>
<path d="M49.6949 55.709C50.1009 55.709 50.3739 55.443 50.3739 55.079C50.3739 54.743 50.1009 54.491 49.6949 54.491C49.2889 54.491 49.0159 54.757 49.0159 55.1C49.0159 55.443 49.2889 55.709 49.6949 55.709ZM49.1489 60H50.2409V56.234H49.1489V60Z" fill="#18418C"/>
<path d="M52.9344 60.056C53.7254 60.056 54.3484 59.706 54.6214 59.104L53.7744 58.642C53.5714 59.006 53.2704 59.16 52.9274 59.16C52.3744 59.16 51.9404 58.775 51.9404 58.117C51.9404 57.459 52.3744 57.074 52.9274 57.074C53.2704 57.074 53.5714 57.235 53.7744 57.592L54.6214 57.137C54.3484 56.521 53.7254 56.178 52.9344 56.178C51.7094 56.178 50.8344 56.983 50.8344 58.117C50.8344 59.251 51.7094 60.056 52.9344 60.056Z" fill="#18418C"/>
<path d="M56.8542 60.056C58.0512 60.056 58.9192 59.251 58.9192 58.117C58.9192 56.983 58.0512 56.178 56.8542 56.178C55.6572 56.178 54.7822 56.983 54.7822 58.117C54.7822 59.251 55.6572 60.056 56.8542 60.056ZM56.8542 59.16C56.3082 59.16 55.8882 58.768 55.8882 58.117C55.8882 57.466 56.3082 57.074 56.8542 57.074C57.4002 57.074 57.8132 57.466 57.8132 58.117C57.8132 58.768 57.4002 59.16 56.8542 59.16Z" fill="#18418C"/>
<path d="M60.7762 60.056C61.9032 60.056 62.5542 59.559 62.5542 58.859C62.5542 57.375 60.2792 57.998 60.2792 57.354C60.2792 57.158 60.4892 57.004 60.9792 57.004C61.3222 57.004 61.6932 57.074 62.0642 57.284L62.4282 56.507C62.0712 56.297 61.4972 56.178 60.9792 56.178C59.8802 56.178 59.2362 56.682 59.2362 57.396C59.2362 58.901 61.5112 58.271 61.5112 58.887C61.5112 59.097 61.3222 59.23 60.8182 59.23C60.3562 59.23 59.8452 59.083 59.5092 58.866L59.1452 59.65C59.4952 59.881 60.1392 60.056 60.7762 60.056Z" fill="#18418C"/>
<path d="M48.2756 13.6171C48.229 13.5696 48.1734 13.5319 48.112 13.5062C48.0506 13.4805 47.9847 13.4673 47.9181 13.4675H35.4534C35.3868 13.4675 35.3208 13.4808 35.2594 13.5068C35.1979 13.5327 35.1423 13.5707 35.0959 13.6185C35.0494 13.6663 35.0129 13.7229 34.9887 13.785C34.9645 13.8471 34.953 13.9134 34.9548 13.9801L35.44 30.9465C35.4461 31.2064 35.554 31.4536 35.7405 31.6347C35.927 31.8159 36.1772 31.9166 36.4371 31.9153H46.9349C47.1949 31.9166 47.4451 31.8159 47.6315 31.6347C47.818 31.4536 47.9259 31.2064 47.9321 30.9465L48.4167 13.9801C48.4187 13.9132 48.4073 13.8466 48.3831 13.7842C48.3588 13.7219 48.3223 13.665 48.2756 13.6171V13.6171ZM47.4051 14.4647L47.2366 20.366C46.9139 20.2738 46.601 20.1504 46.3022 19.9975C45.5148 19.5985 44.6444 19.3905 43.7616 19.3905C42.8789 19.3905 42.0085 19.5985 41.2211 19.9975C40.5745 20.3521 39.8452 20.5281 39.1081 20.5076C38.3702 20.5293 37.6399 20.3538 36.9926 19.999C36.7088 19.8553 36.4152 19.7317 36.1141 19.6291L35.9665 14.4647H47.4051ZM36.4362 30.9181L36.4217 30.4195H44.428V29.4223H36.3938L36.1445 20.705C36.2856 20.7649 36.4222 20.8292 36.5603 20.8955C37.343 21.3143 38.2206 21.5241 39.1081 21.5048C39.9938 21.5237 40.8696 21.3142 41.6509 20.8965C42.3037 20.5622 43.0265 20.3879 43.7599 20.3879C44.4933 20.3879 45.2162 20.5622 45.8689 20.8965C46.2923 21.1139 46.7414 21.2771 47.2056 21.3821L46.9783 29.4223H45.4252V30.4195H46.9499L46.9354 30.9181H36.4362Z" fill="#18418C"/>
<path d="M37.9463 15.4619H36.9492V17.4563H37.9463V15.4619Z" fill="#18418C"/>
<path d="M37.9463 18.4534H36.9492V19.4505H37.9463V18.4534Z" fill="#18418C"/>
<path d="M27.9746 15.4618H26.9774V14.4647C26.9774 14.3324 26.9249 14.2056 26.8314 14.1121C26.7379 14.0186 26.611 13.9661 26.4788 13.9661H24.4845C24.3522 13.9661 24.2254 14.0186 24.1319 14.1121C24.0384 14.2056 23.9859 14.3324 23.9859 14.4647V15.4618H22.9887C22.8565 15.4618 22.7296 15.5144 22.6361 15.6079C22.5426 15.7014 22.4901 15.8282 22.4901 15.9604V17.9548C22.4901 18.087 22.5426 18.2138 22.6361 18.3073C22.7296 18.4008 22.8565 18.4534 22.9887 18.4534H23.9859V19.4505C23.9859 19.5828 24.0384 19.7096 24.1319 19.8031C24.2254 19.8966 24.3522 19.9491 24.4845 19.9491H26.4788C26.611 19.9491 26.7379 19.8966 26.8314 19.8031C26.9249 19.7096 26.9774 19.5828 26.9774 19.4505V18.4534H27.9746C28.1068 18.4534 28.2336 18.4008 28.3271 18.3073C28.4206 18.2138 28.4732 18.087 28.4732 17.9548V15.9604C28.4732 15.8282 28.4206 15.7014 28.3271 15.6079C28.2336 15.5144 28.1068 15.4618 27.9746 15.4618ZM27.476 17.4562H26.4788C26.3466 17.4562 26.2198 17.5087 26.1263 17.6022C26.0328 17.6957 25.9802 17.8225 25.9802 17.9548V18.9519H24.983V17.9548C24.983 17.8225 24.9305 17.6957 24.837 17.6022C24.7435 17.5087 24.6167 17.4562 24.4845 17.4562H23.4873V16.459H24.4845C24.6167 16.459 24.7435 16.4065 24.837 16.313C24.9305 16.2195 24.983 16.0926 24.983 15.9604V14.9632H25.9802V15.9604C25.9802 16.0926 26.0328 16.2195 26.1263 16.313C26.2198 16.4065 26.3466 16.459 26.4788 16.459H27.476V17.4562Z" fill="#18418C"/>
<path d="M31.4647 24.9351C30.7744 24.9351 30.0996 25.1398 29.5257 25.5232C28.9517 25.9067 28.5044 26.4518 28.2402 27.0896C27.9761 27.7273 27.9069 28.429 28.0416 29.1061C28.1763 29.7831 28.5087 30.405 28.9968 30.8931C29.4849 31.3812 30.1068 31.7136 30.7838 31.8482C31.4608 31.9829 32.1625 31.9138 32.8003 31.6496C33.438 31.3855 33.9831 30.9381 34.3666 30.3642C34.7501 29.7902 34.9548 29.1154 34.9548 28.4252C34.9537 27.4999 34.5857 26.6127 33.9314 25.9585C33.2771 25.3042 32.39 24.9361 31.4647 24.9351V24.9351ZM31.4647 30.9181C30.9716 30.9181 30.4896 30.7719 30.0797 30.498C29.6697 30.224 29.3502 29.8347 29.1615 29.3792C28.9728 28.9237 28.9234 28.4224 29.0196 27.9388C29.1158 27.4552 29.3532 27.011 29.7019 26.6624C30.0505 26.3138 30.4947 26.0763 30.9783 25.9801C31.4619 25.8839 31.9631 25.9333 32.4187 26.122C32.8742 26.3107 33.2635 26.6302 33.5375 27.0402C33.8114 27.4501 33.9576 27.9321 33.9576 28.4252C33.9568 29.0861 33.6939 29.7197 33.2266 30.1871C32.7592 30.6544 32.1256 30.9173 31.4647 30.9181V30.9181Z" fill="#18418C"/>
<path d="M33.459 27.9265H29.4703V28.9237H33.459V27.9265Z" fill="#18418C"/>
<path d="M30.1534 9.08493L29.5601 8.91541C29.2471 8.82571 28.9718 8.63662 28.7757 8.37668C28.5796 8.11675 28.4734 7.80008 28.4732 7.47449V5.9887H28.9717C29.104 5.9887 29.2308 5.93617 29.3243 5.84267C29.4178 5.74916 29.4703 5.62235 29.4703 5.49011V2.49859C29.4703 2.36635 29.4178 2.23954 29.3243 2.14603C29.2308 2.05253 29.104 2 28.9717 2H21.9915C21.8593 2 21.7325 2.05253 21.639 2.14603C21.5455 2.23954 21.4929 2.36635 21.4929 2.49859V5.49011C21.4929 5.62235 21.5455 5.74916 21.639 5.84267C21.7325 5.93617 21.8593 5.9887 21.9915 5.9887H22.4901V7.47449C22.4898 7.80008 22.3836 8.11675 22.1876 8.37668C21.9915 8.63662 21.7162 8.82571 21.4032 8.91541L20.8099 9.08493C20.2894 9.23508 19.8316 9.55 19.5053 9.98241C19.1789 10.4148 19.0016 10.9414 19 11.4831V23.4393C19.0012 23.8356 19.1592 24.2154 19.4394 24.4956C19.7197 24.7759 20.0994 24.9338 20.4958 24.935H21.5328C21.4545 25.4718 21.5025 26.0195 21.673 26.5345C21.8435 27.0495 22.1318 27.5176 22.515 27.9016C22.525 27.9116 22.535 27.9166 22.545 27.9266H20.9943C20.4654 27.9266 19.9581 28.1367 19.5841 28.5107C19.2101 28.8847 19 29.392 19 29.9209C19 30.4498 19.2101 30.9571 19.5841 31.3311C19.9581 31.7051 20.4654 31.9153 20.9943 31.9153H24.983C25.3689 31.9167 25.7468 31.8059 26.0706 31.5962C26.3945 31.3864 26.6503 31.087 26.8068 30.7343C26.9633 30.3817 27.0137 29.9911 26.9519 29.6102C26.8902 29.2294 26.7188 28.8748 26.4589 28.5897C26.8279 28.4211 27.1638 28.1881 27.4511 27.9016C27.8343 27.5176 28.1226 27.0495 28.2931 26.5345C28.4636 26.0195 28.5116 25.4718 28.4333 24.935H30.4675C30.8638 24.9338 31.2436 24.7759 31.5239 24.4956C31.8041 24.2154 31.9621 23.8356 31.9633 23.4393V11.4831C31.9616 10.9414 31.7843 10.4148 31.458 9.98241C31.1317 9.55 30.6739 9.23508 30.1534 9.08493V9.08493ZM22.4901 30.9181H20.9943C20.7299 30.9181 20.4762 30.813 20.2892 30.626C20.1022 30.439 19.9972 30.1854 19.9972 29.9209C19.9972 29.6564 20.1022 29.4028 20.2892 29.2158C20.4762 29.0288 20.7299 28.9237 20.9943 28.9237H22.4901V30.9181ZM22.4901 2.99718H28.4732V4.99153H22.4901V2.99718ZM24.983 30.9181H23.4873V28.9237H24.983C25.2475 28.9237 25.5012 29.0288 25.6882 29.2158C25.8752 29.4028 25.9802 29.6564 25.9802 29.9209C25.9802 30.1854 25.8752 30.439 25.6882 30.626C25.5012 30.813 25.2475 30.9181 24.983 30.9181ZM27.0622 26.8097L24.983 24.7256L24.2751 25.4336L26.3592 27.5127C25.8797 27.8305 25.3052 27.9727 24.7329 27.9152C24.1606 27.8578 23.6258 27.6042 23.2191 27.1975C22.8124 26.7908 22.5589 26.256 22.5014 25.6837C22.444 25.1115 22.5862 24.5369 22.9039 24.0575L23.572 24.7306L24.28 24.0226L23.6069 23.3545C24.0864 23.0368 24.6609 22.8945 25.2332 22.952C25.8055 23.0094 26.3403 23.263 26.747 23.6697C27.1537 24.0764 27.4072 24.6112 27.4647 25.1835C27.5221 25.7558 27.3799 26.3303 27.0622 26.8097V26.8097ZM30.9661 23.4393C30.9661 23.5715 30.9136 23.6983 30.8201 23.7918C30.7266 23.8853 30.5997 23.9379 30.4675 23.9379H28.1341C27.9622 23.578 27.7313 23.2494 27.4511 22.9656C27.127 22.6415 26.7422 22.3844 26.3187 22.209C25.8953 22.0335 25.4414 21.9432 24.983 21.9432C24.5247 21.9432 24.0708 22.0335 23.6474 22.209C23.2239 22.3844 22.8391 22.6415 22.515 22.9656C22.2348 23.2494 22.0039 23.578 21.832 23.9379H20.4958C20.3635 23.9379 20.2367 23.8853 20.1432 23.7918C20.0497 23.6983 19.9972 23.5715 19.9972 23.4393V21.9435H30.9661V23.4393ZM30.9661 20.9463H19.9972V12.9689H30.9661V20.9463ZM30.9661 11.9718H19.9972V11.4831C19.9975 11.1575 20.1036 10.8409 20.2997 10.5809C20.4958 10.321 20.7711 10.1319 21.0841 10.0422L21.6774 9.8727C22.1979 9.72254 22.6557 9.40763 22.982 8.97522C23.3084 8.5428 23.4856 8.01622 23.4873 7.47449V5.9887H27.476V7.47449C27.4776 8.01622 27.6549 8.5428 27.9813 8.97522C28.3076 9.40763 28.7654 9.72254 29.2859 9.8727L29.8792 10.0422C30.1922 10.1319 30.4675 10.321 30.6636 10.5809C30.8596 10.8409 30.9658 11.1575 30.9661 11.4831V11.9718Z" fill="#18418C"/>
</svg>
