<svg width="68" height="63" viewBox="0 0 68 63" fill="none" xmlns="http://www.w3.org/2000/svg">
<g clip-path="url(#clip0)">
<path d="M0 6C0 2.68629 2.68629 0 6 0H62C65.3137 0 68 2.68629 68 6V57C68 60.3137 65.3137 63 62 63H6C2.68629 63 0 60.3137 0 57V6Z" fill="#E8E9EA" fill-opacity="0.48"/>
<rect x="-12" y="-37" width="100" height="100" fill="white"/>
<rect x="-12" y="-37" width="100" height="100" fill="#E8E9EA" fill-opacity="0.48"/>
<path d="M25.872 13.4852C25.7154 13.4605 25.5648 13.4452 25.4164 13.43C25.1255 13.4015 24.8754 13.3748 24.6109 13.2778C24.5235 13.2454 24.4137 13.1846 24.2977 13.1199C24.0394 12.9772 23.7465 12.8135 23.4252 12.8002C23.2462 12.7945 23.0774 12.9011 23.0204 13.0628C22.8679 13.4985 22.7988 14.3547 23.2259 14.9217C23.3967 15.15 23.6286 15.3003 23.9011 15.3745C23.8665 15.3993 23.834 15.4221 23.7994 15.4488C23.1771 15.8978 22.4713 16.4077 22.0971 17.028C21.7167 17.6578 21.8469 18.3903 22.4367 18.9363C22.8516 19.3207 23.3865 19.5224 23.9093 19.5224C24.0598 19.5224 24.2082 19.5052 24.3526 19.471C24.255 19.5947 24.1777 19.7355 24.131 19.8858C24.0476 20.1541 24.0679 20.4204 24.1838 20.6602C24.0476 20.7096 23.9255 20.7781 23.8198 20.8638C23.5452 21.0864 23.3947 21.4098 23.3743 21.8246C23.3621 22.0758 23.5635 22.7322 23.9316 23.0766C23.8015 23.3277 23.775 23.6055 23.8645 23.8795C24.0008 24.2943 24.375 24.6291 24.8469 24.7852C24.8408 25.0116 24.8855 25.2114 24.8855 25.2133C25.0015 25.6128 25.2821 25.8278 25.5547 25.9781C25.7865 26.3244 26.0326 26.6688 26.297 27.0303C26.956 27.9341 27.6353 28.8702 28.0055 29.8368C28.577 31.3304 28.6238 32.5728 28.6259 34.0436C28.6259 34.2034 28.7336 34.348 28.8943 34.4013C29.2096 34.5078 29.6814 34.6676 30.0984 34.6676C30.1797 34.6676 30.257 34.6619 30.3323 34.6467C30.3343 34.6791 30.3343 34.7133 30.3364 34.7476C30.3465 34.9283 30.493 35.0786 30.6841 35.1053C31.1072 35.1643 31.4794 35.1814 31.7825 35.1814C32.2706 35.1814 32.5716 35.1338 32.5919 35.13C32.777 35.0996 32.9174 34.955 32.9296 34.7799C32.9703 34.2281 33.0923 32.5481 33.1696 32.0515C33.2997 31.2352 33.4604 30.5236 33.6475 29.9167C33.6862 29.8596 33.7065 29.7949 33.7085 29.7264C33.7899 29.4829 33.8753 29.2602 33.9669 29.0548H34.1052C35.1119 29.0491 36.1533 29.0414 37.1418 29.186C37.2984 29.2089 37.455 29.2298 37.6116 29.2488C37.6299 29.2507 37.6482 29.2526 37.6665 29.2526C37.8536 29.2526 38.0143 29.1328 38.059 28.9634C38.2136 29.1918 38.3763 29.4125 38.535 29.6275C38.6875 29.833 38.8299 30.0251 38.9662 30.2249C39.0516 30.3505 39.1573 30.4685 39.259 30.5826C39.377 30.7158 39.499 30.8528 39.554 30.9651C39.6496 31.1572 39.735 31.7946 39.7106 32.0191C39.6882 32.2265 39.6862 32.4092 39.6841 32.5709C39.6801 32.8791 39.678 33.1018 39.5479 33.3662C39.5275 33.3986 39.4421 33.4842 39.377 33.547C39.0516 33.8685 38.5085 34.4051 38.6204 35.2613C38.6448 35.4535 38.8197 35.5961 39.0251 35.5961C39.0333 35.5961 39.0434 35.5961 39.0516 35.5961C39.3526 35.5771 39.855 35.5847 40.339 35.5904C40.577 35.5943 40.8089 35.5961 41.0102 35.5961C41.1099 35.5961 41.2034 35.5619 41.2787 35.5029C41.838 35.0463 42.1451 33.8571 42.2082 33.4766C42.2611 33.1626 42.2061 32.6394 42.139 31.9792C42.078 31.397 42.0089 30.7101 42.0272 30.1831C43.0156 30.4228 43.7539 31.5606 44.0611 32.2741C44.417 33.1037 43.9878 34.388 43.5119 35.2366C43.4468 35.3526 43.4489 35.4934 43.5201 35.6076C43.5912 35.7217 43.7194 35.7921 43.8617 35.7959C44.3784 35.8093 45.4034 35.8093 45.4461 35.8093C45.558 35.8093 45.6658 35.7655 45.7431 35.6894C46.1844 35.2499 46.5933 33.84 46.6888 33.2083C46.7865 32.5633 46.4163 31.924 46.0909 31.3608C45.9282 31.0811 45.7756 30.8166 45.6922 30.5788C45.4502 29.8957 45.2651 29.1632 45.0861 28.4573L44.9743 28.014C44.8583 27.5593 44.9336 27.1768 45.0577 26.7373C45.2672 26.8914 45.5133 27.0189 45.7878 27.0189C45.8 27.0189 45.8122 27.0189 45.8224 27.0189C45.9973 27.0113 46.2536 26.9485 46.4834 26.6859C47.4434 25.5919 46.6502 24.1839 46.0116 23.0518C45.8265 22.7227 45.6516 22.4125 45.5478 22.1557C45.5295 22.11 45.5092 22.072 45.4909 22.0377C45.5031 22.0206 45.5153 22.0016 45.5255 21.9863C45.5783 21.9102 45.6455 21.8151 45.6821 21.7009C45.8814 21.0692 45.5133 20.4109 44.8055 20.1369C44.7892 20.1312 44.7709 20.1274 44.7526 20.1217C44.7058 19.823 44.5472 19.5414 44.2767 19.2998C43.9614 19.0201 43.5546 18.9268 43.1275 19.0182C43.0522 18.6281 42.8082 18.2533 42.44 18.0497C42.0068 17.8081 41.3356 17.7909 40.8211 18.0116C40.6624 17.6863 40.3695 17.3514 39.8001 17.2829C39.3526 17.2277 39.0333 17.3743 38.8075 17.5759C38.6631 17.3971 38.474 17.2487 38.2441 17.1421C37.6889 16.8853 36.9973 16.9176 36.5194 17.2258C36.4157 17.2924 36.3241 17.3705 36.2469 17.458C36.1879 17.418 36.1207 17.3781 36.0435 17.3438C35.6774 17.1783 35.2665 17.1707 34.8862 17.3229C34.6604 17.4142 34.4591 17.555 34.2963 17.732C34.0319 17.5265 33.6699 17.3914 33.1452 17.4599C32.9113 17.4903 32.7099 17.6045 32.5472 17.6958C32.4923 17.7263 32.415 17.77 32.3641 17.7928C32.3377 17.7795 32.3113 17.77 32.2828 17.7605C32.0875 17.5398 31.9492 17.2506 32.0143 16.8929C32.0367 16.7673 31.9899 16.6455 31.9004 16.5599C32.4069 16.3925 32.9865 16.1071 33.1472 15.5115C33.2997 14.9502 32.9987 14.6458 32.8075 14.5145C32.2035 14.1017 30.9384 14.2615 30.1004 14.4917C30.0923 14.4346 30.0719 14.3794 30.0353 14.33C29.1323 13.0723 27.4889 13.1085 26.1648 13.7154C26.1303 13.5993 26.0164 13.508 25.872 13.4852ZM23.7201 13.6869C23.775 13.7154 23.8299 13.7458 23.8788 13.7744C24.0171 13.8505 24.1615 13.9304 24.3059 13.9856C24.674 14.1226 25.0055 14.1568 25.3269 14.1892C25.3452 14.1911 25.3635 14.193 25.3798 14.1949C25.1621 14.3566 24.9526 14.5336 24.7472 14.7086C24.6964 14.7505 24.6476 14.7942 24.5967 14.8361C24.5255 14.7352 24.4055 14.6648 24.2652 14.6629C24.0964 14.6591 23.9804 14.604 23.8889 14.4841C23.7506 14.2957 23.7018 13.9799 23.7201 13.6869ZM29.057 28.2652C29.0794 28.3127 29.112 28.3565 29.1547 28.3926C29.2706 28.4916 29.3723 28.6038 29.4658 28.7256C29.3153 28.9102 29.2096 29.1328 29.1384 29.344C28.9736 29.2431 28.7845 29.1442 28.5648 29.1004C28.2455 28.4288 27.8225 27.7895 27.3791 27.1673C27.5174 27.251 27.6638 27.3328 27.8164 27.4147C28.2211 27.6335 28.6686 27.8789 29.057 28.2652ZM30.1696 33.9009C30.1065 33.9142 29.9235 33.9161 29.4414 33.7715C29.4333 32.5652 29.3703 31.4274 28.9757 30.1602C29.0672 30.2154 29.1608 30.2687 29.2665 30.3124C29.3194 30.3334 29.3743 30.3448 29.4313 30.3448C29.5086 30.3448 29.5879 30.3238 29.655 30.282C29.7709 30.2116 29.8401 30.0917 29.8401 29.9623C29.8401 29.8672 29.8706 29.7169 29.9235 29.5666C30.3282 30.6663 30.3262 32.1105 30.3201 33.3434C30.3201 33.4975 30.3201 33.6478 30.3201 33.7962C30.2611 33.8191 30.2103 33.8533 30.1696 33.9009ZM32.3662 31.9411C32.2991 32.3635 32.2096 33.4823 32.1425 34.4089C31.9106 34.4222 31.5628 34.4279 31.1418 34.3899C31.1336 34.0645 31.1357 33.7125 31.1357 33.3453C31.1397 32.4244 31.1418 31.3951 30.9811 30.438C31.1153 30.5655 31.2414 30.6815 31.3452 30.7786L31.4408 30.868C31.5201 30.9422 31.6238 30.9803 31.7296 30.9803C31.8211 30.9803 31.9147 30.9517 31.9899 30.8908C32.1913 30.7348 32.4211 30.5921 32.6591 30.4627C32.5492 30.9137 32.4516 31.4046 32.3662 31.9411ZM44.9275 30.8223C45.0353 31.123 45.2122 31.4293 45.3831 31.7261C45.6617 32.2075 45.9505 32.706 45.8895 33.1037C45.7939 33.7353 45.4767 34.6753 45.2468 35.0482C45.0658 35.0482 44.7892 35.0463 44.5167 35.0444C44.8604 34.2795 45.2651 33.018 44.8238 31.9925C44.36 30.9137 43.4102 29.6845 42.1573 29.4258C42.2611 29.0129 42.3811 28.5981 42.5845 28.2423C42.7899 27.8846 43.1112 27.6316 43.4509 27.3652C43.7173 27.1559 44.0021 26.9276 44.2522 26.6365C44.12 27.1197 44.0387 27.6068 44.1892 28.1948L44.3011 28.6362C44.4861 29.3573 44.6753 30.105 44.9275 30.8223ZM29.3764 14.76C29.3804 14.7657 29.3865 14.7714 29.3906 14.7771C29.2218 14.8951 29.173 15.1139 29.2869 15.2851C29.4069 15.464 29.6591 15.5172 29.8503 15.405C30.2753 15.1538 31.9248 14.8532 32.3458 15.1386C32.3743 15.1576 32.415 15.1862 32.3763 15.3308C32.2808 15.6809 31.6991 15.8407 31.2719 15.9568L31.1886 15.9796C30.556 16.1565 30.2977 16.0842 29.5757 15.8293C29.3662 15.7551 29.1303 15.854 29.0489 16.0519C28.9696 16.2498 29.0753 16.4686 29.2869 16.5428C29.7913 16.7216 30.1574 16.8415 30.5865 16.8415C30.7818 16.8415 30.9913 16.8149 31.2313 16.7597C31.2313 16.7635 31.2292 16.7673 31.2272 16.7711C31.0706 17.6311 31.5791 18.4359 32.5818 18.9249C32.6428 18.9554 32.7058 18.9687 32.7709 18.9687C32.9174 18.9687 33.0597 18.8945 33.133 18.7632C33.2184 18.611 33.1797 18.4321 33.0557 18.3161C33.137 18.2723 33.2224 18.2285 33.2753 18.2209C33.6231 18.1753 33.8021 18.2628 34.036 18.5996C34.1214 18.7233 34.276 18.7879 34.4306 18.7689C34.5872 18.7499 34.7153 18.6471 34.7641 18.5082C34.8374 18.297 35.0123 18.1144 35.2197 18.0307C35.3845 17.9641 35.5452 17.9679 35.7018 18.0364C35.8177 18.0878 35.8319 18.1182 35.8991 18.3294C35.9235 18.4055 35.9479 18.4854 35.9824 18.5691C36.0557 18.748 36.257 18.8488 36.4584 18.8051C36.6577 18.7613 36.7919 18.5863 36.7696 18.396C36.7431 18.1524 36.8204 17.9717 36.9953 17.8594C37.2272 17.7091 37.6055 17.6977 37.8923 17.8309C38.0753 17.9165 38.297 18.0935 38.3133 18.4512C38.3214 18.63 38.4618 18.7784 38.6489 18.8108C38.836 18.8431 39.0231 18.748 39.0963 18.5824C39.3384 18.044 39.5072 18.0193 39.7065 18.044C39.9465 18.0725 40.1051 18.1943 40.2068 18.7328C40.2353 18.8888 40.3655 19.0106 40.5302 19.041C40.697 19.0714 40.8638 19.0029 40.9533 18.8678C41.1099 18.6338 41.7343 18.5425 42.0333 18.708C42.2794 18.845 42.4258 19.2636 42.2977 19.4653C42.2001 19.6213 42.2326 19.823 42.377 19.9429C42.5234 20.0646 42.739 20.0722 42.8936 19.9619C43.0523 19.8496 43.4529 19.6137 43.7214 19.8534C43.996 20.097 44.0326 20.3824 43.8272 20.702C43.7112 20.8828 43.7743 21.1168 43.9675 21.2253C44.0326 21.2614 44.1058 21.2785 44.177 21.2785C44.3153 21.2785 44.4516 21.2119 44.5268 21.0921C44.5655 21.0293 44.6 20.9665 44.6305 20.9037C44.838 21.0274 44.9865 21.2329 44.9092 21.4764C44.9011 21.4935 44.8726 21.5354 44.8522 21.5658C44.7831 21.6648 44.6875 21.8018 44.6692 21.9749C44.6529 22.1309 44.6672 22.2641 44.7851 22.4049L45.1167 22.1823L44.7933 22.422C44.9153 22.7227 45.1004 23.0537 45.2977 23.4038C45.8489 24.3837 46.4753 25.4949 45.859 26.197C45.8061 26.2578 45.7939 26.2521 45.7899 26.2521C45.6597 26.2521 45.3566 25.961 45.2428 25.8507C44.8238 25.4473 44.4882 24.5435 44.5512 23.9898C44.5756 23.7805 44.4129 23.5922 44.1892 23.5694C43.9675 23.5484 43.7641 23.6987 43.7397 23.908C43.6889 24.3571 43.8068 24.9222 44.0285 25.4302C44.0184 25.4473 44.0102 25.4644 44.0041 25.4834C43.7926 26.0923 43.3695 26.4253 42.9221 26.7773C42.5397 27.0798 42.1431 27.3899 41.8645 27.8751C41.5736 28.3793 41.4394 28.9273 41.3092 29.4562L41.295 29.5133C41.234 29.5818 41.1973 29.6712 41.2014 29.7664C41.2034 29.8139 41.2156 29.8596 41.2339 29.9034C41.175 30.5198 41.2563 31.3246 41.3295 32.0515C41.3845 32.5861 41.4414 33.1379 41.4048 33.3586C41.3316 33.7924 41.0875 34.5192 40.8353 34.8332C40.6828 34.8313 40.5201 34.8294 40.3533 34.8275C40.0421 34.8237 39.7248 34.8199 39.4502 34.8218C39.5275 34.5116 39.7594 34.2814 39.9709 34.0721C40.1051 33.9389 40.2211 33.8248 40.2882 33.6897C40.4936 33.273 40.4977 32.9191 40.5018 32.5785C40.5038 32.4263 40.5058 32.2703 40.5241 32.0971C40.5587 31.7737 40.4712 30.9955 40.2963 30.6435C40.1946 30.4399 40.038 30.2649 39.8875 30.0936C39.798 29.9928 39.7146 29.8977 39.6557 29.8139C39.5112 29.6027 39.3567 29.3953 39.2082 29.1937C38.9458 28.8398 38.6733 28.4725 38.4617 28.0958C38.4292 28.0387 38.3987 27.9778 38.3682 27.917C38.2746 27.7248 38.0326 27.6411 37.8272 27.7286C37.6218 27.8161 37.5323 28.0425 37.6258 28.2347C37.6624 28.3108 37.7011 28.3831 37.7397 28.4535C37.7499 28.4706 37.7601 28.4878 37.7702 28.5049C37.754 28.5011 37.7377 28.4954 37.7214 28.4935C37.5709 28.4745 37.4204 28.4535 37.2699 28.4326C36.3119 28.2918 35.3377 28.2842 34.3879 28.2899C34.4875 28.1472 34.5892 28.0197 34.697 27.9094C34.8496 27.7533 34.8394 27.5136 34.6726 27.3709C34.5079 27.2282 34.2496 27.2377 34.097 27.3937C33.6374 27.8618 33.255 28.5448 32.9458 29.4543C32.5553 29.6332 32.1384 29.8387 31.7601 30.0898C31.3147 29.6731 30.6069 28.9977 30.3364 28.5734C30.3343 28.5696 30.3323 28.5677 30.3303 28.5658C30.3282 28.5639 30.3282 28.5601 30.3262 28.5582C30.3221 28.5525 30.316 28.5486 30.312 28.5429C30.196 28.3584 30.0638 28.1871 29.9113 28.0292C29.3845 27.3842 28.7418 27.0322 28.2211 26.7506C28.0075 26.6346 27.8042 26.5242 27.6516 26.4139L27.5316 26.3263C27.0679 25.9934 26.6245 25.6794 26.1282 25.4092C26.0632 25.3255 25.9696 25.2742 25.8659 25.2589C25.752 25.1828 25.6971 25.1124 25.6706 25.023C25.6604 24.9716 25.6543 24.8537 25.6584 24.7719C25.7316 24.7072 25.7804 24.6139 25.7845 24.5112C25.7947 24.3 25.6198 24.123 25.396 24.1135C24.9954 24.0964 24.7065 23.8643 24.6374 23.6531C24.5825 23.4818 24.6659 23.3182 24.8896 23.1641C25.0706 23.0385 25.1092 22.8007 24.975 22.6294C24.857 22.481 24.6455 22.4354 24.4747 22.5115C24.3486 22.3764 24.1899 21.9939 24.1838 21.857C24.194 21.6572 24.2489 21.5164 24.3486 21.4365C24.5011 21.3128 24.7716 21.309 24.971 21.3261C25.1621 21.3413 25.3391 21.2329 25.3981 21.0635C25.457 20.8923 25.3798 20.7077 25.215 20.6164C24.9486 20.4718 24.8449 20.2968 24.9099 20.0951C24.9893 19.842 25.3167 19.5947 25.7398 19.6099C25.9655 19.6156 26.1547 19.4558 26.1648 19.2465C26.1648 19.2294 26.1628 19.2141 26.1628 19.197C26.2259 19.1951 26.2869 19.1932 26.3499 19.1894C26.4781 19.1837 26.6021 19.1799 26.7221 19.178C27.2896 19.1628 27.8265 19.1495 28.4164 18.8736C28.8964 18.649 29.1038 18.4493 29.3438 17.985C29.4414 17.7947 29.3581 17.5664 29.1547 17.4751C28.9533 17.3838 28.7072 17.4637 28.6096 17.652C28.4469 17.9679 28.3675 18.0421 28.0503 18.1924C27.6231 18.3922 27.2164 18.4017 26.6998 18.415C26.5716 18.4188 26.4414 18.4207 26.3092 18.4283C25.9472 18.4455 25.7113 18.4455 25.4306 18.3941C24.9893 18.3142 24.8123 18.3827 24.5377 18.5463C24.493 18.5729 24.4401 18.6053 24.375 18.6395C23.9194 18.885 23.3418 18.6985 23.0062 18.3865C22.8516 18.2438 22.5221 17.8594 22.8028 17.3952C23.0957 16.91 23.7323 16.4515 24.2937 16.0462C24.493 15.9035 24.6801 15.7684 24.8489 15.6333C24.9954 15.5191 25.1418 15.3936 25.2923 15.2661C25.6279 14.9807 25.9757 14.6858 26.3255 14.5012C27.3628 13.9609 28.7052 13.8258 29.3764 14.76Z" fill="#18418C"/>
<path d="M34.5201 26.8914C34.5974 26.8914 34.6767 26.8705 34.7479 26.8267C35.0468 26.6384 35.177 26.2712 35.0794 25.8887C35.0265 25.6832 34.8068 25.5577 34.5872 25.6052C34.3675 25.6547 34.2333 25.8602 34.2841 26.0657C34.3004 26.1285 34.2923 26.1817 34.2841 26.1989C34.1031 26.3187 34.0543 26.5509 34.1804 26.724C34.2597 26.8344 34.3899 26.8914 34.5201 26.8914Z" fill="#18418C"/>
<path d="M37.4977 26.0543C37.5078 26.0543 37.5201 26.0562 37.5302 26.0562C37.7397 26.0562 37.9187 25.9058 37.937 25.7061C37.9695 25.3255 38.0651 24.9983 38.2197 24.7319C38.3275 24.5473 38.2543 24.3152 38.055 24.2144C37.8577 24.1135 37.6095 24.182 37.5018 24.3685C37.2923 24.7281 37.1662 25.1581 37.1235 25.6452C37.1051 25.8545 37.2719 26.0371 37.4977 26.0543Z" fill="#18418C"/>
<path d="M18.4081 53.144C21.0481 53.144 23.0041 51.308 23.0041 48.8C23.0041 46.292 21.0481 44.456 18.4081 44.456C15.7561 44.456 13.8121 46.304 13.8121 48.8C13.8121 51.296 15.7561 53.144 18.4081 53.144ZM18.4081 51.488C16.9081 51.488 15.7801 50.396 15.7801 48.8C15.7801 47.204 16.9081 46.112 18.4081 46.112C19.9081 46.112 21.0361 47.204 21.0361 48.8C21.0361 50.396 19.9081 51.488 18.4081 51.488ZM28.7011 46.544L26.8531 50.936L25.0651 46.544H23.1331L25.8451 53H27.7771L30.5011 46.544H28.7011ZM31.961 45.644C32.657 45.644 33.125 45.188 33.125 44.564C33.125 43.988 32.657 43.556 31.961 43.556C31.265 43.556 30.797 44.012 30.797 44.6C30.797 45.188 31.265 45.644 31.961 45.644ZM31.025 53H32.897V46.544H31.025V53ZM38.3184 46.448C37.4424 46.448 36.6864 46.748 36.1824 47.3V46.544H34.3944V53H36.2664V49.808C36.2664 48.62 36.9144 48.068 37.8144 48.068C38.6424 48.068 39.1224 48.548 39.1224 49.592V53H40.9944V49.304C40.9944 47.336 39.8424 46.448 38.3184 46.448ZM45.5936 53.096C47.6456 53.096 49.1336 51.716 49.1336 49.772C49.1336 47.828 47.6456 46.448 45.5936 46.448C43.5416 46.448 42.0416 47.828 42.0416 49.772C42.0416 51.716 43.5416 53.096 45.5936 53.096ZM45.5936 51.56C44.6576 51.56 43.9376 50.888 43.9376 49.772C43.9376 48.656 44.6576 47.984 45.5936 47.984C46.5296 47.984 47.2376 48.656 47.2376 49.772C47.2376 50.888 46.5296 51.56 45.5936 51.56ZM52.3169 53.096C54.2489 53.096 55.3649 52.244 55.3649 51.044C55.3649 48.5 51.4649 49.568 51.4649 48.464C51.4649 48.128 51.8249 47.864 52.6649 47.864C53.2529 47.864 53.8889 47.984 54.5249 48.344L55.1489 47.012C54.5369 46.652 53.5529 46.448 52.6649 46.448C50.7809 46.448 49.6769 47.312 49.6769 48.536C49.6769 51.116 53.5769 50.036 53.5769 51.092C53.5769 51.452 53.2529 51.68 52.3889 51.68C51.5969 51.68 50.7209 51.428 50.1449 51.056L49.5209 52.4C50.1209 52.796 51.2249 53.096 52.3169 53.096Z" fill="#18418C"/>
</g>
<defs>
<clipPath id="clip0">
<path d="M0 6C0 2.68629 2.68629 0 6 0H62C65.3137 0 68 2.68629 68 6V57C68 60.3137 65.3137 63 62 63H6C2.68629 63 0 60.3137 0 57V6Z" fill="white"/>
</clipPath>
</defs>
</svg>
