<svg width="68" height="63" viewBox="0 0 68 63" fill="none" xmlns="http://www.w3.org/2000/svg">
<g clip-path="url(#clip0)">
<path d="M0 6C0 2.68629 2.68629 0 6 0H62C65.3137 0 68 2.68629 68 6V57C68 60.3137 65.3137 63 62 63H6C2.68629 63 0 60.3137 0 57V6Z" fill="#E8E9EA" fill-opacity="0.48"/>
<rect x="-12" y="-37" width="100" height="100" fill="white"/>
<rect x="-12" y="-37" width="100" height="100" fill="#E8E9EA" fill-opacity="0.48"/>
<path d="M45.5443 20.1183C44.248 18.7369 41.9821 18.5998 40.511 19.8125L33.0034 25.9763C31.5267 27.189 31.3801 29.3087 32.6765 30.6849C33.9729 32.0663 36.2387 32.2034 37.7098 30.9907L45.2174 24.8269C46.6885 23.6141 46.8407 21.4945 45.5443 20.1183Z" stroke="#18418C" stroke-miterlimit="10"/>
<path d="M42.2639 27.247C41.6721 27.7321 40.1334 26.9992 38.837 25.6178C37.5407 24.2363 36.9658 22.7125 37.5576 22.2274" stroke="#18418C" stroke-miterlimit="10"/>
<path d="M39.7952 18.0883L36.1992 11.9034C35.2579 10.2899 33.0823 9.68885 31.3575 10.5694C29.6328 11.4499 28.9903 13.4852 29.9315 15.0987L34.2377 22.4699" stroke="#18418C" stroke-miterlimit="10" stroke-linecap="round"/>
<path d="M38.0705 15.1303C38.4481 15.7736 37.3434 17.0232 35.6187 17.8985C33.894 18.779 32.1805 18.9688 31.8029 18.3203" stroke="#18418C" stroke-miterlimit="10" stroke-linecap="round"/>
<path d="M28.5901 19.301C26.8485 18.837 25.0166 19.7914 24.5206 21.4206L22.0068 29.7094C21.5108 31.3386 22.5366 33.047 24.2783 33.511C26.0199 33.975 27.8517 33.0207 28.3477 31.3914L30.8615 23.1027C31.3575 21.4734 30.3317 19.765 28.5901 19.301Z" stroke="#18418C" stroke-miterlimit="10"/>
<path d="M29.8696 26.3612C29.6723 27.015 28.0828 27.1679 26.3412 26.7039C24.5996 26.2399 23.337 25.333 23.5343 24.6792" stroke="#18418C" stroke-miterlimit="10"/>
<path d="M27.5699 21.1201C26.9893 21.1412 26.4595 21.505 26.2961 22.0534L25.7606 23.8145" stroke="#18418C" stroke-miterlimit="10" stroke-linecap="round"/>
<path d="M31.5604 13.6486C31.5604 12.8103 32.2875 12.1248 33.1893 12.1248" stroke="#18418C" stroke-miterlimit="10" stroke-linecap="round"/>
<path d="M33.8206 28.465C33.7812 28.1487 33.877 27.7954 34.1926 27.5318L35.6525 26.3085" stroke="#18418C" stroke-miterlimit="10" stroke-linecap="round"/>
<path d="M7.20944 44.44V43.4H2.97744V49H4.27344V46.96H6.86544V45.92H4.27344V44.44H7.20944ZM9.45763 44.632C8.76963 44.632 8.07363 44.816 7.60163 45.152L8.04963 46.024C8.36163 45.776 8.83363 45.624 9.28963 45.624C9.96163 45.624 10.2816 45.936 10.2816 46.472H9.28963C7.97763 46.472 7.44163 47 7.44163 47.76C7.44163 48.504 8.04163 49.064 9.04963 49.064C9.68163 49.064 10.1296 48.856 10.3616 48.464V49H11.5296V46.544C11.5296 45.24 10.7696 44.632 9.45763 44.632ZM9.36163 48.224C8.92163 48.224 8.65763 48.016 8.65763 47.704C8.65763 47.416 8.84163 47.2 9.42563 47.2H10.2816V47.64C10.1376 48.032 9.77763 48.224 9.36163 48.224ZM13.6911 45.264V44.696H12.4991V49H13.7471V46.968C13.7471 46.144 14.2031 45.768 14.8911 45.768C14.9871 45.768 15.0671 45.776 15.1711 45.784V44.632C14.5071 44.632 13.9951 44.848 13.6911 45.264ZM21.2652 44.632C20.6172 44.632 20.0572 44.896 19.7132 45.336C19.4092 44.864 18.8972 44.632 18.2972 44.632C17.7452 44.632 17.2652 44.824 16.9452 45.192V44.696H15.7532V49H17.0012V46.84C17.0012 46.072 17.3932 45.712 17.9452 45.712C18.4652 45.712 18.7612 46.032 18.7612 46.728V49H20.0092V46.84C20.0092 46.072 20.4012 45.712 20.9612 45.712C21.4652 45.712 21.7772 46.032 21.7772 46.728V49H23.0252V46.536C23.0252 45.224 22.2892 44.632 21.2652 44.632ZM25.7198 44.632C25.0318 44.632 24.3358 44.816 23.8638 45.152L24.3118 46.024C24.6238 45.776 25.0958 45.624 25.5518 45.624C26.2238 45.624 26.5438 45.936 26.5438 46.472H25.5518C24.2398 46.472 23.7038 47 23.7038 47.76C23.7038 48.504 24.3038 49.064 25.3118 49.064C25.9438 49.064 26.3918 48.856 26.6238 48.464V49H27.7918V46.544C27.7918 45.24 27.0318 44.632 25.7198 44.632ZM25.6238 48.224C25.1838 48.224 24.9198 48.016 24.9198 47.704C24.9198 47.416 25.1038 47.2 25.6878 47.2H26.5438V47.64C26.3998 48.032 26.0398 48.224 25.6238 48.224ZM30.8882 49.064C31.7922 49.064 32.5042 48.664 32.8162 47.976L31.8482 47.448C31.6162 47.864 31.2722 48.04 30.8802 48.04C30.2482 48.04 29.7522 47.6 29.7522 46.848C29.7522 46.096 30.2482 45.656 30.8802 45.656C31.2722 45.656 31.6162 45.84 31.8482 46.248L32.8162 45.728C32.5042 45.024 31.7922 44.632 30.8882 44.632C29.4882 44.632 28.4882 45.552 28.4882 46.848C28.4882 48.144 29.4882 49.064 30.8882 49.064ZM35.3681 49.064C36.7361 49.064 37.7281 48.144 37.7281 46.848C37.7281 45.552 36.7361 44.632 35.3681 44.632C34.0001 44.632 33.0001 45.552 33.0001 46.848C33.0001 48.144 34.0001 49.064 35.3681 49.064ZM35.3681 48.04C34.7441 48.04 34.2641 47.592 34.2641 46.848C34.2641 46.104 34.7441 45.656 35.3681 45.656C35.9921 45.656 36.4641 46.104 36.4641 46.848C36.4641 47.592 35.9921 48.04 35.3681 48.04ZM38.4023 49H39.6503V43.064H38.4023V49ZM42.6965 49.064C44.0645 49.064 45.0565 48.144 45.0565 46.848C45.0565 45.552 44.0645 44.632 42.6965 44.632C41.3285 44.632 40.3285 45.552 40.3285 46.848C40.3285 48.144 41.3285 49.064 42.6965 49.064ZM42.6965 48.04C42.0725 48.04 41.5925 47.592 41.5925 46.848C41.5925 46.104 42.0725 45.656 42.6965 45.656C43.3205 45.656 43.7925 46.104 43.7925 46.848C43.7925 47.592 43.3205 48.04 42.6965 48.04ZM48.9867 44.696V45.248C48.6587 44.832 48.1627 44.632 47.5627 44.632C46.3707 44.632 45.4107 45.456 45.4107 46.712C45.4107 47.968 46.3707 48.792 47.5627 48.792C48.1227 48.792 48.5947 48.616 48.9227 48.256V48.44C48.9227 49.216 48.5387 49.616 47.6587 49.616C47.1067 49.616 46.5067 49.424 46.1387 49.128L45.6427 50.024C46.1467 50.416 46.9387 50.616 47.7547 50.616C49.3067 50.616 50.1707 49.88 50.1707 48.28V44.696H48.9867ZM47.8107 47.768C47.1547 47.768 46.6747 47.344 46.6747 46.712C46.6747 46.08 47.1547 45.656 47.8107 45.656C48.4667 45.656 48.9387 46.08 48.9387 46.712C48.9387 47.344 48.4667 47.768 47.8107 47.768ZM51.7963 44.096C52.2603 44.096 52.5723 43.792 52.5723 43.376C52.5723 42.992 52.2603 42.704 51.7963 42.704C51.3323 42.704 51.0203 43.008 51.0203 43.4C51.0203 43.792 51.3323 44.096 51.7963 44.096ZM51.1723 49H52.4203V44.696H51.1723V49ZM55.4985 49.064C56.4025 49.064 57.1145 48.664 57.4265 47.976L56.4585 47.448C56.2265 47.864 55.8825 48.04 55.4905 48.04C54.8585 48.04 54.3625 47.6 54.3625 46.848C54.3625 46.096 54.8585 45.656 55.4905 45.656C55.8825 45.656 56.2265 45.84 56.4585 46.248L57.4265 45.728C57.1145 45.024 56.4025 44.632 55.4985 44.632C54.0985 44.632 53.0985 45.552 53.0985 46.848C53.0985 48.144 54.0985 49.064 55.4985 49.064ZM59.9784 49.064C61.3464 49.064 62.3384 48.144 62.3384 46.848C62.3384 45.552 61.3464 44.632 59.9784 44.632C58.6104 44.632 57.6104 45.552 57.6104 46.848C57.6104 48.144 58.6104 49.064 59.9784 49.064ZM59.9784 48.04C59.3544 48.04 58.8744 47.592 58.8744 46.848C58.8744 46.104 59.3544 45.656 59.9784 45.656C60.6024 45.656 61.0744 46.104 61.0744 46.848C61.0744 47.592 60.6024 48.04 59.9784 48.04ZM64.4606 49.064C65.7486 49.064 66.4926 48.496 66.4926 47.696C66.4926 46 63.8926 46.712 63.8926 45.976C63.8926 45.752 64.1326 45.576 64.6926 45.576C65.0846 45.576 65.5086 45.656 65.9326 45.896L66.3486 45.008C65.9406 44.768 65.2846 44.632 64.6926 44.632C63.4366 44.632 62.7006 45.208 62.7006 46.024C62.7006 47.744 65.3006 47.024 65.3006 47.728C65.3006 47.968 65.0846 48.12 64.5086 48.12C63.9806 48.12 63.3966 47.952 63.0126 47.704L62.5966 48.6C62.9966 48.864 63.7326 49.064 64.4606 49.064Z" fill="#18418C"/>
</g>
<defs>
<clipPath id="clip0">
<path d="M0 6C0 2.68629 2.68629 0 6 0H62C65.3137 0 68 2.68629 68 6V57C68 60.3137 65.3137 63 62 63H6C2.68629 63 0 60.3137 0 57V6Z" fill="white"/>
</clipPath>
</defs>
</svg>
