<?xml version="1.0" encoding="utf-8"?>
<!-- Generator: Adobe Illustrator 25.2.0, SVG Export Plug-In . SVG Version: 6.00 Build 0)  -->
<svg version="1.1" id="Layer_1" xmlns="http://www.w3.org/2000/svg" xmlns:xlink="http://www.w3.org/1999/xlink" x="0px" y="0px"
	 viewBox="0 0 68 63" style="enable-background:new 0 0 68 63;" xml:space="preserve">
<style type="text/css">
	.st0{fill:#18418C;}
</style>
<g>
	<g>
		<path class="st0" d="M36.1,59.8c-2,0-4-0.8-5.4-2.3c-1.3-1.3-1.9-3.1-1.8-4.9c0.1-1.8,1-3.5,2.4-4.7l13.2-10.8
			c2.9-2.4,7.5-2.2,10.1,0.6c1.3,1.3,1.9,3.1,1.8,4.9c-0.1,1.8-1,3.5-2.4,4.7L40.8,58.2C39.5,59.3,37.8,59.8,36.1,59.8z M49.3,37.3
			c-1.3,0-2.5,0.4-3.6,1.3L32.5,49.4c-1.1,0.9-1.7,2.1-1.8,3.4c-0.1,1.3,0.4,2.6,1.3,3.6c2,2.1,5.4,2.3,7.7,0.5L52.9,46
			c1.1-0.9,1.7-2.1,1.8-3.4c0.1-1.3-0.4-2.6-1.3-3.6l0,0C52.3,37.8,50.8,37.3,49.3,37.3z"/>
	</g>
	<g>
		<path class="st0" d="M47.4,52.1c-1.7,0-4-1.5-5.8-3.4c-1.9-2-3-4.2-2.9-5.7c0.1-0.8,0.4-1.3,0.7-1.5l1.1,1.4c0,0-0.1,0.1-0.1,0.3
			c-0.1,0.8,0.7,2.6,2.4,4.4c2.3,2.5,4.5,3.1,4.8,2.8l1.1,1.4C48.4,51.9,48,52.1,47.4,52.1z"/>
	</g>
	<g>
		<path class="st0" d="M34.1,43.4c-0.3,0-0.6-0.2-0.8-0.4l-7.6-13c-0.9-1.5-1.1-3.3-0.6-5c0.5-1.8,1.8-3.3,3.5-4.1
			c3.4-1.8,7.8-0.6,9.7,2.7l6.3,10.9c0.2,0.4,0.1,1-0.3,1.2c-0.4,0.2-1,0.1-1.2-0.3l-6.3-10.9c-1.4-2.4-4.7-3.3-7.4-2
			c-1.3,0.7-2.2,1.8-2.6,3.1c-0.4,1.2-0.2,2.5,0.5,3.7l7.6,13c0.2,0.4,0.1,1-0.3,1.2C34.5,43.4,34.3,43.4,34.1,43.4z"/>
	</g>
	<g>
		<path class="st0" d="M31.6,36.8c-1.2,0-2.1-0.3-2.5-1.1c-0.2-0.4-0.1-1,0.3-1.2c0.4-0.2,1-0.1,1.2,0.3c0.2,0.4,2.5,0.5,5.6-1.1
			c2.3-1.1,3.7-2.6,3.9-3.4c0-0.1,0-0.2,0-0.2c-0.2-0.4-0.1-1,0.3-1.2c0.4-0.2,1-0.1,1.2,0.3c0.2,0.3,0.4,0.9,0.2,1.6
			c-0.4,1.5-2.3,3.2-4.8,4.5C35.2,36.2,33.2,36.8,31.6,36.8z"/>
	</g>
	<g>
		<path class="st0" d="M18.2,63c-0.6,0-1.2-0.1-1.8-0.2c-1.8-0.5-3.2-1.6-4.1-3.1c-0.8-1.4-1-3.1-0.5-4.6l4.4-14.6
			c1-3.3,4.7-5.3,8.2-4.3l0,0c1.8,0.5,3.2,1.6,4.1,3.1c0.8,1.4,1,3.1,0.5,4.6l-4.4,14.6C23.8,61.2,21.1,63,18.2,63z M22.6,37.6
			c-2.1,0-4.1,1.3-4.7,3.3l-4.4,14.6c-0.3,1.1-0.2,2.3,0.4,3.3c0.6,1.1,1.7,2,3,2.3c2.6,0.7,5.4-0.7,6.1-3.1l4.4-14.6
			c0.3-1.1,0.2-2.3-0.4-3.3c-0.6-1.1-1.7-2-3-2.3l0,0C23.5,37.7,23.1,37.6,22.6,37.6z"/>
	</g>
	<g>
		<path class="st0" d="M23.6,51.3c-1.1,0-2.3-0.2-3.5-0.5c-2.6-0.7-4.6-1.9-5.3-3.2c-0.4-0.6-0.3-1.2-0.2-1.5l1.7,0.5
			c0,0.4,1.3,1.7,4.3,2.5c3,0.8,4.9,0.3,5.1,0l1.7,0.5C26.9,50.8,25.4,51.3,23.6,51.3z"/>
	</g>
	<g>
		<path class="st0" d="M19.2,45.8c-0.1,0-0.2,0-0.3,0c-0.5-0.1-0.7-0.6-0.6-1.1l0.9-3.1c0.4-1.3,1.6-2.2,3-2.3
			c0.5,0,0.9,0.4,0.9,0.8c0,0.5-0.4,0.9-0.8,0.9c-0.7,0-1.3,0.4-1.4,1l-0.9,3.1C20,45.5,19.6,45.8,19.2,45.8z"/>
	</g>
	<g>
		<path class="st0" d="M29.4,27.9c-0.5,0-0.9-0.4-0.9-0.9c0-2,1.7-3.6,3.7-3.6c0.5,0,0.9,0.4,0.9,0.9c0,0.5-0.4,0.9-0.9,0.9
			c-1.1,0-2,0.8-2,1.8C30.3,27.5,29.9,27.9,29.4,27.9z"/>
	</g>
	<g>
		<path class="st0" d="M33.4,53.9c-0.4,0-0.8-0.3-0.9-0.8c-0.1-0.9,0.2-1.8,1-2.4l2.6-2.2c0.4-0.3,0.9-0.3,1.2,0.1
			c0.3,0.4,0.3,0.9-0.1,1.2l-2.6,2.2c-0.3,0.3-0.4,0.6-0.3,0.9c0.1,0.5-0.3,0.9-0.8,1C33.5,53.9,33.4,53.9,33.4,53.9z"/>
	</g>
</g>
</svg>
