<?xml version="1.0" encoding="UTF-8"?>
<!DOCTYPE svg PUBLIC "-//W3C//DTD SVG 1.1//EN" "http://www.w3.org/Graphics/SVG/1.1/DTD/svg11.dtd">
<!-- Creator: CorelDRAW 2018 (64 Bit Versión de evaluación) -->
<svg xmlns="http://www.w3.org/2000/svg" xml:space="preserve" width="204.143mm" height="190.853mm" version="1.1" style="shape-rendering:geometricPrecision; text-rendering:geometricPrecision; image-rendering:optimizeQuality; fill-rule:evenodd; clip-rule:evenodd"
viewBox="0 0 19991.77 18690.23"
 xmlns:xlink="http://www.w3.org/1999/xlink">
 <defs>
  <style type="text/css">
   <![CDATA[
    .fil0 {fill:#18418C}
   ]]>
  </style>
 </defs>
 <g id="Capa_x0020_1">
  <metadata id="CorelCorpID_0Corel-Layer"/>
  <g id="_2402684791936">
   <g>
    <path class="fil0" d="M18690.23 3568.69l-4445.74 0 0 -1784.34c0,-967.78 -786.32,-1784.34 -1784.34,-1784.34l-4899.37 0c-967.78,0 -1784.34,786.32 -1784.34,1784.34l0 1784.34 -4445.74 0c-725.84,0 -1330.69,604.86 -1330.69,1330.69l0 12460.15c0,725.84 604.86,1330.69 1330.69,1330.69l17329.29 0.01c725.84,0 1330.69,-604.86 1330.69,-1330.69l0.01 -12460.16c30.24,-725.83 -574.62,-1330.69 -1300.45,-1330.69zm-3568.69 877.05l1784.34 0 0 3568.69c0,241.95 -211.71,453.65 -453.65,453.65l-877.05 -0.01c-241.95,0 -453.65,-211.71 -453.65,-453.65l0.01 -3568.68zm-8437.82 -2661.4c0,-483.89 393.16,-877.05 877.05,-877.05l4899.37 0c483.89,0 877.05,393.16 877.05,877.05l0 1784.34 -6653.47 0 0 -1784.34zm-907.29 2661.4l8468.06 0 0 2661.4 -8468.06 0 0 -2661.4zm-2661.4 0l1784.34 0 0 3568.69c0,241.95 -211.71,453.65 -453.65,453.65l-877.04 -0.01c-241.95,0 -453.65,-211.71 -453.65,-453.65l0 -3568.68zm-2207.74 453.64c0,-241.95 211.71,-453.65 453.65,-453.65l877.05 0.01 0 2661.4 -1330.7 0 0 -2207.75zm18206.34 12460.15c0,241.95 -211.71,453.65 -453.65,453.65l-17329.29 0c-241.95,0 -453.65,-211.71 -453.65,-453.65l0.01 -9345.1 1330.69 0c0,725.84 604.86,1330.69 1330.69,1330.69l877.05 0c725.84,0 1330.69,-604.86 1330.69,-1330.69l8498.31 0c0,725.84 604.86,1330.69 1330.69,1330.69l877.05 0c725.84,0 1330.69,-604.86 1330.69,-1330.69l1330.7 0 0 9345.1zm0 -10222.15l-1330.7 0 0 -2661.4 877.05 0c241.95,0 453.65,211.71 453.65,453.65l0 2207.74z"/>
    <path class="fil0" d="M12218.2 11129.46l-453.64 0 0 -453.65c0,-725.83 -604.86,-1330.68 -1330.69,-1330.68l-877.05 0c-725.84,0 -1330.69,604.86 -1330.69,1330.68l0 453.65 -453.64 0c-725.84,0 -1330.69,604.86 -1330.69,1330.69l0 877.05c0,725.84 604.86,1330.69 1330.69,1330.69l453.64 0 0 453.65c0,725.84 604.86,1330.69 1330.69,1330.69l877.04 0c725.84,0 1330.69,-604.86 1330.69,-1330.69l0 -453.65 453.65 0c725.84,0 1330.69,-604.86 1330.69,-1330.69l0 -877.05c30.25,-725.83 -574.61,-1330.69 -1330.69,-1330.69zm453.65 2207.74c0,241.95 -211.71,453.65 -453.65,453.65l-877.05 0c-241.95,0 -453.65,211.71 -453.65,453.65l0 877.05c0,241.95 -211.71,453.65 -453.65,453.65l-877.03 -0.02c-241.95,0 -453.65,-211.71 -453.65,-453.65l0 -877.05c0,-241.95 -211.71,-453.65 -453.65,-453.65l-877.03 0.02c-241.95,0 -453.65,-211.71 -453.65,-453.65l0 -877.05c0,-241.95 211.71,-453.65 453.65,-453.65l877.04 0.01c241.95,0 453.65,-211.71 453.65,-453.65l0 -877.05c0,-241.95 211.71,-453.64 453.65,-453.64l877.03 0.01c241.95,0 453.65,211.7 453.65,453.64l0 877.05c0,241.95 211.71,453.65 453.65,453.65l877.04 -0.01c241.95,0 453.65,211.71 453.65,453.65l0 877.04z"/>
   </g>
  </g>
 </g>
</svg>
