<svg width="68" height="63" viewBox="0 0 68 63" fill="none" xmlns="http://www.w3.org/2000/svg">
<g clip-path="url(#clip0)">
<path d="M0 6C0 2.68629 2.68629 0 6 0H62C65.3137 0 68 2.68629 68 6V57C68 60.3137 65.3137 63 62 63H6C2.68629 63 0 60.3137 0 57V6Z" fill="#E8E9EA" fill-opacity="0.48"/>
<rect x="-12" y="-37" width="100" height="100" fill="white"/>
<rect x="-12" y="-37" width="100" height="100" fill="#E8E9EA" fill-opacity="0.48"/>
<path d="M47.0266 18.4722C45.07 16.5123 42.4503 16.988 39.6761 17.4923C38.1344 17.7728 36.5418 18.0647 34.8476 18.0268C32.7446 17.9813 30.8714 17.6534 30.5805 17.28C30.5337 17.2212 30.4727 17.1776 30.4076 17.1511C30.3873 17.1189 30.3669 17.0828 30.3466 17.0506C30.3385 17.0373 30.3283 17.026 30.3181 17.0146C30.5175 16.7852 30.7005 16.5161 30.8327 16.1995C31.2212 15.2688 31.0971 14.1998 30.4605 13.0208C30.3588 12.8331 30.1188 12.7497 29.9114 12.8312C29.7039 12.9127 29.5981 13.1307 29.6734 13.3297C29.9663 14.122 29.1385 14.7874 28.3636 15.2176C27.1005 14.5978 25.5914 14.6187 24.2653 15.2859C24.0314 15.4034 23.8117 15.538 23.6124 15.684C23.5941 15.6764 23.5737 15.6707 23.5534 15.665C22.3392 15.4148 21.7249 14.9485 21.727 14.2813C21.727 14.0709 21.5541 13.8965 21.3283 13.8813C21.1046 13.8662 20.9033 14.0159 20.8727 14.2244C20.5677 16.2753 21.4178 17.3368 22.2477 17.8789C22.2456 17.915 22.2416 17.9491 22.2416 17.9851C22.1826 20.5232 20.8768 21.9164 20.8646 21.9296C20.7731 22.0225 20.7365 22.1514 20.7629 22.2765C20.7751 22.3296 21.0517 23.5711 22.1236 23.9351C22.1399 23.9408 22.1582 23.9446 22.1744 23.9484C22.6463 24.1948 23.1344 24.3218 23.6144 24.3218C23.7649 24.3218 23.9154 24.3085 24.0639 24.2839C24.7005 24.1777 25.27 23.846 25.7297 23.319C26.5575 23.592 27.2897 23.4536 27.7819 23.2755C28.5019 23.0158 29.1507 22.4888 29.3581 21.9979C29.4456 21.7932 29.3358 21.56 29.1161 21.4785C28.8965 21.397 28.6463 21.4975 28.5588 21.7041C28.4714 21.9088 28.0666 22.3144 27.4707 22.5305C27.072 22.6746 26.4537 22.7807 25.7724 22.4699C25.5792 22.3827 25.3473 22.4395 25.2273 22.6064C24.8694 23.1049 24.4137 23.4119 23.9114 23.4972C23.3948 23.5844 22.8334 23.4366 22.2904 23.0726C22.2334 23.0347 22.1704 23.0139 22.1073 23.0044C21.8612 22.7921 21.7209 22.4812 21.6538 22.2898C22.0463 21.8045 23.0449 20.345 23.0978 18.0041C23.1141 17.2534 23.7324 16.463 24.672 15.9891C25.5263 15.5588 26.4721 15.4603 27.3324 15.6896C27.249 15.7199 27.2002 15.737 27.1961 15.7389C26.9724 15.8109 26.8544 16.0384 26.9317 16.2469C27.009 16.4554 27.2531 16.5654 27.4768 16.4933C27.5012 16.4858 27.9202 16.3493 28.4409 16.0953C28.5568 16.0858 28.6666 16.0327 28.7419 15.9417C28.8944 15.8583 29.051 15.7673 29.2056 15.6669C29.651 15.3769 29.9642 15.0869 30.1798 14.8063C30.2226 15.2006 30.1758 15.5683 30.0375 15.9019C29.6144 16.9236 28.4612 17.3482 28.451 17.352C28.2293 17.4297 28.1175 17.661 28.2009 17.8676C28.266 18.0268 28.4287 18.1254 28.6015 18.1254C28.6524 18.1254 28.7032 18.1178 28.7541 18.0988C28.7866 18.0875 29.2117 17.932 29.6897 17.587C29.7446 17.6799 29.7995 17.7728 29.8524 17.8714C29.9276 18.0116 30.0802 18.0931 30.2368 18.0931C30.2612 18.0931 30.2876 18.0893 30.312 18.0855C31.3961 18.6826 33.7554 18.804 34.8314 18.8267C36.6171 18.8646 38.3317 18.5537 39.8449 18.2789C42.613 17.7747 44.7994 17.3766 46.4367 19.0523C46.4632 19.0788 46.4937 19.1035 46.5283 19.1224C50.4638 21.4046 47.2706 29.7676 47.2381 29.851C47.2157 29.9078 47.2076 29.9704 47.2157 30.031C47.4028 31.6062 47.5757 34.3509 47.2523 35.0125C47.236 35.0485 47.2259 35.0845 47.2198 35.1205C46.9025 35.2001 46.2557 35.2058 45.8693 35.1565C46.15 34.2201 46.1276 32.4649 46.1195 32.0839C46.1174 31.9891 46.0788 31.8962 46.0157 31.8223C46.0198 31.8185 46.0238 31.8147 46.0279 31.8109C46.1744 31.6365 46.1418 31.3863 45.9547 31.2499C43.7011 29.5989 43.7378 28.145 43.7581 27.3622C43.7683 27.0039 43.7764 26.6949 43.5161 26.4959C43.3717 26.386 43.1662 26.3765 43.0117 26.4713C42.9079 26.5338 42.7717 26.6229 42.611 26.731C41.2707 27.6181 38.1303 29.6937 35.4049 28.145C35.2747 28.0711 35.1141 28.0673 34.9798 28.1336C34.8456 28.2 34.7602 28.327 34.752 28.4692L34.449 34.9499C34.0097 35.0144 33.4788 35.039 33.1534 34.9499C33.3486 33.0411 32.7852 31.7901 32.5778 31.4053C32.6164 30.9674 32.6652 29.5629 31.8415 28.4957C31.7174 28.3365 31.4876 28.2834 31.3005 28.3725C31.2822 28.382 29.4456 29.2274 28.15 28.4521C27.1432 27.8493 26.6815 26.4144 26.7751 24.1891C26.7853 23.9692 26.6002 23.7834 26.3643 23.774C26.1263 23.7645 25.929 23.937 25.9188 24.1588C25.8131 26.6874 26.407 28.3573 27.6863 29.125C27.9609 29.2899 28.2497 29.3999 28.5405 29.4719C28.5547 29.5534 28.5934 29.6311 28.6605 29.6936C29.3785 30.3628 29.5453 31.0641 29.6917 31.6839C29.7751 32.0346 29.8463 32.3417 30.009 32.6014C30.1046 33.026 30.2266 34.0476 29.832 34.6087C29.7405 34.7035 29.6998 34.8286 29.7202 34.9556C29.7385 35.0769 29.8198 35.2437 30.0985 35.3404C30.3344 35.4238 30.9547 35.5148 31.5629 35.5148C31.8497 35.5148 32.1324 35.4939 32.3724 35.4408C32.3927 35.4617 32.411 35.4825 32.4354 35.4996C32.773 35.7403 33.2652 35.8105 33.729 35.8105C34.2883 35.8105 34.8049 35.7081 34.9636 35.6721C35.1507 35.6304 35.2849 35.4788 35.293 35.3006L35.5818 29.1307C36.9507 29.6823 38.3581 29.5515 39.6069 29.1648C39.5947 29.2368 39.6008 29.3108 39.6334 29.3828C39.6456 29.4112 39.6618 29.4378 39.674 29.4662L39.0618 30.05C38.8951 30.2073 38.8991 30.4613 39.0679 30.6149C39.1513 30.6907 39.2591 30.7286 39.3669 30.7286C39.4788 30.7286 39.5886 30.6888 39.674 30.6092L40.1439 30.16C40.4652 30.5106 40.8679 30.776 41.3378 30.9428L40.994 31.4792C40.872 31.6688 40.9391 31.9133 41.1425 32.027C41.2117 32.0649 41.2869 32.0839 41.3622 32.0839C41.5086 32.0839 41.651 32.0138 41.7303 31.8887L42.2144 31.1797C42.3323 31.1911 42.4523 31.2461 42.5764 31.2461C42.5927 31.2461 42.6089 31.2461 42.6252 31.2461C43.1886 31.2461 43.813 31.085 44.23 30.8746C44.533 31.2006 44.9032 31.5133 45.3588 31.8507C45.2978 31.9284 45.2591 32.0137 45.2632 32.1123C45.2835 32.9956 45.2286 34.5367 45.009 35.0731C44.9479 35.0428 44.8788 35.0219 44.8056 35.0219C44.3174 35.0295 43.7317 35.0124 43.4266 34.9764C43.4367 34.9063 43.453 34.821 43.4672 34.7471C43.5608 34.2637 43.7012 33.5321 43.4286 32.5085C43.4022 32.4099 43.3371 32.3227 43.2456 32.2678C43.0645 32.1597 42.9181 32.0194 42.8103 31.8488C42.6883 31.6593 42.4259 31.5986 42.2225 31.7124C42.0191 31.8261 41.952 32.0706 42.074 32.2602C42.2205 32.4876 42.4076 32.6829 42.6334 32.8421C42.8123 33.6268 42.7045 34.1879 42.6252 34.6049C42.5642 34.9196 42.5174 35.166 42.6151 35.4029C42.7005 35.6095 42.7879 35.8218 44.4456 35.8218C44.5635 35.8218 44.6896 35.8199 44.8239 35.818C44.9215 35.8161 45.0089 35.7839 45.0801 35.7328C45.0842 35.7347 45.0862 35.7384 45.0883 35.7403C45.2977 35.909 45.8428 36 46.4082 36C47.0428 36 47.71 35.8844 47.9703 35.6418C48.0842 35.5356 48.1208 35.3802 48.0801 35.2437C48.5154 34.1064 48.1635 30.7438 48.0842 30.0348C48.4422 29.0435 51.2876 21.0179 47.0266 18.4722ZM21.7493 15.8223C22.0585 16.0327 22.449 16.2033 22.9087 16.336C22.7277 16.554 22.5792 16.7852 22.4673 17.0241C22.1073 16.7113 21.8673 16.3095 21.7493 15.8223ZM30.7473 34.6599C31.15 33.678 30.8368 32.4118 30.8205 32.3493C30.8083 32.3038 30.788 32.2602 30.7595 32.2204C30.6537 32.0706 30.5907 31.809 30.5195 31.5058C30.3913 30.9674 30.2246 30.2642 29.6693 29.5667C30.3466 29.5325 30.9507 29.3581 31.3168 29.2274C31.87 30.1941 31.7053 31.4167 31.7032 31.4299C31.691 31.5209 31.7093 31.6119 31.7602 31.6896C31.7683 31.701 32.4334 32.7606 32.3093 34.6144C32.3032 34.6201 32.2951 34.622 32.289 34.6277C32.0856 34.7433 31.2578 34.7262 30.7473 34.6599ZM42.0456 30.3059C41.2706 30.1637 40.7235 29.7486 40.4164 29.07C40.3879 29.0075 40.3432 28.9563 40.2923 28.9165C41.3723 28.4881 42.2876 27.9157 42.8896 27.5214C42.8815 28.1318 42.9323 29.0833 43.695 30.1808C43.3717 30.3002 42.7412 30.4329 42.0456 30.3059Z" fill="#18418C"/>
<path d="M17.259 48.632C17.943 48.272 18.375 47.624 18.375 46.784C18.375 45.476 17.295 44.6 15.195 44.6H11.091V53H15.435C17.643 53 18.795 52.16 18.795 50.708C18.795 49.652 18.195 48.932 17.259 48.632ZM14.955 46.064C15.903 46.064 16.419 46.388 16.419 47.048C16.419 47.708 15.903 48.044 14.955 48.044H13.023V46.064H14.955ZM15.291 51.536H13.023V49.46H15.291C16.299 49.46 16.839 49.796 16.839 50.504C16.839 51.224 16.299 51.536 15.291 51.536ZM22.9668 53.096C25.0188 53.096 26.5068 51.716 26.5068 49.772C26.5068 47.828 25.0188 46.448 22.9668 46.448C20.9148 46.448 19.4148 47.828 19.4148 49.772C19.4148 51.716 20.9148 53.096 22.9668 53.096ZM22.9668 51.56C22.0308 51.56 21.3108 50.888 21.3108 49.772C21.3108 48.656 22.0308 47.984 22.9668 47.984C23.9028 47.984 24.6108 48.656 24.6108 49.772C24.6108 50.888 23.9028 51.56 22.9668 51.56ZM31.9503 46.544L30.1023 50.936L28.3143 46.544H26.3823L29.0943 53H31.0263L33.7503 46.544H31.9503ZM35.2102 45.644C35.9062 45.644 36.3742 45.188 36.3742 44.564C36.3742 43.988 35.9062 43.556 35.2102 43.556C34.5142 43.556 34.0462 44.012 34.0462 44.6C34.0462 45.188 34.5142 45.644 35.2102 45.644ZM34.2742 53H36.1462V46.544H34.2742V53ZM41.5675 46.448C40.6915 46.448 39.9355 46.748 39.4315 47.3V46.544H37.6435V53H39.5155V49.808C39.5155 48.62 40.1635 48.068 41.0635 48.068C41.8915 48.068 42.3715 48.548 42.3715 49.592V53H44.2435V49.304C44.2435 47.336 43.0915 46.448 41.5675 46.448ZM48.8427 53.096C50.8947 53.096 52.3827 51.716 52.3827 49.772C52.3827 47.828 50.8947 46.448 48.8427 46.448C46.7907 46.448 45.2907 47.828 45.2907 49.772C45.2907 51.716 46.7907 53.096 48.8427 53.096ZM48.8427 51.56C47.9067 51.56 47.1867 50.888 47.1867 49.772C47.1867 48.656 47.9067 47.984 48.8427 47.984C49.7787 47.984 50.4867 48.656 50.4867 49.772C50.4867 50.888 49.7787 51.56 48.8427 51.56ZM55.566 53.096C57.498 53.096 58.614 52.244 58.614 51.044C58.614 48.5 54.714 49.568 54.714 48.464C54.714 48.128 55.074 47.864 55.914 47.864C56.502 47.864 57.138 47.984 57.774 48.344L58.398 47.012C57.786 46.652 56.802 46.448 55.914 46.448C54.03 46.448 52.926 47.312 52.926 48.536C52.926 51.116 56.826 50.036 56.826 51.092C56.826 51.452 56.502 51.68 55.638 51.68C54.846 51.68 53.97 51.428 53.394 51.056L52.77 52.4C53.37 52.796 54.474 53.096 55.566 53.096Z" fill="#18418C"/>
</g>
<defs>
<clipPath id="clip0">
<path d="M0 6C0 2.68629 2.68629 0 6 0H62C65.3137 0 68 2.68629 68 6V57C68 60.3137 65.3137 63 62 63H6C2.68629 63 0 60.3137 0 57V6Z" fill="white"/>
</clipPath>
</defs>
</svg>
