<?xml version="1.0" standalone="no"?>
<!DOCTYPE svg PUBLIC "-//W3C//DTD SVG 20010904//EN"
 "http://www.w3.org/TR/2001/REC-SVG-20010904/DTD/svg10.dtd">
<svg version="1.0" xmlns="http://www.w3.org/2000/svg"
 width="2701.000000pt" height="2701.000000pt" viewBox="0 0 2701.000000 2701.000000"
 preserveAspectRatio="xMidYMid meet">

<g transform="translate(0.000000,2701.000000) scale(0.100000,-0.100000)"
fill="#000000" stroke="none">
<path d="M13110 27000 c-2206 -62 -4369 -670 -6281 -1766 -711 -407 -1395
-885 -2009 -1403 -1772 -1497 -3127 -3405 -3942 -5551 -724 -1906 -1002 -3954
-817 -6005 151 -1681 604 -3274 1360 -4785 649 -1296 1448 -2415 2464 -3449
2274 -2314 5267 -3723 8485 -3995 420 -36 564 -41 1140 -41 593 0 717 5 1190
46 1859 161 3678 716 5315 1622 1642 908 3069 2138 4221 3637 241 313 585 814
800 1165 1092 1784 1752 3795 1928 5880 36 424 41 568 41 1150 0 600 -5 733
-46 1195 -151 1706 -609 3315 -1379 4845 -378 750 -743 1342 -1244 2015 -404
542 -777 972 -1285 1480 -558 557 -1012 947 -1621 1391 -1160 845 -2513 1529
-3850 1947 -316 98 -383 118 -623 181 -1031 271 -1995 409 -3092 441 -354 10
-369 10 -755 0z m1170 -2384 c1501 -113 2841 -476 4155 -1126 919 -455 1717
-994 2505 -1694 286 -254 787 -769 1061 -1091 1321 -1551 2203 -3474 2513
-5475 93 -602 130 -1098 130 -1735 0 -544 -20 -870 -85 -1390 -265 -2133
-1152 -4146 -2554 -5800 -387 -457 -843 -913 -1300 -1300 -1721 -1459 -3833
-2359 -6064 -2585 -397 -40 -668 -53 -1121 -53 -589 -1 -1009 27 -1560 104
-2044 283 -3989 1147 -5584 2480 -474 396 -989 908 -1377 1369 -756 899 -1359
1889 -1800 2961 -416 1011 -688 2123 -783 3204 -36 409 -41 512 -41 1010 0
676 28 1065 121 1690 208 1400 719 2813 1461 4045 1300 2156 3271 3803 5623
4697 358 136 823 281 1210 378 758 190 1436 288 2275 329 179 9 1024 -4 1215
-18z"/>
<path d="M11930 20353 c-797 -35 -1466 -338 -1957 -886 -186 -207 -274 -335
-510 -737 -953 -1623 -1352 -2304 -2065 -3525 -926 -1586 -2251 -3842 -2303
-3921 -34 -52 -62 -131 -50 -143 4 -3 720 -7 1591 -9 1749 -3 1617 -7 1667 60
14 18 94 152 179 298 85 146 447 762 803 1370 356 608 962 1643 1345 2300 384
657 773 1323 865 1480 92 157 219 380 283 495 115 210 190 331 243 392 l28 33
249 -418 c137 -229 707 -1184 1266 -2122 1113 -1867 1056 -1779 1174 -1814
105 -32 234 -2 304 71 33 34 1294 2172 1314 2227 18 49 18 142 0 192 -16 46
-2077 3529 -2143 3622 -62 87 -315 340 -443 442 -375 299 -771 480 -1214 555
-136 23 -422 47 -516 43 -25 -1 -74 -3 -110 -5z"/>
<path d="M18604 16692 c-42 -7 -74 -26 -98 -57 -27 -36 -1364 -2313 -2269
-3865 -319 -547 -702 -1204 -852 -1460 -150 -256 -314 -541 -365 -635 -89
-164 -193 -331 -242 -387 l-23 -27 -1270 2130 c-979 1643 -1279 2139 -1311
2168 -115 101 -304 94 -411 -17 -47 -49 -1300 -2175 -1320 -2241 -19 -61 -10
-152 21 -211 56 -106 2101 -3550 2136 -3595 95 -126 340 -361 505 -486 361
-274 749 -439 1190 -510 169 -26 540 -37 722 -20 409 39 724 126 1055 291 417
209 788 552 1070 990 63 98 1076 1822 2038 3470 364 624 732 1254 818 1400
248 424 1686 2869 1726 2934 42 70 47 113 14 121 -24 5 -3101 12 -3134 7z"/>
</g>
</svg>
