<svg xmlns="http://www.w3.org/2000/svg" xmlns:xlink="http://www.w3.org/1999/xlink" viewBox="0 0 48.93 48.93"><defs><style>.cls-1{fill:none;clip-rule:evenodd;}.cls-2{clip-path:url(#clip-path);}.cls-3,.cls-66{fill:#18418c;}.cls-4{fill:#18418b;}.cls-5{fill:#18408a;}.cls-6{fill:#184089;}.cls-7{fill:#184088;}.cls-8{fill:#193f87;}.cls-9{fill:#193f86;}.cls-10{fill:#193e85;}.cls-11{fill:#193e84;}.cls-12{fill:#193e83;}.cls-13{fill:#193d82;}.cls-14{fill:#193d81;}.cls-15{fill:#193d80;}.cls-16{fill:#1a3c7e;}.cls-17{fill:#1a3c7d;}.cls-18{fill:#1a3c7c;}.cls-19{fill:#1a3b7b;}.cls-20{fill:#1a3b7a;}.cls-21{fill:#1a3b79;}.cls-22{fill:#1a3a78;}.cls-23{fill:#1a3a77;}.cls-24{fill:#1b3976;}.cls-25{fill:#1b3975;}.cls-26{fill:#1b3974;}.cls-27{fill:#1b3873;}.cls-28{fill:#1b3872;}.cls-29{fill:#194088;}.cls-30{fill:#193f85;}.cls-31{fill:#1a3d81;}.cls-32{fill:#1a3d80;}.cls-33{fill:#1a3c7f;}.cls-34{fill:#1a3b7c;}.cls-35{fill:#1b3a79;}.cls-36{fill:#1b3a78;}.cls-37{fill:#1b3a77;}.cls-38{fill:#1c3871;}.cls-39{fill:#1c3770;}.cls-40{fill:#1c376f;}.cls-41{fill:#1c376e;}.cls-42{fill:#1c366d;}.cls-43{fill:#1c366c;}.cls-44{fill:#1c366b;}.cls-45{fill:#1d356a;}.cls-46{fill:#1d3569;}.cls-47{fill:#1d3568;}.cls-48{fill:#1d3467;}.cls-49{fill:#1d3466;}.cls-50{fill:#1d3465;}.cls-51{fill:#1d3364;}.cls-52{fill:#1d3363;}.cls-53{fill:#1e3362;}.cls-54{fill:#1e3261;}.cls-55{fill:#1e3260;}.cls-56{fill:#1e315f;}.cls-57{fill:#1e315e;}.cls-58{fill:#1e315d;}.cls-59{fill:#1e305c;}.cls-60{fill:#1f305b;}.cls-61{fill:#1f305a;}.cls-62{fill:#1f2f59;}.cls-63{fill:#1f2f58;}.cls-64{fill:#d9392b;}.cls-65{clip-path:url(#clip-path-2);}.cls-66{fill-rule:evenodd;}</style><clipPath id="clip-path"><path class="cls-1" d="M23.5,13.85l-1.94,2a.55.55,0,0,0-.08.65h0l4.91,8.23a.54.54,0,0,0,.93,0h0l2.25-3.83a.52.52,0,0,0,0-.54h0l-3.65-6.16c-.08-.14-.22-.42-.38-.45h0L24,13.4h0c-.17,0-.33.32-.45.45Z"/></clipPath><clipPath id="clip-path-2"><path class="cls-1" d="M21.22,22.69,19,26.51a.54.54,0,0,0,0,.55h0l3.65,6.15c.08.14.23.42.38.45h0l1.57.38c.18,0,.35-.31.47-.44h0l1.95-2a.54.54,0,0,0,.07-.65h0l-4.91-8.23a.53.53,0,0,0-.46-.26h0a.55.55,0,0,0-.47.27Z"/></clipPath></defs><g id="Capa_2" data-name="Capa 2"><g id="Capa_1-2" data-name="Capa 1"><g id="Capa_1-3" data-name="Capa_1"><g class="cls-2"><polygon class="cls-3" points="26.74 25.11 29.67 21.59 29.67 25.11 26.74 25.11"/><polygon class="cls-3" points="26.72 25.11 29.67 21.57 29.67 21.59 26.74 25.11 26.72 25.11"/><polygon class="cls-4" points="26.71 25.11 29.67 21.55 29.67 21.57 26.72 25.11 26.71 25.11"/><polygon class="cls-5" points="26.69 25.11 29.67 21.53 29.67 21.55 26.71 25.11 26.69 25.11"/><polygon class="cls-6" points="26.68 25.11 29.67 21.51 29.67 21.53 26.69 25.11 26.68 25.11"/><polygon class="cls-7" points="26.66 25.11 29.67 21.49 29.67 21.51 26.68 25.11 26.66 25.11"/><polygon class="cls-8" points="26.64 25.11 29.67 21.47 29.67 21.49 26.66 25.11 26.64 25.11"/><polygon class="cls-9" points="26.63 25.11 29.67 21.45 29.67 21.47 26.64 25.11 26.63 25.11"/><polygon class="cls-10" points="26.61 25.11 29.67 21.43 29.67 21.45 26.63 25.11 26.61 25.11"/><polygon class="cls-11" points="26.6 25.11 29.67 21.41 29.67 21.43 26.61 25.11 26.6 25.11"/><polygon class="cls-12" points="26.58 25.11 29.67 21.39 29.67 21.41 26.6 25.11 26.58 25.11"/><polygon class="cls-13" points="26.57 25.11 29.67 21.38 29.67 21.39 26.58 25.11 26.57 25.11"/><polygon class="cls-14" points="26.55 25.11 29.67 21.36 29.67 21.38 26.57 25.11 26.55 25.11"/><polygon class="cls-15" points="26.54 25.11 29.67 21.34 29.67 21.36 26.55 25.11 26.54 25.11"/><polygon class="cls-16" points="26.52 25.11 29.67 21.32 29.67 21.34 26.54 25.11 26.52 25.11"/><polygon class="cls-17" points="26.52 25.11 26.51 25.11 29.67 21.3 29.67 21.32 26.52 25.11 26.52 25.11"/><polygon class="cls-18" points="26.51 25.11 26.5 25.1 29.67 21.28 29.67 21.3 26.51 25.11"/><polygon class="cls-19" points="26.5 25.1 26.49 25.09 29.67 21.26 29.67 21.28 26.5 25.1"/><polygon class="cls-20" points="26.49 25.09 26.48 25.08 29.67 21.24 29.67 21.26 26.49 25.09"/><polygon class="cls-21" points="26.48 25.08 26.47 25.07 29.67 21.22 29.67 21.24 26.48 25.08"/><polygon class="cls-22" points="26.47 25.07 26.46 25.07 29.67 21.2 29.67 21.22 26.47 25.07"/><polygon class="cls-23" points="26.46 25.07 26.45 25.06 29.67 21.19 29.67 21.2 26.46 25.07"/><polygon class="cls-24" points="26.45 25.06 26.44 25.05 29.67 21.17 29.67 21.19 26.45 25.06"/><polygon class="cls-25" points="26.44 25.05 26.43 25.04 29.67 21.15 29.67 21.17 26.44 25.05"/><polygon class="cls-26" points="26.43 25.04 26.42 25.04 29.67 21.13 29.67 21.15 26.43 25.04"/><polygon class="cls-27" points="26.42 25.04 26.41 25.03 29.67 21.11 29.67 21.13 26.42 25.04"/><polygon class="cls-28" points="26.41 25.03 26.41 25.02 29.67 21.09 29.67 21.11 26.41 25.03"/><polygon class="cls-28" points="26.41 25.02 26.39 25.01 29.67 21.07 29.67 21.09 26.41 25.02"/><polygon class="cls-27" points="26.39 25.01 26.38 25 29.67 21.04 29.67 21.07 26.39 25.01"/><polygon class="cls-26" points="26.38 25 26.37 24.99 29.67 21.02 29.67 21.04 26.38 25"/><polygon class="cls-25" points="26.37 24.99 26.36 24.98 29.67 21 29.67 21.02 26.37 24.99"/><polygon class="cls-24" points="26.36 24.98 26.35 24.97 29.67 20.97 29.67 21 26.36 24.98"/><polygon class="cls-23" points="26.35 24.97 26.34 24.96 29.67 20.95 29.67 20.97 26.35 24.97"/><polygon class="cls-22" points="26.34 24.96 26.32 24.95 29.67 20.93 29.67 20.95 26.34 24.96"/><polygon class="cls-21" points="26.32 24.95 26.31 24.94 29.67 20.9 29.67 20.93 26.32 24.95"/><polygon class="cls-20" points="26.31 24.94 26.3 24.93 29.67 20.88 29.67 20.9 26.31 24.94"/><polygon class="cls-19" points="26.3 24.93 26.29 24.92 29.67 20.85 29.67 20.88 26.3 24.93"/><polygon class="cls-18" points="26.29 24.92 26.28 24.91 29.67 20.83 29.67 20.85 26.29 24.92"/><polygon class="cls-17" points="26.28 24.91 26.27 24.91 29.67 20.81 29.67 20.83 26.28 24.91"/><polygon class="cls-16" points="26.27 24.91 26.25 24.89 29.67 20.78 29.67 20.81 26.27 24.91"/><polygon class="cls-15" points="26.25 24.89 26.24 24.89 29.67 20.76 29.67 20.78 26.25 24.89"/><polygon class="cls-14" points="26.24 24.89 26.23 24.88 29.67 20.74 29.67 20.76 26.24 24.89"/><polygon class="cls-13" points="26.23 24.88 26.22 24.87 29.67 20.71 29.67 20.74 26.23 24.88"/><polygon class="cls-12" points="26.22 24.87 26.21 24.86 29.67 20.69 29.67 20.71 26.22 24.87"/><polygon class="cls-11" points="26.21 24.86 26.2 24.85 29.67 20.66 29.67 20.69 26.21 24.86"/><polygon class="cls-10" points="26.2 24.85 26.18 24.84 29.67 20.64 29.67 20.66 26.2 24.85"/><polygon class="cls-9" points="26.18 24.84 26.17 24.83 29.67 20.62 29.67 20.64 26.18 24.84"/><polygon class="cls-8" points="26.17 24.83 26.16 24.82 29.67 20.59 29.67 20.62 26.17 24.83"/><polygon class="cls-7" points="26.16 24.82 26.15 24.81 29.67 20.57 29.67 20.59 26.16 24.82"/><polygon class="cls-6" points="26.15 24.81 26.14 24.8 29.67 20.55 29.67 20.57 26.15 24.81"/><polygon class="cls-5" points="26.14 24.8 26.13 24.79 29.67 20.52 29.67 20.55 26.14 24.8"/><polygon class="cls-4" points="26.13 24.79 26.11 24.78 29.67 20.5 29.67 20.52 26.13 24.79"/><polygon class="cls-3" points="26.11 24.78 26.1 24.77 29.67 20.48 29.67 20.5 26.11 24.78"/><polygon class="cls-3" points="26.1 24.77 24.1 23.11 29.36 16.78 29.67 17.04 29.67 20.48 26.1 24.77"/><rect class="cls-3" x="22.59" y="19.89" width="8.23" height="0.06" transform="translate(-5.69 27.72) rotate(-50.26)"/><rect class="cls-4" x="22.55" y="19.86" width="8.23" height="0.06" transform="translate(-5.67 27.67) rotate(-50.26)"/><rect class="cls-5" x="22.5" y="19.82" width="8.23" height="0.06" transform="translate(-5.66 27.62) rotate(-50.26)"/><rect class="cls-6" x="22.46" y="19.78" width="8.23" height="0.06" transform="translate(-5.65 27.57) rotate(-50.26)"/><rect class="cls-29" x="22.41" y="19.74" width="8.23" height="0.06" transform="translate(-5.64 27.53) rotate(-50.26)"/><rect class="cls-8" x="22.36" y="19.7" width="8.23" height="0.06" transform="translate(-5.62 27.48) rotate(-50.26)"/><rect class="cls-9" x="22.32" y="19.66" width="8.23" height="0.06" transform="translate(-5.61 27.43) rotate(-50.26)"/><rect class="cls-30" x="22.27" y="19.63" width="8.23" height="0.06" transform="translate(-5.6 27.38) rotate(-50.26)"/><rect class="cls-11" x="22.23" y="19.59" width="8.23" height="0.06" transform="translate(-5.58 27.33) rotate(-50.26)"/><rect class="cls-12" x="22.18" y="19.55" width="8.23" height="0.06" transform="translate(-5.57 27.28) rotate(-50.26)"/><rect class="cls-13" x="22.13" y="19.51" width="8.23" height="0.06" transform="translate(-5.56 27.23) rotate(-50.26)"/><rect class="cls-31" x="22.09" y="19.47" width="8.23" height="0.06" transform="translate(-5.55 27.18) rotate(-50.26)"/><rect class="cls-32" x="22.04" y="19.43" width="8.23" height="0.06" transform="translate(-5.53 27.13) rotate(-50.26)"/><rect class="cls-33" x="22" y="19.4" width="8.23" height="0.06" transform="translate(-5.52 27.08) rotate(-50.26)"/><rect class="cls-16" x="21.95" y="19.36" width="8.23" height="0.06" transform="translate(-5.51 27.03) rotate(-50.26)"/><rect class="cls-17" x="21.9" y="19.32" width="8.23" height="0.06" transform="translate(-5.49 26.98) rotate(-50.26)"/><rect class="cls-34" x="21.86" y="19.28" width="8.23" height="0.06" transform="translate(-5.48 26.93) rotate(-50.26)"/><rect class="cls-19" x="21.81" y="19.24" width="8.23" height="0.06" transform="translate(-5.47 26.89) rotate(-50.26)"/><rect class="cls-20" x="21.77" y="19.2" width="8.23" height="0.06" transform="translate(-5.46 26.84) rotate(-50.26)"/><rect class="cls-35" x="21.72" y="19.17" width="8.23" height="0.06" transform="translate(-5.44 26.79) rotate(-50.26)"/><rect class="cls-36" x="21.67" y="19.13" width="8.23" height="0.06" transform="translate(-5.43 26.74) rotate(-50.26)"/><rect class="cls-37" x="21.63" y="19.09" width="8.23" height="0.06" transform="translate(-5.42 26.69) rotate(-50.26)"/><rect class="cls-24" x="21.58" y="19.05" width="8.23" height="0.06" transform="translate(-5.4 26.64) rotate(-50.26)"/><rect class="cls-25" x="21.54" y="19.01" width="8.23" height="0.06" transform="translate(-5.39 26.59) rotate(-50.26)"/><rect class="cls-26" x="21.49" y="18.97" width="8.23" height="0.06" transform="translate(-5.38 26.54) rotate(-50.26)"/><rect class="cls-27" x="21.44" y="18.94" width="8.23" height="0.06" transform="translate(-5.37 26.49) rotate(-50.26)"/><rect class="cls-38" x="21.4" y="18.9" width="8.23" height="0.06" transform="translate(-5.35 26.44) rotate(-50.26)"/><rect class="cls-39" x="21.35" y="18.86" width="8.23" height="0.06" transform="translate(-5.34 26.39) rotate(-50.26)"/><rect class="cls-40" x="21.31" y="18.82" width="8.23" height="0.06" transform="translate(-5.33 26.34) rotate(-50.26)"/><rect class="cls-41" x="21.26" y="18.78" width="8.23" height="0.06" transform="translate(-5.32 26.29) rotate(-50.26)"/><rect class="cls-42" x="21.21" y="18.74" width="8.23" height="0.06" transform="translate(-5.3 26.25) rotate(-50.26)"/><rect class="cls-43" x="21.17" y="18.71" width="8.23" height="0.06" transform="translate(-5.29 26.2) rotate(-50.26)"/><rect class="cls-44" x="21.12" y="18.67" width="8.23" height="0.06" transform="translate(-5.28 26.15) rotate(-50.26)"/><rect class="cls-45" x="21.07" y="18.63" width="8.23" height="0.06" transform="translate(-5.26 26.1) rotate(-50.26)"/><rect class="cls-46" x="21.03" y="18.59" width="8.23" height="0.06" transform="translate(-5.25 26.05) rotate(-50.26)"/><rect class="cls-47" x="20.98" y="18.55" width="8.23" height="0.06" transform="translate(-5.24 26) rotate(-50.26)"/><rect class="cls-48" x="20.94" y="18.51" width="8.23" height="0.06" transform="translate(-5.23 25.95) rotate(-50.26)"/><rect class="cls-49" x="20.89" y="18.48" width="8.23" height="0.06" transform="translate(-5.21 25.9) rotate(-50.26)"/><rect class="cls-50" x="20.84" y="18.44" width="8.23" height="0.06" transform="translate(-5.2 25.85) rotate(-50.26)"/><rect class="cls-51" x="20.8" y="18.4" width="8.23" height="0.06" transform="translate(-5.19 25.8) rotate(-50.26)"/><rect class="cls-52" x="20.75" y="18.36" width="8.23" height="0.06" transform="translate(-5.17 25.75) rotate(-50.26)"/><rect class="cls-53" x="20.71" y="18.32" width="8.23" height="0.06" transform="translate(-5.16 25.7) rotate(-50.26)"/><rect class="cls-54" x="20.66" y="18.29" width="8.23" height="0.06" transform="translate(-5.15 25.65) rotate(-50.26)"/><rect class="cls-55" x="20.61" y="18.25" width="8.23" height="0.06" transform="translate(-5.14 25.61) rotate(-50.26)"/><rect class="cls-56" x="20.57" y="18.21" width="8.23" height="0.06" transform="translate(-5.12 25.56) rotate(-50.26)"/><rect class="cls-57" x="20.52" y="18.17" width="8.23" height="0.06" transform="translate(-5.11 25.51) rotate(-50.26)"/><rect class="cls-58" x="20.48" y="18.13" width="8.23" height="0.06" transform="translate(-5.1 25.46) rotate(-50.26)"/><rect class="cls-59" x="20.43" y="18.09" width="8.23" height="0.06" transform="translate(-5.08 25.41) rotate(-50.26)"/><rect class="cls-60" x="20.38" y="18.06" width="8.23" height="0.06" transform="translate(-5.07 25.36) rotate(-50.26)"/><rect class="cls-61" x="20.34" y="18.02" width="8.23" height="0.06" transform="translate(-5.06 25.31) rotate(-50.26)"/><rect class="cls-62" x="20.29" y="17.98" width="8.23" height="0.06" transform="translate(-5.05 25.26) rotate(-50.26)"/><rect class="cls-63" x="20.25" y="17.94" width="8.23" height="0.06" transform="translate(-5.03 25.21) rotate(-50.26)"/><polygon class="cls-63" points="21.71 21.11 21.36 20.82 21.36 17.28 24.58 13.4 25.29 13.4 26.96 14.79 21.71 21.11"/><polygon class="cls-63" points="21.36 15.86 23.4 13.4 24.58 13.4 21.36 17.28 21.36 15.86"/><polygon class="cls-63" points="23.4 13.4 21.36 15.86 21.36 13.4 23.4 13.4"/></g><path class="cls-64" d="M24.46,4.27a20.2,20.2,0,1,0,20.2,20.19A20.22,20.22,0,0,0,24.46,4.27Zm0,44.66A24.47,24.47,0,1,1,48.93,24.46,24.49,24.49,0,0,1,24.46,48.93Z"/><path class="cls-3" d="M25.67,13.84a5.1,5.1,0,0,0-8.31.78l-2.49,4.24C13.92,20.48,13,22.11,12,23.73s-1.83,3.13-2.75,4.69a.56.56,0,0,0-.14.31l.09,0H14.8c.15,0,.21-.08.28-.19l3.2-5.47c.95-1.61,1.88-3.23,2.83-4.83a6.77,6.77,0,0,1,.72-1.18c.48-.83.94-1.68,1.44-2.49A1.69,1.69,0,0,1,25.68,14l.13.06-.06-.1Z"/><g class="cls-65"><polygon class="cls-3" points="21.68 22.42 18.87 25.78 18.87 22.42 21.68 22.42"/><polygon class="cls-3" points="21.7 22.42 18.87 25.8 18.87 25.78 21.68 22.42 21.7 22.42"/><polygon class="cls-4" points="21.71 22.42 18.87 25.82 18.87 25.8 21.7 22.42 21.71 22.42"/><polygon class="cls-5" points="21.73 22.42 18.87 25.84 18.87 25.82 21.71 22.42 21.73 22.42"/><polygon class="cls-6" points="21.75 22.42 18.87 25.86 18.87 25.84 21.73 22.42 21.75 22.42"/><polygon class="cls-7" points="21.76 22.42 18.87 25.88 18.87 25.86 21.75 22.42 21.76 22.42"/><polygon class="cls-8" points="21.78 22.42 18.87 25.9 18.87 25.88 21.76 22.42 21.78 22.42"/><polygon class="cls-9" points="21.79 22.42 18.87 25.91 18.87 25.9 21.78 22.42 21.79 22.42"/><polygon class="cls-10" points="21.81 22.42 18.87 25.93 18.87 25.91 21.79 22.42 21.81 22.42"/><polygon class="cls-11" points="21.82 22.42 18.87 25.95 18.87 25.93 21.81 22.42 21.82 22.42"/><polygon class="cls-12" points="21.84 22.42 18.87 25.97 18.87 25.95 21.82 22.42 21.84 22.42"/><polygon class="cls-13" points="21.86 22.42 18.87 25.99 18.87 25.97 21.84 22.42 21.86 22.42"/><polygon class="cls-14" points="21.87 22.42 18.87 26.01 18.87 25.99 21.86 22.42 21.87 22.42"/><polygon class="cls-15" points="21.89 22.42 18.87 26.03 18.87 26.01 21.87 22.42 21.89 22.42"/><polygon class="cls-16" points="21.9 22.42 18.87 26.05 18.87 26.03 21.89 22.42 21.9 22.42"/><polygon class="cls-17" points="21.92 22.42 18.87 26.07 18.87 26.05 21.9 22.42 21.92 22.42"/><polygon class="cls-18" points="21.93 22.42 18.87 26.09 18.87 26.07 21.92 22.42 21.93 22.42"/><polygon class="cls-19" points="21.95 22.42 18.87 26.11 18.87 26.09 21.93 22.42 21.95 22.42"/><polygon class="cls-20" points="21.97 22.42 18.87 26.12 18.87 26.11 21.95 22.42 21.97 22.42"/><polygon class="cls-21" points="21.98 22.42 18.87 26.14 18.87 26.12 21.97 22.42 21.98 22.42"/><polygon class="cls-22" points="22 22.42 18.87 26.16 18.87 26.14 21.98 22.42 22 22.42"/><polygon class="cls-23" points="22.01 22.42 18.87 26.18 18.87 26.16 22 22.42 22.01 22.42"/><polygon class="cls-24" points="22.03 22.42 22.03 22.42 18.87 26.2 18.87 26.18 22.01 22.42 22.03 22.42"/><polygon class="cls-25" points="22.03 22.42 22.04 22.43 18.87 26.22 18.87 26.2 22.03 22.42"/><polygon class="cls-26" points="22.04 22.43 22.05 22.44 18.87 26.24 18.87 26.22 22.04 22.43"/><polygon class="cls-27" points="22.05 22.44 22.06 22.44 18.87 26.26 18.87 26.24 22.05 22.44"/><polygon class="cls-28" points="22.06 22.44 22.07 22.45 18.87 26.27 18.87 26.26 22.06 22.44"/><polygon class="cls-28" points="22.07 22.45 22.08 22.46 18.87 26.3 18.87 26.27 22.07 22.45"/><polygon class="cls-27" points="22.08 22.46 22.09 22.47 18.87 26.32 18.87 26.3 22.08 22.46"/><polygon class="cls-26" points="22.09 22.47 22.1 22.48 18.87 26.35 18.87 26.32 22.09 22.47"/><polygon class="cls-25" points="22.1 22.48 22.11 22.49 18.87 26.37 18.87 26.35 22.1 22.48"/><polygon class="cls-24" points="22.11 22.49 22.13 22.5 18.87 26.39 18.87 26.37 22.11 22.49"/><polygon class="cls-23" points="22.13 22.5 22.14 22.51 18.87 26.42 18.87 26.39 22.13 22.5"/><polygon class="cls-22" points="22.14 22.51 22.15 22.52 18.87 26.44 18.87 26.42 22.14 22.51"/><polygon class="cls-21" points="22.15 22.52 22.16 22.53 18.87 26.46 18.87 26.44 22.15 22.52"/><polygon class="cls-20" points="22.16 22.53 22.17 22.54 18.87 26.49 18.87 26.46 22.16 22.53"/><polygon class="cls-19" points="22.17 22.54 22.18 22.55 18.87 26.51 18.87 26.49 22.17 22.54"/><polygon class="cls-18" points="22.18 22.55 22.2 22.56 18.87 26.54 18.87 26.51 22.18 22.55"/><polygon class="cls-17" points="22.2 22.56 22.21 22.57 18.87 26.56 18.87 26.54 22.2 22.56"/><polygon class="cls-16" points="22.21 22.57 22.22 22.58 18.87 26.58 18.87 26.56 22.21 22.57"/><polygon class="cls-15" points="22.22 22.58 22.23 22.59 18.87 26.61 18.87 26.58 22.22 22.58"/><polygon class="cls-14" points="22.23 22.59 22.24 22.6 18.87 26.63 18.87 26.61 22.23 22.59"/><polygon class="cls-13" points="22.24 22.6 22.25 22.61 18.87 26.66 18.87 26.63 22.24 22.6"/><polygon class="cls-12" points="22.25 22.61 22.27 22.62 18.87 26.68 18.87 26.66 22.25 22.61"/><polygon class="cls-11" points="22.27 22.62 22.28 22.63 18.87 26.7 18.87 26.68 22.27 22.62"/><polygon class="cls-10" points="22.28 22.63 22.29 22.64 18.87 26.73 18.87 26.7 22.28 22.63"/><polygon class="cls-9" points="22.29 22.64 22.3 22.65 18.87 26.75 18.87 26.73 22.29 22.64"/><polygon class="cls-8" points="22.3 22.65 22.31 22.66 18.87 26.77 18.87 26.75 22.3 22.65"/><polygon class="cls-7" points="22.31 22.66 22.32 22.67 18.87 26.8 18.87 26.77 22.31 22.66"/><polygon class="cls-6" points="22.32 22.67 22.34 22.68 18.87 26.82 18.87 26.8 22.32 22.67"/><polygon class="cls-5" points="22.34 22.68 22.35 22.68 18.87 26.84 18.87 26.82 22.34 22.68"/><polygon class="cls-4" points="22.35 22.68 22.36 22.7 18.87 26.87 18.87 26.84 22.35 22.68"/><polygon class="cls-3" points="22.36 22.7 22.37 22.7 18.87 26.89 18.87 26.87 22.36 22.7"/><polygon class="cls-3" points="22.37 22.7 24.37 24.38 19.15 30.62 18.87 30.39 18.87 26.89 22.37 22.7"/><rect class="cls-3" x="17.72" y="27.49" width="8.14" height="0.06" transform="translate(-13.3 26.59) rotate(-50.12)"/><rect class="cls-4" x="17.76" y="27.53" width="8.14" height="0.06" transform="translate(-13.31 26.64) rotate(-50.12)"/><rect class="cls-5" x="17.81" y="27.57" width="8.14" height="0.06" transform="translate(-13.33 26.69) rotate(-50.12)"/><rect class="cls-6" x="17.85" y="27.6" width="8.14" height="0.06" transform="translate(-13.34 26.74) rotate(-50.12)"/><rect class="cls-29" x="17.9" y="27.64" width="8.14" height="0.06" transform="translate(-13.35 26.79) rotate(-50.12)"/><rect class="cls-8" x="17.95" y="27.68" width="8.14" height="0.06" transform="translate(-13.37 26.84) rotate(-50.12)"/><rect class="cls-9" x="17.99" y="27.72" width="8.14" height="0.06" transform="translate(-13.38 26.88) rotate(-50.12)"/><rect class="cls-30" x="18.04" y="27.76" width="8.14" height="0.06" transform="translate(-13.39 26.93) rotate(-50.12)"/><rect class="cls-11" x="18.08" y="27.8" width="8.14" height="0.06" transform="translate(-13.4 26.98) rotate(-50.12)"/><rect class="cls-12" x="18.13" y="27.83" width="8.14" height="0.06" transform="translate(-13.42 27.03) rotate(-50.12)"/><rect class="cls-13" x="18.18" y="27.87" width="8.14" height="0.06" transform="translate(-13.43 27.08) rotate(-50.12)"/><rect class="cls-31" x="18.22" y="27.91" width="8.14" height="0.06" transform="translate(-13.44 27.13) rotate(-50.12)"/><rect class="cls-32" x="18.27" y="27.95" width="8.14" height="0.06" transform="translate(-13.46 27.18) rotate(-50.12)"/><rect class="cls-33" x="18.31" y="27.99" width="8.14" height="0.06" transform="translate(-13.47 27.23) rotate(-50.12)"/><rect class="cls-16" x="18.36" y="28.03" width="8.14" height="0.06" transform="translate(-13.48 27.28) rotate(-50.12)"/><rect class="cls-17" x="18.41" y="28.07" width="8.14" height="0.06" transform="translate(-13.5 27.33) rotate(-50.12)"/><rect class="cls-34" x="18.45" y="28.1" width="8.14" height="0.06" transform="translate(-13.51 27.38) rotate(-50.12)"/><rect class="cls-19" x="18.5" y="28.14" width="8.14" height="0.06" transform="translate(-13.52 27.42) rotate(-50.12)"/><rect class="cls-20" x="18.55" y="28.18" width="8.14" height="0.06" transform="translate(-13.53 27.47) rotate(-50.12)"/><rect class="cls-35" x="18.59" y="28.22" width="8.14" height="0.06" transform="translate(-13.55 27.52) rotate(-50.12)"/><rect class="cls-36" x="18.64" y="28.26" width="8.14" height="0.06" transform="translate(-13.56 27.57) rotate(-50.12)"/><rect class="cls-37" x="18.68" y="28.3" width="8.14" height="0.06" transform="translate(-13.57 27.62) rotate(-50.12)"/><rect class="cls-24" x="18.73" y="28.34" width="8.14" height="0.06" transform="translate(-13.59 27.67) rotate(-50.12)"/><rect class="cls-25" x="18.78" y="28.37" width="8.14" height="0.06" transform="translate(-13.6 27.72) rotate(-50.12)"/><rect class="cls-26" x="18.82" y="28.41" width="8.14" height="0.06" transform="translate(-13.61 27.77) rotate(-50.12)"/><rect class="cls-27" x="18.87" y="28.45" width="8.14" height="0.06" transform="translate(-13.63 27.82) rotate(-50.12)"/><rect class="cls-38" x="18.91" y="28.49" width="8.14" height="0.06" transform="translate(-13.64 27.87) rotate(-50.12)"/><rect class="cls-39" x="18.96" y="28.53" width="8.14" height="0.06" transform="translate(-13.65 27.92) rotate(-50.12)"/><rect class="cls-40" x="19.01" y="28.57" width="8.14" height="0.06" transform="translate(-13.66 27.97) rotate(-50.12)"/><rect class="cls-41" x="19.05" y="28.6" width="8.14" height="0.06" transform="translate(-13.68 28.01) rotate(-50.12)"/><rect class="cls-42" x="19.1" y="28.64" width="8.14" height="0.06" transform="translate(-13.69 28.06) rotate(-50.12)"/><rect class="cls-43" x="19.14" y="28.68" width="8.14" height="0.06" transform="translate(-13.7 28.11) rotate(-50.12)"/><rect class="cls-44" x="19.19" y="28.72" width="8.14" height="0.06" transform="translate(-13.72 28.16) rotate(-50.12)"/><rect class="cls-45" x="19.24" y="28.76" width="8.14" height="0.06" transform="translate(-13.73 28.21) rotate(-50.12)"/><rect class="cls-46" x="19.28" y="28.8" width="8.14" height="0.06" transform="translate(-13.74 28.26) rotate(-50.12)"/><rect class="cls-47" x="19.33" y="28.84" width="8.14" height="0.06" transform="translate(-13.76 28.31) rotate(-50.12)"/><rect class="cls-48" x="19.37" y="28.87" width="8.14" height="0.06" transform="translate(-13.77 28.36) rotate(-50.12)"/><rect class="cls-49" x="19.42" y="28.91" width="8.14" height="0.06" transform="translate(-13.78 28.41) rotate(-50.12)"/><rect class="cls-50" x="19.47" y="28.95" width="8.14" height="0.06" transform="translate(-13.79 28.46) rotate(-50.12)"/><rect class="cls-51" x="19.51" y="28.99" width="8.14" height="0.06" transform="translate(-13.81 28.51) rotate(-50.12)"/><rect class="cls-52" x="19.56" y="29.03" width="8.14" height="0.06" transform="translate(-13.82 28.56) rotate(-50.12)"/><rect class="cls-53" x="19.6" y="29.07" width="8.14" height="0.06" transform="translate(-13.83 28.6) rotate(-50.12)"/><rect class="cls-54" x="19.65" y="29.1" width="8.14" height="0.06" transform="translate(-13.85 28.65) rotate(-50.12)"/><rect class="cls-55" x="19.7" y="29.14" width="8.14" height="0.06" transform="translate(-13.86 28.7) rotate(-50.12)"/><rect class="cls-56" x="19.74" y="29.18" width="8.14" height="0.06" transform="translate(-13.87 28.75) rotate(-50.12)"/><rect class="cls-57" x="19.79" y="29.22" width="8.14" height="0.06" transform="translate(-13.89 28.8) rotate(-50.12)"/><rect class="cls-58" x="19.83" y="29.26" width="8.14" height="0.06" transform="translate(-13.9 28.85) rotate(-50.12)"/><rect class="cls-59" x="19.88" y="29.3" width="8.14" height="0.06" transform="translate(-13.91 28.9) rotate(-50.12)"/><rect class="cls-60" x="19.93" y="29.34" width="8.14" height="0.06" transform="translate(-13.92 28.95) rotate(-50.12)"/><rect class="cls-61" x="19.97" y="29.37" width="8.14" height="0.06" transform="translate(-13.94 29) rotate(-50.12)"/><rect class="cls-62" x="20.02" y="29.41" width="8.14" height="0.06" transform="translate(-13.95 29.05) rotate(-50.12)"/><rect class="cls-63" x="20.06" y="29.45" width="8.14" height="0.06" transform="translate(-13.96 29.1) rotate(-50.12)"/><polygon class="cls-63" points="26.77 26.38 27.18 26.73 27.18 30.13 23.89 34.07 23.28 34.07 21.55 32.62 26.77 26.38"/><polygon class="cls-63" points="27.18 31.55 25.07 34.07 23.89 34.07 27.18 30.13 27.18 31.55"/><polygon class="cls-63" points="25.07 34.07 27.18 31.55 27.18 34.07 25.07 34.07"/></g><path class="cls-3" d="M22.88,33.61a5.11,5.11,0,0,0,8.31-.79q1.23-2.12,2.48-4.23l2.85-4.88Q37.9,21.37,39.27,19c.06-.09.15-.17.14-.3l-.08,0H33.75c-.16,0-.22.08-.29.19l-3.2,5.47c-.94,1.61-1.87,3.22-2.82,4.83a7.92,7.92,0,0,1-.72,1.18c-.48.83-.94,1.67-1.44,2.49a1.68,1.68,0,0,1-2.41.61l-.14-.06a.61.61,0,0,0,.07.1A.76.76,0,0,0,22.88,33.61Z"/><path class="cls-66" d="M21.82,17.09l4.57,7.67a.54.54,0,0,0,.93,0h0l2.25-3.83a.52.52,0,0,0,0-.54h0l-3.65-6.16a1,1,0,0,0-.11-.19h0l0-.07-.08-.1a5.1,5.1,0,0,0-8.31.78l-2.49,4.24C13.92,20.48,13,22.11,12,23.73s-1.83,3.13-2.75,4.69a.56.56,0,0,0-.14.31l.09,0H14.8c.15,0,.21-.08.28-.19l3.2-5.47c.95-1.61,1.88-3.23,2.83-4.83A6.72,6.72,0,0,1,21.82,17.09Z"/><path class="cls-3" d="M24.46,4.27a20.2,20.2,0,1,0,20.2,20.19A20.22,20.22,0,0,0,24.46,4.27Zm0,44.66A24.47,24.47,0,1,1,48.93,24.46,24.49,24.49,0,0,1,24.46,48.93Z"/><path class="cls-3" d="M22.88,33.61a5.11,5.11,0,0,0,8.31-.79q1.23-2.12,2.48-4.23l2.85-4.88Q37.9,21.37,39.27,19c.06-.09.15-.17.14-.3l-.08,0H33.75c-.16,0-.22.08-.29.19l-3.2,5.47c-.94,1.61-1.87,3.22-2.82,4.83a7.82,7.82,0,0,1-.72,1.17l-4.57-7.67a.53.53,0,0,0-.46-.26h0a.55.55,0,0,0-.47.27h0L19,26.51a.54.54,0,0,0,0,.55h0l3.65,6.15.11.19h0v0h0l.05.07A.76.76,0,0,0,22.88,33.61Z"/></g></g></g></svg>